<svg width="122" height="54" viewBox="0 0 122 54" fill="none" xmlns="http://www.w3.org/2000/svg">
<g clip-path="url(#clip0_114_448)">
<path d="M18.8278 46.5298C21.966 44.7156 21.5473 42.3239 21.6657 42.0727C21.7426 41.9113 23.5357 41.7208 24.633 40.1493C25.651 38.6919 25.5216 37.0938 25.6009 36.9433C25.8219 36.5198 30.2893 35.964 29.148 28.9913C29.2994 28.6637 33.0332 29.3918 32.3082 26.426C32.2471 26.176 31.2084 24.3837 31.2755 24.1811C31.317 24.0573 32.7525 23.7018 32.6304 22.1606C33.8181 24.3036 34.1269 27.1541 34.05 29.5677C33.7766 38.1276 27.2854 45.1986 18.8278 46.5286V46.5298Z" fill="#CDC8C9"/>
<path d="M15.0866 46.2738C7.59942 45.2654 1.21931 38.0463 0.573608 30.6587C0.330707 27.8774 0.766464 25.0536 1.66971 22.4179C1.73807 23.6459 2.98553 24.0051 3.02459 24.1811C3.15641 24.7769 1.70145 26.2501 1.7991 27.2597C1.99317 29.2619 5.06056 28.6091 5.21802 28.927C4.47101 36.1764 9.31193 36.5598 9.54018 37.0064C9.57436 37.0731 9.60732 38.0366 9.73426 38.4808C10.5301 41.273 12.7894 41.8021 12.8944 42.1358C12.9579 42.3348 12.7589 43.4002 13.6036 44.7654C13.8453 45.1549 14.7082 46.0614 15.0866 46.2725V46.2738Z" fill="#CDC8C9"/>
<path d="M12.8932 18.1222C12.9628 18.1537 13.263 18.3017 13.2801 18.3151C13.451 18.4401 13.6133 18.7143 13.7317 18.8927C13.4864 18.8454 13.678 19.508 13.5377 20.0795C13.3582 20.8137 12.3512 21.816 11.6347 22.0356C11.0867 22.2031 10.4068 22.0866 10.441 22.2917C10.1969 22.0089 8.42698 20.9192 9.69885 20.6244C10.3177 20.4812 12.8663 21.0466 12.6332 18.0591C12.6991 18.0797 12.8419 18.1003 12.8907 18.1234L12.8932 18.1222Z" fill="#70226B"/>
<path d="M13.7317 18.8915C14.1321 19.4922 13.9954 19.4643 14.1834 19.9812C13.877 20.0771 14.1699 19.2337 13.7964 19.6924C14.1394 21.6534 12.7626 22.9761 10.7645 22.7382C10.7535 22.7128 10.4874 22.3414 10.4422 22.2893C10.4068 22.0842 11.0879 22.2007 11.636 22.0332C12.3512 21.8136 13.3595 20.8124 13.5389 20.0771C13.6793 19.5055 13.4864 18.843 13.733 18.8903L13.7317 18.8915Z" fill="#70226B"/>
<path d="M19.4088 38.2575C19.3905 38.2417 19.4625 38.0063 19.1512 38.1289C19.338 37.5731 19.3087 37.1059 19.2159 36.5258C19.1232 35.9494 18.8351 35.8026 18.9584 35.5635C20.063 36.595 22.0612 36.3414 22.8936 35.0502C24.0373 37.3874 21.7585 40.3981 19.41 38.2563L19.4088 38.2575Z" fill="#491139"/>
<path d="M19.731 40.1177C19.7261 40.1068 19.5174 40.068 19.5369 39.9576C19.5504 39.8835 19.7811 39.8399 19.7945 39.7646C19.8091 39.687 19.2147 38.8557 19.4076 38.2575C21.756 40.3993 24.0349 37.3886 22.8912 35.0514C23.0035 34.8767 23.1634 34.486 23.2134 34.2821C24.4267 34.6377 24.827 32.3539 24.6964 31.5251L24.954 30.9802C24.7428 28.9852 25.8707 31.479 24.9857 33.8343C26.5786 33.5649 27.0107 31.6379 26.9533 30.2752C26.9363 29.8638 26.614 29.2583 26.824 29.217C28.7 31.536 27.1914 35.9385 23.5344 35.1485C24.5549 37.192 23.4319 40.7233 20.7283 40.4393C20.273 40.392 19.8616 40.0279 19.7286 40.119L19.731 40.1177Z" fill="#70226B"/>
<path d="M26.1807 28.6394C26.4627 28.671 26.6714 29.0265 26.8252 29.217C26.6152 29.2583 26.9362 29.8638 26.9546 30.2752C27.0119 31.6379 26.5798 33.5649 24.9869 33.8343C25.8719 31.479 24.744 28.9865 24.9552 30.9802L24.6977 31.5251C24.495 30.24 22.9339 29.2425 21.6339 29.5374L22.1173 30.3067C21.9281 30.1041 21.6876 29.9609 21.4728 29.7934C21.435 29.7643 21.3764 29.3784 20.7636 29.2158C21.2702 28.529 21.7597 28.5071 22.1185 28.1261C22.315 27.9174 22.2784 27.9125 22.3761 27.6771C23.7016 29.9536 25.8389 28.6006 26.1819 28.6394H26.1807Z" fill="#541750"/>
<path d="M24.6977 31.5251C24.8283 32.3539 24.4279 34.6377 23.2146 34.2821C23.6113 32.6779 23.2097 31.4753 22.1185 30.3067L21.6352 29.5374C22.9351 29.2425 24.4963 30.2412 24.6989 31.5251H24.6977Z" fill="#541750"/>
<path d="M23.4075 21.7772V22.7395C23.3562 22.7649 22.7081 23.2855 22.5042 23.4445C20.6929 20.8634 16.6697 23.578 18.2468 26.5862C18.4945 27.0595 18.702 27.3082 19.15 27.6128C20.7868 28.7256 21.8134 27.6589 21.9562 27.7414C22.066 27.8033 21.7365 28.0193 22.1173 28.1261C21.7584 28.5071 21.2702 28.529 20.7624 29.2158C19.0255 28.7559 18.4494 30.1951 18.1174 30.6902C17.8354 31.1125 17.8952 30.655 17.7951 30.4341C17.5937 29.9864 17.3838 29.6223 17.0213 29.2801C16.793 29.0653 16.2889 28.6916 15.9886 28.6394C17.4338 27.6747 17.8806 26.1639 16.8919 24.664C15.9471 23.2309 14.1528 22.9652 13.086 24.408C12.4074 23.891 11.8947 23.5865 10.9903 23.6386C10.7693 23.1484 11.6616 23.7928 12.9249 22.9979C13.6915 22.5162 13.877 21.9228 14.1187 21.1389C14.3005 21.0964 14.2615 21.6546 14.635 22.197C15.5944 23.5901 18.3908 24.0937 19.6016 21.2347C19.6895 21.026 19.5711 20.7117 19.7957 20.5612C20.2156 21.6679 21.3251 22.1546 22.4725 22.0356C22.5213 22.0308 23.3648 21.8002 23.4075 21.7796V21.7772Z" fill="#190D22"/>
<path d="M14.635 28.7037C13.949 28.8809 13.3326 29.8468 13.119 30.4997C12.5599 29.5338 12.1779 29.0823 11.0232 29.0884C11.0439 28.802 11.5712 29.1115 12.2169 28.7037C12.5782 28.4756 12.9322 27.8179 12.9908 27.8058C13.119 27.7791 13.4424 28.2475 13.5718 28.3191C14.1443 28.637 14.5886 28.5096 14.6362 28.7037H14.635Z" fill="#190D22"/>
<path d="M15.8605 34.0904C15.4149 35.1097 14.9377 33.8343 13.2154 34.219C13.1764 34.1316 13.5975 33.3684 13.6341 33.1924C14.1235 33.9096 15.0378 34.1001 15.8592 34.0904H15.8605Z" fill="#190D22"/>
<path d="M17.8598 32.5505C17.8598 32.5723 17.8598 32.5929 17.8598 32.6148C17.8549 32.7835 17.8537 32.8963 17.8598 33.0638C17.8867 33.861 18.0954 34.2141 17.9563 34.2178C17.457 33.7894 16.8675 33.9605 16.3109 33.9617C17.0762 33.5249 17.3386 33.2397 17.8586 32.5505H17.8598Z" fill="#190D22"/>
<path d="M18.9572 35.5648C18.8351 35.8026 19.1232 35.9506 19.2147 36.527C18.9804 36.8583 19.0634 37.4469 18.6984 38.0342C17.8501 39.4006 15.6628 39.0863 15.0219 37.6811C17.6292 38.1677 18.6374 35.4834 16.5697 34.0904C16.8687 34.0588 17.4961 34.4447 17.8269 34.6037C18.0307 34.7008 18.1967 34.5952 18.2138 34.6037C18.3579 34.6801 18.4372 35.0818 18.956 35.566L18.9572 35.5648Z" fill="#70226B"/>
<path d="M16.5709 34.0905C18.6386 35.4836 17.6304 38.1678 15.0232 37.6812C14.5337 37.5429 14.8413 36.7044 14.8291 36.2384C15.1477 36.0491 14.9292 36.2469 15.2807 36.5915C15.299 36.6097 15.2246 36.873 15.4101 36.7517C15.2856 36.0685 16.5025 35.2069 16.5062 34.8599C16.5099 34.5541 16.2096 34.8866 16.2486 34.315C16.3158 34.0432 16.3548 34.1136 16.5709 34.0905Z" fill="#70226B"/>
<path d="M16.5062 34.8597C16.5025 35.2068 15.2844 36.0684 15.4101 36.7515C15.2246 36.8729 15.299 36.6096 15.2807 36.5914C15.1696 35.8536 15.6811 34.8415 16.5062 34.8597Z" fill="#FDFDFC"/>
<path d="M23.6016 21.5854L23.6663 22.612C23.6528 22.6169 23.4588 22.7152 23.4087 22.7407V21.7784C23.4209 21.7723 23.3342 21.7553 23.6028 21.5854H23.6016Z" fill="#FDFDFC"/>
<path d="M16.4415 39.4758C15.9838 39.579 16.1998 39.7319 16.5379 39.7962C17.2874 39.9382 20.384 38.8436 19.6663 43.0022C18.7631 43.4293 18.3969 44.9947 17.1824 44.8613C16.4097 44.7763 15.2868 43.4512 15.4089 42.6806C15.498 42.1176 15.9362 41.5715 16.4415 41.3021C15.4931 40.6165 15.0781 41.8385 15.3454 42.6806C14.8852 42.5229 15.5248 41.5836 14.7973 41.5909C14.1699 41.6722 14.6863 43.2558 14.7009 43.6429C14.3298 42.7462 14.2493 41.432 14.7656 40.5643C14.768 40.5607 14.779 40.574 14.8303 40.5C15.0219 40.2209 15.7274 39.7889 16.0558 39.2817C16.14 39.3253 16.422 39.4685 16.4427 39.4746L16.4415 39.4758Z" fill="#70226B"/>
<path d="M15.3454 42.683H15.4101C15.288 43.4536 16.411 44.7787 17.1836 44.8637C18.3981 44.996 18.7643 43.4318 19.6675 43.0046C19.6651 43.0192 19.7859 43.0762 19.7322 43.2934C19.6773 43.5131 19.1854 44.0531 19.3453 44.1586C17.9794 46.0141 15.5419 45.6767 14.7009 43.6453C14.6863 43.2582 14.1699 41.6746 14.7973 41.5933C15.5248 41.5873 14.8852 42.5253 15.3454 42.683Z" fill="#70226B"/>
<path d="M19.4088 38.2575C19.2159 38.8557 19.8104 39.687 19.7957 39.7646C19.7811 39.8386 19.5516 39.8823 19.5382 39.9576C19.5174 40.068 19.7261 40.1068 19.7322 40.1177C20.3194 41.4259 20.1949 43.0022 19.3453 44.1574C19.1854 44.0519 19.6773 43.5119 19.7322 43.2922C19.7859 43.075 19.6651 43.018 19.6676 43.0034C20.3853 38.8448 17.2886 39.9394 16.5391 39.7974C16.1998 39.7331 15.9838 39.5802 16.4427 39.477C17.3899 39.6991 18.8339 39.0802 19.1512 38.1301C19.4625 38.0075 19.3917 38.2417 19.4088 38.2587V38.2575Z" fill="#541750"/>
<path d="M14.8291 40.5024C14.779 40.5764 14.7668 40.5631 14.7644 40.5667L14.6997 40.5024C14.7058 40.5024 14.7558 40.3301 14.8291 40.5024Z" fill="#EDB9EA"/>
<path d="M15.4089 42.683H15.3442C15.0769 41.8409 15.4931 40.6189 16.4403 41.3045C15.9362 41.5739 15.4967 42.12 15.4076 42.683H15.4089Z" fill="#FDFDFC"/>
<path d="M6.95982 24.4068C6.90001 24.5318 6.81212 24.6652 6.76574 24.7914C5.89545 23.6289 8.12794 21.5527 9.28141 22.515C9.25944 22.6691 7.85818 22.5101 6.95982 24.4068Z" fill="#EAD7E6"/>
<path d="M12.6357 18.0578C12.8676 21.0454 10.3202 20.4787 9.70131 20.6231C8.42944 20.918 10.1993 22.0077 10.4434 22.2905C10.4886 22.3426 10.7547 22.714 10.7657 22.7395C10.9585 23.1654 11.0879 23.8377 10.5399 23.7017C10.4178 23.6156 10.8609 22.68 9.50724 21.9058C9.36076 21.9835 9.83436 22.5501 9.79774 23.0926C9.71962 24.2345 7.90824 24.9832 6.95983 24.4068C7.85942 22.5101 9.26067 22.6691 9.28142 22.515C8.12795 21.5527 5.89546 23.6289 6.76575 24.7915C6.53384 25.4322 6.73646 25.8363 6.44351 25.721C6.21038 25.5183 6.36295 23.8377 6.44351 23.4445C7.25278 21.7262 8.98482 21.9373 9.08857 21.8087C9.15936 21.7213 8.72971 20.6765 9.02388 19.5965C9.44743 18.0433 11.3064 17.6501 12.6357 18.0578Z" fill="#923E82"/>
<path d="M10.8621 18.3794C12.4855 18.093 10.9195 18.6658 10.6046 18.8927C10.098 19.2555 9.65005 20.1329 9.57193 20.111C9.16181 19.4861 10.3226 18.4753 10.8621 18.3794Z" fill="#EAD7E6"/>
<path d="M19.7957 20.5588C19.5724 20.7093 19.6908 21.0236 19.6016 21.2323C18.3896 24.0901 15.5944 23.5877 14.635 22.1946C14.2615 21.6522 14.3006 21.094 14.1187 21.1364C14.1736 20.9568 14.2944 20.8598 14.4092 20.9435C14.519 21.0248 14.9865 22.2443 16.7308 22.0975C19.1842 21.8912 19.255 18.6173 19.4393 20.6862L19.7945 20.3974C19.2904 19.7543 20.013 20.4884 20.4719 20.5576C21.4802 20.7105 22.9302 20.054 23.2781 19.0505C23.8127 17.5081 22.5042 17.2497 24.0849 17.03C25.4203 18.6185 23.6138 21.5417 21.3764 21.327C20.8076 21.2724 19.8738 20.5054 19.7957 20.5576V20.5588Z" fill="#70226B"/>
<path d="M14.1834 19.9824C14.4092 19.3672 14.8901 18.6767 15.5383 18.4437C18.4958 17.3759 19.8763 20.7542 14.668 20.8804C14.2847 20.7263 14.3054 20.3173 14.1846 19.9824H14.1834Z" fill="#923E82"/>
<path d="M16.151 18.6355C17.6609 18.4146 15.6591 18.9413 14.9902 20.1742C14.4409 19.5965 15.6151 18.7131 16.151 18.6355Z" fill="#F9EDF4"/>
<path d="M32.6316 22.1618C32.7537 23.703 31.3182 24.0585 31.2767 24.1823C31.2096 24.3837 32.2483 26.1773 32.3094 26.4272C33.0344 29.393 29.3006 28.6649 29.1492 28.9925C30.2905 35.9652 25.8231 36.521 25.6021 36.9445C25.524 37.095 25.6522 38.6931 24.6342 40.1505C23.5369 41.722 21.7438 41.9125 21.6669 42.0739C21.5485 42.3251 21.9672 44.7169 18.829 46.531C17.5205 46.7373 16.3805 46.9921 15.0878 46.275C14.7082 46.065 13.8453 45.1573 13.6048 44.7678C12.7601 43.4039 12.9579 42.3372 12.8956 42.1382C12.7894 41.8045 10.5301 41.2754 9.73548 38.4832C9.60853 38.0391 9.57558 37.0743 9.5414 37.0088C9.31437 36.561 4.47222 36.1788 5.21923 28.9294C5.06177 28.6115 1.99439 29.2643 1.80031 27.2621C1.70266 26.2537 3.15763 24.7793 3.0258 24.1835C2.98674 24.0075 1.73928 23.6484 1.67093 22.4203C2.52902 19.9193 3.84117 17.7108 5.73433 15.8469C3.88267 14.131 2.97698 7.88885 4.60527 7.47869C5.45481 7.26391 6.06999 7.97622 6.153 7.99199C6.2836 8.01626 6.6095 7.82332 6.86217 7.86336C7.0416 7.89249 7.45782 8.1364 7.70072 8.18373C7.77274 8.19829 7.88504 7.82817 9.0556 8.50408C9.16912 7.91918 9.37296 7.38404 9.60365 6.83676C11.4114 5.0226 14.7571 9.68966 14.7961 11.3897C14.9096 11.4808 15.9252 10.169 17.2154 10.5561C16.7015 12.0717 15.2758 13.9999 13.4425 13.3774C12.9567 14.8676 15.5053 14.5946 16.7003 12.9612C16.5233 14.4526 16.7625 17.0361 15.797 18.1877C15.6762 18.3321 15.5822 18.3321 15.5395 18.4437C14.8925 18.6779 14.4116 19.3672 14.1846 19.9824C13.9966 19.4643 14.1333 19.4934 13.733 18.8927C13.6146 18.7143 13.4522 18.4413 13.2813 18.3151C13.8343 17.5008 14.8352 19.1463 15.0878 17.962C13.1898 17.8625 14.2529 17.5906 13.9917 16.4876C13.9124 16.1515 13.2069 15.3057 12.8956 15.1734C13.3411 14.4162 12.4867 14.0752 12.5087 13.9866C12.5514 13.8143 14.4104 13.341 13.8953 11.0694C13.8294 11.1495 13.7549 11.2041 13.6695 11.2623C12.4904 12.062 14.1748 10.7818 12.9274 9.21033C12.0668 9.41056 12.8541 8.89483 12.0888 8.05631C11.9497 8.03083 11.9997 8.18251 11.9924 8.18494C11.5578 8.33056 11.9204 8.16552 11.6701 7.83182C10.2225 5.91087 9.41202 9.72242 10.5093 11.6155C9.92345 12.0487 9.62196 10.4396 9.41324 10.3328C9.19231 10.2212 8.95429 10.4966 8.92988 10.493C8.83589 10.4784 8.78951 10.0161 8.31713 9.53069C7.05258 8.23105 7.52496 9.79887 7.44684 9.85105C6.22867 7.90826 6.19083 9.17029 6.09197 9.21033C5.98699 9.2528 4.62968 7.32094 4.64066 8.82566C4.64188 9.03438 4.83352 9.40328 4.83474 9.43483C4.84573 9.81222 4.6724 9.50157 4.64066 9.85105C4.58818 10.4323 5.6855 11.3048 5.0276 11.2296C4.95192 11.8594 5.55002 12.3775 6.1237 12.5122C5.86249 12.977 5.15942 12.1142 5.34984 13.1214C5.64156 14.6637 8.48313 14.9671 6.54359 14.7887C6.34097 14.9368 6.51552 14.9938 6.57533 15.1091C6.95005 15.8311 8.02419 15.4501 8.05836 15.5253C7.99489 15.9706 7.25398 16.0301 7.05869 16.1988C6.13835 16.9924 8.34765 17.7411 9.76721 16.9038C10.8389 16.2716 10.8291 14.688 12.5087 15.3008C13.6048 15.7013 14.2713 17.4462 12.8956 18.1222C12.8468 18.1003 12.704 18.0785 12.6381 18.0578C11.3088 17.6501 9.44863 18.0445 9.0263 19.5965C8.89448 19.5662 8.8957 19.4266 8.83223 19.3405C8.51243 18.9012 8.07911 18.5129 7.54205 18.3782C6.4435 18.1027 7.29182 18.9922 7.12338 19.0832C6.10295 18.3964 4.52227 18.2763 5.28514 19.3077C5.18505 19.4788 5.00074 19.2689 4.83352 19.2762C3.68615 19.3223 4.21956 20.1584 4.60771 20.3028C4.97023 20.4363 5.10938 20.2737 5.54269 20.4957C4.637 20.5552 2.13964 21.0794 3.60803 22.2589C3.58972 22.3208 2.61934 22.015 2.70478 22.8038C3.34926 23.6435 4.62358 23.7746 5.60739 23.6059C4.54546 24.4602 2.66206 24.8242 3.80089 25.4018C2.56563 25.8933 3.22842 26.0183 3.21988 26.1069C3.21255 26.1797 2.29222 26.6056 2.70356 27.2937C3.25406 28.1625 5.29735 27.7159 6.12248 27.165C6.26285 27.0716 6.37637 26.9466 6.50941 26.8447C6.87926 27.4648 7.71171 28.1455 8.44407 28.2875C5.16919 30.7011 7.37116 35.9931 11.4431 35.117L11.5395 35.2128C10.784 36.0708 11.0916 38.3776 11.7971 39.1567C12.3366 40.2185 13.5755 40.6662 14.6997 40.5036L14.7644 40.5679C14.2493 41.4344 14.3286 42.7498 14.6997 43.6466C15.5395 45.6779 17.9782 46.0153 19.3441 44.1599C20.1936 43.0046 20.3181 41.4283 19.731 40.1202C19.8641 40.0292 20.2754 40.3932 20.7307 40.4405C23.4343 40.7245 24.5573 37.1945 23.5369 35.1497C27.1938 35.9397 28.7025 31.536 26.8264 29.2182C26.6726 29.0277 26.4627 28.6734 26.1819 28.6406C26.7007 28.0157 27.322 27.4745 27.5368 26.6529C27.6808 26.8968 27.8688 27.3094 28.0849 27.4866C28.7257 28.0096 30.5175 27.8397 31.3097 27.6152C31.6417 27.2136 31.5502 27.0109 31.3414 26.6529C31.1486 26.3217 30.9533 26.2646 30.9545 26.2367C30.9569 26.1675 31.6625 25.9722 30.3735 25.3387C31.5416 24.7162 29.2737 24.3813 29.2444 23.4469C30.7128 24.0039 32.9917 22.1946 30.7604 22.1327C31.3353 21.6667 31.0863 21.0612 30.5346 20.6899C29.5581 20.0334 27.4684 20.3137 29.7607 19.8562C30.487 18.542 28.7049 19.0432 28.6 19.0226C28.3998 18.9825 28.9161 18.3685 28.2777 17.9959C27.6528 17.9292 27.145 18.3794 26.8581 18.8939C27.1779 17.1465 25.4264 17.7205 24.8905 19.599C25.4483 16.4536 22.5555 15.5386 21.02 16.1357C20.937 14.7098 22.1246 13.2646 23.5674 14.2123C23.6992 14.2985 24.1569 14.8457 24.2119 14.853C24.2375 14.8567 24.4853 14.6649 24.5024 14.6601C24.9601 14.5266 24.7782 14.8142 25.2445 15.0448C26.1172 15.478 27.6357 15.6843 28.3082 14.8203C28.3961 14.5909 28.3204 14.6698 27.9213 14.5315C27.8102 14.239 28.8172 14.3713 28.9539 13.6019C28.2008 13.432 28.8416 13.3119 29.148 12.8641C29.5801 12.2295 29.0174 12.653 29.0833 12.255C29.0967 12.1712 29.9182 11.4468 29.7607 10.7478C28.4596 10.6968 28.2789 11.812 28.0836 10.8121C26.9326 11.2089 26.9778 12.4588 26.8899 11.1653C25.9525 10.976 25.6729 12.2707 25.568 12.2877C25.5167 12.2962 25.0773 11.8035 24.633 12.3193C24.3083 12.6967 24.2961 13.8422 24.3754 14.3397C24.1606 14.6055 23.7371 13.7961 23.1817 13.6347C21.9879 13.2864 20.8772 14.4526 20.666 15.5581C18.3981 15.1091 19.045 13.9963 19.0206 13.8592C18.9901 13.682 17.6084 12.7804 18.7631 11.6142L18.4079 11.3897C17.3862 12.7185 18.4909 13.5558 18.569 13.8592C18.7497 14.5642 17.8379 15.3627 17.3435 14.597C17.3765 14.1638 17.3203 13.716 17.4082 13.2828C17.5571 12.545 18.7728 9.89473 19.6663 9.5319C19.6236 9.79038 19.4124 10.2915 19.4088 10.334C19.3172 11.2878 20.2156 12.3642 20.9565 11.3279C21.0774 11.3315 20.9931 11.4929 21.0212 11.5839C21.5558 13.3556 21.9989 12.5826 22.2784 12.6105C22.3443 12.6166 22.7264 13.2609 23.4392 13.1238C24.0605 13.0049 24.1789 11.9674 23.5357 11.7768C23.5393 11.7526 23.5296 11.7271 23.5357 11.7125C23.9433 11.7756 24.2387 11.5645 24.5683 11.3922C25.1786 11.073 25.7303 10.6058 25.9879 9.94934C25.8597 9.34624 25.2213 9.85712 24.8271 9.56467C25.7132 9.28557 26.7812 8.42763 25.8597 7.89734C27.1267 6.97388 26.4419 6.39262 26.4407 6.29433C26.4395 6.21546 27.0925 5.33204 26.5371 4.8515C25.5863 4.75928 25.4398 6.40719 25.1823 5.17186C24.9455 5.47119 24.7091 5.77051 24.4731 6.06984C24.43 5.74948 24.3868 5.42871 24.3437 5.10755C22.4298 5.15487 23.0425 7.56849 21.6022 8.12184C21.5741 8.13276 21.5107 8.11213 21.4728 8.12184C22.4017 7.38404 22.1698 5.79316 21.9245 6.19847C21.9245 6.18997 21.7963 6.14872 21.7951 6.1026C21.7499 2.45002 19.6614 5.42912 19.5369 6.23123C19.3612 7.36948 19.9812 8.05388 19.9886 8.1546C20.0105 8.48952 19.692 8.3257 19.6016 9.14845C19.1289 9.50117 18.6557 9.85388 18.1821 10.2066C20.0411 4.68525 14.1565 2.19033 12.1511 4.21078C11.8874 4.47654 11.7397 4.72894 11.7959 5.10876C11.3149 4.74229 11.3992 4.60759 11.4089 4.01905C13.6963 1.92579 16.7613 3.20966 18.536 5.3017C19.5247 3.35042 21.3068 1.70615 22.4713 4.53236C23.9751 3.64773 25.1017 4.56148 25.2445 4.53236C25.3434 4.51294 25.9537 3.53366 27.051 4.08337C28.451 4.78476 27.2902 8.68368 26.9546 9.88624C26.9851 10.0391 28.3192 9.6933 28.7281 9.66175C28.9625 9.64354 29.1578 9.79402 29.2444 9.79038C29.2957 9.78795 29.6289 9.4688 30.2124 9.59743C31.8541 9.96026 29.9048 14.9501 28.4388 16.234C29.7034 17.2375 32.5157 20.702 32.6316 22.1655V22.1618Z" fill="#FDFDFC"/>
<path d="M31.3414 26.6517C31.4257 26.7889 31.4696 27.5291 31.245 27.4211C31.4452 26.8786 30.4821 26.7864 30.0195 26.4588C28.3766 25.2975 29.2371 25.124 29.1492 24.1823C29.1443 24.1265 28.8343 23.163 28.794 23.1241C28.5853 22.9239 26.1795 21.7917 25.2469 21.5854C24.6464 21.452 23.8677 21.5697 23.9897 21.2651C24.4719 20.7967 24.7734 20.2676 24.893 19.5977C25.4288 17.7193 27.1804 17.1441 26.8606 18.8927C27.1462 18.3782 27.6552 17.9292 28.2802 17.9947C28.9198 18.3661 28.4022 18.9813 28.6024 19.0213C28.7074 19.042 30.4895 18.5408 29.7632 19.855C27.4709 20.3125 29.5606 20.0322 30.5371 20.6887C31.0888 21.06 31.3378 21.6655 30.7629 22.1315C32.9941 22.1934 30.7153 24.0027 29.2469 23.4457C29.2762 24.3801 31.5441 24.715 30.3759 25.3375C31.6649 25.971 30.9594 26.1651 30.9569 26.2355C30.9569 26.2634 31.151 26.3217 31.3439 26.6517H31.3414Z" fill="#7F961A"/>
<path d="M31.3414 26.6517C31.5489 27.0085 31.6417 27.2111 31.3097 27.614C30.5163 27.8385 28.7257 28.0084 28.0849 27.4854C27.8688 27.3082 27.6808 26.8956 27.5368 26.6517C28.1544 24.2794 26.2539 21.6546 23.6663 22.612L23.6016 21.5854C23.6223 21.5721 23.947 21.3063 23.9885 21.2651C23.8677 21.5697 24.6452 21.4532 25.2457 21.5854C26.1783 21.7917 28.5853 22.9251 28.7928 23.1241C28.8331 23.163 29.1419 24.1265 29.148 24.1823C29.2359 25.124 28.3766 25.2975 30.0183 26.4588C30.4809 26.7864 31.444 26.8786 31.2438 27.4211C31.4684 27.5291 31.4244 26.7889 31.3402 26.6517H31.3414Z" fill="#6C771A"/>
<path d="M9.02387 19.5978C8.72971 20.6778 9.15814 21.7226 9.08857 21.8099C8.98603 21.9373 7.25399 21.7274 6.44351 23.4457C5.93818 24.5184 5.88325 25.7974 6.5082 26.8447C6.37516 26.9478 6.26164 27.0716 6.12127 27.165C6.56313 26.6517 6.0932 26.6093 5.99189 26.0426C5.83687 25.1786 6.0578 24.3449 5.83077 24.4711C5.14234 25.8933 4.14389 26.6845 2.70235 27.2924C2.29101 26.6044 3.21135 26.1785 3.21867 26.1057C3.22721 26.0159 2.56442 25.8909 3.79968 25.4006C2.66085 24.8242 4.54303 24.459 5.60618 23.6047C4.62237 23.7733 3.34805 23.6423 2.70357 22.8026C3.81433 23.2576 5.52195 22.3402 6.63881 21.8403C6.83166 21.7541 8.26099 21.2663 8.12185 21.0382C7.11118 20.3016 8.7236 21.1826 8.76633 21.1025C8.78748 20.5143 8.80905 19.9266 8.83102 19.3393C8.89327 19.4254 8.89205 19.565 9.02509 19.5953L9.02387 19.5978Z" fill="#7F961A"/>
<path d="M6.12128 27.1638C5.29615 27.7147 3.25286 28.1601 2.70236 27.2924C4.1439 26.6845 5.14235 25.8933 5.83078 24.4711C6.05781 24.3449 5.8381 25.1786 5.9919 26.0426C6.09321 26.6093 6.56192 26.6517 6.12128 27.165V27.1638Z" fill="#6C771A"/>
<path d="M7.5396 18.3794C8.07544 18.5141 8.50998 18.9024 8.82978 19.3417C8.80862 19.9298 8.78706 20.5176 8.76509 21.1049C8.72115 21.185 7.10872 20.304 8.12061 21.0406C8.25854 21.2687 6.83043 21.7553 6.63757 21.8427C6.60706 21.5454 5.73432 20.594 5.54147 20.4957C5.10693 20.2749 4.969 20.4375 4.60648 20.3028C4.21833 20.1596 3.68492 19.3223 4.83229 19.2762C4.66751 19.7191 5.2534 19.5541 5.57442 19.6609C5.74775 19.7179 6.11393 19.946 6.28359 19.9812C6.35683 19.997 6.3666 19.7652 7.70316 20.1098C9.1984 19.1391 6.60217 18.5141 7.54204 18.3782L7.5396 18.3794Z" fill="#7F961A"/>
<path d="M6.63758 21.8415C5.52073 22.3402 3.81432 23.2576 2.70235 22.8038C2.61691 22.015 3.58729 22.3208 3.6056 22.2589C2.13721 21.0794 4.63579 20.554 5.54026 20.4957C5.73311 20.594 6.60585 21.5454 6.63636 21.8427L6.63758 21.8415Z" fill="#7F961A"/>
<path d="M7.5396 18.3794C6.60096 18.5141 9.19597 19.1403 7.70072 20.1111C6.36416 19.7664 6.35561 19.9982 6.28116 19.9824C6.11149 19.9472 5.74531 19.7191 5.57199 19.6621C5.25097 19.5553 4.66507 19.7203 4.82986 19.2774C4.99586 19.2701 5.18139 19.4813 5.28148 19.3089C4.5186 18.2775 6.09929 18.3976 7.11971 19.0844C7.28938 18.9922 6.43984 18.1039 7.53838 18.3794H7.5396Z" fill="#7F961A"/>
<path d="M29.148 12.8641C28.4071 12.9648 27.7101 13.2743 26.9875 13.4417C26.8496 13.4733 26.8471 13.0923 26.4395 13.6019C26.415 13.8446 27.5697 14.5205 27.7614 14.5958C27.8395 14.6261 27.8737 14.5145 27.9225 14.5315C28.3216 14.6698 28.3973 14.5897 28.3094 14.8203C27.6369 15.6843 26.1184 15.478 25.2457 15.0448C24.7794 14.813 24.9613 14.5266 24.5036 14.6601C24.318 14.6055 24.3937 14.4611 24.3742 14.3397C24.2949 13.8422 24.3071 12.6979 24.6317 12.3193C25.076 11.8035 25.5155 12.295 25.5667 12.2877C25.6717 12.2707 25.9512 10.9759 26.8886 11.1653C26.9765 12.4588 26.9301 11.2102 28.0824 10.8121C28.2777 11.812 28.4583 10.6981 29.7595 10.7478C29.917 11.4468 29.0955 12.1712 29.0821 12.255C29.0162 12.653 29.5789 12.2295 29.1468 12.8641H29.148Z" fill="#6C771A"/>
<path d="M29.148 12.8641C28.8428 13.3119 28.2008 13.432 28.9539 13.6019C28.8172 14.3713 27.8102 14.239 27.9213 14.5315C27.8725 14.5145 27.8383 14.6261 27.7602 14.5958C27.5685 14.5205 26.4138 13.8446 26.4382 13.6019C26.8459 13.0923 26.8484 13.4733 26.9863 13.4418C27.7101 13.2743 28.4059 12.9649 29.1468 12.8641H29.148Z" fill="#6C771A"/>
<path d="M11.9912 8.18251C12.2011 9.00039 11.5408 10.783 12.8615 9.33653C13.39 10.135 12.7028 11.4164 12.3781 12.3181C12.4257 12.551 13.927 11.613 13.6683 11.2599C13.7537 11.2017 13.8282 11.147 13.8941 11.067C14.4092 13.3386 12.5502 13.8119 12.5075 13.9842C12.4855 14.0728 13.3399 14.4137 12.8944 15.171C12.881 15.1649 12.8749 15.2171 12.7003 15.171C10.4141 14.5581 9.10443 17.8649 8.82979 14.6577C8.86519 14.6443 8.93477 14.4732 9.53897 14.3688C9.59634 14.29 9.31926 14.1541 9.21673 14.08L9.4108 13.9199C9.10199 13.0352 9.06171 12.0608 8.82979 11.1628C8.64548 10.4469 8.33057 10.0088 8.31348 9.94449C8.28052 9.82314 8.5222 9.88017 8.31348 9.52826C8.78585 10.0137 8.83224 10.4748 8.92622 10.4906C8.95186 10.4942 9.18987 10.2175 9.40958 10.3304C9.61831 10.4372 9.9198 12.0462 10.5057 11.613C9.40836 9.71999 10.2188 5.90844 11.6665 7.82938C11.9179 8.16188 11.5542 8.32813 11.9887 8.18251H11.9912Z" fill="#6C771A"/>
<path d="M8.31347 9.52948C8.52219 9.88139 8.28051 9.82557 8.31347 9.9457C8.33055 10.01 8.64547 10.4481 8.82978 11.164C9.06048 12.062 9.10076 13.0364 9.41079 13.9211L9.21671 14.0813C8.39525 13.4927 8.68575 13.5849 8.63571 13.5364C7.32844 12.2562 7.37116 11.9261 6.44228 10.7151C6.08342 10.2466 4.93361 8.81595 4.63578 8.82323C4.62479 7.31851 5.98211 9.25038 6.08708 9.20791C6.18595 9.16786 6.22379 7.90584 7.44195 9.84863C7.52007 9.79645 7.0477 8.22862 8.31225 9.52826L8.31347 9.52948Z" fill="#7F961A"/>
<path d="M9.21674 14.0825C9.31927 14.1553 9.59635 14.2924 9.53898 14.3713C8.93478 14.4756 8.8652 14.6467 8.82981 14.6601C8.74803 14.6904 8.44165 14.688 8.34645 14.7244C7.78741 14.9355 6.92566 15.5034 6.57291 15.1091C6.5131 14.9926 6.33733 14.9368 6.54117 14.7887C8.48071 14.9671 5.63914 14.6637 5.34742 13.1214C6.00654 13.4757 6.63272 13.5776 7.37973 13.5061C8.75047 13.375 7.86309 13.3022 7.31503 12.8653C7.1234 12.7124 5.91134 11.5657 5.79904 11.4225C5.29493 10.7781 5.10208 9.75032 4.63824 9.85104C4.66998 9.50156 4.84331 9.81221 4.83232 9.43482C4.83232 9.40327 4.64069 9.03437 4.63824 8.82565C4.93607 8.81837 6.08588 10.2491 6.44474 10.7175C7.37362 11.9297 7.3309 12.2586 8.63817 13.5388C8.68822 13.5886 8.39649 13.4963 9.21918 14.0837L9.21674 14.0825Z" fill="#7F961A"/>
<path d="M8.82978 14.6601C9.10319 17.8673 10.4141 14.5594 12.7003 15.1734L12.5062 15.302C10.8267 14.6892 10.8365 16.2728 9.76476 16.905C8.3452 17.7423 6.1359 16.9936 7.05624 16.2C7.25153 16.0313 7.99244 15.9719 8.05591 15.5265C8.02174 15.4513 6.9476 15.8323 6.57288 15.1103C6.92563 15.5034 7.78738 14.9368 8.34642 14.7256C8.44162 14.6892 8.74922 14.6928 8.82978 14.6613V14.6601Z" fill="#6C771A"/>
<path d="M5.34739 13.1202C5.15697 12.1118 5.86004 12.9758 6.12125 12.511C5.54635 12.3763 4.94947 11.8582 5.02515 11.2284C5.68306 11.3036 4.58573 10.4311 4.63822 9.84984C5.10205 9.74791 5.2949 10.7769 5.79901 11.4213C5.91131 11.5645 7.12337 12.7112 7.31501 12.8641C7.86306 13.301 8.75044 13.375 7.3797 13.5049C6.63269 13.5764 6.00652 13.4745 5.34739 13.1202Z" fill="#7F961A"/>
<path d="M13.6683 11.2611C13.927 11.6142 12.4269 12.5523 12.3781 12.3193C12.704 11.4176 13.39 10.135 12.8614 9.33774C11.5407 10.7842 12.2011 9.00039 11.9911 8.18371C11.9985 8.18129 11.9496 8.0296 12.0876 8.05508C12.8529 8.8936 12.0656 9.40933 12.9261 9.20911C14.1736 10.7806 12.4879 12.0608 13.6683 11.2611Z" fill="#7F961A"/>
<path d="M12.7003 15.1722C12.8737 15.2183 12.8798 15.1661 12.8944 15.1722C13.2069 15.3044 13.9112 16.1515 13.9905 16.4864C14.2529 17.5894 13.1886 17.8613 15.0866 17.9608C14.834 19.1439 13.8331 17.4996 13.2801 18.3139C13.263 18.3005 12.9628 18.1537 12.8932 18.1209C14.2688 17.445 13.6024 15.6988 12.5063 15.2996L12.7003 15.171V15.1722Z" fill="#A2B02D"/>
<path d="M21.9245 6.19482C21.9147 6.40718 21.3373 7.83667 21.0212 8.08665C20.9602 8.41065 21.0114 8.23954 21.4728 8.11819C21.5094 8.10849 21.5741 8.12912 21.6022 8.11819L21.7316 8.21406C20.3303 9.4688 19.0572 12.5474 20.9577 11.3242C20.2168 12.3605 19.3185 11.2842 19.41 10.3304C19.4137 10.2879 19.6248 9.78673 19.6675 9.52826C19.7225 9.19941 19.6004 9.163 19.6029 9.14359C19.6932 8.31963 20.0118 8.48467 19.9898 8.14975C19.9837 8.04903 19.3624 7.36341 19.5382 6.22637C19.6627 5.42548 21.7499 2.44637 21.7963 6.09775C21.7963 6.14507 21.9257 6.18633 21.9257 6.19361L21.9245 6.19482Z" fill="#6C771A"/>
<path d="M21.4728 8.1194C21.0114 8.24075 20.9602 8.41064 21.0212 8.08785C21.3373 7.83787 21.9147 6.40961 21.9245 6.19603C22.1698 5.79073 22.4017 7.38161 21.4728 8.1194Z" fill="#7F961A"/>
<path d="M24.5683 11.3897C24.3937 11.3897 23.5735 11.6167 23.5357 11.7101C23.5296 11.7247 23.5393 11.7501 23.5357 11.7744C23.5088 11.9771 23.7297 12.352 23.7297 12.3836C23.7236 12.5923 23.4429 12.6542 23.6004 12.8969C22.5335 13.3956 21.8915 11.8108 21.02 11.5827C20.9931 11.4917 21.0761 11.3291 20.9553 11.3266C19.0548 12.5498 20.3279 9.47123 21.7292 8.21649L21.5998 8.12062C23.0401 7.56849 22.4274 5.15365 24.3413 5.10633C24.3844 5.42669 24.4275 5.74745 24.4706 6.06862C24.7074 5.7693 24.9438 5.46997 25.1798 5.17064C25.4361 6.40597 25.5838 4.75806 26.5347 4.85028C27.0901 5.33082 26.437 6.21424 26.4383 6.29311C26.4407 6.39141 27.1255 6.97267 25.8573 7.89613C26.7788 8.42521 25.712 9.28435 24.8246 9.56345C25.2201 9.8559 25.8573 9.34503 25.9854 9.94813C25.7291 10.6046 25.1774 11.0718 24.5659 11.391L24.5683 11.3897Z" fill="#7F961A"/>
<path d="M23.5369 11.7744C24.1789 11.9649 24.0605 13.0012 23.4405 13.1214C22.7276 13.2585 22.3456 12.6154 22.2797 12.6081C22.0001 12.5802 21.5571 13.3544 21.0224 11.5815C21.8939 11.8108 22.5348 13.3956 23.6028 12.8957C23.4453 12.653 23.7261 12.5911 23.7322 12.3824C23.7322 12.3508 23.5112 11.9758 23.5381 11.7732L23.5369 11.7744Z" fill="#7F961A"/>
<path d="M24.5683 11.3897C24.2387 11.5621 23.9445 11.7744 23.5356 11.7101C23.5735 11.6167 24.3925 11.3885 24.5683 11.3897Z" fill="#7F961A"/>
<path d="M19.4088 17.8018C19.2928 18.127 19.1952 18.4777 19.2147 18.8284L19.0853 18.8927C18.6752 18.4449 18.2614 18.0032 17.7951 17.6101C17.5925 17.1866 17.2654 16.7861 17.2141 16.2959C17.2068 16.2303 17.3338 15.2426 17.3435 14.9817C17.5864 15.4015 18.1979 15.0872 18.3762 15.2705C18.8852 15.7935 18.0222 16.0168 18.1821 16.4245C19.3746 17.1356 20.0362 15.785 20.1497 15.751C21.0688 15.4804 19.3026 17.2108 19.3758 17.4183C19.233 17.4523 18.8485 16.3371 18.6667 17.0337C18.2712 16.8043 18.9291 17.6089 19.4088 17.803V17.8018Z" fill="#FDFDFC"/>
<path d="M19.6016 9.1448C19.5992 9.16422 19.7213 9.20062 19.6663 9.52948C18.7741 9.89231 17.5571 12.5426 17.4082 13.2804C17.3203 13.7136 17.3765 14.1613 17.3435 14.5946C17.3338 14.7208 17.3484 14.8518 17.3435 14.9792C17.3338 15.2401 17.208 16.2279 17.2141 16.2934C17.2654 16.7837 17.5913 17.1841 17.7951 17.6076C17.8574 17.7387 17.9221 17.8346 17.9892 17.9608C17.8781 18.1282 17.8537 17.9608 17.7317 17.9923C17.4631 17.5652 17.1942 17.1376 16.9248 16.7097C16.7857 17.0057 16.6246 17.7156 16.4415 17.928C16.3243 18.0639 15.9764 18.1573 15.797 18.184C16.7625 17.0324 16.5233 14.4489 16.7003 12.9576C15.5053 14.5909 12.9579 14.8639 13.4425 13.3738C15.277 13.9963 16.7015 12.0681 17.2154 10.5524C18.3542 7.19595 15.88 4.60031 13.4425 4.90975C12.5587 5.02139 12.5331 5.66332 11.7971 5.10269C11.7397 4.72287 11.8874 4.47047 12.1523 4.20471C14.1577 2.18426 20.0423 4.67918 18.1833 10.2005C18.6561 9.84781 19.1293 9.49509 19.6029 9.14238L19.6016 9.1448Z" fill="#6A2531"/>
<path d="M17.7317 17.9947C17.7256 17.9959 17.7524 18.1209 17.6999 18.1234C17.6829 18.1234 17.3948 17.9947 17.3777 17.9947C16.815 17.9972 16.4232 18.0894 16.4427 17.9304C16.627 17.7181 16.7869 17.0082 16.9261 16.7121C17.1946 17.1392 17.4636 17.5668 17.7329 17.9947H17.7317Z" fill="#FDFDFC"/>
<path d="M24.3754 14.3385C24.395 14.4611 24.3181 14.6043 24.5048 14.6589C24.4877 14.6637 24.24 14.8542 24.2143 14.8518C24.1594 14.8445 23.7004 14.2973 23.5698 14.2111C22.1259 13.2634 20.9394 14.7098 21.0224 16.1345C21.0139 16.1381 20.8992 16.2328 20.8931 16.2631C20.2547 16.3929 19.6175 17.2205 19.41 17.8018C18.9303 17.6076 18.2724 16.8031 18.6679 17.0324C18.8498 16.3359 19.2342 17.4511 19.3771 17.4171C19.3038 17.2096 21.07 15.4792 20.1509 15.7498C20.0386 15.7826 19.3771 17.1344 18.1833 16.4233C18.0234 16.0155 18.8864 15.7923 18.3774 15.2693C18.2004 15.0872 17.5889 15.4015 17.3447 14.9804C17.3496 14.853 17.335 14.722 17.3447 14.5958C17.8391 15.3615 18.7509 14.563 18.5702 13.858C18.4921 13.5546 17.3875 12.7185 18.4091 11.3885L18.7643 11.613C17.6096 12.7792 18.9913 13.6808 19.0219 13.858C19.0463 13.9963 18.3981 15.1091 20.6672 15.5568C20.8784 14.4514 21.9892 13.284 23.1829 13.6335C23.7383 13.7961 24.1618 14.6055 24.3767 14.3385H24.3754Z" fill="#A2B02D"/>
<path d="M18.6667 14.7875C19.4747 15.6139 19.941 15.6843 18.8278 15.7813C18.9181 15.0775 18.2968 15.0059 18.6667 14.7875Z" fill="#FDFDFC"/>
<path d="M17.0213 29.2801C17.3838 29.6223 17.5938 29.9864 17.7952 30.4341C17.3716 29.9366 17.8098 31.6816 16.4085 32.6148C15.2014 33.4193 12.975 32.8271 13.4742 32.2301C14.9218 32.2653 15.775 31.3006 16.3121 30.0822C16.6258 28.4792 16.4757 29.6903 17.0213 29.2801Z" fill="#70226B"/>
<path d="M16.0546 39.2841C15.7262 39.7913 15.0207 40.2233 14.8291 40.5024C14.7571 40.3301 14.707 40.5024 14.6997 40.5024C13.5755 40.665 12.3366 40.2173 11.7971 39.1555C12.7516 40.2076 14.4397 39.2635 14.9902 38.1932C15.3124 38.573 15.5944 39.0414 16.0546 39.2829V39.2841Z" fill="#541750"/>
<path d="M17.7964 30.4342C17.8965 30.6562 17.8366 31.1125 18.1186 30.6902L18.1833 30.8831C18.1711 30.9123 18.1516 31.0348 18.1186 31.1392C18.1162 31.1453 18.0051 31.1161 17.9892 31.1707C17.9709 31.2375 17.8696 32.3539 17.8598 32.5493C17.3386 33.2385 17.0774 33.5237 16.3121 33.9605C16.2682 33.9605 15.9069 34.088 15.8605 34.0892C15.039 34.0989 14.1248 33.9096 13.6353 33.1912C13.5975 33.3672 13.1776 34.1304 13.2166 34.2178C13.346 34.509 14.1651 34.6716 14.3128 36.3014C14.4922 38.2781 13.3997 37.766 12.8615 38.0002C12.5978 38.1155 12.3683 39.0147 11.636 38.4492C10.8975 37.8777 11.4236 35.3633 12.2487 34.8258C12.184 34.6522 11.5859 35.1837 10.668 34.9859C10.4727 34.9435 9.6244 34.5454 9.50723 34.4083C9.30949 34.179 9.47915 34.1729 9.47549 34.088C9.46206 33.7907 9.57802 33.7275 9.4108 33.3829C10.0797 33.3113 10.6168 33.8161 11.7007 33.3829C12.4648 33.0771 12.682 32.3939 13.0873 31.7799C13.1117 31.8285 13.4461 32.2192 13.4742 32.2289C12.975 32.8259 15.2014 33.4181 16.4085 32.6136C17.8098 31.6804 17.3716 29.9354 17.7951 30.4329L17.7964 30.4342Z" fill="#70226B"/>
<path d="M13.4425 35.1801L13.5389 35.276C12.5648 36.0004 12.2731 37.2236 12.1523 37.2321C11.7641 37.26 11.9863 35.356 13.4425 35.1801Z" fill="#F9EDF4"/>
<path d="M17.8598 33.0638C17.8537 32.8963 17.855 32.7835 17.8598 32.6148C18.021 33.1062 18.2846 33.1062 18.3115 33.1281C20.0557 34.5879 21.8781 33.6499 22.2467 31.5566C21.9147 29.734 22.7777 31.5591 22.8912 32.1342C23.4783 35.0927 20.2827 36.7006 18.569 34.4423C18.1284 33.861 18.0905 33.1536 17.8598 33.0638Z" fill="#541750"/>
<path d="M20.7624 29.2158C21.3763 29.3784 21.4337 29.7631 21.4715 29.7934C21.5704 32.1039 19.4478 31.7702 18.3114 33.1281C18.2858 33.1062 18.0209 33.1075 17.8598 32.6148C17.8598 32.5929 17.8598 32.5723 17.8598 32.5505C17.8695 32.3551 17.9708 31.2387 17.9892 31.1719C18.005 31.1161 18.1161 31.1465 18.1185 31.1404L18.3444 31.7811C18.4139 30.8237 19.1292 29.9779 19.9897 29.5689C19.1316 29.4743 18.492 30.1453 18.1832 30.8831L18.1185 30.6902C18.4505 30.1951 19.0267 28.7559 20.7636 29.2158H20.7624Z" fill="#923E82"/>
<path d="M18.1186 31.1404C18.1515 31.036 18.1711 30.9123 18.1833 30.8843C18.4921 30.1465 19.1317 29.4743 19.9898 29.5701C19.1305 29.9791 18.414 30.8249 18.3444 31.7823L18.1186 31.1416V31.1404Z" fill="#EAD7E6"/>
<path d="M15.9899 28.6394C16.2901 28.6928 16.7943 29.0653 17.0225 29.2801C16.4769 29.6903 16.627 28.4792 16.3133 30.0822C15.7763 31.3006 14.9231 32.2653 13.4754 32.2301C13.4474 32.2204 13.1129 31.8297 13.0885 31.7811C12.8786 31.354 13.025 30.6841 12.4111 29.9852C12.4123 32.2022 9.48283 33.355 8.70164 32.0687C8.12917 31.1258 8.53075 29.0993 11.0232 29.0872C12.1791 29.0811 12.56 29.5313 13.119 30.4985C13.3326 29.8468 13.949 28.8809 14.635 28.7025C14.9048 28.6333 15.7372 28.5945 15.9899 28.6382V28.6394Z" fill="#923E82"/>
<path d="M14.9255 29.0884C15.011 29.086 15.4772 29.177 15.4736 29.2486C14.0027 29.5774 13.8331 31.0785 13.7 31.0761C13.1093 30.3322 14.1053 29.1163 14.9255 29.0884Z" fill="#EAD7E6"/>
<path d="M11.2491 29.3444C11.6348 29.5313 11.1685 29.4318 11.055 29.4731C10.2408 29.7655 9.56584 30.5434 9.24848 31.3321C8.84934 31.3819 8.96286 29.3614 11.2478 29.3444H11.2491Z" fill="#EAD7E6"/>
<path d="M16.8931 24.6628C16.721 24.9104 16.4501 24.3231 16.0228 24.0852C15.8068 24.2369 17.147 26.5122 12.798 27.4199C12.2597 26.4916 12.466 25.2477 13.0885 24.4056C14.1553 22.9627 15.9496 23.2285 16.8944 24.6616L16.8931 24.6628Z" fill="#923E82"/>
<path d="M14.8608 23.7661C15.4101 23.8838 14.364 23.8668 13.7318 24.6313C13.1166 25.3751 13.0226 26.9721 12.8285 25.9139C12.643 24.9043 13.8331 23.7369 14.8608 23.7661Z" fill="#EAD7E6"/>
<path d="M19.2147 19.0201V18.8272C19.194 18.4765 19.2916 18.1258 19.4088 17.8006C19.6175 17.2193 20.2534 16.3917 20.8918 16.2619C23.2622 15.7789 23.8457 19.1257 19.6346 19.6608C19.4247 19.4934 19.388 19.2119 19.2159 19.0201H19.2147Z" fill="#923E82"/>
<path d="M19.2147 19.0201C19.1781 18.9789 19.128 18.9388 19.0853 18.8915L19.2147 18.8272V19.0201Z" fill="#EDB9EA"/>
<path d="M21.3117 16.5191C22.8192 16.9099 19.9349 16.3323 19.764 18.8272C19.1085 17.7278 20.2461 16.706 21.3117 16.5191Z" fill="#EAD7E6"/>
<path d="M24.8905 19.5978C24.7721 20.2676 24.4694 20.7967 23.9873 21.2651C23.9458 21.3063 23.6211 21.5721 23.6003 21.5854C23.3318 21.7541 23.4197 21.7723 23.4063 21.7784C23.3623 21.799 22.5189 22.0296 22.4713 22.0344C21.3239 22.1533 20.2144 21.6667 19.7945 20.56C19.8726 20.5079 20.8064 21.2748 21.3752 21.3294C23.6125 21.5442 25.4203 18.6209 24.0837 17.0324C22.503 17.2521 23.8127 17.5093 23.2769 19.0529C22.929 20.0552 21.4789 20.7129 20.4707 20.56C20.0118 20.4897 19.2892 19.7567 19.7933 20.3999L19.4381 20.6887C19.2538 18.6185 19.1817 21.8924 16.7295 22.1C14.9853 22.2468 14.5178 21.0272 14.4079 20.9459C14.2932 20.861 14.1724 20.9593 14.1174 21.1389C13.8758 21.9228 13.6902 22.5162 12.9237 22.9979C11.6591 23.7928 10.7681 23.1496 10.989 23.6386C11.8935 23.5865 12.4074 23.8911 13.0848 24.408C12.4635 25.2489 12.2572 26.494 12.7943 27.4223C17.1445 26.5158 15.8031 24.2393 16.0191 24.0876C16.4476 24.3243 16.7173 24.9116 16.8894 24.6653C17.8781 26.1651 17.4314 27.6771 15.9862 28.6406C15.7347 28.5957 14.9011 28.6346 14.6313 28.7049C14.5837 28.5108 14.1394 28.637 13.5669 28.3203C13.4376 28.2487 13.1153 27.7803 12.9859 27.807C12.9273 27.8191 12.5734 28.4768 12.2121 28.7049C11.5664 29.1127 11.0403 28.8032 11.0183 29.0896C8.52584 29.103 8.12426 31.1283 8.69673 32.0711C9.4767 33.3562 12.4074 32.2034 12.4062 29.9876C13.0201 30.6866 12.8736 31.3552 13.0836 31.7835C12.6771 32.3976 12.4611 33.0808 11.697 33.3866C10.6131 33.8198 10.076 33.315 9.40712 33.3866C9.07268 32.6961 8.81879 32.9473 9.47181 34.0916C9.47548 34.1765 9.30581 34.1826 9.50355 34.412C9.62195 34.5491 10.469 34.9471 10.6643 34.9896C11.5822 35.1874 12.1803 34.6559 12.245 34.8294C11.4199 35.3658 10.8938 37.8813 11.6323 38.4529C12.3647 39.0183 12.5941 38.1191 12.8578 38.0039C13.3961 37.7684 14.4885 38.2818 14.3091 36.305C14.1614 34.6753 13.3424 34.5115 13.213 34.2214C14.934 33.8368 15.4113 35.1121 15.858 34.0928C15.9044 34.0928 16.2657 33.9642 16.3097 33.9642C16.8662 33.9642 17.4558 33.7931 17.955 34.2202C18.0942 34.2166 17.8842 33.8635 17.8586 33.0662C18.0893 33.156 18.1271 33.8635 18.5678 34.4447C20.2803 36.7018 23.4771 35.0951 22.8899 32.1367C22.7764 31.5627 21.9122 29.7364 22.2455 31.5591C21.8781 33.6523 20.0557 34.5903 18.3102 33.1305C19.4478 31.7726 21.5692 32.1063 21.4704 29.7959C21.6864 29.9633 21.9257 30.1065 22.1149 30.3092C23.2061 31.479 23.6077 32.6815 23.211 34.2845C23.1609 34.4884 23.001 34.8804 22.8887 35.0539C22.0563 36.3438 20.0594 36.5986 18.9535 35.5672C18.4347 35.083 18.3566 34.6826 18.2114 34.6049C18.1943 34.5964 18.0283 34.702 17.8244 34.6049C17.4936 34.4459 16.865 34.06 16.5672 34.0916C16.3499 34.1147 16.3109 34.0443 16.245 34.3161C16.2059 34.8876 16.5062 34.5551 16.5025 34.8609C15.6774 34.8427 15.1659 35.8548 15.277 36.5926C14.9255 36.2492 15.1452 36.0502 14.8254 36.2395C14.8364 36.7054 14.5288 37.544 15.0195 37.6823C15.6603 39.0875 17.8488 39.4006 18.6959 38.0354C19.0597 37.4481 18.9779 36.8608 19.2123 36.5283C19.305 37.1083 19.3343 37.5755 19.1476 38.1313C18.829 39.0814 17.3862 39.7003 16.439 39.4782C16.4183 39.4734 16.1363 39.3302 16.0521 39.2853C15.5919 39.0426 15.31 38.5742 14.9877 38.1956C14.4372 39.2659 12.7504 40.21 11.7946 39.1579C11.0879 38.3788 10.7815 36.072 11.5371 35.2141L11.4407 35.1182C7.36871 35.9943 5.16551 30.7023 8.44162 28.2887C7.70926 28.1467 6.8768 27.466 6.50696 26.8459C5.88201 25.7986 5.93694 24.5196 6.44227 23.4469C6.36171 23.8401 6.20913 25.5208 6.44227 25.7234C6.73521 25.8387 6.53259 25.4346 6.76451 24.7939C6.81089 24.6677 6.89878 24.5342 6.95859 24.4092C7.907 24.9856 9.71838 24.2369 9.79649 23.095C9.83311 22.5526 9.36074 21.9859 9.50599 21.9082C10.8596 22.6812 10.4166 23.618 10.5386 23.7042C11.0867 23.8413 10.9573 23.1678 10.7644 22.7419C12.7626 22.9797 14.1394 21.657 13.7964 19.696C14.1699 19.2373 13.877 20.0795 14.1834 19.9849C14.3042 20.3198 14.2847 20.7287 14.6667 20.8828C19.8763 20.7566 18.4958 17.3783 15.537 18.4462C15.5797 18.3345 15.6737 18.3333 15.7946 18.1901C15.974 18.1622 16.3231 18.0688 16.439 17.9341C16.4195 18.0918 16.8125 18.0008 17.374 17.9984C17.3911 17.9984 17.6792 18.127 17.6963 18.127C17.7487 18.1246 17.7219 18.0008 17.728 17.9984C17.8501 17.9668 17.8757 18.1343 17.9855 17.9668C17.9184 17.8418 17.8549 17.7448 17.7915 17.6137C18.2577 18.0069 18.6715 18.4474 19.0816 18.8964C19.1244 18.9437 19.1732 18.9837 19.211 19.025C19.3844 19.2167 19.4198 19.4995 19.6297 19.6657C23.842 19.1318 23.2573 15.7838 20.8869 16.2667C20.893 16.2364 21.0078 16.1417 21.0163 16.1381C22.5518 15.5399 25.4447 16.456 24.8869 19.6014L24.8905 19.5978Z" fill="#70226B"/>
<path d="M8.41109 29.2801C8.59419 29.3974 8.77687 29.5152 8.95915 29.6333C8.13158 30.2558 8.44405 31.5457 7.86304 30.8516C7.79835 30.2788 7.98632 29.7 8.41109 29.2801Z" fill="#EAD7E6"/>
<path d="M9.41079 33.3841C9.57801 33.7288 9.46205 33.7919 9.47548 34.0892C8.82245 32.9448 9.07634 32.6937 9.41079 33.3841Z" fill="#CD7DA1"/>
<path d="M10.6033 23.7661C11.9863 23.584 13.3082 25.13 11.636 26.2671C10.5911 26.9782 9.68664 26.409 8.9909 27.6783C8.19506 26.352 9.21671 23.9493 10.6033 23.7661Z" fill="#923E82"/>
<path d="M10.9915 24.2138C11.1123 24.2175 11.5127 24.2842 11.4748 24.4383C11.4382 24.5876 10.131 24.5184 9.37906 26.5219C8.74679 25.6227 9.97594 24.1847 10.9915 24.2138Z" fill="#EAD7E6"/>
<path d="M27.5356 26.6517C27.3208 27.4745 26.6995 28.0145 26.1807 28.6394C25.8389 28.6006 23.7004 29.9536 22.3749 27.6771C22.3919 27.6359 22.2577 27.7087 22.4395 27.2924C26.3748 31.2156 29.3848 23.5634 25.5362 23.4129C26.3955 25.272 24.9369 26.8471 23.0206 25.8824C23.0242 25.8569 23.0206 25.4686 23.0206 25.3691C23.0206 24.5585 22.99 24.1362 22.5042 23.4457C22.7081 23.2867 23.3562 22.7662 23.4075 22.7407C23.4588 22.7152 23.6516 22.6169 23.665 22.612C26.2527 21.6546 28.1532 24.2794 27.5356 26.6517Z" fill="#70226B"/>
<path d="M22.4395 27.2924C22.6165 26.8896 22.9156 26.6178 23.0206 25.8812C24.9357 26.8459 26.3955 25.272 25.5362 23.4117C29.386 23.5634 26.3748 31.2144 22.4395 27.2912V27.2924Z" fill="#70226B"/>
<path d="M23.0206 25.3691C23.0206 25.4686 23.0242 25.8569 23.0206 25.8824C22.9156 26.619 22.6165 26.8896 22.4396 27.2937C22.2577 27.7099 22.392 27.6371 22.3749 27.6783C22.2772 27.9137 22.3126 27.9186 22.1173 28.1273C21.7365 28.0205 22.0661 27.8045 21.9562 27.7426C21.8134 27.6613 20.7881 28.728 19.15 27.614C20.6404 28.4331 22.7203 26.0838 22.5043 24.0876C22.7264 24.5099 22.8192 24.9456 23.0206 25.3703V25.3691Z" fill="#70226B"/>
<path d="M22.5042 24.0864C22.7203 26.0838 20.6404 28.4319 19.15 27.6128C18.7021 27.3082 18.4945 27.0595 18.2468 26.5862C20.3816 26.7245 22.7178 25.1349 21.3752 22.8669C21.9098 23.1957 22.2162 23.5379 22.5042 24.0852V24.0864Z" fill="#70226B"/>
<path d="M22.5042 23.4446C22.9888 24.1363 23.0206 24.5574 23.0206 25.368C22.8192 24.9433 22.7276 24.5076 22.5042 24.0853C22.2162 23.5381 21.9098 23.1959 21.3752 22.867C22.7178 25.135 20.3816 26.7247 18.2468 26.5863C16.6697 23.5781 20.6929 20.8636 22.5042 23.4446Z" fill="#923E82"/>
<path d="M19.8922 22.8681C21.5522 22.6266 19.0084 23.2176 18.5373 25.113C17.8965 24.2345 18.9865 23.0004 19.8922 22.8681Z" fill="#EAD7E6"/>
<path d="M57.9714 32.8174H57.1829C57.3477 32.0044 57.4307 31.4826 57.4307 31.2496C57.4307 30.9305 57.3184 30.6938 57.095 30.5385C56.8716 30.3832 56.4481 30.3067 55.8268 30.3067L54.8943 30.3213L54.5879 30.3067H51.6719C51.6133 30.5288 51.457 31.0955 51.2044 32.0044C50.6783 33.8816 50.2779 35.4203 50.0057 36.6205H52.8497C53.5406 36.6205 53.9873 36.5525 54.1912 36.4178C54.395 36.2819 54.5647 35.9385 54.7014 35.3876H55.4899C55.1884 36.6071 54.9248 37.8789 54.7014 39.2052H53.8982C53.9666 38.6543 54.0008 38.3291 54.0008 38.2332C54.0008 38.0014 53.8836 37.8267 53.6505 37.7102C53.5138 37.6422 53.1451 37.5985 52.5421 37.5791H49.7567C49.4748 38.9237 49.1049 40.3762 48.6484 41.9331C48.1919 43.4912 47.7977 44.6962 47.4669 45.5469C48.2444 45.6731 48.9377 45.735 49.5504 45.735C49.9484 45.735 50.3414 45.7058 50.7308 45.6476L50.483 46.4752C50.201 46.5043 49.9374 46.5189 49.6945 46.5189C49.4809 46.5189 48.8083 46.4849 47.6793 46.4169C47.0079 46.3684 46.4379 46.3441 45.9716 46.3441C45.0269 46.3441 44.0199 46.4315 42.9494 46.605L43.1252 45.8065C43.9918 45.6233 44.563 45.4292 44.8401 45.2265C45.1172 45.0238 45.3296 44.7763 45.4748 44.4863C45.7763 43.8965 46.3415 42.0678 47.169 39.0001L49.4028 30.3055C48.0979 30.3443 46.9579 30.6344 45.979 31.1768C45.0012 31.7192 44.2225 32.4473 43.6427 33.3611C43.0629 34.276 42.7736 35.2019 42.7736 36.1412C42.7736 36.5185 42.8225 36.9057 42.9201 37.3025C42.9689 37.5245 43.1044 37.8449 43.329 38.2599C43.611 38.7732 43.7526 39.1312 43.7526 39.3338C43.7526 39.5365 43.6696 39.7136 43.5048 39.8641C43.3388 40.0146 43.1252 40.0886 42.8627 40.0886C42.4734 40.0886 42.1572 39.886 41.9143 39.4794C41.5835 38.9382 41.4175 38.1689 41.4175 37.1714C41.4175 35.2262 42.1816 33.4363 43.7098 31.8005C45.238 30.1745 47.252 29.3626 49.7543 29.3626H55.3605C55.983 29.3626 56.669 29.3238 57.4185 29.2461C57.6418 29.2267 58.124 29.1248 58.8637 28.9416C58.3669 30.9644 58.0703 32.2556 57.9726 32.8174H57.9714Z" fill="#2C2C2C"/>
<path d="M60.6433 46.3453H58.4682L59.4898 42.4416C59.9866 40.5255 60.4187 38.7065 60.7886 36.9845C60.8764 36.5586 60.9204 36.2929 60.9204 36.1861C60.9204 35.9543 60.813 35.8378 60.5994 35.8378C60.4529 35.8378 60.2295 35.9373 59.928 36.1351C59.6265 36.3329 59.0809 36.8244 58.2924 37.6083L57.8396 37.0998C58.7733 36.1035 59.7047 35.356 60.6335 34.8573C61.5624 34.3586 62.2753 34.1098 62.772 34.1098C62.9478 34.1098 63.0857 34.1511 63.1883 34.2336C63.2908 34.3161 63.3421 34.4204 63.3421 34.5454C63.3421 34.6704 63.2774 35.0078 63.1504 35.5514L62.5157 38.1628C63.5007 36.6181 64.6127 35.2978 65.8504 34.1996C66.4461 33.6754 66.9428 33.4133 67.342 33.4133C67.6349 33.4133 67.8778 33.5079 68.0731 33.696C68.2684 33.8841 68.3661 34.1049 68.3661 34.3561C68.3661 34.6073 68.2709 34.8403 68.0817 35.0235C67.8913 35.208 67.4177 35.4252 66.6597 35.6764C65.9395 35.9191 65.3536 36.2091 64.902 36.5477C64.4492 36.8862 63.9536 37.4044 63.4141 38.1009C62.8746 38.7975 62.4974 39.4054 62.2826 39.9224C62.0677 40.4393 61.7406 41.6419 61.3024 43.5289L60.6445 46.3441L60.6433 46.3453Z" fill="#2C2C2C"/>
<path d="M76.864 33.8914L77.827 33.6887L76.7321 37.3607C76.2939 38.8217 75.8802 40.5061 75.492 42.4112C75.2784 43.4463 75.171 44.115 75.171 44.4147C75.171 44.7144 75.293 44.8649 75.5359 44.8649C75.691 44.8649 75.94 44.763 76.2805 44.5603C76.8835 44.2023 77.4633 43.757 78.0174 43.2255L78.4849 43.7922C77.3754 44.7981 76.665 45.4085 76.3538 45.6209C75.7312 46.0468 75.1368 46.3611 74.5729 46.5638C74.203 46.6997 73.843 46.7664 73.4926 46.7664C73.24 46.7664 73.0496 46.7082 72.9226 46.5917C72.7957 46.4752 72.7334 46.3065 72.7334 46.0832C72.7334 45.9376 72.7725 45.7398 72.8506 45.4886L73.4341 43.5143C72.5967 44.5106 71.5995 45.3673 70.4411 46.0832C69.7307 46.5286 69.0777 46.7506 68.4845 46.7506C67.8913 46.7506 67.4873 46.5528 67.1858 46.156C66.7769 45.6245 66.573 44.9268 66.573 44.0664C66.573 43.041 66.8477 41.8991 67.3982 40.6407C67.9474 39.3836 68.6847 38.2417 69.6099 37.2151C70.5351 36.1897 71.5079 35.4349 72.5296 34.9507C73.3181 34.583 74.33 34.3998 75.5665 34.3998C75.8777 34.3998 76.1939 34.4192 76.5149 34.4581L76.8652 33.8914H76.864ZM75.0538 36.112C74.5277 36.0052 74.0846 35.9519 73.7258 35.9519C72.8494 35.9519 72.0853 36.1909 71.4335 36.6702C70.7817 37.1496 70.175 38.0111 69.616 39.2537C69.0557 40.4976 68.7762 41.7377 68.7762 42.9767C68.7762 43.6344 68.8885 44.1089 69.1119 44.3989C69.3353 44.6889 69.6282 44.8345 69.9883 44.8345C70.6596 44.8345 71.3798 44.4741 72.1488 43.7533C72.9177 43.0325 73.4817 41.995 73.8417 40.6395L75.0538 36.1108V36.112Z" fill="#2C2C2C"/>
<path d="M89.291 34.037L90.464 33.7749C89.756 36.0392 89.1066 38.3097 88.5146 40.5837C88.0874 42.2098 87.792 43.564 87.6273 44.6477C87.5394 45.1901 87.4918 45.8769 87.482 46.7082C87.4625 48.1012 87.3062 49.2237 87.0145 50.0756C86.6056 51.266 85.844 52.2235 84.7283 52.9491C83.6139 53.6748 82.292 54.0376 80.7626 54.0376C79.448 54.0376 78.4141 53.7306 77.6586 53.1166C76.9042 52.5026 76.5271 51.7975 76.5271 51.0051C76.5271 50.2127 76.8298 49.4907 77.434 48.8136C77.8832 48.3003 78.8194 47.6814 80.2438 46.9557C80.9664 46.5783 81.6439 46.1912 82.2786 45.7944C81.5547 46.1621 80.992 46.3453 80.5917 46.3453C80.2292 46.3453 79.9094 46.1779 79.6311 45.8442C79.3528 45.5105 79.2136 45.0675 79.2136 44.5166C79.2136 42.7364 79.747 40.9672 80.8126 39.2113C81.8782 37.4554 83.1611 36.1363 84.6612 35.2565C85.5864 34.7153 86.7448 34.4435 88.1375 34.4435C88.4097 34.4435 88.7466 34.4532 89.1457 34.4726L89.291 34.037ZM85.6816 44.0955C85.0188 44.6853 83.7408 45.6294 81.8489 46.9254C80.1816 48.0479 79.1575 48.856 78.7766 49.3487C78.3958 49.8523 78.2066 50.3838 78.2066 50.9457C78.2066 51.5075 78.4532 51.9929 78.9451 52.4334C79.4382 52.8739 80.0351 53.0935 80.7369 53.0935C81.3997 53.0935 82.0442 52.9309 82.6679 52.6069C83.2917 52.2829 83.8361 51.8133 84.2987 51.1993C84.7613 50.5852 85.0811 49.8899 85.2568 49.1169C85.4326 48.3427 85.5254 47.3173 85.5351 46.0395C85.5449 45.7592 85.5937 45.11 85.6804 44.0943L85.6816 44.0955ZM87.6602 36.1848C87.194 36.0975 86.7802 36.0538 86.4201 36.0538C85.4961 36.0538 84.7039 36.2953 84.0423 36.7795C83.3808 37.2636 82.8169 38.0767 82.3506 39.2173C81.6988 40.8337 81.3729 42.1928 81.3729 43.2959C81.3729 43.7509 81.501 44.1332 81.7598 44.4426C82.0174 44.752 82.3066 44.9074 82.6277 44.9074C83.017 44.9074 83.498 44.7205 84.0716 44.3479C84.6453 43.9754 85.114 43.5082 85.479 42.9476C85.844 42.387 86.215 41.4186 86.5946 40.0449L87.659 36.1836L87.6602 36.1848Z" fill="#2C2C2C"/>
<path d="M98.6603 34.1389C99.6136 34.1389 100.407 34.5163 101.041 35.2711C101.673 36.0259 101.989 37.0755 101.989 38.4213C101.989 40.5692 101.23 42.4974 99.7113 44.2048C98.1928 45.9133 96.5865 46.7664 94.8935 46.7664C93.8523 46.7664 93.0126 46.4279 92.3754 45.7507C91.7383 45.0736 91.4197 44.1489 91.4197 42.9791C91.4197 40.9466 92.0043 39.0705 93.1712 37.3474C94.6409 35.2092 96.4705 34.1401 98.6603 34.1401V34.1389ZM97.4202 35.2274C96.5926 35.2274 95.7919 35.8147 95.018 36.9906C94.2442 38.1665 93.8572 39.7901 93.8572 41.8603C93.8572 43.1187 94.0952 44.1101 94.5725 44.8358C94.9228 45.3685 95.3903 45.6342 95.9738 45.6342C96.7916 45.6342 97.5361 45.1319 98.2075 44.1247C99.0643 42.8177 99.4928 41.1977 99.4928 39.2622C99.4928 37.8109 99.295 36.7758 98.902 36.1557C98.5077 35.5368 98.0134 35.2274 97.4202 35.2274Z" fill="#2C2C2C"/>
<path d="M109.449 42.8469L109.946 43.3699C109.187 44.2217 108.288 44.9984 107.252 45.6998C106.216 46.4012 105.361 46.7519 104.69 46.7519C104.389 46.7519 104.14 46.6378 103.946 46.4109C103.75 46.1839 103.654 45.8721 103.654 45.4753C103.654 44.7011 103.955 43.0944 104.558 40.6565L106.133 34.2845C106.707 31.9813 107.187 30.4378 107.577 29.6539C108.18 28.4683 109.032 27.5473 110.135 26.892C111.239 26.2367 112.403 25.9091 113.627 25.9091C114.045 25.9091 114.373 26.0086 114.611 26.2088C114.849 26.409 114.969 26.6493 114.969 26.932C114.969 27.2439 114.852 27.5 114.62 27.7002C114.387 27.9004 114.047 27.9999 113.602 27.9999C113.311 27.9999 112.899 27.9514 112.365 27.8543C111.9 27.7766 111.468 27.7378 111.07 27.7378C110.672 27.7378 110.372 27.8191 110.168 27.9829C109.887 28.2147 109.632 28.7001 109.404 29.4415C109.176 30.183 108.805 31.6464 108.291 33.8331L106.835 39.9151C106.115 42.9634 105.754 44.5555 105.754 44.6902C105.754 44.9996 105.867 45.1549 106.09 45.1549C106.314 45.1549 106.616 45.0287 107.025 44.7775C107.833 44.2751 108.642 43.6308 109.45 42.8469H109.449Z" fill="#2C2C2C"/>
<path d="M120.502 33.8914L121.465 33.6887L120.37 37.3607C119.932 38.8217 119.518 40.5061 119.13 42.4112C118.916 43.4463 118.809 44.115 118.809 44.4147C118.809 44.7144 118.931 44.8649 119.174 44.8649C119.329 44.8649 119.578 44.763 119.918 44.5603C120.521 44.2023 121.101 43.757 121.655 43.2255L122.123 43.7922C121.013 44.7981 120.303 45.4085 119.992 45.6209C119.369 46.0468 118.775 46.3611 118.211 46.5638C117.841 46.6997 117.481 46.7664 117.131 46.7664C116.878 46.7664 116.687 46.7082 116.561 46.5917C116.434 46.4752 116.371 46.3065 116.371 46.0832C116.371 45.9376 116.41 45.7398 116.489 45.4886L117.072 43.5143C116.235 44.5106 115.237 45.3673 114.079 46.0832C113.369 46.5286 112.716 46.7506 112.122 46.7506C111.529 46.7506 111.125 46.5528 110.824 46.156C110.415 45.6245 110.211 44.9268 110.211 44.0664C110.211 43.041 110.486 41.8991 111.036 40.6407C111.585 39.3836 112.323 38.2417 113.248 37.2151C114.173 36.1897 115.146 35.4349 116.167 34.9507C116.956 34.583 117.968 34.3998 119.204 34.3998C119.516 34.3998 119.832 34.4192 120.153 34.4581L120.503 33.8914H120.502ZM118.692 36.112C118.166 36.0052 117.723 35.9519 117.364 35.9519C116.487 35.9519 115.723 36.1909 115.071 36.6702C114.42 37.1496 113.813 38.0111 113.254 39.2537C112.694 40.4976 112.414 41.7377 112.414 42.9767C112.414 43.6344 112.526 44.1089 112.75 44.3989C112.973 44.6889 113.266 44.8345 113.626 44.8345C114.298 44.8345 115.018 44.4741 115.787 43.7533C116.556 43.0325 117.12 41.995 117.48 40.6395L118.692 36.1108V36.112Z" fill="#2C2C2C"/>
<path d="M59.4325 6.36835H58.644C58.6928 5.61357 58.7172 5.00925 58.7172 4.55419C58.7172 3.19024 58.4328 2.23887 57.8628 1.70251C57.294 1.16493 56.575 0.896757 55.7096 0.896757C54.5513 0.896757 53.349 1.36395 52.104 2.29711C50.8577 3.2315 49.7872 4.68768 48.8925 6.66565C47.9966 8.64485 47.5499 10.6786 47.5499 12.7695C47.5499 14.8603 47.9661 16.342 48.7985 17.4208C49.631 18.4995 50.6746 19.0395 51.9306 19.0395C53.6334 19.0395 55.1957 18.0239 56.6165 15.9913C56.763 15.7886 56.9131 15.6867 57.0694 15.6867C57.1963 15.6867 57.3025 15.728 57.3904 15.8105C57.4783 15.893 57.5222 15.9876 57.5222 16.0932C57.5222 16.3541 57.1988 16.8674 56.5518 17.6319C55.9049 18.3964 55.0896 19.0323 54.107 19.5407C53.1244 20.0492 52.1552 20.3028 51.2019 20.3028C50.0533 20.3028 48.9877 20.0055 48.0052 19.4097C47.0226 18.8151 46.2585 17.9656 45.7129 16.8626C45.1672 15.7595 44.8951 14.4489 44.8951 12.9297C44.8951 10.8109 45.4516 8.70067 46.5673 6.60134C47.6817 4.50201 49.0756 2.8808 50.7503 1.73891C52.4238 0.597023 54.0594 0.0266876 55.6559 0.0266876C56.2296 0.0266876 56.7996 0.0897873 57.3635 0.214776C57.6064 0.273023 58.6098 0.606731 60.3711 1.2159C59.8157 2.8808 59.5045 4.59788 59.4361 6.36835H59.4325Z" fill="#2C2C2C"/>
<path d="M70.0749 5.00319L71.038 4.80054L69.9431 8.47254C69.5049 9.93357 69.0911 11.6179 68.703 13.5231C68.4894 14.5582 68.382 15.2268 68.382 15.5265C68.382 15.8262 68.504 15.9767 68.7469 15.9767C68.9019 15.9767 69.1509 15.8748 69.4915 15.6721C70.0945 15.3142 70.6743 14.8688 71.2284 14.3373L71.6959 14.9028C70.5864 15.9088 69.876 16.5191 69.5647 16.7315C68.9422 17.1574 68.3478 17.4717 67.7838 17.6744C67.414 17.8103 67.0539 17.877 66.7036 17.877C66.451 17.877 66.2605 17.8188 66.1336 17.7023C66.0066 17.5858 65.9444 17.4171 65.9444 17.1938C65.9444 17.0482 65.9835 16.8504 66.0616 16.5992L66.645 14.6249C65.8077 15.6212 64.8105 16.4779 63.6521 17.1938C62.9417 17.6392 62.2887 17.8613 61.6955 17.8613C61.1022 17.8613 60.6982 17.6622 60.3967 17.2667C59.9878 16.7351 59.784 16.0374 59.784 15.177C59.784 14.1516 60.0586 13.0098 60.6091 11.7514C61.1584 10.4942 61.8956 9.35231 62.8209 8.3257C63.7461 7.30031 64.7189 6.54553 65.7406 6.06135C66.5291 5.69366 67.541 5.50921 68.7774 5.50921C69.0887 5.50921 69.4048 5.52863 69.7258 5.56746L70.0762 5.00198L70.0749 5.00319ZM68.2648 7.22386C67.7387 7.11708 67.2956 7.06368 66.9367 7.06368C66.0604 7.06368 65.2963 7.30274 64.6445 7.78207C63.9926 8.26139 63.386 9.12175 62.827 10.3656C62.2667 11.6094 61.9872 12.8496 61.9872 14.0885C61.9872 14.7462 62.0995 15.2207 62.3229 15.5107C62.5462 15.8008 62.8392 15.9464 63.1993 15.9464C63.8706 15.9464 64.5907 15.586 65.3597 14.8652C66.1287 14.1444 66.6926 13.1068 67.0527 11.7514L68.2648 7.22265V7.22386Z" fill="#2C2C2C"/>
<path d="M79.083 5.25073C79.9496 5.25073 80.6185 5.41819 81.0909 5.7519C81.5633 6.08561 81.7989 6.47028 81.7989 6.90593C81.7989 7.16682 81.6988 7.39496 81.4998 7.5879C81.3008 7.78206 81.0592 7.87793 80.7772 7.87793C80.5917 7.87793 80.4318 7.83667 80.2951 7.75415C80.1584 7.67163 79.9643 7.46655 79.7116 7.1377C79.2344 6.50912 78.7632 6.19482 78.2957 6.19482C77.8966 6.19482 77.5438 6.34772 77.2374 6.65109C76.9311 6.95568 76.7773 7.33428 76.7773 7.78934C76.7773 8.18615 76.8749 8.56961 77.069 8.94215C77.2631 9.31469 77.755 9.91536 78.5435 10.7466C79.6237 11.8873 80.1645 12.9697 80.1645 13.9939C80.1645 15.0181 79.7263 15.9148 78.8499 16.683C77.9735 17.4511 76.8444 17.8358 75.4627 17.8358C74.3043 17.8358 73.4426 17.6016 72.8787 17.1319C72.3147 16.6623 72.0316 16.0847 72.0316 15.3979C72.0316 15.0593 72.139 14.779 72.3526 14.5557C72.5662 14.3337 72.8298 14.222 73.1411 14.222C73.4133 14.222 73.6476 14.3118 73.8417 14.4902C74.0358 14.6698 74.1334 14.8797 74.1334 15.1212C74.1334 15.2183 74.1273 15.3433 74.1139 15.4986C74.1078 15.6248 74.1042 15.7304 74.1042 15.8177C74.1042 16.1369 74.2396 16.4075 74.5118 16.6308C74.7743 16.8541 75.1331 16.9645 75.5884 16.9645C76.112 16.9645 76.5722 16.8747 76.9701 16.6963C77.368 16.5179 77.6781 16.2473 77.9015 15.8845C78.1248 15.5217 78.2359 15.1625 78.2359 14.8045C78.2359 14.4465 78.1309 14.1092 77.9222 13.7609C77.7123 13.4126 77.2435 12.8374 76.5136 12.0353C75.5017 10.9141 74.9952 9.83649 74.9952 8.8026C74.9952 7.85608 75.3797 7.02606 76.1487 6.31617C76.9176 5.60628 77.8954 5.25073 79.083 5.25073Z" fill="#2C2C2C"/>
<path d="M92.1935 5.00319L93.1566 4.80054L92.0617 8.47254C91.6235 9.93357 91.2097 11.6179 90.8216 13.5231C90.608 14.5582 90.5006 15.2268 90.5006 15.5265C90.5006 15.8262 90.6226 15.9767 90.8655 15.9767C91.0205 15.9767 91.2696 15.8748 91.6101 15.6721C92.2131 15.3142 92.7929 14.8688 93.347 14.3373L93.8145 14.9028C92.705 15.9088 91.9946 16.5191 91.6833 16.7315C91.0608 17.1574 90.4664 17.4717 89.9025 17.6744C89.5326 17.8103 89.1725 17.877 88.8222 17.877C88.5696 17.877 88.3792 17.8188 88.2522 17.7023C88.1253 17.5858 88.063 17.4171 88.063 17.1938C88.063 17.0482 88.1021 16.8504 88.1802 16.5992L88.7636 14.6249C87.9263 15.6212 86.9291 16.4779 85.7707 17.1938C85.0603 17.6392 84.4073 17.8613 83.8141 17.8613C83.2209 17.8613 82.8169 17.6622 82.5154 17.2667C82.1065 16.7351 81.9026 16.0374 81.9026 15.177C81.9026 14.1516 82.1773 13.0098 82.7277 11.7514C83.277 10.4942 84.0143 9.35231 84.9395 8.3257C85.8647 7.30031 86.8375 6.54553 87.8592 6.06135C88.6477 5.69366 89.6596 5.50921 90.896 5.50921C91.2073 5.50921 91.5234 5.52863 91.8445 5.56746L92.1948 5.00198L92.1935 5.00319ZM90.3834 7.22386C89.8573 7.11708 89.4142 7.06368 89.0554 7.06368C88.179 7.06368 87.4149 7.30274 86.7631 7.78207C86.1113 8.26139 85.5046 9.12175 84.9456 10.3656C84.3853 11.6094 84.1058 12.8496 84.1058 14.0885C84.1058 14.7462 84.2181 15.2207 84.4415 15.5107C84.6649 15.8008 84.9578 15.9464 85.3179 15.9464C85.9892 15.9464 86.7094 15.586 87.4783 14.8652C88.2473 14.1444 88.8113 13.1068 89.1713 11.7514L90.3834 7.22265V7.22386Z" fill="#2C2C2C"/>
<path d="M95.3061 29.7133C95.7602 29.9488 96.2521 30.1211 96.694 30.3808C94.9033 30.7218 92.4719 30.0349 91.0877 28.8506C90.641 28.4671 89.1653 26.926 89.5241 26.477C91.1634 27.9332 93.1713 29.3481 95.3061 29.7133Z" fill="#0E1F12"/>
<path d="M91.3599 26.3787C92.6733 27.1214 93.9122 27.9841 94.8301 29.2025C93.9854 28.7389 92.9235 28.1613 92.0105 27.9016C93.1005 28.5108 94.1978 29.1382 95.3061 29.7121C93.1725 29.3469 91.1646 27.932 89.5241 26.4758C89.8634 25.9236 90.8534 26.2476 91.3599 26.3775V26.3787Z" fill="#2D4427"/>
<path d="M99.0693 27.3932C99.0607 27.9077 98.9289 28.4683 98.8569 28.9792C98.8386 28.9937 98.9692 28.9828 98.5188 29.3105C98.3088 28.6321 97.8694 28.0521 97.5789 27.415C97.2176 26.6262 96.9112 25.9515 96.7477 25.0851L97.015 24.8982C97.1761 25.6737 97.4776 26.4102 97.8682 27.0959C98.0521 27.5343 98.236 27.9724 98.4199 28.4101C98.459 28.5666 98.581 28.7632 98.614 28.9319C98.5981 27.4854 98.4309 25.9746 98.2283 24.5536C98.2234 24.2648 98.1843 23.9772 98.1904 23.6896C98.8813 24.7842 99.0912 26.1239 99.0705 27.3944L99.0693 27.3932Z" fill="#1C2F16"/>
<path d="M94.1637 27.6055C95.2134 28.3008 96.0825 29.3918 96.9784 30.2667C96.9711 30.2703 96.9784 30.2776 96.8417 30.348L96.7428 30.3698C96.124 29.9658 95.477 29.5568 94.8301 29.2025C93.9122 27.9841 92.6733 27.1213 91.3599 26.3787C92.1179 26.5741 93.5131 27.1759 94.1637 27.6055Z" fill="#0E1F12"/>
<path d="M98.1892 23.6884C98.1843 23.976 98.2222 24.2636 98.227 24.5524C98.249 25.755 98.1331 27.2463 98.4187 28.4089C98.2348 27.9704 98.0509 27.5323 97.867 27.0947C97.9378 27.0825 97.8987 27.0146 97.8828 26.9369C98.1697 26.9417 97.6485 25.5657 97.4727 24.6422C97.4312 24.4213 97.4337 22.9943 97.1419 23.0477C96.9393 23.0841 97.1114 23.8947 97.1395 24.0743C96.9125 23.9396 96.888 23.5719 96.8661 23.5452C96.8343 23.5064 96.7184 23.7187 96.6915 23.4554C96.8978 22.1885 97.7925 23.061 98.1892 23.6884Z" fill="#4A693F"/>
<path d="M100.803 27.9853C100.565 28.4004 98.9277 29.4367 98.8544 29.5447C98.7751 29.6624 98.78 30.24 98.7702 30.4354C98.6164 30.4172 98.6701 30.5312 98.5957 30.5761C98.5786 30.3067 98.5611 30.0369 98.5432 29.7667C98.2417 30.0216 97.9866 30.0665 97.8743 30.1199C98.1416 29.7947 98.7727 29.8177 98.4309 29.3809C98.4626 29.3578 98.4858 29.3335 98.5188 29.3105C98.9704 28.9828 98.8386 28.9938 98.8569 28.9792C99.3232 28.6176 99.8309 28.3009 100.267 27.898C100.292 27.9065 100.573 27.9053 100.803 27.9853Z" fill="#79593F"/>
<path d="M97.1407 24.0743C97.2957 25.0524 97.6875 25.9734 97.884 26.9369C97.8999 27.0133 97.939 27.0825 97.8682 27.0947C97.4776 26.409 97.1761 25.6724 97.015 24.897L96.7477 25.0839C96.6488 24.5597 96.6061 23.9857 96.6927 23.4542C96.7208 23.7175 96.8368 23.5052 96.8673 23.544C96.8893 23.5707 96.9137 23.9384 97.1407 24.0731V24.0743Z" fill="#3A5431"/>
<path d="M98.8251 31.6027C98.8215 31.4959 98.7629 31.2957 98.7592 31.0785C98.7592 31.0348 98.841 30.9899 98.841 30.9839C101.353 31.1331 105.798 33.4278 106.677 35.7929L106.554 36.0514C103.71 37.26 100.102 33.9884 98.8239 31.6039L98.8251 31.6027Z" fill="#0E1F12"/>
<path d="M87.7384 34.8755C87.9093 34.8755 87.9666 34.935 88.1644 34.935C88.3243 34.935 88.4134 34.9265 88.5684 34.8973C90.2028 34.5891 93.2323 33.3574 94.3272 32.0335C95.0669 31.6986 95.8286 31.3904 96.5072 30.9353C96.6451 31.1841 95.5002 32.4461 95.2268 32.707C94.6287 33.2737 93.4203 34.1134 92.6757 34.4508C91.4112 35.0235 88.1534 35.8475 87.7396 34.8755H87.7384Z" fill="#0E1F12"/>
<path d="M96.1581 30.7557L96.3388 30.8698C95.3232 31.3515 94.3199 31.8818 93.2824 32.315C92.3767 32.6937 90.58 33.213 90.4579 33.2992C90.4176 33.3283 90.4615 33.3975 90.4554 33.4023C90.2309 33.5783 89.6242 34.3258 89.2885 34.5321C88.9883 34.7177 88.4878 34.7554 88.5696 34.8961C88.4134 34.9252 88.3255 34.935 88.1656 34.9337C88.7747 34.4095 89.3911 33.4581 89.9416 32.9509C90.8705 32.0918 92.0276 31.5469 93.2494 31.2448L93.1322 31.0652C95.1609 30.5858 95.9933 30.7909 96.1593 30.7545L96.1581 30.7557Z" fill="#2D4427"/>
<path d="M93.131 31.0664L93.2482 31.246C92.0251 31.5481 90.8692 32.0942 89.9404 32.9521L89.9733 32.8684C89.7963 32.7713 87.9093 34.4423 87.7176 34.7784C87.5284 34.0904 89.1018 32.8114 89.6486 32.4534C90.7154 31.7532 91.9006 31.3588 93.1322 31.0676L93.131 31.0664Z" fill="#6E8E5F"/>
<path d="M96.4864 30.837C96.4279 30.9742 96.506 30.9305 96.5084 30.9353C95.8298 31.3892 95.0681 31.6974 94.3284 32.0335C93.0749 32.6014 91.8335 33.1973 90.4542 33.4036C90.4603 33.3987 90.4164 33.3295 90.4566 33.3004C90.5787 33.2142 92.3754 32.6949 93.2811 32.3163C94.3199 31.8818 95.322 31.3528 96.3375 30.871C96.3802 30.8504 96.4425 30.8589 96.4852 30.8383L96.4864 30.837Z" fill="#6D8265"/>
<path d="M89.9404 32.9521C89.3912 33.4606 88.7735 34.4107 88.1645 34.935C87.9667 34.935 87.9093 34.8767 87.7385 34.8755L87.7165 34.7772C87.9093 34.4411 89.7952 32.7701 89.9722 32.8672L89.9392 32.9509L89.9404 32.9521Z" fill="#4A693F"/>
<path d="M94.8301 29.2025C95.477 29.5568 96.1239 29.967 96.7428 30.3698C96.7269 30.3735 96.7098 30.3771 96.694 30.3808C96.2509 30.1211 95.7602 29.9475 95.3061 29.7133C94.1978 29.1394 93.1017 28.5108 92.0105 27.9028C92.9235 28.1625 93.9854 28.7401 94.8301 29.2037V29.2025Z" fill="#5B7158"/>
<path d="M97.8743 30.1199C97.6485 30.2254 97.4483 30.3613 97.2298 30.4681C96.9808 30.5895 96.7391 30.7169 96.4865 30.8382C96.4437 30.8589 96.3815 30.8504 96.3388 30.871L96.1581 30.7569C96.462 30.6902 96.8062 30.3674 96.8404 30.3492C96.9771 30.2788 96.9698 30.2715 96.9771 30.2679C97.4971 29.9864 97.9487 29.7255 98.4309 29.3821C98.7726 29.8189 98.1404 29.7959 97.8743 30.1211V30.1199Z" fill="#876C46"/>
<path d="M98.4199 28.4088C98.1343 27.2463 98.2502 25.755 98.2283 24.5524C98.4321 25.9734 98.5981 27.4842 98.614 28.9306C98.581 28.762 98.4589 28.5654 98.4199 28.4088Z" fill="#2D4427"/>
<path d="M97.884 26.9369C97.6875 25.9734 97.2957 25.0524 97.1407 24.0743C97.1126 23.8947 96.9405 23.0841 97.1431 23.0477C97.4349 22.9943 97.4324 24.4213 97.4739 24.6422C97.6497 25.5657 98.1709 26.9417 97.884 26.9369Z" fill="#607F51"/>
<path d="M101.901 33.1293C102.3 33.099 104.367 34.7117 104.478 34.6122C104.564 34.5345 103.367 33.2179 102.934 32.9012C103.004 32.7131 103.853 33.2725 104.207 33.5176C104.557 33.7591 106.663 35.3209 106.188 35.5684C105.026 36.6751 99.7418 32.7094 99.2072 31.468C100.545 32.6985 102.962 34.0479 104.566 35.0029L104.683 34.9507C103.751 34.3489 102.828 33.7385 101.901 33.1293Z" fill="#2D4427"/>
<path d="M102.934 32.9012C103.367 33.2179 104.564 34.5345 104.478 34.6122C104.367 34.7117 102.3 33.099 101.901 33.1293C100.972 32.5165 99.9835 31.9704 99.1523 31.2229C100.124 31.5724 102.165 32.3393 102.934 32.9012Z" fill="#2D4427"/>
<path d="M99.1523 31.2229C99.9835 31.9704 100.972 32.5165 101.901 33.1293C102.826 33.7397 103.752 34.3489 104.683 34.9507L104.566 35.0029C102.962 34.0467 100.546 32.6973 99.2072 31.468C99.0961 31.3661 98.9899 31.2581 98.8788 31.1562C98.8373 30.9996 98.9838 31.1635 99.1523 31.2241V31.2229Z" fill="#6D8265"/>
<path d="M94.3284 32.0335C93.2335 33.3574 90.204 34.5891 88.5696 34.8973C88.4878 34.7554 88.987 34.719 89.2885 34.5333C89.623 34.327 90.2308 33.5795 90.4554 33.4035C91.8335 33.1973 93.0761 32.6014 94.3296 32.0335H94.3284Z" fill="#2D4427"/>
<path d="M98.7702 30.4354C98.7458 30.8965 98.841 30.956 98.841 30.9839C98.841 30.9899 98.758 31.0348 98.7592 31.0785C98.7629 31.2957 98.8203 31.496 98.8251 31.6027C98.8581 32.4655 98.957 33.321 98.9899 34.1826C98.9899 34.1935 98.9301 34.3027 98.935 34.3998C98.8325 34.5078 98.8398 34.4496 98.8154 34.3234C98.6469 33.4946 98.6005 31.8491 98.5139 30.9014C98.5078 30.8285 98.7287 30.7885 98.5078 30.6465C98.5468 30.6344 98.5554 30.6004 98.5957 30.5761C98.6701 30.5312 98.6164 30.4172 98.7702 30.4354Z" fill="#9E9057"/>
<path d="M97.8743 30.1199C97.5325 30.5361 98.0964 30.3808 98.5078 30.6465C98.7287 30.7885 98.5078 30.8285 98.5139 30.9014C98.0859 30.7565 97.6578 30.6117 97.2298 30.4669C97.4483 30.3613 97.6485 30.2254 97.8743 30.1187V30.1199Z" fill="#79593F"/>
<path d="M91.0242 44.2557C91.2269 44.4402 91.3758 44.5227 91.6248 44.6355C92.0776 44.8418 92.1862 44.8479 92.6952 44.8091C95.8273 44.57 98.9643 40.2367 99.1083 37.26C99.1449 36.504 98.9509 35.7456 99.0644 34.9871C99.2328 35.0199 99.2902 35.0199 99.4525 35.1061C100.934 35.9045 101.473 38.1835 101.261 39.7343C100.999 41.6686 99.6149 43.5677 98.3967 45.036C100.383 43.9196 101.783 41.9841 102.032 39.7173C102.159 38.5706 102.101 37.5961 101.626 36.5234C101.238 35.6461 100.617 34.9714 99.6564 34.7529C99.0473 34.6146 98.9655 34.9847 98.9325 34.3998C98.9277 34.3027 98.9875 34.1935 98.9875 34.1826C102.477 34.435 103.273 39.062 102.448 41.8057C100.921 46.8866 94.1832 49.4555 91.023 44.2545L91.0242 44.2557Z" fill="#685E0B"/>
<path d="M97.596 34.1838C96.3937 35.5927 99.1791 35.4058 98.7165 34.3464L98.8154 34.3246C98.841 34.4496 98.8325 34.509 98.935 34.401C98.968 34.9859 99.0497 34.6158 99.6588 34.7542C100.619 34.9726 101.242 35.6473 101.629 36.5246C101.416 36.4397 101.154 35.9579 100.945 35.7783C100.794 35.6473 99.5941 34.844 99.4538 35.1073C99.2926 35.0199 99.234 35.0211 99.0656 34.9884C99.0302 34.9811 98.8727 34.8779 98.8605 34.8804C98.7165 34.9022 98.3491 35.4822 97.6399 35.3039C97.0919 35.1655 97.1981 34.6449 97.1969 34.4787L97.596 34.185V34.1838Z" fill="#E9E0B0"/>
<path d="M102.034 39.7185C101.784 41.9853 100.385 43.9208 98.3991 45.0372C99.6173 43.5677 101.001 41.6686 101.264 39.7355C101.521 39.7298 101.778 39.7242 102.034 39.7185Z" fill="#A79B19"/>
<path d="M101.629 36.5246C102.104 37.5973 102.16 38.5718 102.034 39.7185C101.777 39.7242 101.52 39.7298 101.264 39.7355C101.474 38.1847 100.937 35.907 99.455 35.1073C99.5953 34.844 100.796 35.6473 100.947 35.7783C101.154 35.9591 101.418 36.4397 101.63 36.5246H101.629Z" fill="#ACA84E"/>
<path d="M98.465 34.145C98.5212 34.1984 98.6835 34.2712 98.7165 34.3464C99.1803 35.4058 96.3937 35.5927 97.596 34.1838C97.6436 34.128 97.7071 34.1074 97.6619 34.0151C97.8767 33.98 98.2441 34.1098 98.465 34.145Z" fill="#471013"/>
<path d="M97.7241 34.412L97.9207 34.3683C98.4797 34.884 97.2908 35.0527 97.7241 34.412Z" fill="#BE2E4E"/>
<path d="M91.565 43.2133C92.0361 43.4573 91.9531 43.5895 91.6797 44.4195C91.6553 44.4948 91.5943 44.5518 91.6248 44.6368C91.3746 44.5227 91.2269 44.4402 91.0243 44.2569C90.5409 43.4621 90.3126 42.9185 90.1552 41.9865C90.3859 43.143 91.2586 43.0556 91.565 43.2133Z" fill="#A79B19"/>
<path d="M99.0656 34.9871C98.9533 35.7456 99.1462 36.5052 99.1095 37.26C98.9655 40.2367 95.8285 44.5712 92.6965 44.8091C94.6299 43.1818 95.8469 42.2583 96.9198 39.9248C97.2579 39.1894 97.9646 37.4517 98.1099 36.7115C98.3125 35.6849 98.0964 36.1048 97.8694 35.8669C97.7315 35.7213 97.4837 35.3876 97.6399 35.3014C98.3491 35.4798 98.7165 34.8998 98.8605 34.8779C98.8715 34.8767 99.029 34.9799 99.0656 34.9859V34.9871Z" fill="#857D12"/>
<path d="M96.9198 39.926C95.8469 42.2595 94.6311 43.183 92.6965 44.8103C92.1875 44.8491 92.0788 44.8431 91.626 44.6368C91.5943 44.5518 91.6553 44.4948 91.6809 44.4195C94.2894 42.029 95.7126 41.4501 97.2774 37.9492C97.5508 38.5305 96.318 40.0401 96.9198 39.926Z" fill="#A79B19"/>
<path d="M98.4651 34.145C98.2441 34.1086 97.8767 33.9787 97.6619 34.0151C97.4605 34.0491 97.3726 34.0916 97.2164 34.2166C96.9478 34.5794 97.1969 34.4593 97.1969 34.4775C97.1969 34.6437 97.0907 35.1655 97.6399 35.3026C97.4837 35.3888 97.7315 35.7225 97.8694 35.8681C97.2335 36.2031 96.5853 37.5124 96.4022 37.732C96.3498 37.7951 96.2912 37.6459 96.2826 37.6556C96.2277 37.7211 96.2216 37.8667 96.102 38.0039C95.3745 38.8412 94.4224 39.6967 93.6388 40.6007C93.0907 41.2317 92.6196 41.9537 92.0715 42.5896C91.8225 42.8784 91.4222 43.1563 91.5662 43.2146C91.2598 43.0568 90.3859 43.143 90.1564 41.9877C89.5497 38.3897 92.3913 34.2166 96.0592 33.6535C96.7867 33.5419 97.9182 33.6256 98.4663 34.1474L98.4651 34.145Z" fill="#BBB124"/>
<path d="M95.0522 34.6947L95.2402 34.7299C94.8289 35.68 93.9793 36.3086 93.3751 37.118C92.2351 38.6458 91.4331 40.4745 91.5125 42.4039C90.1259 39.1421 91.9641 36.0562 95.0522 34.6947Z" fill="#F5F0CE"/>
<path d="M97.6619 34.0151C97.707 34.1074 97.6448 34.128 97.596 34.1838L97.1968 34.4775C97.1968 34.4593 96.9478 34.5806 97.2164 34.2166C97.3726 34.0928 97.4605 34.0491 97.6619 34.0151Z" fill="#614E07"/>
<path d="M97.8694 35.8669C98.0964 36.1048 98.3125 35.6849 98.1099 36.7115C97.9634 37.4517 97.2579 39.1894 96.9198 39.9248C96.318 40.0389 97.5496 38.5281 97.2774 37.948C95.7126 41.4502 94.2894 42.029 91.6809 44.4183C91.9544 43.5883 92.0374 43.456 91.5662 43.2121C91.4222 43.1539 91.8225 42.876 92.0715 42.5872C92.6208 41.9525 93.0907 41.2305 93.6388 40.5983C94.4236 39.6942 95.3757 38.8387 96.102 38.0014C96.2204 37.8643 96.2277 37.7187 96.2826 37.6532C96.2912 37.6422 96.3498 37.7927 96.4023 37.7296C96.5841 37.51 97.2323 36.2006 97.8694 35.8657V35.8669Z" fill="#BBB124"/>
<path d="M95.9116 38.7635L96.0397 38.7611C96.1411 39.2865 95.8615 39.3205 95.7126 39.6032C95.698 39.6311 95.9238 39.545 95.4966 40.1384C94.7483 41.1783 94.1759 41.2087 94.4908 40.7196C94.5567 40.6177 95.4905 39.7719 95.9116 38.7635Z" fill="#A79B19"/>
</g>
<defs>
<clipPath id="clip0_114_448">
<rect width="122" height="54" fill="white"/>
</clipPath>
</defs>
</svg>
