<svg width="122" height="54" viewBox="0 0 122 54" fill="none" xmlns="http://www.w3.org/2000/svg">
<g clip-path="url(#clip0_7_5176)">
<path d="M18.8276 46.5298C21.9658 44.7156 21.5471 42.3238 21.6655 42.0726C21.7424 41.9112 23.5355 41.7207 24.6328 40.1493C25.6508 38.6919 25.5214 37.0937 25.6008 36.9432C25.8217 36.5197 30.2891 35.964 29.1479 28.9913C29.2992 28.6636 33.0331 29.3917 32.308 26.426C32.247 26.176 31.2082 24.3837 31.2754 24.181C31.3169 24.0573 32.7523 23.7017 32.6303 22.1606C33.8179 24.3036 34.1267 27.1541 34.0498 29.5677C33.7764 38.1276 27.2852 45.1986 18.8276 46.5285V46.5298Z" fill="#CDC8C9"/>
<path d="M15.0866 46.2737C7.59936 45.2653 1.21925 38.0463 0.573547 30.6586C0.330646 27.8773 0.766403 25.0535 1.66965 22.4178C1.73801 23.6459 2.98547 24.0051 3.02453 24.181C3.15635 24.7769 1.70139 26.25 1.79904 27.2596C1.99311 29.2619 5.0605 28.609 5.21796 28.927C4.47094 36.1763 9.31187 36.5598 9.54012 37.0063C9.5743 37.0731 9.60726 38.0366 9.7342 38.4807C10.53 41.2729 12.7894 41.802 12.8943 42.1357C12.9578 42.3347 12.7589 43.4002 13.6035 44.7654C13.8452 45.1549 14.7082 46.0614 15.0866 46.2725V46.2737Z" fill="#CDC8C9"/>
<path d="M12.8932 18.1221C12.9628 18.1537 13.2631 18.3017 13.2801 18.3151C13.451 18.4401 13.6134 18.7143 13.7318 18.8927C13.4864 18.8454 13.6781 19.5079 13.5377 20.0795C13.3583 20.8136 12.3513 21.816 11.6348 22.0356C11.0867 22.2031 10.4068 22.0866 10.441 22.2917C10.1969 22.0089 8.42701 20.9192 9.69888 20.6243C10.3177 20.4811 12.8664 21.0466 12.6332 18.059C12.6991 18.0797 12.8419 18.1003 12.8908 18.1233L12.8932 18.1221Z" fill="#70226B"/>
<path d="M13.7318 18.8915C14.1321 19.4922 13.9954 19.4643 14.1834 19.9812C13.877 20.0771 14.17 19.2337 13.7965 19.6924C14.1395 21.6534 12.7626 22.9761 10.7645 22.7382C10.7535 22.7127 10.4874 22.3414 10.4422 22.2892C10.4068 22.0842 11.0879 22.2007 11.636 22.0332C12.3513 21.8136 13.3595 20.8124 13.5389 20.0771C13.6793 19.5055 13.4864 18.8429 13.733 18.8903L13.7318 18.8915Z" fill="#70226B"/>
<path d="M19.4088 38.2575C19.3905 38.2417 19.4625 38.0063 19.1513 38.1288C19.338 37.5731 19.3087 37.1059 19.216 36.5258C19.1232 35.9494 18.8351 35.8026 18.9584 35.5635C20.0631 36.595 22.0612 36.3414 22.8937 35.0502C24.0374 37.3874 21.7585 40.3981 19.41 38.2563L19.4088 38.2575Z" fill="#491139"/>
<path d="M19.7309 40.1178C19.726 40.1068 19.5173 40.068 19.5368 39.9576C19.5502 39.8836 19.7809 39.8399 19.7944 39.7646C19.809 39.687 19.2146 38.8557 19.4074 38.2575C21.7559 40.3993 24.0348 37.3886 22.891 35.0515C23.0033 34.8767 23.1632 34.486 23.2133 34.2821C24.4266 34.6377 24.8269 32.3539 24.6963 31.5251L24.9539 30.9802C24.7427 28.9853 25.8705 31.479 24.9856 33.8343C26.5785 33.5649 27.0106 31.6379 26.9532 30.2752C26.9361 29.8638 26.6139 29.2583 26.8238 29.217C28.6999 31.536 27.1912 35.9385 23.5343 35.1485C24.5547 37.1921 23.4318 40.7233 20.7281 40.4393C20.2728 40.392 19.8615 40.028 19.7285 40.119L19.7309 40.1178Z" fill="#70226B"/>
<path d="M26.1805 28.6394C26.4624 28.671 26.6712 29.0265 26.825 29.217C26.615 29.2583 26.936 29.8638 26.9543 30.2752C27.0117 31.6379 26.5796 33.5649 24.9867 33.8343C25.8717 31.479 24.7438 28.9865 24.955 30.9802L24.6974 31.5251C24.4948 30.24 22.9337 29.2425 21.6337 29.5374L22.1171 30.3067C21.9279 30.1041 21.6874 29.9609 21.4726 29.7934C21.4348 29.7643 21.3762 29.3784 20.7634 29.2158C21.27 28.529 21.7594 28.5071 22.1183 28.1261C22.3148 27.9174 22.2782 27.9125 22.3758 27.6771C23.7014 29.9536 25.8387 28.6006 26.1817 28.6394H26.1805Z" fill="#541750"/>
<path d="M24.6975 31.5251C24.8281 32.3539 24.4278 34.6376 23.2145 34.2821C23.6112 32.6779 23.2096 31.4753 22.1184 30.3067L21.635 29.5374C22.935 29.2425 24.4961 30.2412 24.6987 31.5251H24.6975Z" fill="#541750"/>
<path d="M23.4074 21.7771V22.7394C23.3562 22.7649 22.708 23.2855 22.5042 23.4445C20.6928 20.8634 16.6697 23.5779 18.2467 26.5862C18.4945 27.0594 18.702 27.3082 19.1499 27.6128C20.7868 28.7255 21.8133 27.6589 21.9561 27.7414C22.066 27.8033 21.7364 28.0193 22.1172 28.1261C21.7584 28.5071 21.2701 28.5289 20.7624 29.2158C19.0254 28.7559 18.4493 30.1951 18.1173 30.6902C17.8354 31.1124 17.8952 30.655 17.7951 30.4341C17.5937 29.9863 17.3837 29.6223 17.0212 29.2801C16.793 29.0653 16.2888 28.6916 15.9886 28.6394C17.4338 27.6747 17.8805 26.1639 16.8918 24.664C15.9471 23.2309 14.1528 22.9651 13.086 24.408C12.4073 23.891 11.8947 23.5864 10.9902 23.6386C10.7693 23.1484 11.6615 23.7927 12.9249 22.9979C13.6914 22.5161 13.8769 21.9227 14.1186 21.1388C14.3005 21.0964 14.2614 21.6546 14.6349 22.197C15.5943 23.5901 18.3907 24.0937 19.6016 21.2347C19.6895 21.026 19.5711 20.7117 19.7956 20.5612C20.2155 21.6679 21.3251 22.1545 22.4724 22.0356C22.5213 22.0307 23.3647 21.8002 23.4074 21.7796V21.7771Z" fill="#190D22"/>
<path d="M14.635 28.7037C13.949 28.8809 13.3326 29.8468 13.119 30.4997C12.5599 29.5337 12.1779 29.0823 11.0232 29.0884C11.0439 28.802 11.5712 29.1114 12.2169 28.7037C12.5782 28.4756 12.9322 27.8179 12.9908 27.8057C13.119 27.779 13.4424 28.2474 13.5718 28.319C14.1443 28.637 14.5886 28.5095 14.6362 28.7037H14.635Z" fill="#190D22"/>
<path d="M15.8605 34.0904C15.415 35.1097 14.9377 33.8343 13.2154 34.219C13.1764 34.1316 13.5975 33.3683 13.6341 33.1924C14.1236 33.9096 15.0378 34.1001 15.8593 34.0904H15.8605Z" fill="#190D22"/>
<path d="M17.8597 32.5505C17.8597 32.5723 17.8597 32.593 17.8597 32.6148C17.8549 32.7835 17.8536 32.8963 17.8597 33.0638C17.8866 33.861 18.0953 34.2142 17.9562 34.2178C17.4569 33.7894 16.8674 33.9605 16.3108 33.9618C17.0761 33.5249 17.3385 33.2397 17.8585 32.5505H17.8597Z" fill="#190D22"/>
<path d="M18.957 35.5648C18.8349 35.8026 19.123 35.9507 19.2145 36.5271C18.9802 36.8583 19.0632 37.4469 18.6982 38.0342C17.8499 39.4006 15.6625 39.0863 15.0217 37.6811C17.6289 38.1677 18.6372 35.4835 16.5695 34.0904C16.8685 34.0588 17.4959 34.4447 17.8267 34.6037C18.0305 34.7008 18.1965 34.5952 18.2136 34.6037C18.3576 34.6801 18.437 35.0818 18.9557 35.566L18.957 35.5648Z" fill="#70226B"/>
<path d="M16.5707 34.0905C18.6384 35.4836 17.6302 38.1678 15.023 37.6812C14.5335 37.5429 14.8411 36.7044 14.8289 36.2384C15.1475 36.0491 14.929 36.2469 15.2805 36.5915C15.2988 36.6097 15.2244 36.873 15.4099 36.7517C15.2854 36.0685 16.5024 35.2069 16.506 34.8599C16.5097 34.5541 16.2094 34.8866 16.2485 34.315C16.3156 34.0432 16.3547 34.1136 16.5707 34.0905Z" fill="#70226B"/>
<path d="M16.506 34.8597C16.5023 35.2068 15.2841 36.0684 15.4099 36.7516C15.2243 36.8729 15.2988 36.6096 15.2805 36.5914C15.1694 35.8536 15.6808 34.8415 16.506 34.8597Z" fill="#FDFDFC"/>
<path d="M23.6015 21.5854L23.6662 22.6121C23.6527 22.6169 23.4587 22.7152 23.4086 22.7407V21.7784C23.4208 21.7723 23.3342 21.7553 23.6027 21.5854H23.6015Z" fill="#FDFDFC"/>
<path d="M16.4414 39.4758C15.9837 39.579 16.1997 39.7319 16.5379 39.7962C17.2873 39.9382 20.384 38.8436 19.6663 43.0022C18.763 43.4294 18.3968 44.9948 17.1823 44.8613C16.4097 44.7763 15.2867 43.4512 15.4088 42.6806C15.4979 42.1176 15.9361 41.5715 16.4414 41.3021C15.493 40.6165 15.078 41.8385 15.3453 42.6806C14.8852 42.5229 15.5247 41.5837 14.7973 41.5909C14.1699 41.6722 14.6862 43.2558 14.7008 43.6429C14.3298 42.7462 14.2492 41.432 14.7655 40.5643C14.768 40.5607 14.779 40.574 14.8302 40.5C15.0219 40.2209 15.7274 39.7889 16.0557 39.2817C16.1399 39.3254 16.4219 39.4685 16.4426 39.4746L16.4414 39.4758Z" fill="#70226B"/>
<path d="M15.3454 42.6831H15.4101C15.2881 43.4536 16.411 44.7787 17.1837 44.8637C18.3982 44.996 18.7644 43.4318 19.6676 43.0046C19.6652 43.0192 19.786 43.0762 19.7323 43.2934C19.6774 43.5131 19.1855 44.0531 19.3454 44.1587C17.9795 46.0141 15.542 45.6767 14.701 43.6453C14.6863 43.2582 14.17 41.6747 14.7974 41.5934C15.5249 41.5873 14.8853 42.5253 15.3454 42.6831Z" fill="#70226B"/>
<path d="M19.4086 38.2575C19.2158 38.8557 19.8102 39.687 19.7956 39.7646C19.7809 39.8387 19.5514 39.8823 19.538 39.9576C19.5173 40.068 19.726 40.1068 19.7321 40.1178C20.3192 41.4259 20.1947 43.0022 19.3452 44.1574C19.1853 44.0519 19.6772 43.5119 19.7321 43.2922C19.7858 43.075 19.665 43.018 19.6674 43.0034C20.3851 38.8448 17.2884 39.9394 16.539 39.7974C16.1997 39.7331 15.9836 39.5802 16.4426 39.477C17.3897 39.6991 18.8337 39.0802 19.1511 38.1301C19.4623 38.0075 19.3915 38.2417 19.4086 38.2587V38.2575Z" fill="#541750"/>
<path d="M14.8291 40.5024C14.779 40.5764 14.7668 40.5631 14.7644 40.5667L14.6997 40.5024C14.7058 40.5024 14.7559 40.3301 14.8291 40.5024Z" fill="#EDB9EA"/>
<path d="M15.4087 42.6831H15.344C15.0767 41.8409 15.4929 40.6189 16.4401 41.3046C15.936 41.574 15.4966 42.12 15.4075 42.6831H15.4087Z" fill="#FDFDFC"/>
<path d="M6.95982 24.4067C6.90001 24.5317 6.81212 24.6652 6.76574 24.7914C5.89545 23.6289 8.12794 21.5526 9.28141 22.5149C9.25944 22.669 7.85818 22.5101 6.95982 24.4067Z" fill="#EAD7E6"/>
<path d="M12.6357 18.0578C12.8676 21.0454 10.3202 20.4787 9.70131 20.6231C8.42944 20.918 10.1993 22.0077 10.4434 22.2904C10.4886 22.3426 10.7547 22.7139 10.7657 22.7394C10.9585 23.1654 11.0879 23.8376 10.5399 23.7017C10.4178 23.6156 10.8609 22.68 9.50724 21.9058C9.36076 21.9834 9.83436 22.5501 9.79774 23.0925C9.71962 24.2344 7.90824 24.9832 6.95983 24.4067C7.85942 22.5101 9.26067 22.669 9.28142 22.5149C8.12795 21.5526 5.89546 23.6289 6.76575 24.7914C6.53384 25.4321 6.73646 25.8362 6.44351 25.721C6.21038 25.5183 6.36295 23.8376 6.44351 23.4445C7.25278 21.7262 8.98482 21.9373 9.08857 21.8087C9.15936 21.7213 8.72971 20.6765 9.02388 19.5965C9.44743 18.0432 11.3064 17.6501 12.6357 18.0578Z" fill="#923E82"/>
<path d="M10.862 18.3794C12.4854 18.093 10.9194 18.6658 10.6045 18.8927C10.0979 19.2555 9.64996 20.1329 9.57184 20.111C9.16172 19.4861 10.3225 18.4752 10.862 18.3794Z" fill="#EAD7E6"/>
<path d="M19.7957 20.5588C19.5723 20.7093 19.6907 21.0236 19.6016 21.2323C18.3896 24.0901 15.5944 23.5877 14.635 22.1946C14.2615 21.6522 14.3005 21.094 14.1187 21.1365C14.1736 20.9569 14.2944 20.8598 14.4092 20.9435C14.519 21.0248 14.9865 22.2444 16.7307 22.0975C19.1842 21.8912 19.255 18.6173 19.4393 20.6863L19.7945 20.3974C19.2904 19.7543 20.013 20.4885 20.4719 20.5576C21.4801 20.7105 22.9302 20.054 23.2781 19.0505C23.8127 17.5081 22.5042 17.2497 24.0849 17.03C25.4202 18.6185 23.6137 21.5418 21.3764 21.327C20.8076 21.2724 19.8738 20.5054 19.7957 20.5576V20.5588Z" fill="#70226B"/>
<path d="M14.1833 19.9825C14.4092 19.3672 14.8901 18.6767 15.5382 18.4438C18.4958 17.3759 19.8763 20.7542 14.6679 20.8804C14.2847 20.7263 14.3054 20.3174 14.1846 19.9825H14.1833Z" fill="#923E82"/>
<path d="M16.1511 18.6355C17.661 18.4146 15.6592 18.9413 14.9903 20.1742C14.441 19.5966 15.6152 18.7132 16.1511 18.6355Z" fill="#F9EDF4"/>
<path d="M32.6316 22.1618C32.7536 23.7029 31.3182 24.0585 31.2767 24.1823C31.2096 24.3837 32.2483 26.1772 32.3093 26.4272C33.0344 29.393 29.3005 28.6649 29.1492 28.9925C30.2905 35.9652 25.823 36.521 25.6021 36.9445C25.524 37.0949 25.6522 38.6931 24.6342 40.1505C23.5368 41.722 21.7438 41.9125 21.6669 42.0739C21.5485 42.3251 21.9671 44.7168 18.829 46.531C17.5205 46.7373 16.3804 46.9921 15.0878 46.2749C14.7082 46.065 13.8452 45.1573 13.6048 44.7678C12.7601 43.4038 12.9578 42.3372 12.8956 42.1382C12.7894 41.8045 10.5301 41.2754 9.73545 38.4832C9.6085 38.039 9.57555 37.0743 9.54137 37.0088C9.31434 36.561 4.47219 36.1788 5.2192 28.9294C5.06174 28.6115 1.99436 29.2643 1.80028 27.2621C1.70263 26.2537 3.1576 24.7793 3.02577 24.1835C2.98671 24.0075 1.73925 23.6483 1.6709 22.4203C2.52898 19.9193 3.84114 17.7108 5.7343 15.8469C3.88264 14.131 2.97695 7.88883 4.60524 7.47868C5.45478 7.26389 6.06996 7.9762 6.15297 7.99198C6.28357 8.01625 6.60947 7.8233 6.86214 7.86335C7.04157 7.89247 7.45779 8.13638 7.70069 8.18371C7.77271 8.19827 7.88501 7.82816 9.05557 8.50407C9.16908 7.91917 9.37293 7.38402 9.60362 6.83674C11.4113 5.02259 14.757 9.68964 14.7961 11.3897C14.9096 11.4807 15.9251 10.169 17.2153 10.5561C16.7014 12.0717 15.2758 13.9999 13.4424 13.3774C12.9566 14.8676 15.5053 14.5945 16.7002 12.9612C16.5232 14.4526 16.7625 17.0361 15.797 18.1877C15.6761 18.3321 15.5822 18.3321 15.5394 18.4437C14.8925 18.6779 14.4116 19.3672 14.1846 19.9824C13.9966 19.4642 14.1333 19.4934 13.7329 18.8927C13.6145 18.7143 13.4522 18.4413 13.2813 18.3151C13.8342 17.5008 14.8351 19.1463 15.0878 17.962C13.1898 17.8624 14.2529 17.5906 13.9917 16.4876C13.9124 16.1514 13.2069 15.3056 12.8956 15.1734C13.3411 14.4162 12.4867 14.0752 12.5087 13.9866C12.5514 13.8143 14.4104 13.341 13.8953 11.0694C13.8294 11.1495 13.7549 11.2041 13.6695 11.2623C12.4904 12.062 14.1748 10.7818 12.9273 9.21032C12.0668 9.41054 12.8541 8.89481 12.0888 8.0563C11.9496 8.03081 11.9997 8.1825 11.9923 8.18493C11.5578 8.33054 11.9203 8.16551 11.6701 7.8318C10.2225 5.91086 9.41199 9.72241 10.5093 11.6154C9.92342 12.0487 9.62193 10.4396 9.41321 10.3328C9.19228 10.2211 8.95426 10.4966 8.92984 10.493C8.83586 10.4784 8.78948 10.0161 8.3171 9.53068C7.05255 8.23104 7.52493 9.79886 7.44681 9.85103C6.22864 7.90825 6.1908 9.17027 6.09193 9.21032C5.98696 9.25279 4.62965 7.32093 4.64063 8.82564C4.64185 9.03436 4.83349 9.40326 4.83471 9.43481C4.8457 9.8122 4.67237 9.50155 4.64063 9.85103C4.58815 10.4323 5.68547 11.3048 5.02757 11.2296C4.95189 11.8594 5.54999 12.3775 6.12367 12.5122C5.86246 12.977 5.15939 12.1142 5.34981 13.1214C5.64153 14.6637 8.4831 14.9671 6.54356 14.7887C6.34094 14.9367 6.51549 14.9938 6.5753 15.1091C6.95002 15.8311 8.02415 15.45 8.05833 15.5253C7.99486 15.9706 7.25395 16.0301 7.05866 16.1988C6.13832 16.9924 8.34762 17.7411 9.76718 16.9038C10.8389 16.2716 10.8291 14.688 12.5087 15.3008C13.6048 15.7012 14.2712 17.4462 12.8956 18.1221C12.8468 18.1003 12.704 18.0785 12.638 18.0578C11.3088 17.6501 9.4486 18.0445 9.02627 19.5965C8.89445 19.5662 8.89567 19.4266 8.8322 19.3405C8.5124 18.9012 8.07908 18.5129 7.54202 18.3782C6.44347 18.1027 7.29179 18.9922 7.12335 19.0832C6.10292 18.3964 4.52223 18.2762 5.28511 19.3077C5.18502 19.4788 5.00071 19.2689 4.83349 19.2762C3.68612 19.3223 4.21952 20.1584 4.60768 20.3028C4.9702 20.4362 5.10935 20.2736 5.54266 20.4957C4.63697 20.5552 2.13961 21.0794 3.608 22.2589C3.58969 22.3208 2.61931 22.015 2.70475 22.8038C3.34923 23.6435 4.62355 23.7745 5.60735 23.6059C4.54543 24.4602 2.66203 24.8242 3.80086 25.4018C2.5656 25.8933 3.22839 26.0183 3.21985 26.1069C3.21252 26.1797 2.29219 26.6056 2.70353 27.2936C3.25402 28.1625 5.29732 27.7159 6.12245 27.165C6.26282 27.0716 6.37634 26.9466 6.50938 26.8446C6.87923 27.4647 7.71168 28.1455 8.44404 28.2875C5.16916 30.7011 7.37113 35.9931 11.4431 35.117L11.5395 35.2128C10.7839 36.0708 11.0915 38.3776 11.7971 39.1567C12.3366 40.2185 13.5755 40.6662 14.6997 40.5036L14.7643 40.5679C14.2492 41.4344 14.3286 42.7498 14.6997 43.6465C15.5394 45.6779 17.9782 46.0153 19.3441 44.1598C20.1936 43.0046 20.3181 41.4283 19.731 40.1202C19.864 40.0291 20.2754 40.3932 20.7307 40.4405C23.4343 40.7245 24.5573 37.1944 23.5368 35.1497C27.1938 35.9397 28.7025 31.536 26.8264 29.2182C26.6726 29.0277 26.4626 28.6734 26.1819 28.6406C26.7007 28.0157 27.3219 27.4745 27.5368 26.6529C27.6808 26.8968 27.8688 27.3094 28.0848 27.4866C28.7256 28.0096 30.5175 27.8397 31.3097 27.6152C31.6417 27.2136 31.5501 27.0109 31.3414 26.6529C31.1485 26.3216 30.9533 26.2646 30.9545 26.2367C30.9569 26.1675 31.6624 25.9722 30.3735 25.3387C31.5416 24.7162 29.2737 24.3813 29.2444 23.4469C30.7128 24.0039 32.9917 22.1946 30.7604 22.1327C31.3353 21.6667 31.0863 21.0612 30.5346 20.6899C29.5581 20.0334 27.4684 20.3137 29.7607 19.8562C30.487 18.542 28.7049 19.0432 28.5999 19.0225C28.3997 18.9825 28.9161 18.3685 28.2777 17.9959C27.6527 17.9292 27.145 18.3794 26.8581 18.8939C27.1779 17.1465 25.4263 17.7205 24.8905 19.5989C25.4483 16.4536 22.5555 15.5386 21.02 16.1357C20.937 14.7098 22.1246 13.2646 23.5674 14.2123C23.6992 14.2985 24.1569 14.8457 24.2118 14.853C24.2375 14.8567 24.4853 14.6649 24.5023 14.6601C24.9601 14.5266 24.7782 14.8142 25.2445 15.0447C26.1172 15.478 27.6356 15.6842 28.3082 14.8202C28.3961 14.5909 28.3204 14.6698 27.9213 14.5314C27.8102 14.239 28.8172 14.3713 28.9539 13.6019C28.2008 13.432 28.8416 13.3119 29.148 12.8641C29.5801 12.2295 29.0174 12.653 29.0833 12.2549C29.0967 12.1712 29.9182 11.4468 29.7607 10.7478C28.4595 10.6968 28.2789 11.812 28.0836 10.8121C26.9326 11.2089 26.9777 12.4588 26.8898 11.1652C25.9524 10.9759 25.6729 12.2707 25.5679 12.2877C25.5167 12.2962 25.0772 11.8035 24.6329 12.3193C24.3083 12.6967 24.2961 13.8422 24.3754 14.3397C24.1606 14.6055 23.737 13.7961 23.1816 13.6347C21.9879 13.2864 20.8771 14.4526 20.666 15.558C18.3981 15.1091 19.045 13.9963 19.0206 13.8592C18.9901 13.682 17.6084 12.7804 18.7631 11.6142L18.4079 11.3897C17.3862 12.7185 18.4909 13.5558 18.569 13.8592C18.7496 14.5642 17.8378 15.3627 17.3435 14.597C17.3764 14.1638 17.3203 13.716 17.4082 13.2828C17.5571 12.545 18.7728 9.89472 19.6663 9.53189C19.6236 9.79036 19.4124 10.2915 19.4088 10.334C19.3172 11.2878 20.2156 12.3642 20.9565 11.3278C21.0773 11.3315 20.9931 11.4929 21.0212 11.5839C21.5558 13.3556 21.9989 12.5826 22.2784 12.6105C22.3443 12.6166 22.7264 13.2609 23.4392 13.1238C24.0605 13.0049 24.1789 11.9673 23.5356 11.7768C23.5393 11.7526 23.5295 11.7271 23.5356 11.7125C23.9433 11.7756 24.2387 11.5645 24.5683 11.3922C25.1786 11.073 25.7303 10.6058 25.9878 9.94933C25.8597 9.34623 25.2213 9.8571 24.827 9.56465C25.7132 9.28555 26.7812 8.42762 25.8597 7.89733C27.1266 6.97387 26.4419 6.39261 26.4407 6.29432C26.4394 6.21544 27.0925 5.33203 26.5371 4.85149C25.5862 4.75926 25.4398 6.40717 25.1822 5.17184C24.9454 5.47117 24.709 5.7705 24.473 6.06982C24.4299 5.74946 24.3868 5.4287 24.3437 5.10753C22.4298 5.15486 23.0425 7.56847 21.6022 8.12182C21.5741 8.13274 21.5106 8.11211 21.4728 8.12182C22.4017 7.38402 22.1698 5.79315 21.9244 6.19845C21.9244 6.18996 21.7963 6.1487 21.795 6.10259C21.7499 2.45 19.6614 5.4291 19.5369 6.23122C19.3611 7.36946 19.9812 8.05387 19.9885 8.15459C20.0105 8.48951 19.6919 8.32569 19.6016 9.14843C19.1288 9.50115 18.6556 9.85387 18.182 10.2066C20.041 4.68524 14.1565 2.19032 12.151 4.21077C11.8874 4.47652 11.7397 4.72892 11.7958 5.10874C11.3149 4.74227 11.3991 4.60757 11.4089 4.01904C13.6963 1.92578 16.7613 3.20964 18.536 5.30169C19.5247 3.35041 21.3068 1.70614 22.4713 4.53234C23.975 3.64771 25.1017 4.56146 25.2445 4.53234C25.3433 4.51292 25.9536 3.53364 27.051 4.08335C28.451 4.78474 27.2902 8.68367 26.9545 9.88623C26.9851 10.0391 28.3192 9.69328 28.7281 9.66173C28.9624 9.64353 29.1577 9.794 29.2444 9.79036C29.2957 9.78793 29.6289 9.46879 30.2123 9.59742C31.8541 9.96025 29.9047 14.9501 28.4388 16.234C29.7033 17.2375 32.5156 20.702 32.6316 22.1655V22.1618Z" fill="#FDFDFC"/>
<path d="M31.3415 26.6517C31.4257 26.7889 31.4697 27.5291 31.2451 27.4211C31.4453 26.8786 30.4822 26.7864 30.0196 26.4588C28.3767 25.2975 29.2372 25.124 29.1493 24.1823C29.1444 24.1265 28.8344 23.163 28.7941 23.1241C28.5854 22.9239 26.1796 21.7917 25.247 21.5854C24.6465 21.452 23.8678 21.5697 23.9898 21.2651C24.472 20.7967 24.7734 20.2676 24.8931 19.5977C25.4289 17.7193 27.1805 17.1441 26.8607 18.8927C27.1463 18.3782 27.6553 17.9292 28.2802 17.9947C28.9198 18.3661 28.4023 18.9813 28.6025 19.0213C28.7075 19.042 30.4895 18.5408 29.7633 19.855C27.471 20.3125 29.5607 20.0322 30.5371 20.6887C31.0889 21.06 31.3379 21.6655 30.763 22.1315C32.9942 22.1934 30.7154 24.0027 29.247 23.4457C29.2763 24.3801 31.5441 24.715 30.376 25.3375C31.665 25.971 30.9595 26.1651 30.957 26.2355C30.957 26.2634 31.1511 26.3217 31.344 26.6517H31.3415Z" fill="#7F961A"/>
<path d="M31.3414 26.6517C31.5489 27.0085 31.6417 27.2111 31.3097 27.614C30.5163 27.8385 28.7257 28.0084 28.0849 27.4854C27.8688 27.3082 27.6808 26.8956 27.5368 26.6517C28.1544 24.2794 26.2539 21.6546 23.6663 22.612L23.6016 21.5854C23.6223 21.5721 23.947 21.3063 23.9885 21.2651C23.8677 21.5697 24.6452 21.4532 25.2457 21.5854C26.1783 21.7917 28.5853 22.9251 28.7928 23.1241C28.8331 23.163 29.1419 24.1265 29.148 24.1823C29.2359 25.124 28.3766 25.2975 30.0183 26.4588C30.4809 26.7864 31.444 26.8786 31.2438 27.4211C31.4684 27.5291 31.4244 26.7889 31.3402 26.6517H31.3414Z" fill="#6C771A"/>
<path d="M9.02375 19.5978C8.72959 20.6778 9.15802 21.7226 9.08844 21.8099C8.98591 21.9374 7.25387 21.7274 6.44339 23.4457C5.93806 24.5184 5.88313 25.7974 6.50808 26.8447C6.37504 26.9478 6.26152 27.0716 6.12115 27.165C6.56301 26.6517 6.09308 26.6093 5.99176 26.0426C5.83675 25.1786 6.05768 24.3449 5.83064 24.4711C5.14222 25.8933 4.14377 26.6845 2.70223 27.2925C2.29089 26.6044 3.21122 26.1785 3.21855 26.1057C3.22709 26.0159 2.5643 25.8909 3.79956 25.4006C2.66073 24.8242 4.54291 24.459 5.60605 23.6047C4.62224 23.7734 3.34793 23.6423 2.70345 22.8026C3.8142 23.2576 5.52183 22.3402 6.63869 21.8403C6.83154 21.7541 8.26087 21.2663 8.12172 21.0382C7.11106 20.3016 8.72348 21.1826 8.7662 21.1025C8.78736 20.5144 8.80892 19.9266 8.8309 19.3393C8.89315 19.4255 8.89193 19.565 9.02497 19.5953L9.02375 19.5978Z" fill="#7F961A"/>
<path d="M6.12107 27.1638C5.29594 27.7147 3.25264 28.1601 2.70215 27.2924C4.14368 26.6845 5.14214 25.8933 5.83056 24.4711C6.0576 24.3449 5.83789 25.1786 5.99168 26.0426C6.09299 26.6093 6.56171 26.6517 6.12107 27.165V27.1638Z" fill="#6C771A"/>
<path d="M7.53954 18.3794C8.07538 18.5141 8.50992 18.9025 8.82972 19.3417C8.80856 19.9299 8.787 20.5176 8.76503 21.1049C8.72108 21.185 7.10866 20.304 8.12055 21.0406C8.25848 21.2688 6.83037 21.7554 6.63751 21.8427C6.60699 21.5454 5.73426 20.5941 5.54141 20.4958C5.10687 20.2749 4.96894 20.4375 4.60642 20.3028C4.21827 20.1596 3.68486 19.3223 4.83223 19.2762C4.66745 19.7191 5.25334 19.5541 5.57436 19.6609C5.74769 19.7179 6.11387 19.9461 6.28353 19.9812C6.35677 19.997 6.36654 19.7652 7.7031 20.1099C9.19834 19.1391 6.60211 18.5141 7.54198 18.3782L7.53954 18.3794Z" fill="#7F961A"/>
<path d="M6.63758 21.8415C5.52073 22.3402 3.81432 23.2576 2.70235 22.8038C2.61691 22.015 3.58729 22.3208 3.6056 22.2589C2.13721 21.0794 4.63579 20.554 5.54026 20.4957C5.73311 20.594 6.60585 21.5454 6.63636 21.8427L6.63758 21.8415Z" fill="#7F961A"/>
<path d="M7.53966 18.3794C6.60102 18.5141 9.19603 19.1403 7.70078 20.1111C6.36422 19.7664 6.35568 19.9982 6.28122 19.9824C6.11155 19.9472 5.74537 19.7191 5.57205 19.6621C5.25103 19.5553 4.66514 19.7203 4.82992 19.2774C4.99592 19.2701 5.18145 19.4813 5.28154 19.309C4.51866 18.2775 6.09935 18.3976 7.11978 19.0845C7.28944 18.9922 6.4399 18.104 7.53844 18.3794H7.53966Z" fill="#7F961A"/>
<path d="M29.1479 12.8641C28.407 12.9648 27.71 13.2743 26.9874 13.4417C26.8495 13.4733 26.847 13.0922 26.4393 13.6019C26.4149 13.8446 27.5696 14.5205 27.7613 14.5957C27.8394 14.6261 27.8735 14.5144 27.9224 14.5314C28.3215 14.6698 28.3972 14.5897 28.3093 14.8202C27.6368 15.6842 26.1183 15.4779 25.2456 15.0447C24.7793 14.813 24.9612 14.5266 24.5035 14.6601C24.3179 14.6054 24.3936 14.461 24.3741 14.3397C24.2947 13.8422 24.3069 12.6978 24.6316 12.3192C25.0759 11.8035 25.5153 12.295 25.5666 12.2877C25.6716 12.2707 25.9511 10.9759 26.8885 11.1652C26.9764 12.4588 26.93 11.2101 28.0823 10.8121C28.2776 11.812 28.4582 10.698 29.7594 10.7478C29.9168 11.4468 29.0954 12.1712 29.082 12.2549C29.016 12.653 29.5787 12.2294 29.1466 12.8641H29.1479Z" fill="#6C771A"/>
<path d="M29.1479 12.8641C28.8427 13.3118 28.2007 13.432 28.9538 13.6019C28.8171 14.3712 27.8101 14.2389 27.9212 14.5314C27.8723 14.5144 27.8382 14.6261 27.76 14.5957C27.5684 14.5205 26.4137 13.8446 26.4381 13.6019C26.8458 13.0922 26.8482 13.4732 26.9862 13.4417C27.71 13.2742 28.4057 12.9648 29.1466 12.8641H29.1479Z" fill="#6C771A"/>
<path d="M11.9911 8.18251C12.2011 9.00039 11.5407 10.783 12.8614 9.33653C13.39 10.135 12.7027 11.4164 12.3781 12.3181C12.4257 12.551 13.927 11.613 13.6682 11.2599C13.7537 11.2017 13.8281 11.147 13.8941 11.067C14.4092 13.3386 12.5502 13.8119 12.5075 13.9842C12.4855 14.0728 13.3399 14.4137 12.8944 15.171C12.881 15.1649 12.8749 15.2171 12.7003 15.171C10.4141 14.5581 9.1044 17.8649 8.82976 14.6577C8.86516 14.6443 8.93474 14.4732 9.53894 14.3688C9.59631 14.29 9.31923 14.1541 9.2167 14.08L9.41077 13.9199C9.10196 13.0352 9.06168 12.0608 8.82976 11.1628C8.64545 10.4469 8.33054 10.0088 8.31345 9.94449C8.28049 9.82314 8.52217 9.88017 8.31345 9.52826C8.78582 10.0137 8.83221 10.4748 8.92619 10.4906C8.95182 10.4942 9.18984 10.2175 9.40955 10.3304C9.61828 10.4372 9.91977 12.0462 10.5057 11.613C9.40833 9.71999 10.2188 5.90844 11.6665 7.82938C11.9179 8.16188 11.5542 8.32813 11.9887 8.18251H11.9911Z" fill="#6C771A"/>
<path d="M8.3135 9.52949C8.52222 9.8814 8.28054 9.82558 8.3135 9.94572C8.33059 10.01 8.6455 10.4481 8.82981 11.1641C9.06051 12.062 9.10079 13.0365 9.41082 13.9211L9.21675 14.0813C8.39528 13.4927 8.68578 13.585 8.63574 13.5364C7.32847 12.2562 7.37119 11.9261 6.44231 10.7151C6.08345 10.2467 4.93364 8.81597 4.63581 8.82325C4.62482 7.31853 5.98214 9.25039 6.08711 9.20792C6.18598 9.16788 6.22382 7.90585 7.44198 9.84864C7.5201 9.79646 7.04773 8.22864 8.31228 9.52828L8.3135 9.52949Z" fill="#7F961A"/>
<path d="M9.21668 14.0825C9.31921 14.1553 9.59629 14.2924 9.53892 14.3713C8.93472 14.4756 8.86514 14.6467 8.82975 14.6601C8.74797 14.6904 8.44159 14.688 8.34639 14.7244C7.78735 14.9355 6.9256 15.5034 6.57284 15.1091C6.51303 14.9926 6.33727 14.9368 6.54111 14.7887C8.48065 14.9671 5.63908 14.6637 5.34736 13.1214C6.00648 13.4757 6.63265 13.5776 7.37967 13.5061C8.75041 13.375 7.86303 13.3022 7.31497 12.8653C7.12334 12.7124 5.91128 11.5657 5.79898 11.4225C5.29487 10.7781 5.10201 9.75032 4.63818 9.85104C4.66992 9.50156 4.84325 9.81221 4.83226 9.43482C4.83226 9.40327 4.64062 9.03437 4.63818 8.82565C4.93601 8.81837 6.08582 10.2491 6.44468 10.7175C7.37356 11.9297 7.33084 12.2586 8.63811 13.5388C8.68816 13.5886 8.39643 13.4963 9.21912 14.0837L9.21668 14.0825Z" fill="#7F961A"/>
<path d="M8.8299 14.6601C9.10332 17.8673 10.4142 14.5594 12.7004 15.1734L12.5064 15.302C10.8268 14.6892 10.8366 16.2728 9.76488 16.905C8.34532 17.7423 6.13602 16.9936 7.05636 16.2C7.25166 16.0313 7.99256 15.9719 8.05604 15.5265C8.02186 15.4513 6.94772 15.8323 6.573 15.1103C6.92575 15.5035 7.7875 14.9368 8.34654 14.7256C8.44175 14.6892 8.74934 14.6929 8.8299 14.6613V14.6601Z" fill="#6C771A"/>
<path d="M5.34748 13.1201C5.15707 12.1117 5.86014 12.9757 6.12134 12.511C5.54644 12.3763 4.94956 11.8581 5.02524 11.2283C5.68315 11.3036 4.58582 10.4311 4.63831 9.84981C5.10214 9.74788 5.29499 10.7769 5.7991 11.4213C5.9114 11.5645 7.12346 12.7112 7.3151 12.8641C7.86315 13.301 8.75053 13.375 7.37979 13.5048C6.63278 13.5764 6.00661 13.4745 5.34748 13.1201Z" fill="#7F961A"/>
<path d="M13.6683 11.2611C13.9271 11.6142 12.4269 12.5522 12.3781 12.3192C12.704 11.4176 13.39 10.135 12.8615 9.33772C11.5408 10.7842 12.2011 9.00037 11.9912 8.1837C11.9985 8.18127 11.9497 8.02959 12.0876 8.05507C12.8529 8.89359 12.0656 9.40932 12.9262 9.20909C14.1736 10.7806 12.488 12.0608 13.6683 11.2611Z" fill="#7F961A"/>
<path d="M12.7002 15.1722C12.8735 15.2183 12.8796 15.1661 12.8943 15.1722C13.2067 15.3044 13.911 16.1515 13.9904 16.4864C14.2528 17.5894 13.1884 17.8613 15.0865 17.9608C14.8338 19.1439 13.8329 17.4996 13.28 18.3139C13.2629 18.3005 12.9626 18.1537 12.893 18.1209C14.2687 17.445 13.6022 15.6988 12.5061 15.2996L12.7002 15.171V15.1722Z" fill="#A2B02D"/>
<path d="M21.9245 6.19479C21.9147 6.40715 21.3374 7.83664 21.0212 8.08662C20.9602 8.41062 21.0115 8.23951 21.4729 8.11816C21.5095 8.10846 21.5742 8.12909 21.6022 8.11816L21.7316 8.21403C20.3304 9.46877 19.0573 12.5474 20.9578 11.3242C20.2169 12.3605 19.3185 11.2841 19.41 10.3303C19.4137 10.2879 19.6249 9.7867 19.6676 9.52823C19.7225 9.19938 19.6004 9.16297 19.6029 9.14356C19.6932 8.3196 20.0118 8.48464 19.9898 8.14972C19.9837 8.049 19.3624 7.36338 19.5382 6.22634C19.6627 5.42545 21.7499 2.44634 21.7963 6.09772C21.7963 6.14504 21.9257 6.1863 21.9257 6.19358L21.9245 6.19479Z" fill="#6C771A"/>
<path d="M21.473 8.11937C21.0116 8.24072 20.9603 8.41061 21.0213 8.08782C21.3375 7.83784 21.9148 6.40957 21.9246 6.196C22.1699 5.7907 22.4018 7.38158 21.473 8.11937Z" fill="#7F961A"/>
<path d="M24.5684 11.3897C24.3938 11.3897 23.5736 11.6166 23.5358 11.7101C23.5296 11.7246 23.5394 11.7501 23.5358 11.7744C23.5089 11.977 23.7298 12.352 23.7298 12.3836C23.7237 12.5923 23.443 12.6542 23.6004 12.8969C22.5336 13.3956 21.8916 11.8108 21.0201 11.5827C20.9932 11.4916 21.0762 11.329 20.9554 11.3266C19.0549 12.5498 20.328 9.4712 21.7293 8.21645L21.5999 8.12059C23.0402 7.56846 22.4274 5.15362 24.3414 5.1063C24.3845 5.42666 24.4276 5.74742 24.4707 6.06859C24.7075 5.76927 24.9439 5.46994 25.1799 5.17061C25.4362 6.40594 25.5839 4.75803 26.5348 4.85025C27.0902 5.33079 26.4371 6.21421 26.4384 6.29308C26.4408 6.39138 27.1256 6.97264 25.8573 7.8961C26.7789 8.42518 25.7121 9.28432 24.8247 9.56342C25.2202 9.85587 25.8573 9.345 25.9855 9.9481C25.7292 10.6046 25.1775 11.0718 24.5659 11.3909L24.5684 11.3897Z" fill="#7F961A"/>
<path d="M23.5369 11.7744C24.1789 11.9649 24.0606 13.0012 23.4405 13.1213C22.7276 13.2585 22.3456 12.6153 22.2797 12.608C22.0002 12.5801 21.5571 13.3543 21.0225 11.5814C21.894 11.8108 22.5348 13.3956 23.6028 12.8956C23.4454 12.6529 23.7261 12.591 23.7322 12.3823C23.7322 12.3508 23.5113 11.9758 23.5381 11.7731L23.5369 11.7744Z" fill="#7F961A"/>
<path d="M24.5683 11.3897C24.2387 11.562 23.9445 11.7744 23.5356 11.7101C23.5735 11.6166 24.3925 11.3885 24.5683 11.3897Z" fill="#7F961A"/>
<path d="M19.4088 17.8018C19.2929 18.127 19.1952 18.4777 19.2147 18.8284L19.0854 18.8927C18.6752 18.4449 18.2615 18.0032 17.7952 17.61C17.5926 17.1865 17.2654 16.7861 17.2142 16.2958C17.2068 16.2303 17.3338 15.2425 17.3436 14.9816C17.5865 15.4015 18.198 15.0872 18.3762 15.2704C18.8852 15.7934 18.0222 16.0167 18.1821 16.4245C19.3746 17.1356 20.0362 15.785 20.1497 15.751C21.0688 15.4804 19.3026 17.2108 19.3759 17.4183C19.2331 17.4523 18.8486 16.3371 18.6667 17.0336C18.2712 16.8043 18.9291 17.6088 19.4088 17.803V17.8018Z" fill="#FDFDFC"/>
<path d="M19.6015 9.14479C19.5991 9.1642 19.7211 9.20061 19.6662 9.52946C18.7739 9.89229 17.557 12.5425 17.4081 13.2803C17.3202 13.7136 17.3763 14.1613 17.3434 14.5945C17.3336 14.7207 17.3483 14.8518 17.3434 14.9792C17.3336 15.2401 17.2079 16.2279 17.214 16.2934C17.2653 16.7837 17.5912 17.1841 17.795 17.6076C17.8573 17.7387 17.922 17.8345 17.9891 17.9607C17.878 18.1282 17.8536 17.9607 17.7315 17.9923C17.463 17.5651 17.1941 17.1376 16.9247 16.7096C16.7856 17.0057 16.6245 17.7156 16.4414 17.928C16.3242 18.0639 15.9763 18.1573 15.7969 18.184C16.7624 17.0324 16.5231 14.4489 16.7001 12.9576C15.5052 14.5909 12.9578 14.8639 13.4423 13.3738C15.2769 13.9963 16.7014 12.0681 17.2152 10.5524C18.3541 7.19593 15.8799 4.60029 13.4423 4.90973C12.5586 5.02137 12.533 5.6633 11.797 5.10267C11.7396 4.72285 11.8873 4.47045 12.1522 4.2047C14.1576 2.18425 20.0422 4.67917 18.1832 10.2005C18.656 9.8478 19.1291 9.49508 19.6027 9.14236L19.6015 9.14479Z" fill="#6A2531"/>
<path d="M17.7316 17.9947C17.7255 17.996 17.7523 18.121 17.6998 18.1234C17.6827 18.1234 17.3947 17.9947 17.3776 17.9947C16.8149 17.9972 16.4231 18.0894 16.4426 17.9304C16.6269 17.7181 16.7868 17.0082 16.926 16.7121C17.1945 17.1392 17.4634 17.5668 17.7328 17.9947H17.7316Z" fill="#FDFDFC"/>
<path d="M24.3754 14.3385C24.395 14.4611 24.3181 14.6043 24.5048 14.6589C24.4877 14.6637 24.24 14.8543 24.2143 14.8518C24.1594 14.8446 23.7004 14.2973 23.5698 14.2111C22.1259 13.2634 20.9394 14.7099 21.0224 16.1345C21.0139 16.1381 20.8992 16.2328 20.8931 16.2631C20.2547 16.393 19.6175 17.2206 19.41 17.8018C18.9303 17.6077 18.2724 16.8031 18.6679 17.0325C18.8498 16.3359 19.2342 17.4511 19.3771 17.4171C19.3038 17.2096 21.07 15.4792 20.1509 15.7498C20.0386 15.7826 19.3771 17.1344 18.1833 16.4233C18.0234 16.0156 18.8864 15.7923 18.3774 15.2693C18.2004 15.0872 17.5889 15.4015 17.3447 14.9805C17.3496 14.853 17.335 14.722 17.3447 14.5958C17.8391 15.3615 18.7509 14.563 18.5702 13.858C18.4921 13.5546 17.3875 12.7185 18.4091 11.3885L18.7643 11.613C17.6096 12.7792 18.9913 13.6808 19.0219 13.858C19.0463 13.9963 18.3981 15.1091 20.6672 15.5569C20.8784 14.4514 21.9892 13.284 23.1829 13.6335C23.7383 13.7961 24.1618 14.6055 24.3767 14.3385H24.3754Z" fill="#A2B02D"/>
<path d="M18.6667 14.7875C19.4748 15.6139 19.941 15.6843 18.8279 15.7814C18.9182 15.0776 18.2969 15.006 18.6667 14.7875Z" fill="#FDFDFC"/>
<path d="M17.0212 29.2801C17.3837 29.6223 17.5937 29.9864 17.7951 30.4341C17.3715 29.9366 17.8097 31.6816 16.4085 32.6148C15.2013 33.4193 12.9749 32.8271 13.4741 32.2301C14.9218 32.2653 15.775 31.3006 16.312 30.0822C16.6257 28.4792 16.4756 29.6903 17.0212 29.2801Z" fill="#70226B"/>
<path d="M16.0544 39.284C15.726 39.7913 15.0205 40.2233 14.8289 40.5024C14.7568 40.3301 14.7068 40.5024 14.6995 40.5024C13.5753 40.665 12.3364 40.2172 11.7969 39.1554C12.7514 40.2075 14.4395 39.2634 14.99 38.1931C15.3122 38.5729 15.5942 39.0413 16.0544 39.2828V39.284Z" fill="#541750"/>
<path d="M17.7962 30.4341C17.8963 30.6562 17.8365 31.1125 18.1185 30.6902L18.1831 30.8831C18.1709 30.9122 18.1514 31.0348 18.1185 31.1392C18.116 31.1452 18.0049 31.1161 17.9891 31.1707C17.9708 31.2375 17.8694 32.3539 17.8597 32.5492C17.3385 33.2385 17.0773 33.5237 16.312 33.9605C16.268 33.9605 15.9067 34.0879 15.8603 34.0891C15.0389 34.0988 14.1246 33.9095 13.6352 33.1912C13.5973 33.3671 13.1774 34.1304 13.2165 34.2178C13.3459 34.509 14.1649 34.6716 14.3126 36.3013C14.492 38.2781 13.3996 37.766 12.8613 38.0002C12.5976 38.1155 12.3682 39.0147 11.6358 38.4492C10.8973 37.8776 11.4234 35.3633 12.2486 34.8257C12.1839 34.6522 11.5858 35.1837 10.6679 34.9859C10.4726 34.9434 9.62425 34.5454 9.50707 34.4083C9.30933 34.1789 9.479 34.1729 9.47534 34.0879C9.46191 33.7906 9.57787 33.7275 9.41064 33.3829C10.0795 33.3113 10.6166 33.8161 11.7005 33.3829C12.4646 33.0771 12.6819 32.3939 13.0871 31.7799C13.1115 31.8284 13.446 32.2192 13.474 32.2289C12.9748 32.8259 15.2012 33.4181 16.4084 32.6135C17.8096 31.6804 17.3714 29.9354 17.795 30.4329L17.7962 30.4341Z" fill="#70226B"/>
<path d="M13.4424 35.1801L13.5388 35.2759C12.5648 36.0004 12.2731 37.2236 12.1522 37.2321C11.7641 37.26 11.9862 35.356 13.4424 35.1801Z" fill="#F9EDF4"/>
<path d="M17.8598 33.0638C17.8537 32.8963 17.855 32.7835 17.8598 32.6148C18.021 33.1063 18.2846 33.1063 18.3115 33.1281C20.0557 34.5879 21.8781 33.6499 22.2467 31.5567C21.9147 29.734 22.7777 31.5591 22.8912 32.1343C23.4783 35.0927 20.2827 36.7006 18.569 34.4423C18.1284 33.8611 18.0905 33.1536 17.8598 33.0638Z" fill="#541750"/>
<path d="M20.7625 29.2158C21.3764 29.3784 21.4338 29.7631 21.4716 29.7934C21.5705 32.1039 19.4479 31.7702 18.3115 33.1281C18.2859 33.1063 18.021 33.1075 17.8599 32.6148C17.8599 32.593 17.8599 32.5723 17.8599 32.5505C17.8696 32.3551 17.9709 31.2387 17.9892 31.172C18.0051 31.1161 18.1162 31.1465 18.1186 31.1404L18.3444 31.7811C18.414 30.8237 19.1293 29.9779 19.9898 29.569C19.1317 29.4743 18.4921 30.1454 18.1833 30.8832L18.1186 30.6902C18.4506 30.1951 19.0268 28.7559 20.7637 29.2158H20.7625Z" fill="#923E82"/>
<path d="M18.1187 31.1404C18.1516 31.0361 18.1711 30.9123 18.1833 30.8844C18.4922 30.1466 19.1318 29.4743 19.9898 29.5702C19.1305 29.9791 18.414 30.8249 18.3445 31.7824L18.1187 31.1416V31.1404Z" fill="#EAD7E6"/>
<path d="M15.9898 28.6394C16.2901 28.6928 16.7942 29.0654 17.0225 29.2801C16.4768 29.6903 16.627 28.4792 16.3133 30.0823C15.7762 31.3006 14.923 32.2653 13.4754 32.2301C13.4473 32.2204 13.1129 31.8297 13.0884 31.7811C12.8785 31.354 13.025 30.6841 12.411 29.9852C12.4122 32.2022 9.48277 33.355 8.70158 32.0687C8.12911 31.1259 8.53069 29.0993 11.0232 29.0872C12.1791 29.0811 12.5599 29.5313 13.119 30.4985C13.3326 29.8468 13.949 28.8809 14.6349 28.7025C14.9047 28.6334 15.7372 28.5945 15.9898 28.6382V28.6394Z" fill="#923E82"/>
<path d="M14.9256 29.0884C15.011 29.086 15.4773 29.177 15.4736 29.2486C14.0028 29.5775 13.8331 31.0785 13.7001 31.0761C13.1093 30.3322 14.1053 29.1163 14.9256 29.0884Z" fill="#EAD7E6"/>
<path d="M11.2489 29.3445C11.6346 29.5314 11.1684 29.4319 11.0549 29.4731C10.2407 29.7656 9.56572 30.5434 9.24836 31.3322C8.84922 31.3819 8.96274 29.3615 11.2477 29.3445H11.2489Z" fill="#EAD7E6"/>
<path d="M16.893 24.6628C16.7209 24.9104 16.4499 24.3231 16.0227 24.0852C15.8067 24.2369 17.1469 26.5122 12.7979 27.4199C12.2596 26.4916 12.4659 25.2477 13.0884 24.4056C14.1552 22.9627 15.9495 23.2285 16.8942 24.6616L16.893 24.6628Z" fill="#923E82"/>
<path d="M14.8607 23.766C15.4099 23.8837 14.3639 23.8668 13.7316 24.6313C13.1164 25.3751 13.0224 26.9721 12.8283 25.9139C12.6428 24.9043 13.8329 23.7369 14.8607 23.766Z" fill="#EAD7E6"/>
<path d="M19.2145 19.0201V18.8272C19.1937 18.4765 19.2914 18.1258 19.4085 17.8005C19.6173 17.2193 20.2532 16.3917 20.8916 16.2619C23.262 15.7789 23.8454 19.1257 19.6344 19.6608C19.4244 19.4934 19.3878 19.2118 19.2157 19.0201H19.2145Z" fill="#923E82"/>
<path d="M19.2146 19.0201C19.178 18.9788 19.1279 18.9388 19.0852 18.8915L19.2146 18.8271V19.0201Z" fill="#EDB9EA"/>
<path d="M21.3116 16.5191C22.8191 16.9098 19.9348 16.3322 19.7639 18.8271C19.1085 17.7277 20.2461 16.706 21.3116 16.5191Z" fill="#EAD7E6"/>
<path d="M24.8905 19.5977C24.7721 20.2676 24.4694 20.7967 23.9873 21.2651C23.9458 21.3063 23.6211 21.5721 23.6004 21.5854C23.3318 21.7541 23.4197 21.7723 23.4063 21.7784C23.3623 21.799 22.5189 22.0296 22.4713 22.0344C21.3239 22.1533 20.2144 21.6667 19.7945 20.56C19.8726 20.5078 20.8064 21.2748 21.3752 21.3294C23.6126 21.5442 25.4203 18.6209 24.0837 17.0324C22.503 17.2521 23.8128 17.5093 23.2769 19.0529C22.929 20.0552 21.4789 20.7129 20.4707 20.56C20.0118 20.4896 19.2892 19.7567 19.7933 20.3998L19.4381 20.6887C19.2538 18.6185 19.1818 21.8924 16.7296 22.0999C14.9853 22.2468 14.5178 21.0272 14.408 20.9459C14.2932 20.861 14.1724 20.9593 14.1175 21.1389C13.8758 21.9228 13.6903 22.5162 12.9237 22.9979C11.6592 23.7927 10.7681 23.1496 10.9891 23.6386C11.8935 23.5865 12.4074 23.891 13.0848 24.408C12.4636 25.2489 12.2573 26.494 12.7943 27.4223C17.1446 26.5158 15.8031 24.2393 16.0192 24.0876C16.4476 24.3243 16.7174 24.9116 16.8895 24.6652C17.8782 26.1651 17.4314 27.6771 15.9862 28.6406C15.7348 28.5957 14.9011 28.6345 14.6313 28.7049C14.5837 28.5108 14.1394 28.637 13.567 28.3203C13.4376 28.2487 13.1154 27.7803 12.986 27.807C12.9274 27.8191 12.5734 28.4768 12.2121 28.7049C11.5664 29.1127 11.0403 28.8032 11.0184 29.0896C8.52587 29.1029 8.12429 31.1283 8.69676 32.0711C9.47673 33.3562 12.4074 32.2034 12.4062 29.9876C13.0201 30.6865 12.8737 31.3552 13.0836 31.7835C12.6772 32.3976 12.4611 33.0807 11.697 33.3865C10.6131 33.8198 10.076 33.315 9.40715 33.3865C9.07271 32.6961 8.81882 32.9473 9.47184 34.0916C9.47551 34.1765 9.30584 34.1826 9.50358 34.4119C9.62198 34.5491 10.4691 34.9471 10.6644 34.9896C11.5823 35.1874 12.1804 34.6559 12.2451 34.8294C11.4199 35.3657 10.8938 37.8813 11.6323 38.4528C12.3647 39.0183 12.5942 38.1191 12.8578 38.0038C13.3961 37.7684 14.4885 38.2817 14.3091 36.305C14.1614 34.6753 13.3424 34.5114 13.213 34.2214C14.9341 33.8367 15.4113 35.1121 15.8581 34.0928C15.9044 34.0928 16.2657 33.9642 16.3097 33.9642C16.8663 33.9642 17.4558 33.7931 17.9551 34.2202C18.0942 34.2166 17.8843 33.8634 17.8586 33.0662C18.0893 33.156 18.1272 33.8634 18.5678 34.4447C20.2803 36.7018 23.4771 35.0951 22.89 32.1367C22.7765 31.5627 21.9123 29.7364 22.2455 31.559C21.8781 33.6523 20.0557 34.5903 18.3103 33.1305C19.4479 31.7726 21.5693 32.1063 21.4704 29.7958C21.6865 29.9633 21.9257 30.1065 22.1149 30.3092C23.2061 31.479 23.6077 32.6815 23.211 34.2845C23.1609 34.4884 23.001 34.8803 22.8888 35.0539C22.0563 36.3438 20.0594 36.5986 18.9535 35.5672C18.4348 35.083 18.3566 34.6825 18.2114 34.6049C18.1943 34.5964 18.0283 34.702 17.8245 34.6049C17.4937 34.4459 16.8651 34.06 16.5672 34.0916C16.35 34.1146 16.3109 34.0443 16.245 34.3161C16.2059 34.8876 16.5062 34.5551 16.5025 34.8609C15.6774 34.8427 15.166 35.8548 15.277 36.5926C14.9255 36.2492 15.1452 36.0501 14.8254 36.2394C14.8364 36.7054 14.5288 37.5439 15.0195 37.6823C15.6603 39.0875 17.8489 39.4006 18.696 38.0354C19.0597 37.4481 18.9779 36.8608 19.2123 36.5283C19.305 37.1083 19.3343 37.5755 19.1476 38.1313C18.829 39.0814 17.3863 39.7003 16.4391 39.4782C16.4183 39.4734 16.1364 39.3302 16.0521 39.2853C15.592 39.0426 15.31 38.5742 14.9878 38.1956C14.4373 39.2659 12.7504 40.21 11.7947 39.1579C11.0879 38.3788 10.7816 36.072 11.5371 35.2141L11.4407 35.1182C7.36874 35.9943 5.16554 30.7023 8.44165 28.2887C7.70929 28.1467 6.87683 27.466 6.50699 26.8459C5.88204 25.7986 5.93697 24.5196 6.4423 23.4469C6.36174 23.8401 6.20916 25.5207 6.4423 25.7234C6.73524 25.8387 6.53262 25.4346 6.76454 24.7939C6.81092 24.6677 6.89881 24.5342 6.95862 24.4092C7.90703 24.9856 9.71841 24.2369 9.79653 23.095C9.83314 22.5526 9.36077 21.9859 9.50602 21.9082C10.8597 22.6812 10.4166 23.618 10.5387 23.7042C11.0867 23.8413 10.9573 23.1678 10.7645 22.7419C12.7626 22.9797 14.1394 21.657 13.7965 19.696C14.17 19.2373 13.877 20.0795 14.1834 19.9848C14.3042 20.3198 14.2847 20.7287 14.6667 20.8828C19.8763 20.7566 18.4958 17.3783 15.537 18.4461C15.5798 18.3345 15.6737 18.3333 15.7946 18.1901C15.974 18.1622 16.3231 18.0687 16.4391 17.9341C16.4195 18.0918 16.8126 18.0008 17.3741 17.9984C17.3911 17.9984 17.6792 18.127 17.6963 18.127C17.7488 18.1246 17.7219 18.0008 17.728 17.9984C17.8501 17.9668 17.8757 18.1343 17.9856 17.9668C17.9184 17.8418 17.855 17.7447 17.7915 17.6137C18.2578 18.0069 18.6716 18.4474 19.0817 18.8963C19.1244 18.9437 19.1732 18.9837 19.2111 19.025C19.3844 19.2167 19.4198 19.4994 19.6297 19.6657C23.842 19.1318 23.2574 15.7838 20.887 16.2667C20.8931 16.2364 21.0078 16.1417 21.0163 16.1381C22.5519 15.5398 25.4447 16.456 24.8869 19.6014L24.8905 19.5977Z" fill="#70226B"/>
<path d="M8.41109 29.2801C8.59419 29.3974 8.77687 29.5151 8.95915 29.6332C8.13158 30.2557 8.44405 31.5457 7.86304 30.8516C7.79835 30.2788 7.98632 29.7 8.41109 29.2801Z" fill="#EAD7E6"/>
<path d="M9.41085 33.3841C9.57807 33.7287 9.46211 33.7918 9.47554 34.0891C8.82252 32.9448 9.0764 32.6936 9.41085 33.3841Z" fill="#CD7DA1"/>
<path d="M10.6034 23.7661C11.9863 23.584 13.3082 25.13 11.636 26.267C10.5912 26.9781 9.68671 26.409 8.99096 27.6783C8.19512 26.352 9.21677 23.9493 10.6034 23.7661Z" fill="#923E82"/>
<path d="M10.9915 24.2138C11.1124 24.2175 11.5127 24.2842 11.4749 24.4383C11.4383 24.5876 10.131 24.5184 9.37909 26.5219C8.74682 25.6227 9.97597 24.1847 10.9915 24.2138Z" fill="#EAD7E6"/>
<path d="M27.5353 26.6517C27.3205 27.4744 26.6992 28.0144 26.1804 28.6394C25.8387 28.6006 23.7002 29.9536 22.3746 27.6771C22.3917 27.6358 22.2574 27.7086 22.4393 27.2924C26.3745 31.2156 29.3845 23.5634 25.536 23.4129C26.3953 25.272 24.9366 26.8471 23.0203 25.8824C23.0239 25.8569 23.0203 25.4686 23.0203 25.369C23.0203 24.5584 22.9898 24.1362 22.504 23.4457C22.7078 23.2867 23.3559 22.7661 23.4072 22.7406C23.4585 22.7152 23.6513 22.6169 23.6648 22.612C26.2524 21.6546 28.1529 24.2793 27.5353 26.6517Z" fill="#70226B"/>
<path d="M22.4392 27.2924C22.6162 26.8895 22.9152 26.6177 23.0202 25.8811C24.9353 26.8458 26.3952 25.272 25.5359 23.4117C29.3857 23.5634 26.3744 31.2144 22.4392 27.2912V27.2924Z" fill="#70226B"/>
<path d="M23.0204 25.3691C23.0204 25.4686 23.0241 25.8569 23.0204 25.8824C22.9155 26.619 22.6164 26.8896 22.4394 27.2937C22.2576 27.7099 22.3918 27.6371 22.3747 27.6783C22.2771 27.9138 22.3125 27.9186 22.1172 28.1273C21.7364 28.0205 22.0659 27.8045 21.9561 27.7427C21.8133 27.6614 20.788 28.728 19.1499 27.614C20.6403 28.4331 22.7202 26.0838 22.5041 24.0876C22.7263 24.5099 22.819 24.9456 23.0204 25.3703V25.3691Z" fill="#70226B"/>
<path d="M22.5041 24.0864C22.7201 26.0838 20.6402 28.4319 19.1498 27.6128C18.7019 27.3082 18.4944 27.0595 18.2466 26.5862C20.3814 26.7245 22.7177 25.1349 21.375 22.8669C21.9096 23.1957 22.216 23.5379 22.5041 24.0852V24.0864Z" fill="#70226B"/>
<path d="M22.5041 23.4446C22.9887 24.1363 23.0204 24.5574 23.0204 25.368C22.819 24.9433 22.7275 24.5076 22.5041 24.0853C22.216 23.5381 21.9097 23.1959 21.375 22.867C22.7177 25.135 20.3815 26.7247 18.2466 26.5863C16.6696 23.5781 20.6927 20.8635 22.5041 23.4446Z" fill="#923E82"/>
<path d="M19.8921 22.8681C21.5521 22.6266 19.0083 23.2176 18.5372 25.113C17.8964 24.2345 18.9864 23.0003 19.8921 22.8681Z" fill="#EAD7E6"/>
<path d="M57.9713 32.8174H57.1828C57.3476 32.0044 57.4306 31.4826 57.4306 31.2496C57.4306 30.9304 57.3183 30.6938 57.0949 30.5385C56.8716 30.3831 56.448 30.3067 55.8267 30.3067L54.8942 30.3213L54.5878 30.3067H51.6718C51.6132 30.5288 51.457 31.0955 51.2043 32.0044C50.6782 33.8816 50.2779 35.4203 50.0057 36.6205H52.8497C53.5405 36.6205 53.9873 36.5525 54.1911 36.4178C54.395 36.2819 54.5646 35.9385 54.7013 35.3875H55.4899C55.1884 36.6071 54.9247 37.8788 54.7013 39.2052H53.8982C53.9665 38.6542 54.0007 38.329 54.0007 38.2332C54.0007 38.0014 53.8835 37.8267 53.6504 37.7102C53.5137 37.6422 53.1451 37.5985 52.5421 37.5791H49.7567C49.4747 38.9236 49.1049 40.3762 48.6484 41.9331C48.1918 43.4912 47.7976 44.6962 47.4668 45.5468C48.2443 45.673 48.9376 45.7349 49.5504 45.7349C49.9483 45.7349 50.3413 45.7058 50.7307 45.6475L50.4829 46.4751C50.201 46.5043 49.9373 46.5188 49.6944 46.5188C49.4808 46.5188 48.8083 46.4849 47.6792 46.4169C47.0079 46.3684 46.4378 46.3441 45.9716 46.3441C45.0268 46.3441 44.0198 46.4315 42.9493 46.605L43.1251 45.8065C43.9917 45.6233 44.563 45.4291 44.8401 45.2265C45.1171 45.0238 45.3295 44.7763 45.4748 44.4862C45.7763 43.8965 46.3414 42.0678 47.169 39.0001L49.4027 30.3055C48.0979 30.3443 46.9578 30.6343 45.9789 31.1768C45.0012 31.7192 44.2224 32.4473 43.6426 33.361C43.0629 34.276 42.7736 35.2019 42.7736 36.1411C42.7736 36.5185 42.8224 36.9056 42.9201 37.3024C42.9689 37.5245 43.1044 37.8449 43.329 38.2599C43.6109 38.7732 43.7525 39.1311 43.7525 39.3338C43.7525 39.5365 43.6695 39.7136 43.5047 39.8641C43.3387 40.0146 43.1251 40.0886 42.8627 40.0886C42.4733 40.0886 42.1572 39.8859 41.9143 39.4794C41.5835 38.9382 41.4175 38.1689 41.4175 37.1714C41.4175 35.2262 42.1816 33.4363 43.7098 31.8005C45.238 30.1744 47.252 29.3626 49.7542 29.3626H55.3605C55.983 29.3626 56.669 29.3238 57.4184 29.2461C57.6418 29.2267 58.1239 29.1248 58.8636 28.9415C58.3668 30.9644 58.0702 32.2556 57.9726 32.8174H57.9713Z" fill="black"/>
<path d="M60.6432 46.3453H58.4681L59.4897 42.4415C59.9865 40.5254 60.4186 38.7064 60.7885 36.9845C60.8763 36.5586 60.9203 36.2928 60.9203 36.186C60.9203 35.9542 60.8129 35.8378 60.5993 35.8378C60.4528 35.8378 60.2294 35.9373 59.9279 36.1351C59.6264 36.3329 59.0808 36.8243 58.2923 37.6082L57.8395 37.0998C58.7732 36.1035 59.7046 35.356 60.6334 34.8573C61.5623 34.3585 62.2752 34.1098 62.7719 34.1098C62.9477 34.1098 63.0856 34.151 63.1882 34.2335C63.2907 34.316 63.342 34.4204 63.342 34.5454C63.342 34.6704 63.2773 35.0077 63.1503 35.5514L62.5156 38.1628C63.5007 36.618 64.6126 35.2978 65.8503 34.1996C66.446 33.6753 66.9428 33.4132 67.3419 33.4132C67.6348 33.4132 67.8777 33.5079 68.073 33.696C68.2683 33.884 68.366 34.1049 68.366 34.3561C68.366 34.6073 68.2708 34.8403 68.0816 35.0235C67.8912 35.208 67.4176 35.4252 66.6596 35.6764C65.9394 35.9191 65.3535 36.2091 64.9019 36.5476C64.4491 36.8862 63.9535 37.4044 63.414 38.1009C62.8745 38.7974 62.4973 39.4054 62.2825 39.9223C62.0677 40.4393 61.7405 41.6418 61.3023 43.5288L60.6444 46.3441L60.6432 46.3453Z" fill="black"/>
<path d="M76.8639 33.8914L77.827 33.6887L76.7321 37.3607C76.2939 38.8218 75.8801 40.5061 75.492 42.4112C75.2784 43.4463 75.171 44.115 75.171 44.4147C75.171 44.7144 75.293 44.8649 75.5359 44.8649C75.6909 44.8649 75.9399 44.763 76.2805 44.5603C76.8835 44.2023 77.4633 43.757 78.0174 43.2255L78.4849 43.7922C77.3754 44.7982 76.665 45.4085 76.3537 45.6209C75.7312 46.0468 75.1368 46.3611 74.5729 46.5638C74.203 46.6997 73.8429 46.7664 73.4926 46.7664C73.24 46.7664 73.0495 46.7082 72.9226 46.5917C72.7956 46.4752 72.7334 46.3065 72.7334 46.0832C72.7334 45.9376 72.7725 45.7398 72.8506 45.4886L73.434 43.5143C72.5967 44.5106 71.5995 45.3673 70.4411 46.0832C69.7307 46.5286 69.0777 46.7507 68.4845 46.7507C67.8912 46.7507 67.4872 46.5529 67.1857 46.156C66.7768 45.6245 66.573 44.9268 66.573 44.0664C66.573 43.041 66.8476 41.8991 67.3981 40.6408C67.9474 39.3836 68.6846 38.2417 69.6099 37.2151C70.5351 36.1897 71.5079 35.4349 72.5296 34.9507C73.3181 34.5831 74.33 34.3998 75.5664 34.3998C75.8777 34.3998 76.1938 34.4192 76.5148 34.4581L76.8652 33.8914H76.8639ZM75.0538 36.1121C74.5277 36.0053 74.0846 35.9519 73.7257 35.9519C72.8494 35.9519 72.0853 36.1909 71.4335 36.6703C70.7817 37.1496 70.175 38.0111 69.616 39.2538C69.0557 40.4976 68.7762 41.7378 68.7762 42.9767C68.7762 43.6344 68.8885 44.1089 69.1119 44.3989C69.3352 44.6889 69.6282 44.8346 69.9883 44.8346C70.6596 44.8346 71.3797 44.4742 72.1487 43.7534C72.9177 43.0325 73.4816 41.995 73.8417 40.6396L75.0538 36.1108V36.1121Z" fill="black"/>
<path d="M89.2909 34.037L90.4639 33.7748C89.7559 36.0392 89.1065 38.3096 88.5146 40.5837C88.0873 42.2098 87.792 43.564 87.6272 44.6476C87.5393 45.1901 87.4917 45.8769 87.4819 46.7081C87.4624 48.1012 87.3062 49.2237 87.0144 50.0756C86.6055 51.266 85.8439 52.2234 84.7282 52.9491C83.6138 53.6748 82.2919 54.0376 80.7625 54.0376C79.4479 54.0376 78.414 53.7306 77.6585 53.1165C76.9041 52.5025 76.527 51.7975 76.527 51.0051C76.527 50.2127 76.8297 49.4907 77.4339 48.8135C77.8831 48.3002 78.8193 47.6814 80.2437 46.9557C80.9663 46.5783 81.6438 46.1912 82.2785 45.7944C81.5547 46.1621 80.992 46.3453 80.5916 46.3453C80.2291 46.3453 79.9093 46.1778 79.631 45.8441C79.3527 45.5104 79.2135 45.0675 79.2135 44.5166C79.2135 42.7364 79.7469 40.9672 80.8125 39.2112C81.8781 37.4553 83.161 36.1363 84.6611 35.2565C85.5863 34.7153 86.7447 34.4435 88.1374 34.4435C88.4096 34.4435 88.7465 34.4532 89.1456 34.4726L89.2909 34.037ZM85.6815 44.0955C85.0187 44.6853 83.7408 45.6294 81.8488 46.9254C80.1815 48.0478 79.1574 48.856 78.7766 49.3487C78.3957 49.8523 78.2065 50.3838 78.2065 50.9456C78.2065 51.5075 78.4531 51.9929 78.945 52.4334C79.4381 52.8739 80.035 53.0935 80.7368 53.0935C81.3996 53.0935 82.0441 52.9309 82.6678 52.6069C83.2916 52.2829 83.836 51.8133 84.2986 51.1992C84.7612 50.5852 85.081 49.8899 85.2568 49.1169C85.4325 48.3427 85.5253 47.3173 85.5351 46.0395C85.5448 45.7592 85.5936 45.11 85.6803 44.0943L85.6815 44.0955ZM87.6601 36.1848C87.1939 36.0974 86.7801 36.0538 86.42 36.0538C85.496 36.0538 84.7038 36.2952 84.0423 36.7794C83.3807 37.2636 82.8168 38.0766 82.3505 39.2173C81.6987 40.8337 81.3728 42.1928 81.3728 43.2958C81.3728 43.7509 81.5009 44.1331 81.7597 44.4426C82.0173 44.752 82.3065 44.9073 82.6276 44.9073C83.0169 44.9073 83.4979 44.7205 84.0715 44.3479C84.6452 43.9754 85.1139 43.5082 85.4789 42.9476C85.8439 42.3869 86.2149 41.4186 86.5945 40.0449L87.6589 36.1836L87.6601 36.1848Z" fill="black"/>
<path d="M98.6603 34.1389C99.6136 34.1389 100.407 34.5163 101.041 35.2711C101.673 36.0259 101.989 37.0755 101.989 38.4213C101.989 40.5692 101.23 42.4974 99.7113 44.2048C98.1928 45.9133 96.5865 46.7664 94.8935 46.7664C93.8523 46.7664 93.0126 46.4279 92.3754 45.7507C91.7383 45.0736 91.4197 44.1489 91.4197 42.9791C91.4197 40.9466 92.0043 39.0705 93.1712 37.3474C94.6409 35.2092 96.4705 34.1401 98.6603 34.1401V34.1389ZM97.4202 35.2274C96.5926 35.2274 95.7919 35.8147 95.018 36.9906C94.2442 38.1665 93.8572 39.7901 93.8572 41.8603C93.8572 43.1187 94.0952 44.1101 94.5725 44.8358C94.9228 45.3685 95.3903 45.6342 95.9738 45.6342C96.7916 45.6342 97.5361 45.1319 98.2075 44.1247C99.0643 42.8177 99.4928 41.1977 99.4928 39.2622C99.4928 37.8109 99.295 36.7758 98.902 36.1557C98.5077 35.5368 98.0134 35.2274 97.4202 35.2274Z" fill="black"/>
<path d="M109.449 42.8469L109.946 43.3699C109.187 44.2217 108.288 44.9984 107.252 45.6997C106.216 46.4011 105.361 46.7518 104.69 46.7518C104.389 46.7518 104.14 46.6378 103.946 46.4109C103.75 46.1839 103.654 45.8721 103.654 45.4753C103.654 44.7011 103.955 43.0944 104.558 40.6565L106.133 34.2845C106.707 31.9813 107.187 30.4378 107.577 29.6539C108.18 28.4683 109.032 27.5473 110.135 26.892C111.239 26.2367 112.403 25.9091 113.627 25.9091C114.045 25.9091 114.373 26.0086 114.611 26.2088C114.849 26.409 114.969 26.6493 114.969 26.932C114.969 27.2439 114.852 27.4999 114.62 27.7002C114.387 27.9004 114.047 27.9999 113.602 27.9999C113.311 27.9999 112.899 27.9513 112.365 27.8543C111.9 27.7766 111.468 27.7378 111.07 27.7378C110.672 27.7378 110.372 27.8191 110.168 27.9829C109.887 28.2147 109.632 28.7001 109.404 29.4415C109.176 30.1829 108.805 31.6464 108.291 33.8331L106.835 39.9151C106.115 42.9633 105.754 44.5554 105.754 44.6901C105.754 44.9996 105.867 45.1549 106.09 45.1549C106.314 45.1549 106.616 45.0287 107.025 44.7775C107.833 44.2751 108.642 43.6308 109.45 42.8469H109.449Z" fill="black"/>
<path d="M120.502 33.8914L121.465 33.6887L120.37 37.3607C119.932 38.8218 119.518 40.5061 119.13 42.4112C118.916 43.4463 118.809 44.115 118.809 44.4147C118.809 44.7144 118.931 44.8649 119.174 44.8649C119.329 44.8649 119.578 44.763 119.918 44.5603C120.521 44.2023 121.101 43.757 121.655 43.2255L122.123 43.7922C121.013 44.7982 120.303 45.4085 119.992 45.6209C119.369 46.0468 118.775 46.3611 118.211 46.5638C117.841 46.6997 117.481 46.7664 117.13 46.7664C116.878 46.7664 116.687 46.7082 116.56 46.5917C116.433 46.4752 116.371 46.3065 116.371 46.0832C116.371 45.9376 116.41 45.7398 116.488 45.4886L117.072 43.5143C116.235 44.5106 115.237 45.3673 114.079 46.0832C113.369 46.5286 112.715 46.7507 112.122 46.7507C111.529 46.7507 111.125 46.5529 110.824 46.156C110.415 45.6245 110.211 44.9268 110.211 44.0664C110.211 43.041 110.485 41.8991 111.036 40.6408C111.585 39.3836 112.322 38.2417 113.248 37.2151C114.173 36.1897 115.146 35.4349 116.167 34.9507C116.956 34.5831 117.968 34.3998 119.204 34.3998C119.515 34.3998 119.832 34.4192 120.153 34.4581L120.503 33.8914H120.502ZM118.692 36.1121C118.166 36.0053 117.722 35.9519 117.364 35.9519C116.487 35.9519 115.723 36.1909 115.071 36.6703C114.419 37.1496 113.813 38.0111 113.254 39.2538C112.694 40.4976 112.414 41.7378 112.414 42.9767C112.414 43.6344 112.526 44.1089 112.75 44.3989C112.973 44.6889 113.266 44.8346 113.626 44.8346C114.297 44.8346 115.018 44.4742 115.787 43.7534C116.556 43.0325 117.119 41.995 117.48 40.6396L118.692 36.1108V36.1121Z" fill="black"/>
<path d="M59.4324 6.36834H58.6439C58.6928 5.61355 58.7172 5.00923 58.7172 4.55418C58.7172 3.19022 58.4328 2.23885 57.8627 1.70249C57.2939 1.16492 56.575 0.896742 55.7096 0.896742C54.5512 0.896742 53.3489 1.36393 52.1039 2.2971C50.8577 3.23148 49.7872 4.68766 48.8925 6.66564C47.9966 8.64483 47.5498 10.6786 47.5498 12.7695C47.5498 14.8603 47.9661 16.342 48.7985 17.4207C49.631 18.4995 50.6746 19.0395 51.9306 19.0395C53.6333 19.0395 55.1957 18.0238 56.6165 15.9913C56.763 15.7886 56.9131 15.6867 57.0693 15.6867C57.1963 15.6867 57.3025 15.7279 57.3904 15.8105C57.4783 15.893 57.5222 15.9876 57.5222 16.0932C57.5222 16.3541 57.1987 16.8674 56.5518 17.6319C55.9049 18.3964 55.0895 19.0322 54.1069 19.5407C53.1243 20.0491 52.1552 20.3028 51.2019 20.3028C50.0533 20.3028 48.9877 20.0055 48.0051 19.4096C47.0225 18.815 46.2584 17.9656 45.7128 16.8625C45.1672 15.7595 44.895 14.4489 44.895 12.9296C44.895 10.8109 45.4516 8.70065 46.5672 6.60132C47.6817 4.502 49.0756 2.88078 50.7503 1.7389C52.4237 0.597008 54.0593 0.0266724 55.6559 0.0266724C56.2296 0.0266724 56.7996 0.089772 57.3635 0.214761C57.6064 0.273008 58.6098 0.606716 60.3711 1.21588C59.8157 2.88078 59.5045 4.59787 59.4361 6.36834H59.4324Z" fill="black"/>
<path d="M70.0749 5.00319L71.0379 4.80054L69.943 8.47254C69.5048 9.93357 69.0911 11.6179 68.7029 13.5231C68.4893 14.5582 68.3819 15.2268 68.3819 15.5265C68.3819 15.8262 68.5039 15.9767 68.7468 15.9767C68.9019 15.9767 69.1509 15.8748 69.4914 15.6721C70.0944 15.3142 70.6742 14.8688 71.2283 14.3373L71.6958 14.9028C70.5863 15.9088 69.8759 16.5191 69.5647 16.7315C68.9421 17.1574 68.3477 17.4717 67.7838 17.6744C67.4139 17.8103 67.0539 17.877 66.7036 17.877C66.4509 17.877 66.2605 17.8188 66.1335 17.7023C66.0066 17.5858 65.9443 17.4171 65.9443 17.1938C65.9443 17.0482 65.9834 16.8504 66.0615 16.5992L66.645 14.6249C65.8076 15.6212 64.8104 16.4779 63.652 17.1938C62.9416 17.6392 62.2886 17.8613 61.6954 17.8613C61.1022 17.8613 60.6982 17.6622 60.3967 17.2667C59.9878 16.7351 59.7839 16.0374 59.7839 15.177C59.7839 14.1516 60.0586 13.0098 60.6091 11.7514C61.1583 10.4942 61.8956 9.35231 62.8208 8.3257C63.746 7.30031 64.7188 6.54553 65.7405 6.06135C66.529 5.69366 67.5409 5.50921 68.7774 5.50921C69.0886 5.50921 69.4048 5.52863 69.7258 5.56746L70.0761 5.00198L70.0749 5.00319ZM68.2647 7.22386C67.7386 7.11708 67.2955 7.06368 66.9367 7.06368C66.0603 7.06368 65.2962 7.30274 64.6444 7.78207C63.9926 8.26139 63.3859 9.12175 62.8269 10.3656C62.2666 11.6094 61.9871 12.8496 61.9871 14.0885C61.9871 14.7462 62.0994 15.2207 62.3228 15.5107C62.5462 15.8008 62.8391 15.9464 63.1992 15.9464C63.8705 15.9464 64.5907 15.586 65.3597 14.8652C66.1286 14.1444 66.6926 13.1068 67.0526 11.7514L68.2647 7.22265V7.22386Z" fill="black"/>
<path d="M79.0829 5.25073C79.9496 5.25073 80.6185 5.41819 81.0908 5.7519C81.5632 6.08561 81.7988 6.47028 81.7988 6.90593C81.7988 7.16682 81.6987 7.39496 81.4997 7.5879C81.3008 7.78206 81.0591 7.87793 80.7771 7.87793C80.5916 7.87793 80.4317 7.83667 80.295 7.75415C80.1583 7.67163 79.9642 7.46655 79.7116 7.1377C79.2343 6.50912 78.7631 6.19482 78.2956 6.19482C77.8965 6.19482 77.5438 6.34772 77.2374 6.65109C76.931 6.95568 76.7772 7.33428 76.7772 7.78934C76.7772 8.18615 76.8749 8.56961 77.0689 8.94215C77.263 9.31469 77.7549 9.91536 78.5434 10.7466C79.6237 11.8873 80.1644 12.9697 80.1644 13.9939C80.1644 15.0181 79.7262 15.9148 78.8498 16.683C77.9734 17.4511 76.8444 17.8358 75.4626 17.8358C74.3043 17.8358 73.4425 17.6016 72.8786 17.1319C72.3147 16.6623 72.0315 16.0847 72.0315 15.3979C72.0315 15.0593 72.1389 14.779 72.3525 14.5557C72.5661 14.3337 72.8298 14.222 73.141 14.222C73.4132 14.222 73.6476 14.3118 73.8417 14.4902C74.0357 14.6698 74.1334 14.8797 74.1334 15.1212C74.1334 15.2183 74.1273 15.3433 74.1138 15.4986C74.1077 15.6248 74.1041 15.7304 74.1041 15.8177C74.1041 16.1369 74.2396 16.4075 74.5118 16.6308C74.7742 16.8541 75.1331 16.9645 75.5883 16.9645C76.112 16.9645 76.5722 16.8747 76.9701 16.6963C77.368 16.5179 77.678 16.2473 77.9014 15.8845C78.1248 15.5217 78.2358 15.1625 78.2358 14.8045C78.2358 14.4465 78.1309 14.1092 77.9221 13.7609C77.7122 13.4126 77.2435 12.8374 76.5136 12.0353C75.5017 10.9141 74.9951 9.83649 74.9951 8.8026C74.9951 7.85608 75.3796 7.02606 76.1486 6.31617C76.9176 5.60628 77.8953 5.25073 79.0829 5.25073Z" fill="black"/>
<path d="M92.1935 5.00319L93.1566 4.80054L92.0617 8.47254C91.6235 9.93357 91.2097 11.6179 90.8216 13.5231C90.6079 14.5582 90.5005 15.2268 90.5005 15.5265C90.5005 15.8262 90.6226 15.9767 90.8655 15.9767C91.0205 15.9767 91.2695 15.8748 91.6101 15.6721C92.213 15.3142 92.7928 14.8688 93.347 14.3373L93.8145 14.9028C92.705 15.9088 91.9946 16.5191 91.6833 16.7315C91.0608 17.1574 90.4664 17.4717 89.9024 17.6744C89.5326 17.8103 89.1725 17.877 88.8222 17.877C88.5695 17.877 88.3791 17.8188 88.2522 17.7023C88.1252 17.5858 88.063 17.4171 88.063 17.1938C88.063 17.0482 88.102 16.8504 88.1802 16.5992L88.7636 14.6249C87.9263 15.6212 86.929 16.4779 85.7707 17.1938C85.0603 17.6392 84.4073 17.8613 83.8141 17.8613C83.2208 17.8613 82.8168 17.6622 82.5153 17.2667C82.1064 16.7351 81.9026 16.0374 81.9026 15.177C81.9026 14.1516 82.1772 13.0098 82.7277 11.7514C83.277 10.4942 84.0142 9.35231 84.9395 8.3257C85.8647 7.30031 86.8375 6.54553 87.8592 6.06135C88.6477 5.69366 89.6595 5.50921 90.896 5.50921C91.2073 5.50921 91.5234 5.52863 91.8444 5.56746L92.1947 5.00198L92.1935 5.00319ZM90.3834 7.22386C89.8573 7.11708 89.4142 7.06368 89.0553 7.06368C88.1789 7.06368 87.4148 7.30274 86.763 7.78207C86.1112 8.26139 85.5046 9.12175 84.9456 10.3656C84.3853 11.6094 84.1058 12.8496 84.1058 14.0885C84.1058 14.7462 84.2181 15.2207 84.4415 15.5107C84.6648 15.8008 84.9578 15.9464 85.3178 15.9464C85.9892 15.9464 86.7093 15.586 87.4783 14.8652C88.2473 14.1444 88.8112 13.1068 89.1713 11.7514L90.3834 7.22265V7.22386Z" fill="black"/>
<path d="M95.3061 29.7133C95.7601 29.9488 96.252 30.1211 96.6939 30.3808C94.9033 30.7218 92.4718 30.0349 91.0877 28.8506C90.6409 28.4671 89.1652 26.926 89.5241 26.477C91.1633 27.9332 93.1712 29.3481 95.3061 29.7133Z" fill="#0E1F12"/>
<path d="M91.3598 26.3787C92.6732 27.1214 93.9121 27.9842 94.83 29.2025C93.9854 28.739 92.9234 28.1613 92.0104 27.9016C93.1004 28.5108 94.1978 29.1382 95.3061 29.7122C93.1724 29.3469 91.1645 27.932 89.524 26.4758C89.8634 25.9237 90.8533 26.2477 91.3598 26.3775V26.3787Z" fill="#2D4427"/>
<path d="M99.0693 27.3932C99.0607 27.9077 98.9289 28.4683 98.8569 28.9792C98.8386 28.9938 98.9692 28.9828 98.5188 29.3105C98.3088 28.6322 97.8694 28.0521 97.5789 27.415C97.2176 26.6263 96.9112 25.9516 96.7477 25.0851L97.015 24.8983C97.1761 25.6737 97.4776 26.4103 97.8682 27.0959C98.0521 27.5344 98.236 27.9724 98.4199 28.4101C98.459 28.5666 98.581 28.7632 98.614 28.9319C98.5981 27.4854 98.4309 25.9746 98.2283 24.5536C98.2234 24.2648 98.1843 23.9772 98.1904 23.6896C98.8813 24.7842 99.0912 26.1239 99.0705 27.3944L99.0693 27.3932Z" fill="#1C2F16"/>
<path d="M94.1636 27.6056C95.2133 28.3009 96.0824 29.3918 96.9783 30.2667C96.971 30.2704 96.9783 30.2776 96.8416 30.348L96.7427 30.3699C96.1239 29.9658 95.477 29.5568 94.8301 29.2025C93.9122 27.9842 92.6732 27.1214 91.3599 26.3787C92.1179 26.5741 93.513 27.176 94.1636 27.6056Z" fill="#0E1F12"/>
<path d="M98.1892 23.6884C98.1843 23.976 98.2222 24.2636 98.227 24.5524C98.249 25.755 98.1331 27.2464 98.4187 28.4089C98.2348 27.9704 98.0509 27.5323 97.867 27.0947C97.9378 27.0826 97.8987 27.0146 97.8828 26.9369C98.1697 26.9418 97.6485 25.5657 97.4727 24.6422C97.4312 24.4214 97.4337 22.9943 97.1419 23.0477C96.9393 23.0841 97.1114 23.8947 97.1395 24.0743C96.9125 23.9396 96.888 23.5719 96.8661 23.5452C96.8343 23.5064 96.7184 23.7188 96.6915 23.4554C96.8978 22.1886 97.7925 23.0611 98.1892 23.6884Z" fill="#4A693F"/>
<path d="M100.802 27.9854C100.564 28.4004 98.9276 29.4367 98.8544 29.5447C98.7751 29.6624 98.78 30.24 98.7702 30.4354C98.6164 30.4172 98.6701 30.5313 98.5956 30.5762C98.5786 30.3068 98.5611 30.037 98.5432 29.7668C98.2417 30.0216 97.9866 30.0665 97.8743 30.1199C98.1416 29.7947 98.7726 29.8177 98.4309 29.3809C98.4626 29.3578 98.4858 29.3336 98.5187 29.3105C98.9704 28.9829 98.8385 28.9938 98.8569 28.9792C99.3231 28.6176 99.8309 28.3009 100.267 27.898C100.292 27.9065 100.573 27.9053 100.802 27.9854Z" fill="#79593F"/>
<path d="M97.1407 24.0743C97.2957 25.0524 97.6876 25.9734 97.8841 26.9369C97.8999 27.0134 97.939 27.0825 97.8682 27.0947C97.4776 26.4091 97.1761 25.6725 97.015 24.897L96.7477 25.0839C96.6488 24.5597 96.6061 23.9857 96.6928 23.4542C96.7208 23.7175 96.8368 23.5052 96.8673 23.544C96.8893 23.5707 96.9137 23.9384 97.1407 24.0731V24.0743Z" fill="#3A5431"/>
<path d="M98.8251 31.6028C98.8214 31.496 98.7628 31.2957 98.7592 31.0785C98.7592 31.0348 98.8409 30.99 98.8409 30.9839C101.353 31.1331 105.798 33.4278 106.677 35.7929L106.554 36.0514C103.71 37.26 100.102 33.9885 98.8238 31.604L98.8251 31.6028Z" fill="#0E1F12"/>
<path d="M87.7383 34.8755C87.9092 34.8755 87.9665 34.935 88.1643 34.935C88.3242 34.935 88.4133 34.9265 88.5683 34.8974C90.2027 34.5892 93.2322 33.3575 94.3271 32.0336C95.0668 31.6986 95.8285 31.3904 96.5071 30.9354C96.6451 31.1841 95.5001 32.4462 95.2267 32.7071C94.6286 33.2738 93.4202 34.1135 92.6756 34.4508C91.4111 35.0236 88.1533 35.8475 87.7395 34.8755H87.7383Z" fill="#0E1F12"/>
<path d="M96.1581 30.7557L96.3387 30.8698C95.3232 31.3516 94.3198 31.8818 93.2823 32.3151C92.3766 32.6937 90.5799 33.213 90.4578 33.2992C90.4175 33.3283 90.4615 33.3975 90.4554 33.4023C90.2308 33.5783 89.6242 34.3258 89.2885 34.5321C88.9882 34.7178 88.4878 34.7554 88.5695 34.8961C88.4133 34.9253 88.3254 34.935 88.1655 34.9338C88.7746 34.4095 89.391 33.4582 89.9415 32.9509C90.8704 32.0918 92.0275 31.5469 93.2494 31.2448L93.1322 31.0652C95.1608 30.5859 95.9933 30.7909 96.1593 30.7545L96.1581 30.7557Z" fill="#2D4427"/>
<path d="M93.131 31.0664L93.2482 31.246C92.0251 31.5482 90.8692 32.0942 89.9403 32.9522L89.9733 32.8684C89.7963 32.7713 87.9092 34.4423 87.7176 34.7784C87.5284 34.0904 89.1018 32.8114 89.6486 32.4534C90.7154 31.7532 91.9006 31.3589 93.1322 31.0676L93.131 31.0664Z" fill="#6E8E5F"/>
<path d="M96.4864 30.837C96.4279 30.9742 96.506 30.9305 96.5084 30.9353C95.8298 31.3892 95.0681 31.6974 94.3284 32.0335C93.0749 32.6014 91.8335 33.1973 90.4542 33.4036C90.4603 33.3987 90.4164 33.3295 90.4566 33.3004C90.5787 33.2142 92.3754 32.6949 93.2811 32.3163C94.3199 31.8818 95.322 31.3528 96.3375 30.871C96.3802 30.8504 96.4425 30.8589 96.4852 30.8383L96.4864 30.837Z" fill="#6D8265"/>
<path d="M89.9404 32.9522C89.3911 33.4606 88.7735 34.4108 88.1644 34.935C87.9667 34.935 87.9093 34.8768 87.7384 34.8755L87.7164 34.7773C87.9093 34.4411 89.7951 32.7701 89.9721 32.8672L89.9392 32.951L89.9404 32.9522Z" fill="#4A693F"/>
<path d="M94.8301 29.2025C95.477 29.5568 96.1239 29.967 96.7428 30.3698C96.7269 30.3735 96.7098 30.3771 96.694 30.3808C96.2509 30.1211 95.7602 29.9475 95.3061 29.7133C94.1978 29.1394 93.1017 28.5108 92.0105 27.9028C92.9235 28.1625 93.9854 28.7401 94.8301 29.2037V29.2025Z" fill="#5B7158"/>
<path d="M97.8742 30.1199C97.6484 30.2255 97.4483 30.3614 97.2298 30.4681C96.9808 30.5895 96.7391 30.7169 96.4864 30.8383C96.4437 30.8589 96.3814 30.8504 96.3387 30.871L96.1581 30.757C96.462 30.6902 96.8062 30.3674 96.8404 30.3492C96.9771 30.2788 96.9698 30.2716 96.9771 30.2679C97.4971 29.9864 97.9487 29.7255 98.4308 29.3821C98.7726 29.8189 98.1403 29.7959 97.8742 30.1211V30.1199Z" fill="#876C46"/>
<path d="M98.4199 28.4089C98.1343 27.2464 98.2502 25.755 98.2283 24.5524C98.4321 25.9734 98.5981 27.4842 98.614 28.9307C98.581 28.762 98.4589 28.5654 98.4199 28.4089Z" fill="#2D4427"/>
<path d="M97.884 26.9369C97.6875 25.9734 97.2957 25.0524 97.1407 24.0743C97.1126 23.8947 96.9405 23.0841 97.1431 23.0477C97.4348 22.9943 97.4324 24.4214 97.4739 24.6422C97.6497 25.5657 98.1709 26.9418 97.884 26.9369Z" fill="#607F51"/>
<path d="M101.901 33.1293C102.3 33.099 104.367 34.7117 104.478 34.6122C104.564 34.5345 103.367 33.2179 102.934 32.9012C103.004 32.7131 103.853 33.2725 104.207 33.5177C104.557 33.7591 106.663 35.3209 106.188 35.5684C105.026 36.6751 99.7418 32.7095 99.2072 31.4681C100.545 32.6986 102.962 34.0479 104.566 35.003L104.683 34.9508C103.751 34.3489 102.827 33.7385 101.901 33.1293Z" fill="#2D4427"/>
<path d="M102.934 32.9012C103.367 33.2179 104.564 34.5346 104.478 34.6122C104.367 34.7117 102.3 33.099 101.901 33.1293C100.972 32.5165 99.9835 31.9705 99.1522 31.223C100.124 31.5724 102.165 32.3394 102.934 32.9012Z" fill="#2D4427"/>
<path d="M99.1522 31.2229C99.9835 31.9704 100.972 32.5165 101.901 33.1293C102.826 33.7397 103.751 34.3489 104.683 34.9507L104.566 35.0029C102.962 34.0467 100.546 32.6973 99.2072 31.468C99.0961 31.3661 98.9899 31.2581 98.8788 31.1562C98.8373 30.9996 98.9838 31.1635 99.1522 31.2241V31.2229Z" fill="#6D8265"/>
<path d="M94.3284 32.0336C93.2335 33.3575 90.204 34.5892 88.5696 34.8974C88.4878 34.7554 88.987 34.719 89.2885 34.5333C89.623 34.3271 90.2308 33.5796 90.4554 33.4036C91.8335 33.1973 93.0761 32.6015 94.3296 32.0336H94.3284Z" fill="#2D4427"/>
<path d="M98.7702 30.4354C98.7458 30.8965 98.841 30.9559 98.841 30.9839C98.841 30.9899 98.758 31.0348 98.7593 31.0785C98.7629 31.2957 98.8203 31.4959 98.8252 31.6027C98.8581 32.4655 98.957 33.321 98.99 34.1826C98.99 34.1935 98.9301 34.3027 98.935 34.3998C98.8325 34.5078 98.8398 34.4496 98.8154 34.3234C98.647 33.4946 98.6006 31.8491 98.5139 30.9013C98.5078 30.8285 98.7287 30.7885 98.5078 30.6465C98.5469 30.6344 98.5554 30.6004 98.5957 30.5761C98.6701 30.5312 98.6164 30.4172 98.7702 30.4354Z" fill="#9E9057"/>
<path d="M97.8743 30.1199C97.5326 30.5361 98.0965 30.3808 98.5078 30.6465C98.7288 30.7885 98.5078 30.8285 98.5139 30.9014C98.0859 30.7565 97.6579 30.6117 97.2299 30.4669C97.4483 30.3613 97.6485 30.2254 97.8743 30.1187V30.1199Z" fill="#79593F"/>
<path d="M91.0243 44.2557C91.2269 44.4402 91.3758 44.5227 91.6248 44.6356C92.0777 44.8419 92.1863 44.8479 92.6953 44.8091C95.8274 44.57 98.9643 40.2367 99.1084 37.26C99.145 36.504 98.9509 35.7456 99.0644 34.9872C99.2329 35.0199 99.2902 35.0199 99.4526 35.1061C100.934 35.9045 101.473 38.1835 101.262 39.7343C100.999 41.6686 99.6149 43.5677 98.3968 45.036C100.383 43.9196 101.783 41.9841 102.032 39.7173C102.159 38.5706 102.101 37.5961 101.626 36.5234C101.238 35.6461 100.617 34.9714 99.6564 34.753C99.0473 34.6146 98.9656 34.9847 98.9326 34.3998C98.9277 34.3027 98.9875 34.1935 98.9875 34.1826C102.477 34.435 103.273 39.062 102.448 41.8057C100.921 46.8866 94.1832 49.4555 91.0231 44.2545L91.0243 44.2557Z" fill="#685E0B"/>
<path d="M97.596 34.1838C96.3937 35.5927 99.1791 35.4058 98.7165 34.3464L98.8154 34.3246C98.841 34.4496 98.8325 34.509 98.935 34.401C98.968 34.9859 99.0497 34.6158 99.6588 34.7542C100.619 34.9726 101.242 35.6473 101.629 36.5246C101.416 36.4397 101.154 35.958 100.945 35.7784C100.794 35.6473 99.5941 34.844 99.4538 35.1073C99.2926 35.0199 99.234 35.0211 99.0656 34.9884C99.0302 34.9811 98.8727 34.8779 98.8605 34.8804C98.7165 34.9022 98.3491 35.4823 97.6399 35.3039C97.0919 35.1655 97.1981 34.645 97.1969 34.4787L97.596 34.1851V34.1838Z" fill="#E9E0B0"/>
<path d="M102.034 39.7185C101.784 41.9853 100.385 43.9208 98.3992 45.0372C99.6173 43.5677 101.002 41.6686 101.264 39.7355C101.521 39.7298 101.778 39.7242 102.034 39.7185Z" fill="#A79B19"/>
<path d="M101.629 36.5246C102.104 37.5973 102.16 38.5718 102.034 39.7185C101.777 39.7242 101.52 39.7298 101.264 39.7355C101.474 38.1847 100.937 35.907 99.455 35.1073C99.5953 34.844 100.796 35.6473 100.947 35.7783C101.154 35.9591 101.418 36.4397 101.63 36.5246H101.629Z" fill="#ACA84E"/>
<path d="M98.465 34.145C98.5212 34.1984 98.6835 34.2712 98.7165 34.3464C99.1803 35.4058 96.3937 35.5927 97.596 34.1838C97.6436 34.128 97.7071 34.1074 97.6619 34.0151C97.8767 33.98 98.2441 34.1098 98.465 34.145Z" fill="#471013"/>
<path d="M97.7242 34.412L97.9207 34.3683C98.4797 34.884 97.2908 35.0527 97.7242 34.412Z" fill="#BE2E4E"/>
<path d="M91.5649 43.2133C92.0361 43.4573 91.9531 43.5895 91.6797 44.4195C91.6553 44.4948 91.5942 44.5518 91.6248 44.6368C91.3745 44.5227 91.2268 44.4402 91.0242 44.2569C90.5409 43.4621 90.3126 42.9185 90.1552 41.9865C90.3858 43.143 91.2586 43.0556 91.5649 43.2133Z" fill="#A79B19"/>
<path d="M99.0657 34.9872C98.9534 35.7456 99.1462 36.5052 99.1096 37.26C98.9656 40.2367 95.8286 44.5712 92.6965 44.8091C94.63 43.1818 95.8469 42.2583 96.9198 39.9248C97.2579 39.1894 97.9647 37.4517 98.1099 36.7115C98.3125 35.6849 98.0965 36.1048 97.8695 35.8669C97.7315 35.7213 97.4838 35.3876 97.64 35.3014C98.3492 35.4798 98.7166 34.8998 98.8606 34.8779C98.8716 34.8767 99.029 34.9799 99.0657 34.9859V34.9872Z" fill="#857D12"/>
<path d="M96.9198 39.926C95.8469 42.2596 94.6311 43.183 92.6965 44.8103C92.1875 44.8492 92.0788 44.8431 91.626 44.6368C91.5943 44.5518 91.6553 44.4948 91.6809 44.4196C94.2894 42.029 95.7126 41.4502 97.2774 37.9493C97.5508 38.5305 96.318 40.0401 96.9198 39.926Z" fill="#A79B19"/>
<path d="M98.4651 34.145C98.2441 34.1086 97.8767 33.9788 97.6619 34.0152C97.4605 34.0491 97.3726 34.0916 97.2164 34.2166C96.9478 34.5794 97.1969 34.4593 97.1969 34.4775C97.1969 34.6437 97.0907 35.1655 97.6399 35.3027C97.4837 35.3888 97.7315 35.7225 97.8694 35.8681C97.2335 36.2031 96.5853 37.5124 96.4022 37.7321C96.3497 37.7952 96.2912 37.6459 96.2826 37.6556C96.2277 37.7211 96.2216 37.8667 96.102 38.0039C95.3745 38.8412 94.4224 39.6967 93.6388 40.6007C93.0907 41.2317 92.6196 41.9538 92.0715 42.5896C91.8225 42.8784 91.4222 43.1563 91.5662 43.2146C91.2598 43.0568 90.3859 43.143 90.1564 41.9877C89.5497 38.3898 92.3913 34.2166 96.0592 33.6535C96.7867 33.5419 97.9182 33.6256 98.4663 34.1474L98.4651 34.145Z" fill="#BBB124"/>
<path d="M95.0522 34.6947L95.2402 34.7299C94.8289 35.6801 93.9793 36.3086 93.3751 37.118C92.2351 38.6458 91.4331 40.4745 91.5125 42.404C90.1259 39.1421 91.9641 36.0562 95.0522 34.6947Z" fill="#F5F0CE"/>
<path d="M97.6619 34.0151C97.7071 34.1074 97.6449 34.128 97.596 34.1838L97.1969 34.4775C97.1969 34.4593 96.9479 34.5806 97.2164 34.2166C97.3727 34.0928 97.4605 34.0491 97.6619 34.0151Z" fill="#614E07"/>
<path d="M97.8694 35.8669C98.0964 36.1048 98.3125 35.6849 98.1099 36.7115C97.9634 37.4517 97.2579 39.1895 96.9198 39.9248C96.318 40.0389 97.5496 38.5281 97.2774 37.9481C95.7126 41.4502 94.2894 42.029 91.6809 44.4183C91.9544 43.5883 92.0374 43.4561 91.5662 43.2121C91.4222 43.1539 91.8225 42.876 92.0715 42.5872C92.6208 41.9526 93.0907 41.2305 93.6388 40.5983C94.4236 39.6943 95.3757 38.8388 96.102 38.0015C96.2204 37.8643 96.2277 37.7187 96.2826 37.6532C96.2912 37.6423 96.3498 37.7927 96.4023 37.7296C96.5841 37.51 97.2323 36.2006 97.8694 35.8657V35.8669Z" fill="#BBB124"/>
<path d="M95.9115 38.7635L96.0397 38.7611C96.141 39.2865 95.8615 39.3205 95.7126 39.6033C95.6979 39.6312 95.9238 39.545 95.4965 40.1384C94.7483 41.1784 94.1758 41.2087 94.4908 40.7197C94.5567 40.6177 95.4904 39.7719 95.9115 38.7635Z" fill="#A79B19"/>
</g>
<defs>
<clipPath id="clip0_7_5176">
<rect width="122" height="54" fill="white"/>
</clipPath>
</defs>
</svg>
