<svg width="82" height="54" viewBox="0 0 82 54" fill="none" xmlns="http://www.w3.org/2000/svg">
<g clip-path="url(#clip0_256_1769)">
<path d="M17.1999 32.8H16.3999C16.5999 32 16.5999 31.5 16.5999 31.2C16.5999 30.9 16.5999 30.6 16.2999 30.5C15.9999 30.4 15.6999 30.3 14.9999 30.3H10.8999C10.8999 30.5 10.6999 31.1 10.3999 32C9.8999 33.9 9.4999 35.4 9.1999 36.6H11.9999C12.6999 36.6 13.0999 36.6 13.2999 36.4C13.4999 36.4 13.6999 35.9 13.7999 35.4H14.5999C14.2999 36.6 13.9999 37.9 13.7999 39.2H12.9999C12.9999 38.6 12.9999 38.3 12.9999 38.2C12.9999 38 12.9999 37.8 12.5999 37.7C12.5999 37.7 12.0999 37.7 11.4999 37.7H8.6999C8.3999 39 7.9999 40.5 7.5999 42.1C7.0999 43.7 6.6999 44.9 6.3999 45.7C7.1999 45.7 7.8999 45.9 8.4999 45.9H9.6999L9.4999 46.7H8.6999C8.3999 46.7 7.7999 46.7 6.6999 46.7H4.9999C4.0999 46.7 2.9999 46.7 1.9999 47L2.1999 46.2C3.0999 46 3.5999 45.8 3.8999 45.6C4.1999 45.4 4.3999 45.1 4.4999 44.9C4.7999 44.3 5.3999 42.5 6.1999 39.4L8.3999 30.7C7.0999 30.7 5.9999 31 4.9999 31.6C3.9999 32.1 3.1999 32.9 2.6999 33.8C2.0999 34.7 1.7999 35.6 1.7999 36.6C1.7999 37.6 1.7999 37.4 1.7999 37.8C1.7999 38 1.9999 38.3 2.1999 38.8C2.4999 39.3 2.5999 39.7 2.5999 39.9C2.5999 40.1 2.5999 40.3 2.3999 40.4C2.1999 40.6 1.9999 40.6 1.7999 40.6C1.3999 40.6 1.0999 40.4 0.899902 40C0.599902 39.5 0.399902 38.7 0.399902 37.7C0.399902 35.8 1.1999 34 2.6999 32.3C4.1999 30.7 6.1999 29.9 8.6999 29.9H14.2999C14.8999 29.9 15.5999 29.9 16.3999 29.8C16.5999 29.8 17.0999 29.7 17.7999 29.5C17.2999 31.5 16.9999 32.8 16.8999 33.4V33L17.1999 32.8Z" fill="#2C2C2C"/>
<path d="M19.7998 46.3H17.5998L18.5998 42.4001C19.0998 40.5001 19.4998 38.7001 19.8998 36.9001C19.8998 36.5001 19.8998 36.2 19.8998 36.1C19.8998 35.9 19.8998 35.8 19.5998 35.8C19.2998 35.8 19.1998 35.8 18.8998 36.1C18.5998 36.3 18.0998 36.8 17.2998 37.6L16.7998 37.1C17.6998 36.1 18.6998 35.4001 19.5998 34.9001C20.4998 34.4001 21.1998 34.2001 21.6998 34.2001C22.1998 34.2001 21.9998 34.2001 22.0998 34.2001C22.0998 34.2001 22.2998 34.4 22.2998 34.5C22.2998 34.6 22.2998 35 22.0998 35.5L21.4998 38.1C22.4998 36.6 23.5998 35.2 24.7998 34.1C25.3998 33.6 25.8998 33.3 26.2998 33.3C26.6998 33.3 26.7998 33.3 26.9998 33.6C27.1998 33.8 27.2998 34 27.2998 34.3C27.2998 34.6 27.2998 34.8 26.9998 35C26.7998 35.2 26.2998 35.4001 25.5998 35.7001C24.8998 35.9001 24.2998 36.2 23.7998 36.6C23.2998 36.9 22.8998 37.5001 22.2998 38.2001C21.7998 38.9001 21.3998 39.5 21.1998 40C20.9998 40.5 20.6998 41.7 20.1998 43.6L19.4998 46.4001L19.6998 46.2001L19.7998 46.3Z" fill="#2C2C2C"/>
<path d="M36.0999 33.9L37.0999 33.7L36 37.4C35.6 38.9 35.0999 40.5 34.7999 42.5C34.5999 43.5 34.5 44.2 34.5 44.5C34.5 44.8 34.5 45 34.9 45C35.3 45 35.2999 45 35.5999 44.7C36.1999 44.3 36.7999 43.9 37.2999 43.4L37.7999 44C36.6999 45 36 45.5999 35.7 45.7999C35.1 46.1999 34.5 46.5 33.9 46.7C33.5 46.7 33.1999 46.9 32.7999 46.9C32.3999 46.9 32.4 46.9 32.2 46.7C32.2 46.7 32 46.4 32 46.2C32 46 32 45.8999 32 45.5999L32.5999 43.5999C31.7999 44.5999 30.7999 45.5 29.5999 46.2C28.8999 46.6 28.1999 46.9 27.5999 46.9C26.9999 46.9 26.5999 46.6999 26.2999 46.2999C25.8999 45.7999 25.7 45.1 25.7 44.2C25.7 43.3 26 41.9999 26.5 40.7999C27 39.4999 27.8 38.4 28.7 37.4C29.6 36.4 30.5999 35.5999 31.5999 35.0999C32.5999 34.5999 33.3999 34.5 34.5999 34.5C35.7999 34.5 35.2 34.5 35.5 34.5L35.9 33.9H36.0999ZM34.2999 36.0999C33.7999 36.0999 33.3 35.9 33 35.9C32.1 35.9 31.4 36.0999 30.7 36.5999C30 37.0999 29.4 37.9 28.9 39.2C28.3 40.4 28.0999 41.7 28.0999 42.9C28.0999 44.1 28.1 43.9999 28.4 44.2999C28.6 44.5999 28.8999 44.7 29.2999 44.7C29.9999 44.7 30.7 44.2999 31.5 43.5999C32.3 42.8999 32.8 41.8 33.2 40.5L34.4 36L34.2999 36.0999Z" fill="#2C2C2C"/>
<path d="M48.4999 34L49.6999 33.7C48.9999 36 48.2999 38.2 47.7999 40.5C47.3999 42.1 47.0999 43.4999 46.8999 44.5999C46.8999 45.0999 46.8999 45.8 46.8999 46.7C46.8999 48.1 46.6999 49.1999 46.3999 50.0999C45.9999 51.2999 45.1999 52.2 44.0999 53C42.9999 53.7 41.6999 54.0999 40.0999 54.0999C38.4999 54.0999 37.7999 53.8 36.9999 53.2C36.1999 52.6 35.8999 51.8999 35.8999 51.0999C35.8999 50.2999 36.1999 49.6 36.7999 48.9C37.1999 48.4 38.1999 47.8 39.5999 47C40.2999 46.6 40.9999 46.1999 41.5999 45.7999C40.8999 46.1999 40.2999 46.4 39.8999 46.4C39.4999 46.4 39.1999 46.2 38.8999 45.9C38.5999 45.6 38.4999 45.0999 38.4999 44.5999C38.4999 42.7999 38.9999 41.0999 40.0999 39.2999C41.1999 37.4999 42.3999 36.1999 43.8999 35.2999C44.7999 34.7999 45.9999 34.5 47.3999 34.5C48.7999 34.5 47.9999 34.5 48.3999 34.5V34.0999H48.5999L48.4999 34ZM44.8999 44.0999C44.1999 44.6999 42.9999 45.6 41.0999 46.9C39.3999 48 38.3999 48.7999 37.9999 49.2999C37.5999 49.7999 37.3999 50.3 37.3999 50.9C37.3999 51.5 37.5999 51.9 38.0999 52.4C38.5999 52.8 39.1999 53.0999 39.8999 53.0999C40.5999 53.0999 41.1999 52.8999 41.7999 52.5999C42.3999 52.2999 42.9999 51.8 43.3999 51.2C43.8999 50.6 44.1999 49.8999 44.3999 49.0999C44.5999 48.2999 44.6999 47.3 44.6999 46C44.6999 44.7 44.6999 45.0999 44.6999 44.0999H44.8999ZM46.8999 36.2C46.3999 36.2 45.9999 36.2 45.6999 36.2C44.7999 36.2 43.9999 36.4 43.2999 36.9C42.5999 37.4 42.0999 38.1999 41.5999 39.2999C40.8999 40.8999 40.5999 42.3 40.5999 43.4C40.5999 44.5 40.5999 44.2 40.9999 44.5C41.3999 44.8 41.4999 45 41.8999 45C42.2999 45 42.7999 44.8 43.2999 44.4C43.8999 44 44.2999 43.6 44.6999 43C45.0999 42.4 45.3999 41.4999 45.7999 40.0999L46.8999 36.2Z" fill="#2C2C2C"/>
<path d="M57.8999 34.1C58.8999 34.1 59.5999 34.5 60.2999 35.2C60.8999 36 61.1999 37 61.1999 38.4C61.1999 40.5 60.3999 42.5 58.8999 44.2C57.3999 45.9 55.7999 46.8 54.0999 46.8C52.3999 46.8 52.1999 46.5 51.5999 45.8C50.9999 45.1 50.5999 44.2 50.5999 43C50.5999 41 51.1999 39.1 52.3999 37.4C53.8999 35.3 55.6999 34.2 57.8999 34.2V34.1ZM56.5999 35.2C55.7999 35.2 54.9999 35.8 54.1999 37C53.3999 38.2 52.9999 39.8 52.9999 41.9C52.9999 44 53.1999 44.1 53.6999 44.9C54.0999 45.4 54.4999 45.7 55.0999 45.7C55.6999 45.7 56.6999 45.2 57.2999 44.2C58.1999 42.9 58.5999 41.3 58.5999 39.3C58.5999 37.3 58.3999 36.8 57.9999 36.2C57.5999 35.6 57.0999 35.3 56.4999 35.3L56.5999 35.2Z" fill="#2C2C2C"/>
<path d="M68.5998 42.8L69.0998 43.3C68.2998 44.2 67.3998 44.9 66.3998 45.6C65.3998 46.3 64.4998 46.7 63.7998 46.7C63.0998 46.7 63.1998 46.7 63.0998 46.4C62.8998 46.2 62.7998 45.9 62.7998 45.5C62.7998 44.7 63.0998 43.1 63.6998 40.7L65.2998 34.3C65.8998 32 66.3998 30.5 66.6998 29.7C67.2998 28.5 68.1998 27.6 69.2998 26.9C70.3998 26.2 71.5998 25.9 72.7998 25.9C73.9998 25.9 73.4998 25.9 73.7998 26.2C73.9998 26.4 74.1998 26.6 74.1998 26.9C74.1998 27.2 74.1998 27.5 73.8998 27.7C73.6998 27.9 73.2998 28 72.8998 28C72.4998 28 72.1998 28 71.6998 27.9C71.1998 27.9 70.7998 27.8 70.3998 27.8C69.9998 27.8 69.6998 27.8 69.4998 28C69.1998 28.2 68.9998 28.7 68.6998 29.5C68.4998 30.2 68.0998 31.7 67.5998 33.9L66.0998 40C65.3998 43 64.9998 44.6 64.9998 44.8C64.9998 45.1 64.9998 45.3 65.2998 45.3C65.5998 45.3 65.7998 45.3 66.1998 44.9C66.9998 44.4 67.7998 43.8 68.5998 43V42.8Z" fill="#2C2C2C"/>
<path d="M79.6998 33.9L80.6998 33.7L79.5998 37.4C79.1998 38.9 78.6998 40.5 78.3998 42.5C78.1998 43.5 78.0998 44.2 78.0998 44.5C78.0998 44.8 78.0998 45 78.4998 45C78.8998 45 78.8998 45 79.1998 44.7C79.7998 44.3 80.3998 43.9 80.8998 43.4L81.3998 44C80.2998 45 79.5998 45.5999 79.2998 45.7999C78.6998 46.1999 78.0998 46.5 77.4998 46.7C77.0998 46.7 76.7998 46.9 76.3998 46.9C75.9998 46.9 75.9998 46.9 75.7998 46.7C75.7998 46.7 75.5998 46.4 75.5998 46.2C75.5998 46 75.5998 45.8999 75.5998 45.5999L76.1998 43.5999C75.3998 44.5999 74.3998 45.5 73.1998 46.2C72.4998 46.6 71.7998 46.9 71.1998 46.9C70.5998 46.9 70.1998 46.6999 69.8998 46.2999C69.4998 45.7999 69.2998 45.1 69.2998 44.2C69.2998 43.3 69.5998 41.9999 70.0998 40.7999C70.5998 39.4999 71.3998 38.4 72.2998 37.4C73.1998 36.4 74.1998 35.5999 75.1998 35.0999C76.1998 34.5999 76.9998 34.5 78.1998 34.5C79.3998 34.5 78.7998 34.5 79.0998 34.5L79.3998 33.9H79.5998H79.6998ZM77.8998 36.0999C77.3998 36.0999 76.8998 35.9 76.5998 35.9C75.6998 35.9 74.9998 36.0999 74.2998 36.5999C73.5998 37.0999 72.9998 37.9 72.4998 39.2C71.8998 40.4 71.6998 41.7 71.6998 42.9C71.6998 44.1 71.6998 43.9999 71.9998 44.2999C72.1998 44.5999 72.4998 44.7 72.8998 44.7C73.5998 44.7 74.2998 44.2999 75.0998 43.5999C75.8998 42.8999 76.3998 41.8 76.7998 40.5L77.9998 36L77.8998 36.0999Z" fill="#2C2C2C"/>
<path d="M18.5998 6.4H17.7998V4.6C17.7998 3.2 17.4998 2.3 16.8998 1.7C16.2998 1.2 15.5998 0.9 14.6998 0.9C13.7998 0.9 12.2998 1.4 11.0998 2.3C9.89981 3.2 8.79981 4.7 7.89981 6.7C6.99981 8.7 6.59981 10.7 6.59981 12.8C6.59981 14.9 6.9998 16.4 7.7998 17.5C8.5998 18.6 9.69981 19.1 10.8998 19.1C12.0998 19.1 14.1998 18.1 15.5998 16.1C15.5998 15.9 15.8998 15.8 16.0998 15.8C16.2998 15.8 16.2998 15.8 16.3998 15.9C16.3998 15.9 16.3998 16.1 16.3998 16.2C16.3998 16.5 16.0998 17 15.3998 17.7C14.7998 18.5 13.8998 19.1 12.9998 19.6C11.9998 20.1 10.9998 20.4 10.0998 20.4C9.19981 20.4 7.89981 20.1 6.89981 19.5C5.89981 18.9 5.19981 18.1 4.59981 17C4.09981 15.9 3.7998 14.6 3.7998 13.1C3.7998 11.6 4.39981 8.9 5.49981 6.8C6.59981 4.7 7.99981 3.1 9.69981 1.9C11.4998 0.6 13.1998 0 14.7998 0C16.3998 0 15.8998 0 16.4998 0.2C16.6998 0.2 17.6998 0.6 19.4998 1.2C18.8998 2.9 18.5998 4.6 18.5998 6.4Z" fill="#2C2C2C"/>
<path d="M29.2999 5.00005L30.2999 4.80005L29.1999 8.50005C28.7999 10 28.2999 11.6 27.9999 13.6C27.7999 14.6 27.6999 15.3 27.6999 15.6C27.6999 15.9 27.6999 16.1 28.0999 16.1C28.4999 16.1 28.4999 16 28.7999 15.8C29.3999 15.4 29.9999 15 30.4999 14.5L30.9999 15.1C29.8999 16.1 29.1999 16.7 28.8999 16.9C28.2999 17.3 27.6999 17.6 27.0999 17.8C26.6999 17.9 26.3999 18 25.9999 18C25.5999 18 25.5999 18 25.3999 17.8C25.1999 17.6 25.1999 17.5 25.1999 17.3C25.1999 17.1 25.1999 17 25.1999 16.7L25.7999 14.7C24.9999 15.7 23.9999 16.6 22.7999 17.3C22.0999 17.7 21.3999 18 20.7999 18C20.1999 18 19.7999 17.8 19.4999 17.4C19.0999 16.9 18.8999 16.2 18.8999 15.3C18.8999 14.4 19.1999 13.1 19.6999 11.9C20.1999 10.6 20.9999 9.50005 21.8999 8.50005C22.7999 7.50005 23.7999 6.70005 24.7999 6.20005C25.5999 5.80005 26.5999 5.60005 27.7999 5.60005C28.9999 5.60005 28.3999 5.60005 28.6999 5.60005L29.0999 5.00005H29.2999ZM27.4999 7.20005C26.9999 7.20005 26.4999 7.00005 26.1999 7.00005C25.2999 7.00005 24.5999 7.20005 23.8999 7.70005C23.1999 8.20005 22.5999 9.00005 22.0999 10.3C21.4999 11.5 21.2999 12.8 21.2999 14C21.2999 15.2 21.2999 15.1 21.5999 15.4C21.7999 15.7 22.0999 15.8 22.4999 15.8C23.1999 15.8 23.8999 15.4 24.6999 14.7C25.4999 14 25.9999 12.9 26.3999 11.6L27.5999 7.10005L27.4999 7.20005Z" fill="#2C2C2C"/>
<path d="M38.2999 5.30005C39.1999 5.30005 39.7999 5.50005 40.2999 5.80005C40.7999 6.10005 41 6.50005 41 7.00005C41 7.50005 41 7.50005 40.7 7.70005C40.5 7.90005 40.3 8.00005 40 8.00005C39.7 8.00005 39.7 8.00005 39.5 8.00005C39.5 8.00005 39.2 7.70005 38.9 7.40005C38.4 6.80005 38 6.50005 37.5 6.50005C37 6.50005 36.7 6.70005 36.4 7.00005C36.1 7.30005 35.9 7.70005 35.9 8.10005C35.9 8.50005 35.9 8.90005 36.2 9.30005C36.4 9.70005 36.9 10.3 37.7 11.1C38.8 12.2 39.2999 13.3 39.2999 14.3C39.2999 15.3 38.9 16.2 38 17C37.1 17.8 35.9999 18.2 34.5999 18.2C33.1999 18.2 32.6 18 32 17.5C31.4 17 31.2 16.5 31.2 15.8C31.2 15.1 31.2 15.2 31.5 15C31.7 14.8 31.9999 14.7 32.2999 14.7C32.5999 14.7 32.8 14.7 33 15C33.2 15.2 33.2999 15.4 33.2999 15.6V16.3C33.2999 16.6 33.3 16.9 33.7 17.1C34 17.3 34.2999 17.4 34.7999 17.4C35.2999 17.4 35.8 17.4 36.2 17.1C36.6 16.9 36.8999 16.7 37.0999 16.3C37.2999 15.9 37.4 15.6 37.4 15.2C37.4 14.8 37.3999 14.5 37.0999 14.2C36.8999 13.9 36.4 13.3 35.7 12.5C34.7 11.4 34.2 10.3 34.2 9.30005C34.2 8.30005 34.6 7.50005 35.4 6.80005C36.2 6.10005 37.0999 5.70005 38.2999 5.70005V5.40005V5.30005Z" fill="#2C2C2C"/>
<path d="M51.4 5.00005L52.4 4.80005L51.3 8.50005C50.9 10 50.4 11.6 50.1 13.6C49.9 14.6 49.8 15.3 49.8 15.6C49.8 15.9 49.8 16.1 50.2 16.1C50.6 16.1 50.6 16 50.9 15.8C51.5 15.4 52.1 15 52.6 14.5L53.1 15.1C52 16.1 51.3 16.7 51 16.9C50.4 17.3 49.8 17.6 49.2 17.8C48.8 17.9 48.5 18 48.1 18C47.7 18 47.7 18 47.5 17.8C47.3 17.6 47.3 17.5 47.3 17.3C47.3 17.1 47.3 17 47.3 16.7L47.9 14.7C47.1 15.7 46.1 16.6 44.9 17.3C44.2 17.7 43.5 18 42.9 18C42.3 18 41.9 17.8 41.6 17.4C41.2 16.9 41 16.2 41 15.3C41 14.4 41.3 13.1 41.8 11.9C42.3 10.6 43.1 9.50005 44 8.50005C44.9 7.50005 45.9 6.70005 46.9 6.20005C47.7 5.80005 48.7 5.60005 49.9 5.60005C51.1 5.60005 50.5 5.60005 50.8 5.60005L51.2 5.00005H51.4ZM49.6 7.20005C49.1 7.20005 48.6 7.00005 48.3 7.00005C47.4 7.00005 46.7 7.20005 46 7.70005C45.3 8.20005 44.7 9.00005 44.2 10.3C43.6 11.5 43.4 12.8 43.4 14C43.4 15.2 43.4 15.1 43.7 15.4C43.9 15.7 44.2 15.8 44.6 15.8C45.3 15.8 46 15.4 46.8 14.7C47.6 14 48.1 12.9 48.5 11.6L49.7 7.10005L49.6 7.20005Z" fill="#2C2C2C"/>
<path d="M54.5 29.7C55 29.9 55.4 30.1 55.9 30.4C54.1 30.7 51.7 30.1 50.3 28.9C49.9 28.5 48.4 27 48.7 26.5C50.3 28 52.3 29.4 54.5 29.7Z" fill="#0E1F12"/>
<path d="M50.5998 26.4C51.8998 27.1 53.1998 28 54.0998 29.2C53.2998 28.7 52.1998 28.2 51.2998 27.9C52.3998 28.5 53.4998 29.1 54.5998 29.7C52.4998 29.3 50.4998 27.9 48.7998 26.5C49.0998 25.9 50.0998 26.3 50.5998 26.5V26.4Z" fill="#2D4427"/>
<path d="M58.2999 27.4C58.2999 27.9 58.2999 28.5 58.0999 29C58.0999 29 58.0999 29 57.7999 29.3C57.5999 28.6 57.1999 28 56.8999 27.4C56.4999 26.6 56.1999 25.9 56.0999 25.1L56.3999 24.9C56.5999 25.7 56.8999 26.4 57.2999 27.1C57.4999 27.5 57.6999 28 57.8999 28.4C57.8999 28.6 58.0999 28.8 58.0999 28.9C58.0999 27.5 57.8999 25.9 57.6999 24.5V23.6C58.3999 24.7 58.5999 26 58.5999 27.3H58.2999V27.4Z" fill="#1C2F16"/>
<path d="M53.3998 27.6C54.3998 28.3 55.2998 29.4 56.1998 30.3C55.5998 29.9 54.8998 29.5 54.2998 29.2C53.3998 28 52.0998 27.1 50.7998 26.4C51.5998 26.6 52.9998 27.2 53.5998 27.6H53.4998H53.3998Z" fill="#0E1F12"/>
<path d="M57.3998 23.7001V24.6001C57.3998 25.8001 57.3998 27.3001 57.5998 28.5001C57.3998 28.1001 57.1998 27.6001 56.9998 27.2001V27.0001C57.2998 27.0001 56.7998 25.6001 56.5998 24.7001C56.5998 24.5001 56.5998 23.1001 56.2998 23.1001C55.9998 23.1001 56.2998 23.9001 56.2998 24.1001C56.0998 24.0001 55.9998 23.6001 55.9998 23.6001C55.9998 23.6001 55.9998 23.8001 55.7998 23.6001C55.9998 22.3001 56.8998 23.2 57.2998 23.8H57.3998V23.7001Z" fill="#4A693F"/>
<path d="M60 28C59.8 28.4 58.1 29.5 58.1 29.6V30.5C57.9 30.5 58.1 30.5 57.9 30.6V29.8C57.6 30.1 57.3 30.1 57.2 30.2C57.5 29.9 58.1 29.9 57.8 29.5C58.3 29.2 58.1 29.2 58.1 29.2C58.6 28.8 59.1 28.5 59.5 28.1H60V28Z" fill="#79593F"/>
<path d="M56.2998 24.1C56.4998 25.1 56.7998 26 56.9998 27V27.2C56.5998 26.5 56.2998 25.8 56.0998 25L55.7998 25.2C55.7998 24.7 55.7998 24.1 55.7998 23.6C55.7998 23.9 55.7998 23.6 55.9998 23.6C55.9998 23.6 55.9998 24 56.2998 24.1Z" fill="#3A5431"/>
<path d="M57.9999 31.6V31.1C60.4999 31.2 64.9999 33.5 65.7999 35.9V36.2C62.7999 37.4 59.1999 34.1 57.8999 31.8V31.6H57.9999Z" fill="#0E1F12"/>
<path d="M46.8999 34.9H47.6999C49.2999 34.6 52.3999 33.4 53.4999 32C54.1999 31.7 54.9999 31.4 55.6999 30.9C55.6999 31.1 54.6999 32.4 54.3999 32.7C53.7999 33.3 52.5999 34.1 51.7999 34.4C50.4999 35 47.2999 35.8 46.8999 34.8V34.9Z" fill="#0E1F12"/>
<path d="M55.3999 30.8H55.5999C54.5999 31.4 53.5999 31.9 52.4999 32.4C51.5999 32.8 49.7999 33.3 49.6999 33.4C49.4999 33.7 48.8999 34.4 48.4999 34.6C48.1999 34.8 47.6999 34.8 47.7999 35H47.3999C47.9999 34.5 48.5999 33.5 49.1999 33C50.0999 32.1 51.2999 31.6 52.4999 31.3V31.1C54.3999 30.6 55.1999 30.8 55.3999 30.8Z" fill="#2D4427"/>
<path d="M52.2999 31.1V31.3C51.1999 31.6 49.9999 32.1 49.0999 33C48.8999 32.8 46.9999 34.5 46.7999 34.8C46.5999 34.1 48.1999 32.8 48.6999 32.5C49.7999 31.8 50.9999 31.4 52.1999 31.1H52.2999Z" fill="#6E8E5F"/>
<path d="M55.6999 30.8C54.9999 31.3 54.2999 31.6 53.4999 31.9C52.1999 32.5 50.9999 33.1 49.5999 33.3C49.5999 33.3 51.4999 32.6001 52.3999 32.2001C53.3999 31.8001 54.3999 31.2 55.4999 30.8H55.6999Z" fill="#6D8265"/>
<path d="M49.0999 33C48.5999 33.5 47.8999 34.5 47.2999 35H46.8999C47.0999 34.6 48.9999 32.9 49.1999 33H49.0999Z" fill="#4A693F"/>
<path d="M54 29.2C54.6 29.6 55.3 30 55.9 30.4C55.5 30.1 55 30 54.5 29.7C53.4 29.1 52.3 28.5 51.2 27.9C52.1 28.2 53.2 28.7 54 29.2Z" fill="#5B7158"/>
<path d="M57.1 30.1C56.9 30.2 56.7 30.3 56.5 30.4C56.3 30.5 56 30.6 55.8 30.8H55.5C55.8 30.6 56.1 30.3 56.2 30.3C56.7 30 57.2 29.8 57.7 29.4C58 29.8 57.4 29.8 57.1 30.1Z" fill="#876C46"/>
<path d="M57.5998 28.4C57.2998 27.2 57.3998 25.7 57.3998 24.5C57.5998 25.9 57.7998 27.4 57.7998 28.9C57.7998 28.7 57.5998 28.5 57.5998 28.4Z" fill="#2D4427"/>
<path d="M57.0999 26.9C56.8999 25.9 56.4999 25 56.3999 24C56.3999 23.8 56.1999 23 56.3999 23C56.6999 23 56.6999 24.4 56.6999 24.6C56.8999 25.5 57.3999 26.9 57.0999 26.9Z" fill="#607F51"/>
<path d="M61.1 33.1C61.5 33.1 63.6 34.7 63.7 34.6C63.7 34.6 62.6 33.2 62.2 32.9C62.2 32.7 63.1 33.3 63.5 33.5C63.8 33.7 66 35.3 65.5 35.6C64.3 36.7 59.1 32.7 58.5 31.5C59.8 32.7 62.3 34.1 63.9 35C63 34.3 62 33.7 61.1 33.1Z" fill="#2D4427"/>
<path d="M62.0998 32.9C62.4998 33.2 63.6998 34.4999 63.5998 34.5999C63.5998 34.5999 61.3998 33.0999 60.9998 33.0999C60.0998 32.4999 59.0998 31.9 58.2998 31.2C59.2998 31.5 61.2998 32.3 62.0998 32.9Z" fill="#2D4427"/>
<path d="M58.4 31.2C59.2 31.9 60.2 32.5 61.1 33.1C62 33.7 63 34.3 63.9 34.9C62.3 34 59.9 32.6 58.5 31.4C58.5 31.3 58.3 31.2 58.2 31.1C58.2 30.9 58.2 31.1 58.5 31.1L58.4 31.2Z" fill="#6D8265"/>
<path d="M53.5 32C52.4 33.3 49.4 34.6 47.7 34.9C47.7 34.9 48.1 34.7 48.4 34.5C48.7 34.3 49.3 33.5 49.6 33.4C51 33.2 52.2 32.6 53.5 32Z" fill="#2D4427"/>
<path d="M57.9999 30.3999V30.8999V31.3999C57.9999 32.2999 57.9999 33.0999 58.1999 33.9999V34.1999C57.9999 33.3999 57.9999 31.6999 57.8999 30.7999C57.8999 30.7999 58.0999 30.6999 57.8999 30.4999C57.8999 30.4999 57.8999 30.2999 58.0999 30.3999H57.9999Z" fill="#9E9057"/>
<path d="M57.0999 30.1C56.7999 30.5 57.2999 30.4 57.6999 30.6C57.8999 30.7 57.6999 30.8 57.6999 30.9C57.2999 30.8 56.7999 30.6 56.3999 30.5C56.5999 30.4 56.7999 30.3 56.9999 30.2H57.0999V30.1Z" fill="#79593F"/>
<path d="M50.2 44.3C50.4 44.5 50.6 44.6 50.8 44.7C51.3 44.9 51.4 44.9 51.9 44.9C55 44.7 58.2 40.3 58.3 37.4C58.3 36.6 58.1 35.9 58.3 35.1C58.4333 35.1 58.5666 35.1 58.7 35.1C60.2 35.9 60.7 38.2 60.5 39.7C60.2 41.6 58.9 43.5 57.6 45C59.6 43.9 61 41.9 61.2 39.7C61.2 38.6 61.2 37.6 60.8 36.5C60.4 35.6 59.8 34.9 58.8 34.7C58.2 34.7 58.1 34.9 58.1 34.3V34.1C61.6 34.4 62.4 39 61.6 41.7C60.1 46.8 53.3 49.3 50.2 44.1V44.3Z" fill="#685E0B"/>
<path d="M56.7998 34.2C55.5998 35.6 58.3998 35.4 57.8998 34.4C57.8998 35 57.8998 34.5999 58.5998 34.7999C59.5998 34.9999 60.1998 35.6999 60.5998 36.5999C60.3998 36.5999 60.0998 36 59.8998 35.9C59.6998 35.9 58.4998 35 58.3998 35.2C58.2665 35.2 58.1331 35.2 57.9998 35.2H57.7998C57.7998 35.2 57.2998 35.7 56.5998 35.5C56.0998 35.5 56.1998 34.8 56.1998 34.7L56.5998 34.4L56.7998 34.2Z" fill="#E9E0B0"/>
<path d="M61.1999 39.7C60.9999 42 59.5999 43.9 57.5999 45C58.7999 43.5 60.1999 41.6 60.4999 39.7H61.2999H61.1999Z" fill="#A79B19"/>
<path d="M60.7999 36.5C61.2999 37.6 61.2999 38.5 61.1999 39.7H60.3999C60.5999 38.1 60.0999 35.9 58.5999 35.1C58.5999 34.8 59.8999 35.6 60.0999 35.8C60.2999 36 60.5999 36.5 60.7999 36.5Z" fill="#ACA84E"/>
<path d="M57.6999 34.1C57.6999 34.1 57.8999 34.1 57.9999 34.3C58.4999 35.4 55.6999 35.5 56.8999 34.1C56.8999 34.1 56.8999 34.1 56.8999 33.9C57.0999 33.9 57.4999 33.9 57.6999 33.9V34.1Z" fill="#471013"/>
<path d="M56.8999 34.4H57.0999C57.6999 34.9 56.4999 35 56.8999 34.4Z" fill="#BE2E4E"/>
<path d="M50.7998 43.2C51.2998 43.4 51.1998 43.6 50.7998 44.4V44.6C50.4998 44.6 50.3998 44.4 50.1998 44.2C49.6998 43.4 49.4998 42.9 49.2998 41.9C49.4998 43.1 50.3998 43 50.6998 43.1L50.7998 43.2Z" fill="#A79B19"/>
<path d="M58.2999 35C58.2999 35.8 58.2999 36.5 58.2999 37.3C58.2999 40.3 54.9999 44.6 51.8999 44.8C53.7999 43.2 55.0999 42.2 56.0999 39.9C56.3999 39.2 57.0999 37.4 57.2999 36.7C57.4999 35.7 57.2999 36.1 57.0999 35.9C57.0999 35.9 56.6999 35.4 56.8999 35.3C57.5999 35.5 57.9999 34.9 58.0999 34.9H58.2999C58.2999 34.9 58.2999 34.9334 58.2999 35Z" fill="#857D12"/>
<path d="M56.0998 39.9C54.9998 42.2 53.7998 43.2 51.8998 44.8C51.3998 44.8 51.2998 44.8 50.7998 44.6V44.4C53.3998 42 54.7998 41.4 56.3998 37.9C56.6998 38.5 55.3998 40 55.9998 39.9H56.0998Z" fill="#A79B19"/>
<path d="M57.6998 34.1C57.4998 34.1 57.0998 33.9 56.8998 34.1C56.6998 34.1 56.5998 34.1 56.4998 34.3C56.1998 34.7 56.4998 34.5 56.4998 34.6C56.4998 34.8 56.4998 35.3 56.8998 35.4C56.6998 35.4 56.8998 35.8 57.0998 36C56.4998 36.3 55.7998 37.6 55.5998 37.9C55.5998 37.9 55.5998 38.1 55.3998 38.2C54.6998 39 53.6998 39.9 52.8998 40.8C52.3998 41.4 51.8998 42.2 51.2998 42.8C51.0998 43.1 50.6998 43.4 50.7998 43.4C50.4998 43.2 49.5998 43.4 49.3998 42.2C48.7998 38.6 51.5998 34.4 55.2998 33.9C55.9998 33.9 57.1998 33.9 57.6998 34.4V34.2V34.1Z" fill="#BBB124"/>
<path d="M54.3 34.7H54.5C54.1 35.7 53.2 36.2999 52.6 37.0999C51.5 38.5999 50.7 40.5 50.7 42.4C49.3 39.1 51.2 36.1 54.2 34.7H54.3Z" fill="#F5F0CE"/>
<path d="M56.9 34V34.2L56.5 34.5C56.5 34.5 56.3 34.5 56.5 34.2C56.7 34.2 56.7 34 56.9 34Z" fill="#614E07"/>
<path d="M57.0999 35.9001C57.2999 36.1001 57.4999 35.7001 57.2999 36.7001C57.2999 37.4001 56.3999 39.2001 56.0999 39.9001C55.4999 39.9001 56.6999 38.5001 56.4999 37.9001C54.8999 41.4001 53.4999 42.0001 50.8999 44.4001C51.1999 43.6001 51.2999 43.4001 50.8999 43.2001C50.8999 43.2001 51.1999 42.9 51.3999 42.6C51.8999 42 52.3999 41.2 52.9999 40.6C53.7999 39.7 54.6999 38.8 55.4999 38C55.4999 38 55.4999 37.7001 55.6999 37.7001C55.8999 37.5001 56.4999 36.2 57.1999 35.8L57.0999 35.9001Z" fill="#BBB124"/>
<path d="M55.0999 38.7999C55.0999 39.2999 54.8999 39.3999 54.7999 39.5999C54.7999 39.5999 54.9999 39.5999 54.5999 40.0999C53.8999 41.0999 53.2999 41.2 53.5999 40.7C53.5999 40.7 54.5999 39.8 54.9999 38.7L55.0999 38.7999Z" fill="#A79B19"/>
</g>
<defs>
<clipPath id="clip0_256_1769">
<rect width="82" height="54" fill="white"/>
</clipPath>
</defs>
</svg>
