<svg width="25" height="14" viewBox="0 0 25 14" fill="none" xmlns="http://www.w3.org/2000/svg">
<path d="M7.40554 9.13211C7.54382 9.25945 8.00203 9.50008 8.7489 9.50008C9.49578 9.50008 9.95437 9.25945 10.0923 9.13211C10.718 8.55516 11.4399 8.25008 12.1805 8.25008H12.8173C13.5579 8.25008 14.2802 8.55516 14.9055 9.13211C15.0438 9.25945 15.502 9.50008 16.2489 9.50008C16.9958 9.50008 17.4544 9.25945 17.5923 9.13211C18.1727 8.59656 18.8376 8.30711 19.5216 8.26648L15.1137 5.11805L15.8169 4.6157C15.9591 4.51492 16.1403 4.4782 16.3098 4.51375L20.2298 5.35477C21.2419 5.57078 22.2391 4.92625 22.4563 3.91414C22.6731 2.90164 22.0286 1.90477 21.0157 1.68758L17.0958 0.846563C15.8954 0.589532 14.6341 0.85125 13.6364 1.56453L10.5106 3.79773C10.1052 4.08641 9.75437 4.43992 9.46687 4.85008L6.78601 8.67977C6.99968 8.80594 7.20867 8.95047 7.40554 9.13211ZM24.3739 10.7501H23.7489C22.7317 10.7501 21.9598 10.4212 21.5579 10.0509C21.2102 9.73016 20.7899 9.50008 20.3169 9.50008H19.6802C19.2071 9.50008 18.7868 9.73016 18.4391 10.0509C18.038 10.4212 17.2661 10.7501 16.2489 10.7501C15.2317 10.7501 14.4598 10.4212 14.0579 10.0509C13.7102 9.73016 13.2899 9.50008 12.8169 9.50008H12.1802C11.7071 9.50008 11.2868 9.73016 10.9391 10.0509C10.538 10.4212 9.76609 10.7501 8.7489 10.7501C7.73171 10.7501 6.95984 10.4212 6.55789 10.0509C6.21023 9.73016 5.78992 9.50008 5.31687 9.50008H4.68015C4.2071 9.50008 3.78679 9.73016 3.43914 10.0509C3.03796 10.4212 2.26609 10.7501 1.2489 10.7501H0.623901C0.278589 10.7501 -0.00109863 11.0298 -0.00109863 11.3751V12.6251C-0.00109863 12.9704 0.278589 13.2501 0.623901 13.2501H1.2489C2.7575 13.2501 4.08953 12.7739 4.9989 12.0063C5.90828 12.7743 7.24031 13.2501 8.7489 13.2501C10.2575 13.2501 11.5895 12.7739 12.4989 12.0063C13.4083 12.7743 14.7403 13.2501 16.2489 13.2501C17.7575 13.2501 19.0895 12.7739 19.9989 12.0063C20.9083 12.7743 22.2403 13.2501 23.7489 13.2501H24.3739C24.7192 13.2501 24.9989 12.9704 24.9989 12.6251V11.3751C24.9989 11.0298 24.7192 10.7501 24.3739 10.7501ZM4.3739 7.00008C6.09968 7.00008 7.4989 5.60086 7.4989 3.87508C7.4989 2.1493 6.09968 0.750078 4.3739 0.750078C2.64812 0.750078 1.2489 2.1493 1.2489 3.87508C1.2489 5.60086 2.64812 7.00008 4.3739 7.00008Z" fill="black"/>
</svg>
