<?xml version="1.0" encoding="utf-8"?>
<!-- Generator: Adobe Illustrator 27.3.1, SVG Export Plug-In . SVG Version: 6.00 Build 0)  -->
<svg version="1.1" id="Layer_1" xmlns="http://www.w3.org/2000/svg" xmlns:xlink="http://www.w3.org/1999/xlink" x="0px" y="0px"
	 viewBox="0 0 113 9" style="enable-background:new 0 0 113 9;" xml:space="preserve">
<style type="text/css">
	.st0{fill:#353535;}
	.st1{fill:#00BBBF;}
</style>
<g>
	<g>
		<polygon class="st0" points="77.71,0.01 77.71,7.09 75.38,6.68 75.38,0.01 		"/>
		<polygon class="st0" points="81.31,0.01 81.31,7.73 78.99,7.32 78.99,0.01 		"/>
		<rect x="82.59" y="0" class="st0" width="2.32" height="5.4"/>
		<rect x="86.19" y="0" class="st0" width="2.32" height="5.4"/>
		<polygon class="st1" points="88.51,6.68 88.51,9 86.19,8.59 84.91,8.37 82.59,7.96 82.59,6.68 		"/>
	</g>
	<g>
		<g>
			<path class="st0" d="M25.15,6.89c-0.45,0-0.84-0.12-1.15-0.36c-0.31-0.24-0.55-0.58-0.72-1.02s-0.24-0.97-0.24-1.58
				c0-0.61,0.08-1.14,0.24-1.58c0.16-0.44,0.4-0.79,0.72-1.03c0.31-0.24,0.7-0.36,1.15-0.36c0.5,0,0.93,0.16,1.28,0.49
				c0.35,0.33,0.59,0.79,0.7,1.37L26.4,2.87c-0.09-0.41-0.25-0.72-0.47-0.93c-0.22-0.21-0.48-0.31-0.78-0.31
				c-0.3,0-0.56,0.09-0.76,0.27c-0.21,0.18-0.36,0.44-0.47,0.78c-0.11,0.34-0.16,0.76-0.16,1.25c0,0.49,0.05,0.9,0.16,1.24
				c0.11,0.34,0.26,0.6,0.47,0.78c0.21,0.18,0.46,0.27,0.76,0.27c0.33,0,0.61-0.11,0.84-0.34c0.23-0.23,0.38-0.57,0.46-1.02
				l0.73,0.04C27.08,5.51,26.85,6,26.5,6.36C26.14,6.71,25.69,6.89,25.15,6.89z"/>
			<path class="st0" d="M28.26,3.11V2.52h1.47v0.59H28.26z M28.26,6.76V6.17h3.12v0.59H28.26z M29.36,6.76V2.52h0.56l0.06,1.07
				l-0.06-0.02c0.05-0.36,0.17-0.63,0.35-0.8c0.18-0.17,0.42-0.26,0.72-0.26h0.87v0.61h-0.86c-0.21,0-0.38,0.04-0.52,0.12
				c-0.14,0.08-0.25,0.2-0.32,0.36s-0.11,0.35-0.11,0.59v2.56H29.36z"/>
			<path class="st0" d="M34.18,6.86c-0.27,0-0.51-0.05-0.72-0.14c-0.21-0.1-0.38-0.23-0.5-0.4c-0.12-0.17-0.18-0.37-0.18-0.6
				c0-0.36,0.11-0.64,0.32-0.84c0.22-0.2,0.56-0.34,1.02-0.44l1.42-0.29c0-0.36-0.08-0.63-0.24-0.81c-0.16-0.18-0.4-0.26-0.7-0.26
				c-0.29,0-0.52,0.06-0.69,0.2c-0.17,0.13-0.28,0.32-0.34,0.56l-0.71-0.06c0.08-0.4,0.27-0.72,0.57-0.97s0.69-0.37,1.17-0.37
				c0.51,0,0.91,0.15,1.19,0.46c0.28,0.31,0.42,0.73,0.42,1.27v1.76c0,0.1,0.02,0.16,0.06,0.2c0.04,0.04,0.11,0.06,0.19,0.06h0.27
				v0.59c-0.03,0-0.08,0.01-0.15,0.01s-0.14,0-0.2,0c-0.18,0-0.33-0.03-0.46-0.09S35.7,6.54,35.64,6.4c-0.06-0.13-0.1-0.3-0.1-0.51
				h0.13c-0.04,0.18-0.13,0.35-0.27,0.49c-0.14,0.15-0.32,0.26-0.53,0.34C34.65,6.82,34.42,6.86,34.18,6.86z M34.24,6.26
				c0.29,0,0.53-0.05,0.72-0.15s0.34-0.24,0.43-0.42c0.1-0.18,0.14-0.39,0.14-0.62V4.71l-1.3,0.26c-0.29,0.05-0.49,0.13-0.6,0.24
				c-0.11,0.11-0.17,0.25-0.17,0.43c0,0.2,0.07,0.35,0.2,0.46C33.81,6.21,34,6.26,34.24,6.26z"/>
			<path class="st0" d="M37.7,3.11V2.52h3.6v0.59H37.7z M38.83,6.76V2.25c0-0.38,0.1-0.67,0.29-0.87c0.19-0.2,0.49-0.3,0.89-0.3
				h1.36v0.59h-1.36c-0.17,0-0.29,0.05-0.38,0.16S39.5,2.07,39.5,2.25v4.51H38.83z"/>
			<path class="st0" d="M42.34,3.11V2.52h3.76v0.59H42.34z M44.96,6.76c-0.41,0-0.72-0.1-0.92-0.29s-0.3-0.49-0.3-0.88V1.53h0.67
				v4.06c0,0.2,0.04,0.34,0.14,0.44c0.09,0.09,0.23,0.14,0.42,0.14h1.14v0.59H44.96z"/>
			<path class="st0" d="M49.21,6.86c-0.4,0-0.75-0.09-1.04-0.27c-0.29-0.18-0.51-0.44-0.67-0.77c-0.16-0.33-0.24-0.72-0.24-1.17
				s0.08-0.84,0.24-1.17c0.16-0.33,0.38-0.59,0.66-0.77c0.29-0.18,0.62-0.28,1.01-0.28c0.37,0,0.69,0.09,0.98,0.26
				c0.28,0.17,0.5,0.43,0.66,0.76s0.24,0.73,0.24,1.21v0.2h-3.09c0.03,0.45,0.15,0.79,0.36,1.02c0.22,0.23,0.51,0.34,0.88,0.34
				c0.28,0,0.5-0.07,0.68-0.2s0.3-0.3,0.37-0.52l0.72,0.06c-0.11,0.38-0.32,0.69-0.64,0.93C50.04,6.74,49.66,6.86,49.21,6.86z
				 M47.97,4.26h2.35c-0.03-0.41-0.15-0.71-0.36-0.9c-0.21-0.19-0.47-0.29-0.78-0.29c-0.33,0-0.59,0.1-0.8,0.3
				C48.16,3.57,48.03,3.86,47.97,4.26z"/>
			<path class="st0" d="M53.67,6.86c-0.37,0-0.7-0.09-0.97-0.27c-0.27-0.18-0.48-0.44-0.63-0.77c-0.15-0.33-0.22-0.72-0.22-1.18
				c0-0.45,0.07-0.85,0.22-1.18c0.15-0.33,0.36-0.59,0.63-0.77s0.59-0.27,0.97-0.27c0.3,0,0.56,0.07,0.78,0.21
				c0.22,0.14,0.39,0.3,0.49,0.48V1.08h0.67v5.68h-0.61l-0.02-0.64c-0.12,0.23-0.29,0.41-0.52,0.54
				C54.23,6.79,53.97,6.86,53.67,6.86z M53.71,6.22c0.26,0,0.48-0.06,0.66-0.19s0.33-0.31,0.42-0.55s0.15-0.52,0.15-0.84
				c0-0.33-0.05-0.61-0.15-0.85c-0.1-0.23-0.24-0.42-0.43-0.54c-0.19-0.13-0.41-0.19-0.67-0.19c-0.35,0-0.62,0.14-0.83,0.42
				c-0.21,0.28-0.31,0.67-0.31,1.16c0,0.48,0.1,0.87,0.31,1.15C53.07,6.08,53.35,6.22,53.71,6.22z"/>
			<path class="st0" d="M63.8,6.86c-0.29,0-0.55-0.07-0.78-0.2c-0.23-0.13-0.41-0.31-0.53-0.54l-0.02,0.64h-0.61V1.08h0.67v2.03
				c0.11-0.18,0.27-0.33,0.5-0.48c0.22-0.14,0.48-0.21,0.78-0.21c0.37,0,0.7,0.09,0.97,0.27c0.27,0.18,0.48,0.44,0.63,0.77
				c0.15,0.33,0.22,0.72,0.22,1.18c0,0.45-0.07,0.85-0.22,1.18c-0.15,0.33-0.36,0.59-0.63,0.77C64.5,6.77,64.17,6.86,63.8,6.86z
				 M63.76,6.22c0.36,0,0.64-0.14,0.84-0.42c0.21-0.28,0.31-0.67,0.31-1.15c0-0.49-0.1-0.88-0.31-1.16
				c-0.21-0.28-0.48-0.42-0.83-0.42c-0.26,0-0.49,0.06-0.67,0.19c-0.19,0.12-0.33,0.31-0.43,0.54c-0.1,0.23-0.15,0.52-0.15,0.85
				c0,0.32,0.05,0.6,0.15,0.84s0.24,0.42,0.42,0.55C63.28,6.15,63.5,6.22,63.76,6.22z"/>
			<path class="st0" d="M67.04,7.96V7.37h0.49c0.15,0,0.26-0.02,0.33-0.07c0.07-0.05,0.13-0.12,0.16-0.22l0.15-0.4h-0.23l-1.58-4.16
				h0.74l1.29,3.54l1.21-3.54h0.74L68.62,7.3c-0.08,0.23-0.2,0.4-0.36,0.5s-0.38,0.16-0.66,0.16H67.04z"/>
		</g>
	</g>
</g>
<g>
</g>
<g>
</g>
<g>
</g>
<g>
</g>
<g>
</g>
<g>
</g>
</svg>
