<svg width="44" height="44" viewBox="0 0 44 44" fill="none" xmlns="http://www.w3.org/2000/svg">
<g clip-path="url(#clip0_178_1428)">
<path d="M18.2201 15.1718C18.2897 15.2033 18.59 15.3514 18.607 15.3647C18.7779 15.4897 18.9403 15.764 19.0587 15.9423C18.8133 15.895 19.005 16.5576 18.8646 17.1291C18.6852 17.8633 17.6782 18.8656 16.9617 19.0853C16.4136 19.2527 15.7337 19.1362 15.7679 19.3413C15.5238 19.0586 13.7539 17.9689 15.0258 17.674C15.6446 17.5308 18.1933 18.0963 17.9601 15.1087C18.026 15.1293 18.1688 15.1499 18.2177 15.173L18.2201 15.1718Z" fill="#70226B"/>
<path d="M19.0587 15.9411C19.459 16.5418 19.3223 16.5139 19.5103 17.0308C19.2039 17.1267 19.4969 16.2833 19.1234 16.742C19.4664 18.703 18.0895 20.0257 16.0914 19.7879C16.0804 19.7624 15.8143 19.391 15.7691 19.3389C15.7337 19.1338 16.4148 19.2503 16.9629 19.0828C17.6782 18.8632 18.6864 17.8621 18.8658 17.1267C19.0062 16.5551 18.8133 15.8926 19.0599 15.9399L19.0587 15.9411Z" fill="#70226B"/>
<path d="M24.7357 35.3071C24.7174 35.2913 24.7894 35.0559 24.4782 35.1785C24.6649 34.6227 24.6356 34.1555 24.5429 33.5754C24.4501 32.999 24.162 32.8522 24.2853 32.6132C25.39 33.6446 27.3881 33.391 28.2206 32.0999C29.3643 34.437 27.0854 37.4477 24.7369 35.3059L24.7357 35.3071Z" fill="#491139"/>
<path d="M25.058 37.1674C25.0531 37.1565 24.8443 37.1176 24.8639 37.0072C24.8773 36.9332 25.108 36.8895 25.1214 36.8143C25.1361 36.7366 24.5416 35.9054 24.7345 35.3071C27.0829 37.4489 29.3618 34.4383 28.2181 32.1011C28.3304 31.9263 28.4903 31.5356 28.5403 31.3317C29.7536 31.6873 30.154 29.4035 30.0234 28.5747L30.2809 28.0298C30.0698 26.0349 31.1976 28.5286 30.3127 30.884C31.9056 30.6146 32.3376 28.6876 32.2803 27.3248C32.2632 26.9134 31.941 26.3079 32.1509 26.2667C34.027 28.5856 32.5183 32.9881 28.8614 32.1982C29.8818 34.2417 28.7588 37.7729 26.0552 37.489C25.5999 37.4416 25.1886 37.0776 25.0555 37.1686L25.058 37.1674Z" fill="#70226B"/>
<path d="M31.5076 25.689C31.7896 25.7206 31.9983 26.0761 32.1521 26.2667C31.9422 26.3079 32.2632 26.9134 32.2815 27.3248C32.3389 28.6876 31.9068 30.6146 30.3139 30.884C31.1988 28.5286 30.071 26.0361 30.2821 28.0298L30.0246 28.5747C29.822 27.2896 28.2608 26.2921 26.9609 26.587L27.4442 27.3564C27.255 27.1537 27.0146 27.0105 26.7998 26.8431C26.7619 26.8139 26.7033 26.428 26.0906 26.2654C26.5971 25.5786 27.0866 25.5568 27.4454 25.1757C27.642 24.967 27.6053 24.9622 27.703 24.7267C29.0286 27.0032 31.1659 25.6502 31.5088 25.689H31.5076Z" fill="#541750"/>
<path d="M30.0246 28.5747C30.1552 29.4035 29.7548 31.6873 28.5416 31.3317C28.9383 29.7275 28.5367 28.525 27.4455 27.3564L26.9621 26.587C28.262 26.2921 29.8232 27.2908 30.0258 28.5747H30.0246Z" fill="#541750"/>
<path d="M28.7344 18.8268V19.7891C28.6832 19.8146 28.035 20.3351 27.8312 20.4941C26.0198 17.913 21.9967 20.6276 23.5737 23.6358C23.8215 24.1091 24.029 24.3578 24.4769 24.6624C26.1138 25.7752 27.1403 24.7085 27.2831 24.791C27.393 24.8529 27.0634 25.0689 27.4442 25.1757C27.0854 25.5568 26.5971 25.5786 26.0894 26.2654C24.3524 25.8055 23.7763 27.2447 23.4443 27.7398C23.1623 28.1621 23.2222 27.7046 23.1221 27.4838C22.9207 27.036 22.7107 26.6719 22.3482 26.3297C22.12 26.115 21.6158 25.7412 21.3156 25.689C22.7608 24.7243 23.2075 23.2135 22.2188 21.7137C21.2741 20.2805 19.4798 20.0148 18.413 21.4576C17.7343 20.9407 17.2217 20.6361 16.3172 20.6883C16.0963 20.198 16.9885 20.8424 18.2518 20.0475C19.0184 19.5658 19.2039 18.9724 19.4456 18.1885C19.6275 18.146 19.5884 18.7042 19.9619 19.2466C20.9213 20.6397 23.7177 21.1433 24.9286 18.2844C25.0165 18.0756 24.8981 17.7613 25.1226 17.6109C25.5425 18.7176 26.6521 19.2042 27.7994 19.0853C27.8483 19.0804 28.6917 18.8498 28.7344 18.8292V18.8268Z" fill="#190D22"/>
<path d="M19.9619 25.7533C19.2759 25.9305 18.6595 26.8965 18.4459 27.5493C17.8869 26.5834 17.5048 26.132 16.3501 26.138C16.3709 25.8516 16.8982 26.1611 17.5439 25.7533C17.9052 25.5252 18.2592 24.8675 18.3177 24.8554C18.4459 24.8287 18.7694 25.2971 18.8988 25.3687C19.4712 25.6866 19.9155 25.5592 19.9631 25.7533H19.9619Z" fill="#190D22"/>
<path d="M21.1874 31.14C20.7419 32.1593 20.2646 30.8839 18.5424 31.2686C18.5033 31.1812 18.9244 30.418 18.961 30.242C19.4505 30.9592 20.3647 31.1497 21.1862 31.14H21.1874Z" fill="#190D22"/>
<path d="M23.1868 29.6001C23.1868 29.6219 23.1868 29.6425 23.1868 29.6644C23.1819 29.8331 23.1807 29.9459 23.1868 30.1134C23.2136 30.9106 23.4223 31.2638 23.2832 31.2674C22.784 30.839 22.1944 31.0101 21.6378 31.0113C22.4031 30.5745 22.6656 30.2893 23.1855 29.6001H23.1868Z" fill="#190D22"/>
<path d="M24.2841 32.6144C24.1621 32.8522 24.4501 33.0002 24.5417 33.5767C24.3073 33.9079 24.3903 34.4965 24.0253 35.0838C23.177 36.4502 20.9897 36.1359 20.3489 34.7307C22.9561 35.2173 23.9643 32.5331 21.8966 31.14C22.1957 31.1084 22.823 31.4943 23.1538 31.6533C23.3577 31.7504 23.5237 31.6448 23.5408 31.6533C23.6848 31.7297 23.7641 32.1314 24.2829 32.6156L24.2841 32.6144Z" fill="#70226B"/>
<path d="M21.8978 31.1401C23.9655 32.5332 22.9573 35.2174 20.3501 34.7308C19.8606 34.5925 20.1682 33.754 20.156 33.288C20.4746 33.0987 20.2561 33.2965 20.6076 33.6411C20.6259 33.6593 20.5515 33.9226 20.737 33.8013C20.6125 33.1181 21.8295 32.2565 21.8331 31.9095C21.8368 31.6037 21.5365 31.9362 21.5756 31.3646C21.6427 31.0928 21.6818 31.1632 21.8978 31.1401Z" fill="#70226B"/>
<path d="M21.8331 31.9093C21.8295 32.2564 20.6113 33.1179 20.737 33.8011C20.5515 33.9225 20.626 33.6591 20.6077 33.6409C20.4966 32.9031 21.008 31.8911 21.8331 31.9093Z" fill="#FDFDFC"/>
<path d="M28.9285 18.635L28.9932 19.6617C28.9798 19.6665 28.7857 19.7648 28.7356 19.7903V18.828C28.7478 18.8219 28.6612 18.8049 28.9297 18.635H28.9285Z" fill="#FDFDFC"/>
<path d="M21.7684 36.5254C21.3107 36.6286 21.5267 36.7815 21.8648 36.8458C22.6143 36.9878 25.711 35.8932 24.9933 40.0518C24.09 40.4789 23.7238 42.0443 22.5093 41.9109C21.7367 41.8259 20.6137 40.5008 20.7358 39.7302C20.8249 39.1672 21.2631 38.6211 21.7684 38.3517C20.82 37.6661 20.405 38.8881 20.6723 39.7302C20.2121 39.5725 20.8517 38.6332 20.1243 38.6405C19.4969 38.7218 20.0132 40.3054 20.0278 40.6925C19.6568 39.7958 19.5762 38.4816 20.0925 37.6139C20.095 37.6103 20.106 37.6236 20.1572 37.5496C20.3489 37.2705 21.0544 36.8385 21.3827 36.3313C21.4669 36.375 21.7489 36.5181 21.7696 36.5242L21.7684 36.5254Z" fill="#70226B"/>
<path d="M20.6723 39.7326H20.737C20.6149 40.5032 21.7379 41.8283 22.5105 41.9133C23.7251 42.0455 24.0912 40.4814 24.9945 40.0542C24.992 40.0688 25.1129 40.1258 25.0592 40.343C25.0042 40.5627 24.5123 41.1027 24.6722 41.2082C23.3064 43.0637 20.8688 42.7263 20.0278 40.6949C20.0132 40.3078 19.4969 38.7242 20.1243 38.6429C20.8517 38.6369 20.2121 39.5749 20.6723 39.7326Z" fill="#70226B"/>
<path d="M24.7357 35.3071C24.5429 35.9053 25.1373 36.7366 25.1227 36.8142C25.108 36.8882 24.8785 36.9319 24.8651 37.0072C24.8444 37.1176 25.0531 37.1564 25.0592 37.1673C25.6463 38.4755 25.5218 40.0518 24.6722 41.207C24.5123 41.1015 25.0043 40.5615 25.0592 40.3418C25.1129 40.1246 24.992 40.0676 24.9945 40.053C25.7122 35.8944 22.6155 36.989 21.8661 36.847C21.5267 36.7827 21.3107 36.6298 21.7696 36.5266C22.7168 36.7487 24.1608 36.1298 24.4782 35.1797C24.7894 35.0571 24.7186 35.2913 24.7357 35.3083V35.3071Z" fill="#541750"/>
<path d="M20.156 37.552C20.106 37.626 20.0937 37.6127 20.0913 37.6163L20.0266 37.552C20.0327 37.552 20.0828 37.3797 20.156 37.552Z" fill="#EDB9EA"/>
<path d="M20.7358 39.7327H20.6711C20.4038 38.8905 20.82 37.6685 21.7672 38.3542C21.2631 38.6235 20.8237 39.1696 20.7346 39.7327H20.7358Z" fill="#FDFDFC"/>
<path d="M12.2868 21.4564C12.2269 21.5814 12.1391 21.7149 12.0927 21.8411C11.2224 20.6786 13.4549 18.6023 14.6083 19.5646C14.5864 19.7187 13.1851 19.5597 12.2868 21.4564Z" fill="#EAD7E6"/>
<path d="M17.9626 15.1075C18.1945 18.0951 15.6471 17.5284 15.0282 17.6728C13.7564 17.9676 15.5263 19.0573 15.7704 19.3401C15.8155 19.3923 16.0816 19.7636 16.0926 19.7891C16.2855 20.215 16.4149 20.8873 15.8668 20.7514C15.7447 20.6652 16.1878 19.7296 14.8342 18.9554C14.6877 19.0331 15.1613 19.5998 15.1247 20.1422C15.0466 21.2841 13.2352 22.0328 12.2868 21.4564C13.1864 19.5597 14.5876 19.7187 14.6084 19.5646C13.4549 18.6023 11.2224 20.6786 12.0927 21.8411C11.8608 22.4818 12.0634 22.8859 11.7704 22.7706C11.5373 22.568 11.6899 20.8873 11.7704 20.4941C12.5797 18.7758 14.3118 18.987 14.4155 18.8583C14.4863 18.771 14.0566 17.7262 14.3508 16.6462C14.7744 15.0929 16.6333 14.6997 17.9626 15.1075Z" fill="#923E82"/>
<path d="M16.189 15.429C17.8125 15.1426 16.2464 15.7154 15.9315 15.9423C15.4249 16.3052 14.977 17.1825 14.8989 17.1607C14.4887 16.5357 15.6495 15.5249 16.189 15.429Z" fill="#EAD7E6"/>
<path d="M25.1227 17.6084C24.8993 17.7589 25.0177 18.0732 24.9286 18.2819C23.7165 21.1397 20.9213 20.6373 19.9619 19.2442C19.5884 18.7018 19.6275 18.1436 19.4456 18.186C19.5005 18.0065 19.6214 17.9094 19.7361 17.9931C19.846 18.0744 20.3135 19.294 22.0577 19.1471C24.5111 18.9408 24.5819 15.6669 24.7662 17.7358L25.1214 17.447C24.6173 16.8039 25.3399 17.538 25.7989 17.6072C26.8071 17.7601 28.2572 17.1036 28.605 16.1001C29.1397 14.5577 27.8312 14.2993 29.4119 14.0796C30.7472 15.6681 28.9407 18.5914 26.7033 18.3766C26.1345 18.322 25.2008 17.555 25.1227 17.6072V17.6084Z" fill="#70226B"/>
<path d="M19.5103 17.032C19.7361 16.4168 20.217 15.7263 20.8652 15.4933C23.8227 14.4255 25.2032 17.8038 19.9949 17.93C19.6116 17.7759 19.6324 17.3669 19.5115 17.032H19.5103Z" fill="#923E82"/>
<path d="M21.4779 15.6851C22.9878 15.4642 20.986 15.9909 20.3171 17.2238C19.7679 16.6461 20.9421 15.7627 21.4779 15.6851Z" fill="#F9EDF4"/>
<path d="M37.9585 19.2114C38.0806 20.7526 36.6452 21.1081 36.6037 21.2319C36.5365 21.4333 37.5753 23.2269 37.6363 23.4768C38.3613 26.4426 34.6275 25.7145 34.4762 26.0421C35.6174 33.0148 31.15 33.5706 30.9291 33.9941C30.851 34.1446 30.9791 35.7427 29.9611 37.2001C28.8638 38.7716 27.0707 38.9621 26.9938 39.1235C26.8754 39.3747 27.2941 41.7665 24.1559 43.5806C22.8474 43.7869 21.7074 44.0417 20.4148 43.3246C20.0352 43.1146 19.1722 42.2069 18.9317 41.8174C18.0871 40.4535 18.2848 39.3868 18.2226 39.1878C18.1164 38.8541 15.857 38.325 15.0624 35.5328C14.9355 35.0887 14.9025 34.1239 14.8683 34.0584C14.6413 33.6106 9.79916 33.2284 10.5462 25.979C10.3887 25.6611 7.32132 26.314 7.12725 24.3117C7.0296 23.3033 8.48456 21.8289 8.35274 21.2331C8.31368 21.0571 7.06622 20.698 6.99786 19.4699C7.85595 16.9689 9.1681 14.7604 11.0613 12.8965C9.2096 11.1806 8.30391 4.93846 9.9322 4.5283C10.7817 4.31351 11.3969 5.02582 11.4799 5.0416C11.6105 5.06587 11.9364 4.87293 12.1891 4.91297C12.3685 4.94209 12.7848 5.18601 13.0277 5.23333C13.0997 5.24789 13.212 4.87778 14.3825 5.55369C14.496 4.96879 14.6999 4.43365 14.9306 3.88637C16.7383 2.07221 20.084 6.73926 20.123 8.43935C20.2366 8.53036 21.2521 7.21859 22.5423 7.60569C22.0284 9.12133 20.6027 11.0496 18.7694 10.427C18.2836 11.9172 20.8322 11.6442 22.0272 10.0108C21.8502 11.5022 22.0894 14.0857 21.1239 15.2373C21.0031 15.3817 20.9091 15.3817 20.8664 15.4933C20.2195 15.7275 19.7386 16.4168 19.5115 17.032C19.3235 16.5139 19.4603 16.543 19.0599 15.9423C18.9415 15.7639 18.7792 15.4909 18.6083 15.3647C19.1612 14.5505 20.1621 16.1959 20.4148 15.0116C18.5167 14.9121 19.5799 14.6403 19.3187 13.5372C19.2393 13.2011 18.5338 12.3553 18.2226 12.223C18.6681 11.4658 17.8137 11.1248 17.8356 11.0362C17.8784 10.8639 19.7373 10.3906 19.2222 8.11899C19.1563 8.19908 19.0819 8.25369 18.9964 8.31194C17.8173 9.11162 19.5018 7.8314 18.2543 6.25994C17.3938 6.46016 18.1811 5.94443 17.4157 5.10592C17.2766 5.08043 17.3266 5.23212 17.3193 5.23455C16.8848 5.38016 17.2473 5.21513 16.9971 4.88142C15.5494 2.96048 14.739 6.77203 15.8363 8.66506C15.2504 9.09827 14.9489 7.4892 14.7402 7.38241C14.5192 7.27077 14.2812 7.54623 14.2568 7.54259C14.1628 7.52803 14.1164 7.06569 13.6441 6.5803C12.3795 5.28066 12.8519 6.84848 12.7738 6.90066C11.5556 4.95787 11.5178 6.21989 11.4189 6.25994C11.3139 6.30241 9.95661 4.37055 9.9676 5.87527C9.96882 6.08398 10.1605 6.45288 10.1617 6.48443C10.1727 6.86183 9.99933 6.55117 9.9676 6.90066C9.91511 7.48191 11.0124 8.35441 10.3545 8.27917C10.2789 8.90897 10.877 9.42713 11.4506 9.56182C11.1894 10.0266 10.4864 9.1638 10.6768 10.171C10.9685 11.7133 13.8101 12.0167 11.8705 11.8383C11.6679 11.9864 11.8425 12.0434 11.9023 12.1587C12.277 12.8807 13.3511 12.4997 13.3853 12.5749C13.3218 13.0203 12.5809 13.0797 12.3856 13.2484C11.4653 14.042 13.6746 14.7907 15.0941 13.9534C16.1658 13.3212 16.1561 11.7376 17.8356 12.3504C18.9317 12.7509 19.5982 14.4958 18.2226 15.1718C18.1737 15.1499 18.0309 15.1281 17.965 15.1074C16.6358 14.6997 14.7756 15.0941 14.3532 16.6461C14.2214 16.6158 14.2226 16.4763 14.1592 16.3901C13.8394 15.9508 13.406 15.5625 12.869 15.4278C11.7704 15.1523 12.6188 16.0418 12.4503 16.1328C11.4299 15.446 9.8492 15.3259 10.6121 16.3573C10.512 16.5284 10.3277 16.3185 10.1605 16.3258C9.01309 16.3719 9.54649 17.208 9.93464 17.3524C10.2972 17.4859 10.4363 17.3233 10.8696 17.5453C9.96394 17.6048 7.46658 18.129 8.93497 19.3085C8.91666 19.3704 7.94628 19.0646 8.03172 19.8534C8.6762 20.6931 9.95051 20.8242 10.9343 20.6555C9.87239 21.5098 7.989 21.8738 9.12782 22.4514C7.89257 22.9429 8.55536 23.0679 8.54681 23.1565C8.53949 23.2293 7.61915 23.6552 8.0305 24.3433C8.58099 25.2121 10.6243 24.7656 11.4494 24.2146C11.5898 24.1212 11.7033 23.9962 11.8363 23.8943C12.2062 24.5144 13.0386 25.1951 13.771 25.3371C10.4961 27.7507 12.6981 33.0427 16.77 32.1666L16.8665 32.2625C16.1109 33.1204 16.4185 35.4272 17.124 36.2063C17.6635 37.2681 18.9024 37.7159 20.0266 37.5532L20.0913 37.6176C19.5762 38.484 19.6556 39.7994 20.0266 40.6962C20.8664 42.7275 23.3052 43.0649 24.671 41.2095C25.5206 40.0542 25.6451 38.4779 25.058 37.1698C25.191 37.0788 25.6023 37.4428 26.0576 37.4901C28.7613 37.7741 29.8842 34.2441 28.8638 32.1994C32.5207 32.9893 34.0294 28.5856 32.1533 26.2679C31.9995 26.0773 31.7896 25.723 31.5089 25.6902C32.0276 25.0653 32.6489 24.5241 32.8637 23.7025C33.0078 23.9465 33.1957 24.359 33.4118 24.5362C34.0526 25.0592 35.8445 24.8893 36.6366 24.6648C36.9686 24.2632 36.8771 24.0605 36.6684 23.7025C36.4755 23.3713 36.2802 23.3142 36.2814 23.2863C36.2839 23.2172 36.9894 23.0218 35.7004 22.3883C36.8685 21.7658 34.6007 21.4309 34.5714 20.4965C36.0398 21.0535 38.3186 19.2442 36.0874 19.1823C36.6623 18.7163 36.4133 18.1108 35.8615 17.7395C34.8851 17.083 32.7954 17.3633 35.0877 16.9058C35.8139 15.5916 34.0319 16.0928 33.9269 16.0722C33.7267 16.0321 34.243 15.4181 33.6046 15.0456C32.9797 14.9788 32.4719 15.429 32.1851 15.9435C32.5049 14.1961 30.7533 14.7701 30.2175 16.6486C30.7753 13.5032 27.8824 12.5883 26.3469 13.1853C26.2639 11.7594 27.4516 10.3142 28.8943 11.2619C29.0261 11.3481 29.4839 11.8954 29.5388 11.9026C29.5644 11.9063 29.8122 11.7145 29.8293 11.7097C30.287 11.5762 30.1052 11.8638 30.5714 12.0944C31.4442 12.5276 32.9626 12.7339 33.6352 11.8699C33.723 11.6405 33.6474 11.7194 33.2482 11.5811C33.1372 11.2886 34.1442 11.4209 34.2809 10.6515C33.5277 10.4816 34.1686 10.3615 34.4749 9.91374C34.907 9.27908 34.3443 9.70259 34.4102 9.30457C34.4237 9.22084 35.2451 8.49639 35.0877 7.79742C33.7865 7.74646 33.6059 8.86165 33.4106 7.86174C32.2595 8.25855 32.3047 9.50843 32.2168 8.21486C31.2794 8.02556 30.9999 9.32034 30.8949 9.33733C30.8436 9.34583 30.4042 8.85315 29.9599 9.36888C29.6352 9.74627 29.623 10.8918 29.7024 11.3893C29.4875 11.6551 29.064 10.8457 28.5086 10.6843C27.3149 10.336 26.2041 11.5022 25.9929 12.6077C23.7251 12.1587 24.372 11.0459 24.3476 10.9088C24.317 10.7316 22.9353 9.83 24.09 8.66385L23.7348 8.43935C22.7132 9.76812 23.8178 10.6054 23.8959 10.9088C24.0766 11.6138 23.1648 12.4123 22.6705 11.6466C22.7034 11.2134 22.6473 10.7656 22.7351 10.3324C22.8841 9.59459 24.0998 6.94434 24.9933 6.58151C24.9505 6.83998 24.7394 7.34115 24.7357 7.38362C24.6442 8.33742 25.5425 9.41378 26.2834 8.37747C26.4043 8.38111 26.3201 8.5425 26.3481 8.63351C26.8828 10.4052 27.3258 9.63221 27.6054 9.66012C27.6713 9.66619 28.0533 10.3105 28.7662 10.1734C29.3875 10.0545 29.5058 9.01697 28.8626 8.82645C28.8663 8.80218 28.8565 8.7767 28.8626 8.76214C29.2703 8.82524 29.5657 8.6141 29.8952 8.44178C30.5055 8.12263 31.0572 7.65544 31.3148 6.99895C31.1866 6.39585 30.5482 6.90673 30.154 6.61428C31.0402 6.33518 32.1082 5.47724 31.1866 4.94695C32.4536 4.02349 31.7689 3.44223 31.7676 3.34394C31.7664 3.26506 32.4194 2.38165 31.8641 1.90111C30.9132 1.80888 30.7667 3.45679 30.5092 2.22147C30.2724 2.52079 30.036 2.82012 29.8 3.11944C29.7569 2.79908 29.7138 2.47832 29.6706 2.15715C27.7567 2.20448 28.3695 4.61809 26.9291 5.17144C26.9011 5.18236 26.8376 5.16174 26.7998 5.17144C27.7286 4.43365 27.4967 2.84277 27.2514 3.24807C27.2514 3.23958 27.1232 3.19832 27.122 3.15221C27.0768 -0.500375 24.9884 2.47873 24.8639 3.28084C24.6881 4.41909 25.3082 5.10349 25.3155 5.20421C25.3375 5.53913 25.0189 5.37531 24.9286 6.19805C24.4558 6.55077 23.9826 6.90349 23.509 7.25621C25.368 1.73486 19.4834 -0.76006 17.478 1.26039C17.2143 1.52614 17.0666 1.77855 17.1228 2.15837C16.6419 1.79189 16.7261 1.6572 16.7359 1.06866C19.0233 -1.0246 22.0882 0.259265 23.863 2.35131C24.8517 0.400029 26.6338 -1.24424 27.7982 1.58196C29.302 0.697333 30.4286 1.61109 30.5714 1.58196C30.6703 1.56255 31.2806 0.583264 32.3779 1.13297C33.778 1.83436 32.6172 5.73329 32.2815 6.93585C32.312 7.08875 33.6461 6.7429 34.055 6.71135C34.2894 6.69315 34.4847 6.84362 34.5714 6.83998C34.6226 6.83756 34.9559 6.51841 35.5393 6.64704C37.181 7.00987 35.2317 11.9997 33.7658 13.2836C35.0303 14.2871 37.8426 17.7516 37.9585 19.2151V19.2114Z" fill="#FDFDFC"/>
<path d="M36.6684 23.7013C36.7526 23.8385 36.7965 24.5787 36.5719 24.4707C36.7721 23.9283 35.8091 23.836 35.3465 23.5084C33.7035 22.3471 34.564 22.1736 34.4762 21.2319C34.4713 21.1761 34.1612 20.2126 34.121 20.1738C33.9122 19.9735 31.5064 18.8413 30.5739 18.6351C29.9733 18.5016 29.1946 18.6193 29.3167 18.3147C29.7988 17.8463 30.1003 17.3172 30.2199 16.6474C30.7558 14.7689 32.5073 14.1937 32.1875 15.9423C32.4731 15.4278 32.9821 14.9788 33.6071 15.0444C34.2467 15.4157 33.7291 16.0309 33.9293 16.071C34.0343 16.0916 35.8164 15.5904 35.0901 16.9046C32.7978 17.3621 34.8875 17.0818 35.864 17.7383C36.4157 18.1096 36.6647 18.7151 36.0898 19.1811C38.3211 19.243 36.0422 21.0523 34.5738 20.4953C34.6031 21.4297 36.871 21.7646 35.7029 22.3871C36.9918 23.0206 36.2863 23.2147 36.2839 23.2851C36.2839 23.313 36.478 23.3713 36.6708 23.7013H36.6684Z" fill="#7F961A"/>
<path d="M36.6684 23.7014C36.8759 24.0581 36.9686 24.2608 36.6366 24.6636C35.8432 24.8881 34.0526 25.058 33.4118 24.535C33.1957 24.3578 33.0078 23.9453 32.8637 23.7014C33.4814 21.329 31.5809 18.7042 28.9932 19.6617L28.9285 18.6351C28.9492 18.6217 29.2739 18.356 29.3154 18.3147C29.1946 18.6193 29.9721 18.5028 30.5727 18.6351C31.5052 18.8414 33.9122 19.9747 34.1197 20.1738C34.16 20.2126 34.4688 21.1761 34.4749 21.2319C34.5628 22.1736 33.7035 22.3471 35.3452 23.5084C35.8078 23.836 36.7709 23.9283 36.5707 24.4707C36.7953 24.5787 36.7514 23.8385 36.6671 23.7014H36.6684Z" fill="#6C771A"/>
<path d="M14.3508 16.6474C14.0566 17.7274 14.4851 18.7722 14.4155 18.8595C14.313 18.987 12.5809 18.777 11.7704 20.4953C11.2651 21.568 11.2102 22.847 11.8351 23.8943C11.7021 23.9974 11.5886 24.1212 11.4482 24.2146C11.8901 23.7013 11.4201 23.6589 11.3188 23.0922C11.1638 22.2282 11.3847 21.3945 11.1577 21.5207C10.4693 22.9429 9.47082 23.7341 8.02929 24.3421C7.61794 23.654 8.53828 23.2281 8.5456 23.1553C8.55415 23.0655 7.89136 22.9405 9.12661 22.4502C7.98779 21.8738 9.86996 21.5086 10.9331 20.6543C9.9493 20.823 8.67499 20.6919 8.03051 19.8522C9.14126 20.3072 10.8489 19.3898 11.9657 18.8899C12.1586 18.8037 13.5879 18.3159 13.4488 18.0878C12.4381 17.3512 14.0505 18.2322 14.0933 18.1521C14.1144 17.5639 14.136 16.9762 14.158 16.3889C14.2202 16.475 14.219 16.6146 14.352 16.6449L14.3508 16.6474Z" fill="#7F961A"/>
<path d="M11.4482 24.2134C10.6231 24.7643 8.57979 25.2097 8.0293 24.342C9.47083 23.7341 10.4693 22.9429 11.1577 21.5207C11.3847 21.3945 11.165 22.2281 11.3188 23.0921C11.4201 23.6588 11.8889 23.7013 11.4482 24.2146V24.2134Z" fill="#6C771A"/>
<path d="M12.8665 15.429C13.4024 15.5637 13.8369 15.952 14.1567 16.3913C14.1356 16.9794 14.114 17.5672 14.092 18.1545C14.0481 18.2346 12.4357 17.3536 13.4475 18.0902C13.5855 18.3183 12.1574 18.8049 11.9645 18.8923C11.934 18.595 11.0613 17.6436 10.8684 17.5453C10.4339 17.3245 10.2959 17.4871 9.93342 17.3524C9.54526 17.2092 9.01186 16.3719 10.1592 16.3258C9.99445 16.7687 10.5803 16.6037 10.9014 16.7104C11.0747 16.7675 11.4409 16.9956 11.6105 17.0308C11.6838 17.0466 11.6935 16.8148 13.0301 17.1594C14.5253 16.1886 11.9291 15.5637 12.869 15.4278L12.8665 15.429Z" fill="#7F961A"/>
<path d="M11.9645 18.8911C10.8477 19.3898 9.14126 20.3072 8.02928 19.8534C7.94384 19.0646 8.91422 19.3704 8.93253 19.3085C7.46414 18.129 9.96272 17.6036 10.8672 17.5453C11.06 17.6436 11.9328 18.595 11.9633 18.8923L11.9645 18.8911Z" fill="#7F961A"/>
<path d="M12.8665 15.429C11.9279 15.5637 14.5229 16.1899 13.0277 17.1607C11.6911 16.816 11.6825 17.0478 11.6081 17.032C11.4384 16.9968 11.0722 16.7687 10.8989 16.7117C10.5779 16.6049 9.99201 16.7699 10.1568 16.327C10.3228 16.3197 10.5083 16.5309 10.6084 16.3585C9.84554 15.3271 11.4262 15.4472 12.4466 16.134C12.6163 16.0418 11.7668 15.1536 12.8653 15.429H12.8665Z" fill="#7F961A"/>
<path d="M34.475 9.91375C33.734 10.0145 33.0371 10.3239 32.3145 10.4914C32.1765 10.5229 32.1741 10.1419 31.7664 10.6515C31.742 10.8942 32.8967 11.5702 33.0883 11.6454C33.1665 11.6757 33.2006 11.5641 33.2495 11.5811C33.6486 11.7194 33.7243 11.6393 33.6364 11.8699C32.9638 12.7339 31.4454 12.5276 30.5727 12.0944C30.1064 11.8626 30.2883 11.5762 29.8305 11.7097C29.645 11.6551 29.7207 11.5107 29.7012 11.3893C29.6218 10.8918 29.634 9.7475 29.9587 9.36889C30.403 8.85316 30.8424 9.34463 30.8937 9.33735C30.9987 9.32036 31.2782 8.02557 32.2156 8.21487C32.3035 9.50845 32.2571 8.25977 33.4094 7.86175C33.6047 8.86166 33.7853 7.74768 35.0865 7.79744C35.2439 8.4964 34.4225 9.22085 34.409 9.30458C34.3431 9.7026 34.9058 9.2791 34.4737 9.91375H34.475Z" fill="#6C771A"/>
<path d="M34.475 9.91376C34.1698 10.3615 33.5278 10.4817 34.2809 10.6516C34.1442 11.4209 33.1372 11.2886 33.2483 11.5811C33.1994 11.5641 33.1652 11.6757 33.0871 11.6454C32.8955 11.5702 31.7408 10.8942 31.7652 10.6516C32.1729 10.1419 32.1753 10.5229 32.3133 10.4914C33.0371 10.3239 33.7328 10.0145 34.4737 9.91376H34.475Z" fill="#6C771A"/>
<path d="M17.3181 5.23213C17.528 6.05002 16.8677 7.83262 18.1884 6.38615C18.7169 7.18462 18.0297 8.46606 17.705 9.36768C17.7526 9.60067 19.254 8.66265 18.9952 8.30952C19.0807 8.25128 19.1551 8.19667 19.221 8.11658C19.7361 10.3882 17.8771 10.8615 17.8344 11.0338C17.8124 11.1224 18.6669 11.4634 18.2213 12.2206C18.2079 12.2145 18.2018 12.2667 18.0273 12.2206C15.7411 11.6078 14.4314 14.9145 14.1567 11.7073C14.1921 11.6939 14.2617 11.5228 14.8659 11.4185C14.9233 11.3396 14.6462 11.2037 14.5437 11.1297L14.7377 10.9695C14.4289 10.0848 14.3886 9.11042 14.1567 8.21244C13.9724 7.49649 13.6575 7.05842 13.6404 6.99411C13.6075 6.87276 13.8491 6.92979 13.6404 6.57788C14.1128 7.06327 14.1592 7.5244 14.2532 7.54018C14.2788 7.54382 14.5168 7.26714 14.7365 7.38C14.9452 7.48678 15.2467 9.09586 15.8326 8.66265C14.7353 6.76961 15.5458 2.95806 16.9934 4.879C17.2449 5.2115 16.8811 5.37775 17.3157 5.23213H17.3181Z" fill="#6C771A"/>
<path d="M13.6404 6.57909C13.8491 6.931 13.6074 6.87517 13.6404 6.99531C13.6575 7.05962 13.9724 7.49769 14.1567 8.21365C14.3874 9.11163 14.4277 10.0861 14.7377 10.9707L14.5436 11.1309C13.7222 10.5423 14.0127 10.6345 13.9626 10.586C12.6554 9.30578 12.6981 8.97571 11.7692 7.76466C11.4104 7.29625 10.2605 5.86556 9.96271 5.87284C9.95173 4.36812 11.309 6.29999 11.414 6.25751C11.5129 6.21747 11.5507 4.95545 12.7689 6.89823C12.847 6.84605 12.3746 5.27823 13.6392 6.57787L13.6404 6.57909Z" fill="#7F961A"/>
<path d="M14.5437 11.1321C14.6462 11.2049 14.9233 11.342 14.8659 11.4209C14.2617 11.5252 14.1921 11.6963 14.1567 11.7097C14.075 11.74 13.7686 11.7376 13.6734 11.774C13.1143 11.9852 12.2526 12.5531 11.8998 12.1587C11.84 12.0422 11.6643 11.9864 11.8681 11.8383C13.8076 12.0167 10.9661 11.7133 10.6744 10.171C11.3335 10.5253 11.9597 10.6273 12.7067 10.5557C14.0774 10.4246 13.19 10.3518 12.642 9.91496C12.4503 9.76206 11.2383 8.61532 11.126 8.47213C10.6219 7.82777 10.429 6.79994 9.96518 6.90066C9.99692 6.55118 10.1702 6.86183 10.1593 6.48444C10.1593 6.45289 9.96762 6.08399 9.96518 5.87527C10.263 5.86799 11.4128 7.29869 11.7717 7.76709C12.7006 8.97936 12.6578 9.30822 13.9651 10.5884C14.0152 10.6382 13.7234 10.546 14.5461 11.1333L14.5437 11.1321Z" fill="#7F961A"/>
<path d="M14.1567 11.7097C14.4301 14.9169 15.7411 11.609 18.0273 12.223L17.8332 12.3516C16.1536 11.7388 16.1634 13.3224 15.0917 13.9546C13.6721 14.7919 11.4628 14.0432 12.3832 13.2496C12.5785 13.0809 13.3194 13.0215 13.3828 12.5761C13.3487 12.5009 12.2745 12.8819 11.8998 12.1599C12.2526 12.5531 13.1143 11.9864 13.6734 11.7752C13.7686 11.7388 14.0762 11.7425 14.1567 11.7109V11.7097Z" fill="#6C771A"/>
<path d="M10.6743 10.1698C10.4839 9.16139 11.187 10.0254 11.4482 9.56063C10.8733 9.42593 10.2764 8.90777 10.3521 8.27798C11.01 8.35321 9.91266 7.48072 9.96515 6.89946C10.429 6.79753 10.6218 7.82656 11.1259 8.47092C11.2382 8.61411 12.4503 9.76085 12.6419 9.91375C13.19 10.3506 14.0774 10.4246 12.7066 10.5545C11.9596 10.6261 11.3335 10.5241 10.6743 10.1698Z" fill="#7F961A"/>
<path d="M18.9952 8.31074C19.254 8.66387 17.7538 9.60189 17.705 9.3689C18.0309 8.46728 18.7169 7.18463 18.1884 6.38737C16.8677 7.83385 17.528 6.05002 17.3181 5.23335C17.3254 5.23092 17.2766 5.07924 17.4145 5.10472C18.1798 5.94324 17.3925 6.45897 18.2531 6.25875C19.5005 7.83021 17.8149 9.11043 18.9952 8.31074Z" fill="#7F961A"/>
<path d="M18.0273 12.2218C18.2006 12.2679 18.2067 12.2157 18.2213 12.2218C18.5338 12.3541 19.2381 13.2011 19.3174 13.536C19.5799 14.6391 18.5155 14.9109 20.4136 15.0104C20.1609 16.1935 19.16 14.5493 18.6071 15.3635C18.59 15.3502 18.2897 15.2033 18.2201 15.1706C19.5957 14.4946 18.9293 12.7484 17.8332 12.3492L18.0273 12.2206V12.2218Z" fill="#A2B02D"/>
<path d="M27.2514 3.24444C27.2416 3.4568 26.6643 4.88629 26.3481 5.13627C26.2871 5.46027 26.3384 5.28916 26.7998 5.16782C26.8364 5.15811 26.9011 5.17874 26.9291 5.16782L27.0585 5.26368C25.6573 6.51842 24.3842 9.59703 26.2847 8.37384C25.5438 9.41015 24.6454 8.33379 24.7369 7.38C24.7406 7.33753 24.9518 6.83635 24.9945 6.57788C25.0494 6.24903 24.9274 6.21263 24.9298 6.19321C25.0201 5.36926 25.3387 5.53429 25.3167 5.19937C25.3106 5.09865 24.6893 4.41303 24.8651 3.276C24.9896 2.4751 27.0768 -0.504003 27.1232 3.14737C27.1232 3.19469 27.2526 3.23595 27.2526 3.24323L27.2514 3.24444Z" fill="#6C771A"/>
<path d="M26.7998 5.16902C26.3384 5.29037 26.2871 5.46026 26.3481 5.13747C26.6643 4.8875 27.2416 3.45923 27.2514 3.24565C27.4967 2.84035 27.7286 4.43123 26.7998 5.16902Z" fill="#7F961A"/>
<path d="M29.8952 8.43936C29.7207 8.43936 28.9004 8.66629 28.8626 8.75973C28.8565 8.77429 28.8663 8.79977 28.8626 8.82404C28.8357 9.02669 29.0567 9.40166 29.0567 9.43321C29.0506 9.64193 28.7698 9.70382 28.9273 9.94651C27.8605 10.4453 27.2184 8.86045 26.3469 8.63231C26.3201 8.5413 26.4031 8.37869 26.2822 8.37626C24.3817 9.59946 25.6548 6.52085 27.0561 5.26611L26.9267 5.17024C28.367 4.61811 27.7543 2.20327 29.6682 2.15595C29.7113 2.47631 29.7545 2.79708 29.7976 3.11824C30.0344 2.81892 30.2708 2.51959 30.5068 2.22026C30.7631 3.45559 30.9108 1.80768 31.8616 1.89991C32.417 2.38044 31.764 3.26386 31.7652 3.34274C31.7676 3.44103 32.4524 4.02229 31.1842 4.94575C32.1057 5.47483 31.0389 6.33397 30.1516 6.61307C30.547 6.90552 31.1842 6.39465 31.3124 6.99775C31.056 7.65424 30.5043 8.12143 29.8928 8.44058L29.8952 8.43936Z" fill="#7F961A"/>
<path d="M28.8638 8.82405C29.5059 9.01456 29.3875 10.0509 28.7674 10.171C28.0546 10.3081 27.6725 9.66499 27.6066 9.65771C27.3271 9.6298 26.884 10.404 26.3494 8.6311C27.2209 8.86045 27.8617 10.4453 28.9297 9.9453C28.7723 9.70261 29.053 9.64072 29.0591 9.432C29.0591 9.40045 28.8382 9.02548 28.865 8.82283L28.8638 8.82405Z" fill="#7F961A"/>
<path d="M29.8952 8.43937C29.5657 8.61168 29.2715 8.82404 28.8626 8.75973C28.9004 8.66629 29.7195 8.43815 29.8952 8.43937Z" fill="#7F961A"/>
<path d="M24.7357 14.8514C24.6198 15.1766 24.5221 15.5273 24.5417 15.878L24.4123 15.9423C24.0021 15.4945 23.5884 15.0528 23.1221 14.6597C22.9195 14.2361 22.5923 13.8357 22.5411 13.3455C22.5338 13.2799 22.6607 12.2921 22.6705 12.0312C22.9134 12.4511 23.5249 12.1368 23.7031 12.3201C24.2121 12.8431 23.3491 13.0664 23.509 13.4741C24.7015 14.1852 25.3631 12.8346 25.4766 12.8006C26.3958 12.53 24.6295 14.2604 24.7028 14.4679C24.56 14.5019 24.1755 13.3867 23.9936 14.0833C23.5981 13.8539 24.256 14.6584 24.7357 14.8526V14.8514Z" fill="#FDFDFC"/>
<path d="M24.9286 6.19441C24.9261 6.21382 25.0482 6.25023 24.9933 6.57908C24.101 6.94191 22.8841 9.59216 22.7351 10.33C22.6473 10.7632 22.7034 11.2109 22.6704 11.6442C22.6607 11.7704 22.6753 11.9014 22.6704 12.0288C22.6607 12.2897 22.535 13.2775 22.5411 13.343C22.5923 13.8333 22.9182 14.2337 23.1221 14.6572C23.1843 14.7883 23.249 14.8842 23.3161 15.0104C23.2051 15.1778 23.1807 15.0104 23.0586 15.0419C22.7901 14.6148 22.5211 14.1872 22.2518 13.7593C22.1126 14.0554 21.9515 14.7652 21.7684 14.9776C21.6512 15.1135 21.3034 15.2069 21.1239 15.2336C22.0894 14.0821 21.8502 11.4985 22.0272 10.0072C20.8322 11.6405 18.2848 11.9136 18.7694 10.4234C20.604 11.0459 22.0284 9.11769 22.5423 7.60205C23.6811 4.24555 21.2069 1.64991 18.7694 1.95935C17.8857 2.07099 17.86 2.71292 17.124 2.1523C17.0666 1.77248 17.2143 1.52007 17.4792 1.25432C19.4847 -0.766131 25.3692 1.72879 23.5102 7.25014C23.983 6.89742 24.4562 6.5447 24.9298 6.19198L24.9286 6.19441Z" fill="#6A2531"/>
<path d="M23.0586 15.0443C23.0525 15.0456 23.0794 15.1705 23.0269 15.173C23.0098 15.173 22.7217 15.0443 22.7046 15.0443C22.1419 15.0468 21.7501 15.139 21.7697 14.98C21.954 14.7677 22.1139 14.0578 22.253 13.7617C22.5215 14.1888 22.7905 14.6164 23.0598 15.0443H23.0586Z" fill="#FDFDFC"/>
<path d="M29.7024 11.3881C29.7219 11.5107 29.645 11.6539 29.8318 11.7085C29.8147 11.7133 29.5669 11.9038 29.5413 11.9014C29.4863 11.8941 29.0274 11.3469 28.8968 11.2607C27.4528 10.313 26.2664 11.7594 26.3494 13.1841C26.3408 13.1877 26.2261 13.2824 26.22 13.3127C25.5816 13.4425 24.9445 14.2701 24.7369 14.8514C24.2572 14.6572 23.5993 13.8527 23.9948 14.082C24.1767 13.3855 24.5612 14.5007 24.704 14.4667C24.6308 14.2592 26.397 12.5288 25.4779 12.7994C25.3656 12.8322 24.704 14.184 23.5102 13.4729C23.3503 13.0652 24.2133 12.8419 23.7043 12.3189C23.5273 12.1368 22.9158 12.4511 22.6717 12.0301C22.6766 11.9026 22.6619 11.7716 22.6717 11.6454C23.166 12.4111 24.0778 11.6126 23.8972 10.9076C23.8191 10.6042 22.7144 9.76812 23.7361 8.43814L24.0912 8.66264C22.9366 9.82879 24.3183 10.7304 24.3488 10.9076C24.3732 11.0459 23.7251 12.1587 25.9942 12.6065C26.2053 11.501 27.3161 10.3336 28.5098 10.6831C29.0652 10.8457 29.4888 11.6551 29.7036 11.3881H29.7024Z" fill="#A2B02D"/>
<path d="M23.9936 11.8371C24.8016 12.6635 25.2679 12.7339 24.1547 12.8309C24.245 12.1271 23.6238 12.0555 23.9936 11.8371Z" fill="#FDFDFC"/>
<path d="M22.3482 26.3297C22.7107 26.6719 22.9207 27.036 23.1221 27.4837C22.6985 26.9862 23.1367 28.7312 21.7355 29.6644C20.5283 30.4689 18.3019 29.8767 18.8011 29.2797C20.2488 29.3149 21.102 28.3502 21.639 27.1318C21.9527 25.5288 21.8026 26.7399 22.3482 26.3297Z" fill="#70226B"/>
<path d="M21.3815 36.3337C21.0532 36.8409 20.3476 37.2729 20.156 37.552C20.084 37.3797 20.0339 37.552 20.0266 37.552C18.9024 37.7146 17.6635 37.2669 17.124 36.2051C18.0785 37.2571 19.7666 36.3131 20.3171 35.2428C20.6394 35.6226 20.9213 36.091 21.3815 36.3325V36.3337Z" fill="#541750"/>
<path d="M23.1233 27.4837C23.2234 27.7058 23.1636 28.1621 23.4455 27.7398L23.5102 27.9327C23.498 27.9619 23.4785 28.0844 23.4455 28.1888C23.4431 28.1949 23.332 28.1657 23.3162 28.2203C23.2978 28.2871 23.1965 29.4035 23.1868 29.5988C22.6656 30.2881 22.4044 30.5733 21.639 31.0101C21.5951 31.0101 21.2338 31.1375 21.1874 31.1388C20.3659 31.1485 19.4517 30.9592 18.9623 30.2408C18.9244 30.4167 18.5045 31.18 18.5436 31.2674C18.673 31.5586 19.492 31.7212 19.6397 33.3509C19.8191 35.3277 18.7267 34.8156 18.1884 35.0498C17.9247 35.1651 17.6953 36.0643 16.9629 35.4988C16.2244 34.9273 16.7505 32.4129 17.5756 31.8753C17.511 31.7018 16.9129 32.2333 15.995 32.0355C15.7997 31.9931 14.9513 31.595 14.8342 31.4579C14.6364 31.2286 14.8061 31.2225 14.8024 31.1375C14.789 30.8402 14.905 30.7771 14.7377 30.4325C15.4066 30.3609 15.9437 30.8657 17.0276 30.4325C17.7917 30.1267 18.009 29.4435 18.4142 28.8295C18.4386 28.878 18.7731 29.2688 18.8011 29.2785C18.3019 29.8755 20.5283 30.4677 21.7355 29.6632C23.1367 28.73 22.6985 26.985 23.1221 27.4825L23.1233 27.4837Z" fill="#70226B"/>
<path d="M18.7694 32.2297L18.8658 32.3255C17.8918 33.05 17.6001 34.2732 17.4792 34.2817C17.0911 34.3096 17.3132 32.4056 18.7694 32.2297Z" fill="#F9EDF4"/>
<path d="M23.1868 30.1134C23.1807 29.9459 23.1819 29.8331 23.1868 29.6644C23.3479 30.1558 23.6116 30.1558 23.6384 30.1777C25.3827 31.6375 27.205 30.6995 27.5736 28.6062C27.2416 26.7836 28.1046 28.6086 28.2181 29.1838C28.8052 32.1423 25.6097 33.7502 23.896 31.4919C23.4553 30.9106 23.4175 30.2032 23.1868 30.1134Z" fill="#541750"/>
<path d="M26.0893 26.2654C26.7033 26.428 26.7606 26.8127 26.7985 26.843C26.8973 29.1535 24.7747 28.8198 23.6383 30.1777C23.6127 30.1558 23.3478 30.1571 23.1867 29.6644C23.1867 29.6425 23.1867 29.6219 23.1867 29.6001C23.1965 29.4047 23.2978 28.2883 23.3161 28.2216C23.332 28.1657 23.443 28.1961 23.4455 28.19L23.6713 28.8307C23.7409 27.8733 24.4561 27.0275 25.3167 26.6185C24.4586 26.5239 23.819 27.1949 23.5102 27.9327L23.4455 27.7398C23.7775 27.2447 24.3536 25.8055 26.0905 26.2654H26.0893Z" fill="#923E82"/>
<path d="M23.4455 28.19C23.4785 28.0856 23.498 27.9619 23.5102 27.934C23.819 27.1962 24.4586 26.5239 25.3167 26.6197C24.4574 27.0287 23.7409 27.8745 23.6713 28.8319L23.4455 28.1912V28.19Z" fill="#EAD7E6"/>
<path d="M21.3168 25.689C21.6171 25.7424 22.1212 26.1149 22.3494 26.3297C21.8038 26.7399 21.954 25.5288 21.6403 27.1318C21.1032 28.3502 20.25 29.3149 18.8024 29.2797C18.7743 29.27 18.4398 28.8793 18.4154 28.8307C18.2055 28.4036 18.352 27.7337 17.738 27.0348C17.7392 29.2518 14.8098 30.4046 14.0286 29.1183C13.4561 28.1754 13.8577 26.1489 16.3502 26.1368C17.5061 26.1307 17.8869 26.5809 18.4459 27.5481C18.6596 26.8964 19.276 25.9305 19.9619 25.7521C20.2317 25.683 21.0641 25.6441 21.3168 25.6878V25.689Z" fill="#923E82"/>
<path d="M20.2525 26.138C20.3379 26.1356 20.8042 26.2266 20.8005 26.2982C19.3297 26.6271 19.16 28.1281 19.027 28.1257C18.4362 27.3818 19.4322 26.1659 20.2525 26.138Z" fill="#EAD7E6"/>
<path d="M16.576 26.394C16.9617 26.5809 16.4954 26.4814 16.3819 26.5227C15.5678 26.8151 14.8928 27.593 14.5754 28.3817C14.1763 28.4315 14.2898 26.411 16.5748 26.394H16.576Z" fill="#EAD7E6"/>
<path d="M22.22 21.7124C22.0479 21.96 21.777 21.3726 21.3497 21.1348C21.1337 21.2865 22.4739 23.5618 18.1249 24.4695C17.5866 23.5411 17.7929 22.2973 18.4154 21.4552C19.4822 20.0123 21.2765 20.2781 22.2213 21.7112L22.22 21.7124Z" fill="#923E82"/>
<path d="M20.1877 20.8157C20.737 20.9334 19.6909 20.9164 19.0587 21.6809C18.4435 22.4247 18.3495 24.0217 18.1554 22.9635C17.9699 21.9539 19.16 20.7865 20.1877 20.8157Z" fill="#EAD7E6"/>
<path d="M24.5416 16.0698V15.8768C24.5209 15.5261 24.6185 15.1754 24.7357 14.8502C24.9444 14.2689 25.5804 13.4413 26.2188 13.3115C28.5892 12.8285 29.1726 16.1753 24.9615 16.7105C24.7516 16.543 24.715 16.2615 24.5429 16.0698H24.5416Z" fill="#923E82"/>
<path d="M24.5416 16.0697C24.505 16.0285 24.455 15.9884 24.4123 15.9411L24.5416 15.8768V16.0697Z" fill="#EDB9EA"/>
<path d="M26.6386 13.5688C28.1461 13.9595 25.2618 13.3819 25.0909 15.8768C24.4354 14.7774 25.5731 13.7556 26.6386 13.5688Z" fill="#EAD7E6"/>
<path d="M30.2175 16.6474C30.0991 17.3172 29.7963 17.8463 29.3142 18.3147C29.2727 18.3559 28.948 18.6217 28.9273 18.635C28.6587 18.8037 28.7466 18.8219 28.7332 18.828C28.6893 18.8486 27.8458 19.0792 27.7982 19.084C26.6508 19.203 25.5413 18.7163 25.1214 17.6096C25.1995 17.5575 26.1333 18.3244 26.7021 18.379C28.9395 18.5938 30.7472 15.6705 29.4106 14.0821C27.8299 14.3017 29.1397 14.559 28.6038 16.1025C28.2559 17.1048 26.8059 17.7625 25.7976 17.6096C25.3387 17.5393 24.6161 16.8063 25.1202 17.4495L24.765 17.7383C24.5807 15.6681 24.5087 18.9421 22.0565 19.1496C20.3122 19.2964 19.8447 18.0768 19.7349 17.9955C19.6201 17.9106 19.4993 18.0089 19.4444 18.1885C19.2027 18.9724 19.0172 19.5658 18.2506 20.0475C16.9861 20.8424 16.095 20.1992 16.316 20.6883C17.2204 20.6361 17.7343 20.9407 18.4117 21.4576C17.7905 22.2986 17.5842 23.5436 18.1212 24.4719C22.4715 23.5654 21.13 21.2889 21.3461 21.1372C21.7745 21.3739 22.0443 21.9612 22.2164 21.7149C23.2051 23.2147 22.7583 24.7267 21.3131 25.6902C21.0617 25.6453 20.228 25.6842 19.9583 25.7545C19.9106 25.5604 19.4663 25.6866 18.8939 25.3699C18.7645 25.2983 18.4423 24.8299 18.3129 24.8566C18.2543 24.8687 17.9003 25.5264 17.539 25.7545C16.8933 26.1623 16.3672 25.8528 16.3453 26.1392C13.8528 26.1526 13.4512 28.1779 14.0237 29.1207C14.8036 30.4058 17.7343 29.253 17.7331 27.0372C18.3471 27.7362 18.2006 28.4048 18.4105 28.8332C18.0041 29.4472 17.788 30.1304 17.0239 30.4362C15.94 30.8694 15.4029 30.3646 14.7341 30.4362C14.3996 29.7457 14.1457 29.9969 14.7987 31.1412C14.8024 31.2261 14.6327 31.2322 14.8305 31.4616C14.9489 31.5987 15.796 31.9967 15.9913 32.0392C16.9092 32.237 17.5073 31.7055 17.572 31.879C16.7468 32.4154 16.2208 34.9309 16.9592 35.5025C17.6916 36.0679 17.9211 35.1688 18.1847 35.0535C18.723 34.8181 19.8154 35.3314 19.636 33.3546C19.4883 31.7249 18.6693 31.5611 18.5399 31.271C20.261 30.8864 20.7382 32.1617 21.185 31.1424C21.2313 31.1424 21.5926 31.0138 21.6366 31.0138C22.1932 31.0138 22.7827 30.8427 23.282 31.2698C23.4211 31.2662 23.2112 30.9131 23.1855 30.1158C23.4162 30.2056 23.4541 30.9131 23.8947 31.4943C25.6072 33.7514 28.804 32.1448 28.2169 29.1863C28.1034 28.6123 27.2392 26.786 27.5724 28.6087C27.205 30.7019 25.3826 31.6399 23.6372 30.1801C24.7748 28.8222 26.8962 29.1559 26.7973 26.8455C27.0134 27.0129 27.2526 27.1561 27.4418 27.3588C28.533 28.5286 28.9346 29.7311 28.5379 31.3341C28.4878 31.538 28.328 31.93 28.2157 32.1035C27.3832 33.3934 25.3863 33.6483 24.2804 32.6168C23.7617 32.1326 23.6835 31.7322 23.5383 31.6545C23.5212 31.646 23.3552 31.7516 23.1514 31.6545C22.8206 31.4955 22.192 31.1097 21.8941 31.1412C21.6769 31.1643 21.6378 31.0939 21.5719 31.3657C21.5328 31.9372 21.8331 31.6048 21.8294 31.9106C21.0043 31.8924 20.4929 32.9044 20.604 33.6422C20.2524 33.2988 20.4721 33.0998 20.1523 33.2891C20.1633 33.755 19.8557 34.5936 20.3464 34.7319C20.9872 36.1371 23.1758 36.4502 24.0229 35.085C24.3866 34.4977 24.3048 33.9104 24.5392 33.5779C24.632 34.1579 24.6612 34.6251 24.4745 35.1809C24.1559 36.131 22.7132 36.7499 21.766 36.5279C21.7452 36.523 21.4633 36.3798 21.379 36.3349C20.9189 36.0922 20.6369 35.6238 20.3147 35.2452C19.7642 36.3155 18.0773 37.2596 17.1216 36.2075C16.4148 35.4284 16.1085 33.1216 16.864 32.2637L16.7676 32.1678C12.6956 33.0439 10.4924 27.7519 13.7686 25.3383C13.0362 25.1963 12.2037 24.5156 11.8339 23.8955C11.2089 22.8483 11.2639 21.5692 11.7692 20.4965C11.6886 20.8897 11.5361 22.5704 11.7692 22.773C12.0621 22.8883 11.8595 22.4842 12.0914 21.8435C12.1378 21.7173 12.2257 21.5838 12.2855 21.4588C13.2339 22.0352 15.0453 21.2865 15.1234 20.1446C15.16 19.6022 14.6877 19.0355 14.8329 18.9578C16.1866 19.7308 15.7435 20.6676 15.8656 20.7538C16.4136 20.8909 16.2842 20.2174 16.0914 19.7915C18.0895 20.0293 19.4663 18.7066 19.1234 16.7456C19.4969 16.287 19.2039 17.1291 19.5103 17.0345C19.6311 17.3694 19.6116 17.7783 19.9936 17.9324C25.2032 17.8062 23.8227 14.4279 20.8639 15.4958C20.9067 15.3841 21.0006 15.3829 21.1215 15.2397C21.3009 15.2118 21.65 15.1184 21.766 14.9837C21.7464 15.1414 22.1395 15.0504 22.701 15.048C22.718 15.048 23.0061 15.1766 23.0232 15.1766C23.0757 15.1742 23.0488 15.0504 23.0549 15.048C23.177 15.0164 23.2026 15.1839 23.3125 15.0164C23.2453 14.8914 23.1819 14.7944 23.1184 14.6633C23.5847 15.0565 23.9985 15.497 24.4086 15.946C24.4513 15.9933 24.5001 16.0333 24.538 16.0746C24.7113 16.2663 24.7467 16.5491 24.9566 16.7153C29.1689 16.1814 28.5843 12.8334 26.2139 13.3163C26.22 13.286 26.3347 13.1914 26.3432 13.1877C27.8788 12.5895 30.7716 13.5056 30.2138 16.651L30.2175 16.6474Z" fill="#70226B"/>
<path d="M13.738 26.3297C13.9211 26.447 14.1038 26.5648 14.2861 26.6829C13.4585 27.3054 13.771 28.5953 13.19 27.9012C13.1253 27.3284 13.3133 26.7496 13.738 26.3297Z" fill="#EAD7E6"/>
<path d="M14.7377 30.4337C14.9049 30.7784 14.789 30.8415 14.8024 31.1388C14.1494 29.9945 14.4033 29.7433 14.7377 30.4337Z" fill="#CD7DA1"/>
<path d="M15.9303 20.8157C17.3132 20.6337 18.6351 22.1796 16.9629 23.3167C15.918 24.0278 15.0136 23.4586 14.3178 24.7279C13.522 23.4016 14.5436 20.9989 15.9303 20.8157Z" fill="#923E82"/>
<path d="M16.3184 21.2634C16.4393 21.2671 16.8396 21.3338 16.8018 21.4879C16.7652 21.6372 15.4579 21.568 14.706 23.5715C14.0737 22.6723 15.3029 21.2343 16.3184 21.2634Z" fill="#EAD7E6"/>
<path d="M32.8625 23.7013C32.6477 24.5241 32.0264 25.0641 31.5076 25.689C31.1659 25.6502 29.0274 27.0032 27.7018 24.7267C27.7189 24.6855 27.5846 24.7583 27.7665 24.342C31.7017 28.2652 34.7117 20.613 30.8632 20.4625C31.7225 22.3216 30.2638 23.8967 28.3475 22.932C28.3512 22.9065 28.3475 22.5182 28.3475 22.4187C28.3475 21.6081 28.317 21.1858 27.8312 20.4953C28.035 20.3363 28.6832 19.8158 28.7344 19.7903C28.7857 19.7648 28.9785 19.6665 28.992 19.6616C31.5797 18.7042 33.4801 21.329 32.8625 23.7013Z" fill="#70226B"/>
<path d="M27.7665 24.3421C27.9435 23.9392 28.2425 23.6674 28.3475 22.9308C30.2626 23.8955 31.7225 22.3216 30.8632 20.4613C34.713 20.613 31.7017 28.264 27.7665 24.3408V24.3421Z" fill="#70226B"/>
<path d="M28.3475 22.4187C28.3475 22.5182 28.3512 22.9065 28.3475 22.932C28.2425 23.6686 27.9435 23.9392 27.7665 24.3433C27.5846 24.7595 27.7189 24.6867 27.7018 24.7279C27.6042 24.9634 27.6396 24.9682 27.4443 25.1769C27.0634 25.0701 27.393 24.8541 27.2831 24.7922C27.1403 24.7109 26.115 25.7776 24.477 24.6636C25.9673 25.4827 28.0472 23.1334 27.8312 21.1372C28.0533 21.5595 28.1461 21.9952 28.3475 22.4199V22.4187Z" fill="#70226B"/>
<path d="M27.8312 21.136C28.0472 23.1334 25.9673 25.4815 24.4769 24.6624C24.029 24.3578 23.8215 24.1091 23.5737 23.6358C25.7085 23.7741 28.0448 22.1845 26.7021 19.9165C27.2367 20.2453 27.5431 20.5875 27.8312 21.1348V21.136Z" fill="#70226B"/>
<path d="M27.8312 20.4942C28.3158 21.1859 28.3475 21.607 28.3475 22.4176C28.1461 21.9929 28.0545 21.5572 27.8312 21.135C27.5431 20.5877 27.2367 20.2455 26.7021 19.9166C28.0448 22.1846 25.7085 23.7743 23.5737 23.6359C21.9967 20.6277 26.0198 17.9132 27.8312 20.4942Z" fill="#923E82"/>
<path d="M25.2191 19.9177C26.8791 19.6762 24.3354 20.2672 23.8642 22.1626C23.2234 21.2841 24.3134 20.05 25.2191 19.9177Z" fill="#EAD7E6"/>
</g>
<defs>
<clipPath id="clip0_178_1428">
<rect width="43.8" height="43.8" fill="white"/>
</clipPath>
</defs>
</svg>
