<svg width="35" height="35" viewBox="0 0 35 35" fill="none" xmlns="http://www.w3.org/2000/svg">
<rect x="0.382812" y="0.933838" width="34.0172" height="34.0393" rx="5" fill="white"/>
<path d="M19 17.1001C20 17.1001 20.7 17.5001 21.4 18.2001C22 19.0001 22.2999 20.0001 22.2999 21.4001C22.2999 23.5001 21.5 25.5001 20 27.2001C18.5 28.9001 16.9 29.8001 15.2 29.8001C13.5 29.8001 13.3 29.5001 12.7 28.8001C12.1 28.1001 11.7 27.2001 11.7 26.0001C11.7 24.0001 12.3 22.1001 13.5 20.4001C15 18.3001 16.8 17.2001 19 17.2001V17.1001ZM17.7 18.2001C16.9 18.2001 16.0999 18.8001 15.2999 20.0001C14.4999 21.2001 14.1 22.8001 14.1 24.9001C14.1 27.0001 14.2999 27.1001 14.7999 27.9001C15.1999 28.4001 15.6 28.7001 16.2 28.7001C16.8 28.7001 17.8 28.2001 18.4 27.2001C19.3 25.9001 19.7 24.3001 19.7 22.3001C19.7 20.3001 19.5 19.8001 19.1 19.2001C18.7 18.6001 18.2 18.3001 17.6 18.3001L17.7 18.2001Z" fill="#2C2C2C"/>
<path d="M15.6001 12.7C16.1001 12.9 16.5001 13.1 17.0001 13.4C15.2001 13.7 12.8001 13.1 11.4001 11.9C11.0001 11.5 9.50012 10 9.80012 9.5C11.4001 11 13.4001 12.4 15.6001 12.7Z" fill="#0E1F12"/>
<path d="M11.6999 9.4C12.9999 10.1 14.2999 11 15.1999 12.2C14.3999 11.7 13.2999 11.2 12.3999 10.9C13.4999 11.5 14.5999 12.1 15.6999 12.7C13.5999 12.3 11.5999 10.9 9.8999 9.5C10.1999 8.9 11.1999 9.3 11.6999 9.5V9.4Z" fill="#2D4427"/>
<path d="M19.4 10.4001C19.4 10.9001 19.4 11.5001 19.2 12.0001C19.2 12.0001 19.2 12.0001 18.9 12.3001C18.7 11.6001 18.3 11.0001 18 10.4001C17.6 9.6001 17.3 8.9001 17.2 8.1001L17.5 7.9001C17.7 8.7001 18 9.4001 18.4 10.1001C18.6 10.5001 18.8 11.0001 19 11.4001C19 11.6001 19.2 11.8001 19.2 11.9001C19.2 10.5001 18.9999 8.9001 18.7999 7.5001V6.6001C19.4999 7.7001 19.7 9.0001 19.7 10.3001H19.4V10.4001Z" fill="#1C2F16"/>
<path d="M14.4999 10.6C15.4999 11.3 16.3999 12.4 17.2999 13.3C16.6999 12.9 15.9999 12.5 15.3999 12.2C14.4999 11 13.1999 10.1 11.8999 9.40002C12.6999 9.60002 14.0999 10.2 14.6999 10.6H14.5999H14.4999Z" fill="#0E1F12"/>
<path d="M18.4999 6.70005V7.60005C18.4999 8.80005 18.4999 10.3001 18.6999 11.5001C18.4999 11.1001 18.2999 10.6001 18.0999 10.2001V10.0001C18.3999 10.0001 17.8999 8.60005 17.6999 7.70005C17.6999 7.50005 17.6999 6.10005 17.3999 6.10005C17.0999 6.10005 17.3999 6.90005 17.3999 7.10005C17.1999 7.00005 17.0999 6.60005 17.0999 6.60005C17.0999 6.60005 17.0999 6.80005 16.8999 6.60005C17.0999 5.30005 17.9999 6.20005 18.3999 6.80005H18.4999V6.70005Z" fill="#4A693F"/>
<path d="M21.1001 11C20.9001 11.4 19.2001 12.5 19.2001 12.6V13.5C19.0001 13.5 19.2001 13.5 19.0001 13.6V12.8C18.7001 13.1 18.4 13.1 18.3 13.2C18.6 12.9 19.2001 12.9 18.9001 12.5C19.4001 12.2 19.2001 12.2 19.2001 12.2C19.7001 11.8 20.2001 11.5 20.6001 11.1H21.1001V11Z" fill="#79593F"/>
<path d="M17.3999 7.1001C17.5999 8.1001 17.8999 9.0001 18.0999 10.0001V10.2001C17.6999 9.5001 17.3999 8.8001 17.1999 8.0001L16.8999 8.2001C16.8999 7.7001 16.8999 7.1001 16.8999 6.6001C16.8999 6.9001 16.8999 6.6001 17.0999 6.6001C17.0999 6.6001 17.0999 7.0001 17.3999 7.1001Z" fill="#3A5431"/>
<path d="M19.1 14.6001V14.1001C21.6 14.2001 26.1 16.5001 26.9 18.9001V19.2001C23.9 20.4001 20.3 17.1001 19 14.8001V14.6001H19.1Z" fill="#0E1F12"/>
<path d="M8 17.9H8.8C10.4 17.6 13.5 16.4 14.6 15C15.3 14.7 16.1 14.4 16.8 13.9C16.8 14.1 15.8 15.4 15.5 15.7C14.9 16.3 13.7 17.1 12.9 17.4C11.6 18 8.4 18.8 8 17.8V17.9Z" fill="#0E1F12"/>
<path d="M16.5 13.8H16.7C15.7 14.4 14.7 14.9 13.6 15.4C12.7 15.8 10.9 16.3 10.8 16.4C10.6 16.7 10 17.4 9.6 17.6C9.3 17.8 8.8 17.8 8.9 18H8.5C9.1 17.5 9.7 16.5 10.3 16C11.2 15.1 12.4 14.6 13.6 14.3V14.1C15.5 13.6 16.3 13.8 16.5 13.8Z" fill="#2D4427"/>
<path d="M13.4 14.1001V14.3001C12.3 14.6001 11.1 15.1001 10.2 16.0001C10 15.8001 8.10001 17.5001 7.90001 17.8001C7.70001 17.1001 9.30001 15.8001 9.80001 15.5001C10.9 14.8001 12.1 14.4001 13.3 14.1001H13.4Z" fill="#6E8E5F"/>
<path d="M16.7999 13.8C16.0999 14.3 15.4 14.6 14.6 14.9C13.3 15.5 12.1 16.1 10.7 16.3C10.7 16.3 12.6 15.6001 13.5 15.2001C14.5 14.8001 15.5 14.2 16.6 13.8H16.7999Z" fill="#6D8265"/>
<path d="M10.2 16.0001C9.7 16.5001 9 17.5001 8.4 18.0001H8C8.2 17.6001 10.1 15.9001 10.3 16.0001H10.2Z" fill="#4A693F"/>
<path d="M15.1001 12.2C15.7001 12.6 16.4001 13 17.0001 13.4C16.6001 13.1 16.1001 13 15.6001 12.7C14.5001 12.1 13.4 11.5 12.3 10.9C13.2 11.2 14.3001 11.7 15.1001 12.2Z" fill="#5B7158"/>
<path d="M18.2001 13.1C18.0001 13.2 17.8001 13.3 17.6001 13.4C17.4001 13.5 17.1001 13.6 16.9001 13.8H16.6001C16.9001 13.6 17.2001 13.3 17.3001 13.3C17.8001 13 18.3001 12.8 18.8001 12.4C19.1001 12.8 18.5001 12.8 18.2001 13.1Z" fill="#876C46"/>
<path d="M18.7001 11.4C18.4001 10.2 18.5001 8.7 18.5001 7.5C18.7001 8.9 18.9001 10.4 18.9001 11.9C18.9001 11.7 18.7001 11.5 18.7001 11.4Z" fill="#2D4427"/>
<path d="M18.2 9.9C18 8.9 17.6 8 17.5 7C17.5 6.8 17.3 6 17.5 6C17.8 6 17.8 7.4 17.8 7.6C18 8.5 18.5 9.9 18.2 9.9Z" fill="#607F51"/>
<path d="M22.2001 16.1C22.6001 16.1 24.7001 17.7 24.8001 17.6C24.8001 17.6 23.7001 16.2 23.3001 15.9C23.3001 15.7 24.2001 16.3 24.6001 16.5C24.9001 16.7 27.1001 18.3 26.6001 18.6C25.4001 19.7 20.2001 15.7 19.6001 14.5C20.9001 15.7 23.4001 17.1 25.0001 18C24.1001 17.3 23.1001 16.7 22.2001 16.1Z" fill="#2D4427"/>
<path d="M23.1999 15.9001C23.5999 16.2001 24.7999 17.5001 24.6999 17.6001C24.6999 17.6001 22.4999 16.1001 22.0999 16.1001C21.1999 15.5001 20.1999 14.9001 19.3999 14.2001C20.3999 14.5001 22.3999 15.3001 23.1999 15.9001Z" fill="#2D4427"/>
<path d="M19.5001 14.2C20.3001 14.9 21.3001 15.5 22.2001 16.1C23.1001 16.7 24.1001 17.3 25.0001 17.9C23.4001 17 21.0001 15.6 19.6001 14.4C19.6001 14.3 19.4 14.2 19.3 14.1C19.3 13.9 19.3001 14.1 19.6001 14.1L19.5001 14.2Z" fill="#6D8265"/>
<path d="M14.6001 15C13.5001 16.3 10.5 17.6 8.80005 17.9C8.80005 17.9 9.20005 17.7 9.50005 17.5C9.80005 17.3 10.4001 16.5 10.7001 16.4C12.1001 16.2 13.3001 15.6 14.6001 15Z" fill="#2D4427"/>
<path d="M19.1 13.4001V13.9001V14.4001C19.1 15.3001 19.1 16.1001 19.3 17.0001V17.2001C19.1 16.4001 19.1 14.7001 19 13.8001C19 13.8001 19.2 13.7001 19 13.5001C19 13.5001 19 13.3001 19.2 13.4001H19.1Z" fill="#9E9057"/>
<path d="M18.2 13.1001C17.9 13.5001 18.4 13.4001 18.8 13.6001C19 13.7001 18.8 13.8001 18.8 13.9001C18.4 13.8001 17.9 13.6001 17.5 13.5001C17.7 13.4001 17.9 13.3001 18.1 13.2001H18.2V13.1001Z" fill="#79593F"/>
<path d="M11.3 27.3C11.5 27.5 11.7001 27.6 11.9001 27.7C12.4001 27.9 12.5001 27.9 13.0001 27.9C16.1001 27.7 19.3001 23.3 19.4001 20.4C19.4001 19.6 19.2001 18.9 19.4001 18.1C19.5334 18.1 19.6667 18.1 19.8 18.1C21.3 18.9 21.8001 21.2 21.6001 22.7C21.3001 24.6 20.0001 26.5 18.7001 28C20.7001 26.9 22.1 24.9 22.3 22.7C22.3 21.6 22.3001 20.6 21.9001 19.5C21.5001 18.6 20.9001 17.9 19.9001 17.7C19.3001 17.7 19.2001 17.9 19.2001 17.3V17.1C22.7001 17.4 23.5001 22 22.7001 24.7C21.2001 29.8 14.4 32.3 11.3 27.1V27.3Z" fill="#685E0B"/>
<path d="M17.8999 17.2001C16.6999 18.6001 19.4999 18.4001 18.9999 17.4001C18.9999 18.0001 18.9999 17.6001 19.6999 17.8001C20.6999 18.0001 21.2999 18.7001 21.6999 19.6001C21.4999 19.6001 21.1999 19.0001 20.9999 18.9001C20.7999 18.9001 19.5999 18.0001 19.4999 18.2001C19.3666 18.2001 19.2332 18.2001 19.0999 18.2001H18.8999C18.8999 18.2001 18.3999 18.7001 17.6999 18.5001C17.1999 18.5001 17.2999 17.8001 17.2999 17.7001L17.6999 17.4001L17.8999 17.2001Z" fill="#E9E0B0"/>
<path d="M22.2999 22.7001C22.0999 25.0001 20.7 26.9001 18.7 28.0001C19.9 26.5001 21.3 24.6001 21.6 22.7001H22.4H22.2999Z" fill="#A79B19"/>
<path d="M21.9 19.5C22.4 20.6 22.3999 21.5 22.2999 22.7H21.5C21.7 21.1 21.2 18.9 19.7 18.1C19.7 17.8 21 18.6 21.2 18.8C21.4 19 21.7 19.5 21.9 19.5Z" fill="#ACA84E"/>
<path d="M18.8 17.1C18.8 17.1 19 17.1 19.1 17.3C19.6 18.4 16.8 18.5 18 17.1C18 17.1 18 17.1 18 16.9C18.2 16.9 18.6 16.9 18.8 16.9V17.1Z" fill="#471013"/>
<path d="M18 17.4H18.2C18.8 17.9 17.6 18 18 17.4Z" fill="#BE2E4E"/>
<path d="M11.8999 26.2C12.3999 26.4 12.2999 26.6 11.8999 27.4V27.6C11.5999 27.6 11.4999 27.4 11.2999 27.2C10.7999 26.4 10.5999 25.9 10.3999 24.9C10.5999 26.1 11.4999 26 11.7999 26.1L11.8999 26.2Z" fill="#A79B19"/>
<path d="M19.4 18C19.4 18.8 19.4 19.5 19.4 20.3C19.4 23.3 16.1 27.6 13 27.8C14.9 26.2 16.2 25.2 17.2 22.9C17.5 22.2 18.2 20.4 18.4 19.7C18.6 18.7 18.4 19.1 18.2 18.9C18.2 18.9 17.8 18.4 18 18.3C18.7 18.5 19.1 17.9 19.2 17.9H19.4C19.4 17.9 19.4 17.9334 19.4 18Z" fill="#857D12"/>
<path d="M17.1999 22.9C16.0999 25.2 14.8999 26.2 12.9999 27.8C12.4999 27.8 12.3999 27.8 11.8999 27.6V27.4C14.4999 25 15.8999 24.4 17.4999 20.9C17.7999 21.5 16.4999 23 17.0999 22.9H17.1999Z" fill="#A79B19"/>
<path d="M18.7999 17.1C18.5999 17.1 18.1999 16.9 17.9999 17.1C17.7999 17.1 17.6999 17.1 17.5999 17.3C17.2999 17.7 17.5999 17.5 17.5999 17.6C17.5999 17.8 17.5999 18.3 17.9999 18.4C17.7999 18.4 17.9999 18.8 18.1999 19C17.5999 19.3 16.8999 20.6 16.6999 20.9C16.6999 20.9 16.6999 21.1 16.4999 21.2C15.7999 22 14.7999 22.9 13.9999 23.8C13.4999 24.4 12.9999 25.2 12.3999 25.8C12.1999 26.1 11.7999 26.4 11.8999 26.4C11.5999 26.2 10.6999 26.4 10.4999 25.2C9.89992 21.6 12.6999 17.4 16.3999 16.9C17.0999 16.9 18.2999 16.9 18.7999 17.4V17.2V17.1Z" fill="#BBB124"/>
<path d="M15.4001 17.7001H15.6001C15.2001 18.7001 14.3001 19.3001 13.7001 20.1001C12.6001 21.6001 11.8001 23.5001 11.8001 25.4001C10.4001 22.1001 12.3001 19.1001 15.3001 17.7001H15.4001Z" fill="#F5F0CE"/>
<path d="M18.0001 17V17.2L17.6001 17.5C17.6001 17.5 17.4001 17.5 17.6001 17.2C17.8001 17.2 17.8001 17 18.0001 17Z" fill="#614E07"/>
<path d="M18.2 18.9001C18.4 19.1001 18.6 18.7001 18.4 19.7001C18.4 20.4001 17.5 22.2001 17.2 22.9001C16.6 22.9001 17.8 21.5001 17.6 20.9001C16 24.4001 14.6 25.0001 12 27.4001C12.3 26.6001 12.4 26.4001 12 26.2001C12 26.2001 12.3 25.9 12.5 25.6C13 25 13.5 24.2 14.1 23.6C14.9 22.7 15.8 21.8 16.6 21C16.6 21 16.6 20.7001 16.8 20.7001C17 20.5001 17.6 19.2 18.3 18.8L18.2 18.9001Z" fill="#BBB124"/>
<path d="M16.2 21.8001C16.2 22.3001 16 22.4001 15.9 22.6001C15.9 22.6001 16.1 22.6001 15.7 23.1001C15 24.1001 14.4 24.2001 14.7 23.7001C14.7 23.7001 15.7 22.8001 16.1 21.7001L16.2 21.8001Z" fill="#A79B19"/>
</svg>
