<svg width="42" height="55" viewBox="0 0 42 55" fill="none" xmlns="http://www.w3.org/2000/svg">
<path d="M22.8402 53.8697C26.6472 51.6524 26.1393 48.7292 26.2829 48.4222C26.3762 48.2249 28.5514 47.992 29.8826 46.0714C31.1175 44.2901 30.9606 42.3368 31.0568 42.1529C31.3248 41.6353 36.7443 40.956 35.3598 32.4338C35.5434 32.0334 40.073 32.9233 39.1935 29.2985C39.1194 28.9929 37.8593 26.8023 37.9408 26.5546C37.9911 26.4034 39.7324 25.9688 39.5844 24.0852C41.0251 26.7044 41.3998 30.1883 41.3065 33.1383C40.9748 43.6004 33.1002 52.2427 22.8402 53.8683V53.8697Z" fill="#CDC8C9"/>
<path d="M18.3018 53.5568C9.21898 52.3243 1.47918 43.5011 0.695866 34.4717C0.4012 31.0723 0.929823 27.6211 2.02557 24.3997C2.10849 25.9006 3.6218 26.3396 3.66918 26.5547C3.8291 27.2829 2.06407 29.0834 2.18252 30.3174C2.41796 32.7646 6.13905 31.9667 6.33007 32.3553C5.42386 41.2156 11.2965 41.6842 11.5734 42.23C11.6148 42.3116 11.6548 43.4892 11.8088 44.0321C12.7742 47.4448 15.5151 48.0914 15.6424 48.4993C15.7194 48.7425 15.4781 50.0447 16.5027 51.7133C16.7959 52.1894 17.8428 53.2973 18.3018 53.5553V53.5568Z" fill="#CDC8C9"/>
<path d="M15.6409 19.1493C15.7253 19.1878 16.0895 19.3688 16.1103 19.3851C16.3176 19.5378 16.5145 19.873 16.6581 20.0911C16.3605 20.0332 16.593 20.843 16.4227 21.5416C16.205 22.4389 14.9834 23.664 14.1142 23.9324C13.4494 24.1371 12.6246 23.9947 12.6661 24.2454C12.3699 23.8998 10.2229 22.5679 11.7658 22.2075C12.5165 22.0325 15.6083 22.7236 15.3255 19.0721C15.4054 19.0974 15.5787 19.1226 15.6379 19.1508L15.6409 19.1493Z" fill="#70226B"/>
<path d="M16.6582 20.0896C17.1439 20.8237 16.978 20.7896 17.2061 21.4214C16.8344 21.5386 17.1898 20.5078 16.7367 21.0684C17.1528 23.4652 15.4825 25.0818 13.0585 24.7911C13.0452 24.76 12.7224 24.3061 12.6676 24.2424C12.6247 23.9917 13.4509 24.1341 14.1158 23.9294C14.9835 23.661 16.2066 22.4374 16.4243 21.5386C16.5945 20.84 16.3606 20.0302 16.6597 20.0881L16.6582 20.0896Z" fill="#70226B"/>
<path d="M23.5451 43.7591C23.5228 43.7398 23.6102 43.4521 23.2326 43.6019C23.4592 42.9226 23.4236 42.3516 23.3111 41.6427C23.1986 40.9382 22.8491 40.7587 22.9987 40.4665C24.3387 41.7272 26.7627 41.4172 27.7726 39.8392C29.16 42.6957 26.3955 46.3754 23.5465 43.7576L23.5451 43.7591Z" fill="#491139"/>
<path d="M23.936 46.0328C23.9301 46.0195 23.6768 45.972 23.7005 45.837C23.7168 45.7466 23.9967 45.6932 24.013 45.6012C24.0307 45.5063 23.3096 44.4903 23.5436 43.7592C26.3925 46.3769 29.157 42.6972 27.7696 39.8407C27.9058 39.6271 28.0998 39.1495 28.1605 38.9004C29.6324 39.3349 30.118 36.5436 29.9596 35.5307L30.272 34.8647C30.0159 32.4264 31.3841 35.4743 30.3105 38.3531C32.2429 38.0238 32.7671 35.6686 32.6975 34.003C32.6768 33.5002 32.2858 32.7601 32.5405 32.7097C34.8164 35.544 32.9862 40.9249 28.5499 39.9593C29.7878 42.457 28.4256 46.7729 25.1457 46.4258C24.5934 46.368 24.0944 45.9231 23.933 46.0343L23.936 46.0328Z" fill="#70226B"/>
<path d="M31.7602 32.0037C32.1023 32.0423 32.3555 32.4768 32.5421 32.7097C32.2874 32.7601 32.6768 33.5002 32.699 34.003C32.7686 35.6686 32.2444 38.0238 30.3121 38.3531C31.3856 35.4743 30.0174 32.4279 30.2736 34.8647L29.9611 35.5306C29.7153 33.96 27.8215 32.7408 26.2445 33.1012L26.8309 34.0416C26.6013 33.7939 26.3096 33.6189 26.049 33.4142C26.0031 33.3786 25.9321 32.9069 25.1887 32.7082C25.8032 31.8687 26.397 31.842 26.8323 31.3763C27.0707 31.1212 27.0263 31.1153 27.1448 30.8276C28.7529 33.61 31.3456 31.9562 31.7617 32.0037H31.7602Z" fill="#541750"/>
<path d="M29.9611 35.5306C30.1196 36.5436 29.6339 39.3349 28.162 38.9003C28.6433 36.9396 28.1561 35.4698 26.8323 34.0416L26.246 33.1012C27.823 32.7408 29.7168 33.9615 29.9626 35.5306H29.9611Z" fill="#541750"/>
<path d="M28.396 23.6165V24.7927C28.3338 24.8238 27.5475 25.4601 27.3002 25.6544C25.1028 22.4997 20.2223 25.8175 22.1354 29.4943C22.436 30.0727 22.6877 30.3767 23.2312 30.749C25.2168 32.109 26.4621 30.8054 26.6354 30.9062C26.7686 30.9818 26.3688 31.2459 26.8308 31.3764C26.3955 31.8421 25.8032 31.8688 25.1872 32.7082C23.0801 32.1461 22.3812 33.9051 21.9785 34.5102C21.6364 35.0264 21.709 34.4672 21.5875 34.1973C21.3432 33.65 21.0885 33.2051 20.6488 32.7868C20.3719 32.5243 19.7603 32.0675 19.3961 32.0037C21.1493 30.8246 21.6912 28.9781 20.4918 27.1449C19.3457 25.3934 17.169 25.0685 15.8749 26.832C15.0516 26.2002 14.4297 25.8279 13.3324 25.8917C13.0644 25.2925 14.1468 26.0801 15.6794 25.1086C16.6093 24.5198 16.8344 23.7945 17.1276 22.8364C17.3482 22.7845 17.3008 23.4667 17.7539 24.1297C18.9178 25.8324 22.3101 26.4479 23.779 22.9536C23.8857 22.6985 23.742 22.3143 24.0145 22.1304C24.5238 23.4831 25.8698 24.0778 27.2617 23.9325C27.321 23.9265 28.3441 23.6447 28.396 23.6195V23.6165Z" fill="#190D22"/>
<path d="M17.7539 32.0823C16.9218 32.2989 16.174 33.4795 15.9149 34.2774C15.2367 33.0968 14.7732 32.5451 13.3724 32.5525C13.3976 32.2025 14.0373 32.5807 14.8206 32.0823C15.2589 31.8035 15.6883 30.9996 15.7594 30.9848C15.9149 30.9522 16.3073 31.5247 16.4642 31.6122C17.1587 32.0008 17.6977 31.845 17.7554 32.0823H17.7539Z" fill="#190D22"/>
<path d="M19.2405 38.666C18.7001 39.9118 18.1211 38.3531 16.0318 38.8232C15.9844 38.7164 16.4953 37.7835 16.5397 37.5685C17.1335 38.445 18.2425 38.6779 19.2391 38.666H19.2405Z" fill="#190D22"/>
<path d="M21.666 36.7839C21.666 36.8106 21.666 36.8358 21.666 36.8625C21.6601 37.0686 21.6586 37.2066 21.666 37.4112C21.6986 38.3857 21.9518 38.8173 21.783 38.8217C21.1774 38.2982 20.4622 38.5073 19.787 38.5088C20.7154 37.9748 21.0338 37.6263 21.6646 36.7839H21.666Z" fill="#190D22"/>
<path d="M22.9973 40.468C22.8492 40.7587 23.1987 40.9397 23.3097 41.6441C23.0254 42.049 23.1261 42.7684 22.6834 43.4862C21.6543 45.1562 19.0008 44.7721 18.2234 43.0546C21.3862 43.6494 22.6093 40.3686 20.101 38.666C20.4637 38.6274 21.2248 39.0991 21.6261 39.2934C21.8734 39.412 22.0748 39.283 22.0955 39.2934C22.2702 39.3868 22.3665 39.8777 22.9958 40.4695L22.9973 40.468Z" fill="#70226B"/>
<path d="M20.1024 38.6661C22.6108 40.3688 21.3877 43.6495 18.2249 43.0548C17.6311 42.8857 18.0042 41.8608 17.9894 41.2913C18.3759 41.0599 18.1109 41.3017 18.5373 41.7229C18.5595 41.7451 18.4692 42.067 18.6943 41.9187C18.5432 41.0837 20.0195 40.0306 20.024 39.6065C20.0284 39.2327 19.6641 39.6391 19.7115 38.9405C19.793 38.6083 19.8404 38.6943 20.1024 38.6661Z" fill="#70226B"/>
<path d="M20.024 39.6063C20.0196 40.0304 18.5418 41.0835 18.6943 41.9185C18.4692 42.0668 18.5596 41.7449 18.5374 41.7227C18.4026 40.8209 19.023 39.584 20.024 39.6063Z" fill="#FDFDFC"/>
<path d="M28.6315 23.3822L28.71 24.6369C28.6937 24.6429 28.4582 24.763 28.3975 24.7942V23.618C28.4123 23.6106 28.3072 23.5898 28.633 23.3822H28.6315Z" fill="#FDFDFC"/>
<path d="M19.9455 45.2482C19.3902 45.3742 19.6523 45.5611 20.0625 45.6397C20.9716 45.8132 24.7283 44.4754 23.8576 49.5582C22.7619 50.0803 22.3176 51.9935 20.8443 51.8304C19.907 51.7265 18.5447 50.1069 18.6928 49.1651C18.8009 48.477 19.3325 47.8096 19.9455 47.4803C18.795 46.6423 18.2915 48.1358 18.6158 49.1651C18.0576 48.9723 18.8335 47.8244 17.9509 47.8333C17.1898 47.9327 17.8162 49.8682 17.834 50.3413C17.3838 49.2452 17.2861 47.639 17.9124 46.5786C17.9154 46.5741 17.9287 46.5904 17.9909 46.4999C18.2234 46.1588 19.0793 45.6308 19.4776 45.0109C19.5797 45.0643 19.9218 45.2393 19.947 45.2467L19.9455 45.2482Z" fill="#70226B"/>
<path d="M18.6158 49.1681H18.6943C18.5463 50.1099 19.9085 51.7295 20.8458 51.8334C22.3192 51.995 22.7634 50.0832 23.8591 49.5612C23.8562 49.579 24.0028 49.6487 23.9376 49.9142C23.871 50.1826 23.2742 50.8426 23.4682 50.9717C21.8113 53.2394 18.8542 52.8271 17.834 50.3443C17.8162 49.8712 17.1899 47.9356 17.951 47.8363C18.8335 47.8289 18.0576 48.9753 18.6158 49.1681Z" fill="#70226B"/>
<path d="M23.5452 43.7591C23.3113 44.4903 24.0324 45.5063 24.0146 45.6012C23.9968 45.6916 23.7185 45.745 23.7022 45.837C23.677 45.972 23.9302 46.0194 23.9376 46.0328C24.6498 47.6316 24.4988 49.5582 23.4682 50.9702C23.2742 50.8411 23.871 50.1811 23.9376 49.9127C24.0028 49.6472 23.8562 49.5775 23.8591 49.5597C24.7298 44.477 20.9732 45.8148 20.064 45.6412C19.6524 45.5626 19.3903 45.3757 19.947 45.2497C21.0961 45.5211 22.8478 44.7647 23.2328 43.6034C23.6104 43.4536 23.5245 43.7398 23.5452 43.7606V43.7591Z" fill="#541750"/>
<path d="M17.9895 46.503C17.9288 46.5934 17.914 46.5771 17.911 46.5816L17.8325 46.503C17.8399 46.503 17.9006 46.2924 17.9895 46.503Z" fill="#EDB9EA"/>
<path d="M18.6928 49.1681H18.6144C18.2901 48.1388 18.795 46.6453 19.9441 47.4833C19.3325 47.8125 18.7995 48.48 18.6914 49.1681H18.6928Z" fill="#FDFDFC"/>
<path d="M8.44311 26.8305C8.37056 26.9832 8.26394 27.1464 8.20767 27.3006C7.15191 25.8798 9.86018 23.3421 11.2595 24.5183C11.2328 24.7066 9.53293 24.5123 8.44311 26.8305Z" fill="#EAD7E6"/>
<path d="M15.3285 19.0707C15.6098 22.7222 12.5195 22.0296 11.7688 22.206C10.2259 22.5665 12.373 23.8983 12.6691 24.2439C12.7239 24.3077 13.0467 24.7615 13.06 24.7927C13.294 25.3132 13.4509 26.1349 12.7861 25.9688C12.638 25.8635 13.1755 24.72 11.5334 23.7737C11.3557 23.8687 11.9302 24.5613 11.8858 25.2242C11.791 26.6199 9.59361 27.535 8.44308 26.8305C9.53438 24.5123 11.2343 24.7066 11.2594 24.5183C9.86014 23.3421 7.15188 25.8798 8.20764 27.3007C7.9263 28.0838 8.1721 28.5776 7.81673 28.4367C7.53391 28.1891 7.719 26.1349 7.81673 25.6544C8.79846 23.5542 10.8996 23.8123 11.0255 23.6551C11.1114 23.5483 10.5901 22.2713 10.947 20.9513C11.4608 19.0529 13.716 18.5723 15.3285 19.0707Z" fill="#923E82"/>
<path d="M13.177 19.4637C15.1464 19.1137 13.2466 19.8137 12.8646 20.0911C12.2501 20.5345 11.7067 21.6069 11.6119 21.5802C11.1144 20.8163 12.5226 19.5809 13.177 19.4637Z" fill="#EAD7E6"/>
<path d="M24.0145 22.1274C23.7435 22.3114 23.8871 22.6955 23.779 22.9506C22.3087 26.4434 18.9178 25.8294 17.7539 24.1267C17.3008 23.4638 17.3482 22.7815 17.1276 22.8334C17.1942 22.6139 17.3408 22.4953 17.48 22.5976C17.6132 22.697 18.1804 24.1875 20.2963 24.0081C23.2726 23.7559 23.3585 19.7544 23.5821 22.2832L24.013 21.9302C23.4014 21.1441 24.278 22.0414 24.8348 22.126C26.0579 22.3128 27.817 21.5105 28.239 20.2839C28.8876 18.3988 27.3002 18.0829 29.2178 17.8145C30.8377 19.7559 28.6462 23.3288 25.932 23.0663C25.242 22.9995 24.1092 22.0622 24.0145 22.126V22.1274Z" fill="#70226B"/>
<path d="M17.2061 21.4229C17.48 20.671 18.0634 19.8271 18.8497 19.5423C22.4375 18.2371 24.1122 22.3662 17.7939 22.5205C17.329 22.3321 17.3541 21.8323 17.2075 21.4229H17.2061Z" fill="#923E82"/>
<path d="M19.593 19.7767C21.4246 19.5067 18.9962 20.1504 18.1848 21.6573C17.5185 20.9513 18.9429 19.8716 19.593 19.7767Z" fill="#F9EDF4"/>
<path d="M39.586 24.0867C39.734 25.9703 37.9927 26.4048 37.9423 26.5561C37.8609 26.8023 39.121 28.9944 39.195 29.2999C40.0746 32.9247 35.545 32.0348 35.3614 32.4353C36.7459 40.9575 31.3264 41.6367 31.0584 42.1544C30.9636 42.3383 31.1191 44.2916 29.8842 46.0728C28.553 47.9935 26.3778 48.2264 26.2845 48.4236C26.1409 48.7306 26.6488 51.6539 22.8418 53.8712C21.2545 54.1234 19.8714 54.4348 18.3033 53.5583C17.8428 53.3017 16.796 52.1923 16.5043 51.7162C15.4796 50.0491 15.7195 48.7455 15.6439 48.5022C15.5151 48.0944 12.7743 47.4477 11.8103 44.035C11.6563 43.4922 11.6163 42.3131 11.5749 42.233C11.2995 41.6857 5.42539 41.2185 6.3316 32.3582C6.14058 31.9696 2.41949 32.7675 2.18406 30.3203C2.0656 29.0878 3.83064 27.2858 3.67072 26.5576C3.62333 26.3425 2.11002 25.9035 2.0271 24.4026C3.06806 21.3458 4.65985 18.6465 6.95647 16.3684C4.71019 14.2712 3.61149 6.64191 5.58679 6.14061C6.61738 5.87809 7.36367 6.74869 7.46436 6.76797C7.6228 6.79764 8.01816 6.56182 8.32467 6.61076C8.54234 6.64636 9.04727 6.94447 9.34193 7.00231C9.4293 7.02011 9.56553 6.56775 10.9856 7.39386C11.1233 6.67899 11.3705 6.02492 11.6504 5.35602C13.8434 3.13872 17.9021 8.84289 17.9495 10.9208C18.0872 11.032 19.3191 9.42874 20.8843 9.90186C20.2609 11.7543 18.5314 14.111 16.3073 13.3502C15.718 15.1715 18.8098 14.8378 20.2594 12.8415C20.0447 14.6642 20.3349 17.8219 19.1637 19.2294C19.0171 19.4059 18.903 19.4059 18.8512 19.5423C18.0664 19.8286 17.483 20.671 17.2076 21.4229C16.9796 20.7896 17.1454 20.8252 16.6597 20.0911C16.5161 19.8731 16.3192 19.5393 16.1119 19.3851C16.7826 18.3899 17.9968 20.4011 18.3033 18.9535C16.0008 18.8319 17.2905 18.4997 16.9736 17.1515C16.8774 16.7406 16.0215 15.7069 15.6439 15.5452C16.1844 14.6198 15.1479 14.203 15.1746 14.0947C15.2264 13.8841 17.4815 13.3057 16.8567 10.5292C16.7767 10.6271 16.6864 10.6939 16.5827 10.7651C15.1523 11.7424 17.1958 10.1777 15.6824 8.25705C14.6385 8.50177 15.5936 7.87144 14.6652 6.84658C14.4964 6.81544 14.5571 7.00083 14.5482 7.0038C14.0211 7.18178 14.4608 6.98007 14.1573 6.5722C12.4011 4.22438 11.4179 8.88294 12.7491 11.1966C12.0384 11.7261 11.6726 9.75948 11.4194 9.62896C11.1514 9.49251 10.8626 9.82919 10.833 9.82474C10.719 9.80694 10.6628 9.24187 10.0897 8.64861C8.55566 7.06016 9.12871 8.97638 9.03394 9.04015C7.55617 6.66564 7.51026 8.20811 7.39032 8.25705C7.26298 8.30896 5.6164 5.9478 5.62973 7.7869C5.63121 8.042 5.86369 8.49287 5.86517 8.53144C5.87849 8.99269 5.66823 8.61301 5.62973 9.04015C5.56606 9.75058 6.89724 10.817 6.09912 10.725C6.00732 11.4948 6.73288 12.1281 7.42882 12.2927C7.11195 12.8607 6.25904 11.8062 6.49004 13.0372C6.84393 14.9223 10.2911 15.2931 7.9382 15.0751C7.69239 15.256 7.90414 15.3257 7.9767 15.4666C8.43128 16.3491 9.73433 15.8834 9.77579 15.9753C9.69879 16.5197 8.79998 16.5923 8.56307 16.7985C7.44659 17.7685 10.1267 18.6836 11.8488 17.6602C13.1489 16.8875 13.1371 14.952 15.1746 15.701C16.5043 16.1904 17.3127 18.3232 15.6439 19.1493C15.5847 19.1226 15.4115 19.0959 15.3315 19.0707C13.719 18.5723 11.4623 19.0544 10.95 20.9513C10.7901 20.9142 10.7916 20.7437 10.7146 20.6384C10.3266 20.1015 9.80096 19.6269 9.14944 19.4622C7.81678 19.1256 8.84589 20.2127 8.64155 20.3239C7.40365 19.4845 5.4861 19.3376 6.41156 20.5983C6.29014 20.8074 6.06655 20.5509 5.86369 20.5598C4.47179 20.6161 5.11888 21.638 5.58975 21.8145C6.02953 21.9776 6.19833 21.7789 6.72399 22.0503C5.62529 22.123 2.5957 22.7637 4.37703 24.2053C4.35482 24.281 3.17763 23.9072 3.28128 24.8713C4.06311 25.8976 5.609 26.0578 6.80247 25.8516C5.51423 26.8958 3.22946 27.3407 4.61098 28.0467C3.11248 28.6473 3.91652 28.8001 3.90615 28.9084C3.89727 28.9974 2.78079 29.518 3.2798 30.3589C3.94761 31.4208 6.42636 30.875 7.42734 30.2017C7.59763 30.0875 7.73534 29.9347 7.89674 29.8101C8.3454 30.568 9.35526 31.4001 10.2437 31.5736C6.27089 34.5236 8.94213 40.9916 13.8819 39.9207L13.9988 40.0379C13.0823 41.0865 13.4554 43.906 14.3113 44.8581C14.9658 46.1559 16.4687 46.7032 17.8325 46.5044L17.911 46.583C17.2861 47.642 17.3823 49.2497 17.8325 50.3458C18.8512 52.8286 21.8097 53.2409 23.4667 50.9731C24.4973 49.5612 24.6483 47.6346 23.9361 46.0358C24.0975 45.9245 24.5965 46.3695 25.1488 46.4273C28.4286 46.7744 29.7909 42.4599 28.553 39.9608C32.9893 40.9263 34.8195 35.544 32.5436 32.7112C32.357 32.4783 32.1023 32.0452 31.7618 32.0052C32.3911 31.2414 33.1448 30.5799 33.4054 29.5758C33.5801 29.8739 33.8081 30.3782 34.0702 30.5947C34.8476 31.234 37.0213 31.0263 37.9823 30.7519C38.3851 30.261 38.274 30.0133 38.0208 29.5758C37.7869 29.1709 37.55 29.1012 37.5514 29.0671C37.5544 28.9825 38.4103 28.7438 36.8466 27.9695C38.2637 27.2087 35.5125 26.7993 35.4769 25.6573C37.2582 26.3381 40.0228 24.1267 37.316 24.0511C38.0134 23.4816 37.7114 22.7415 37.0421 22.2876C35.8575 21.4852 33.3224 21.8278 36.1033 21.2687C36.9843 19.6624 34.8224 20.275 34.6951 20.2498C34.4523 20.2008 35.0786 19.4504 34.3042 18.995C33.546 18.9135 32.9301 19.4637 32.5821 20.0926C32.97 17.9568 30.8452 18.6584 30.1951 20.9543C30.8718 17.11 27.3625 15.9917 25.4997 16.7214C25.399 14.9787 26.8398 13.2122 28.59 14.3706C28.7499 14.4759 29.3052 15.1448 29.3718 15.1537C29.4029 15.1581 29.7035 14.9238 29.7243 14.9179C30.2795 14.7547 30.0589 15.1062 30.6245 15.388C31.6833 15.9175 33.5253 16.1696 34.3412 15.1136C34.4478 14.8333 34.356 14.9297 33.8718 14.7606C33.7371 14.4032 34.9587 14.5649 35.1245 13.6246C34.2109 13.4169 34.9883 13.2701 35.3599 12.7228C35.8841 11.9471 35.2015 12.4647 35.2815 11.9783C35.2977 11.8759 36.2943 10.9905 36.1033 10.1362C34.5248 10.0739 34.3057 11.4369 34.0687 10.2148C32.6724 10.6998 32.7272 12.2274 32.6206 10.6464C31.4834 10.415 31.1443 11.9976 31.0169 12.0183C30.9548 12.0287 30.4217 11.4265 29.8827 12.0569C29.4888 12.5181 29.474 13.9182 29.5703 14.5263C29.3097 14.8511 28.7958 13.8619 28.1221 13.6646C26.6739 13.2389 25.3265 14.6642 25.0703 16.0154C22.3191 15.4666 23.1039 14.1066 23.0743 13.939C23.0373 13.7224 21.3611 12.6205 22.7618 11.1952L22.3309 10.9208C21.0916 12.5448 22.4316 13.5682 22.5264 13.939C22.7456 14.8007 21.6394 15.7766 21.0397 14.8407C21.0797 14.3113 21.0116 13.764 21.1182 13.2345C21.2989 12.3327 22.7737 9.09355 23.8576 8.65009C23.8058 8.966 23.5496 9.57854 23.5452 9.63045C23.4341 10.7962 24.5239 12.1118 25.4227 10.8451C25.5693 10.8496 25.4671 11.0469 25.5012 11.1581C26.1498 13.3235 26.6873 12.3787 27.0264 12.4128C27.1063 12.4202 27.5698 13.2078 28.4345 13.0402C29.1882 12.8949 29.3319 11.6268 28.5515 11.3939C28.556 11.3642 28.5441 11.3331 28.5515 11.3153C29.0461 11.3924 29.4044 11.1344 29.8042 10.9238C30.5446 10.5337 31.2139 9.96267 31.5263 9.16029C31.3708 8.42317 30.5964 9.04757 30.1181 8.69013C31.1932 8.34901 32.4888 7.30042 31.3708 6.65229C32.9078 5.52361 32.0772 4.81319 32.0757 4.69305C32.0742 4.59665 32.8664 3.51692 32.1926 2.9296C31.0392 2.81688 30.8615 4.83099 30.549 3.32114C30.2618 3.68699 29.975 4.05283 29.6887 4.41867C29.6364 4.02712 29.5841 3.63508 29.5318 3.24254C27.21 3.30038 27.9533 6.25036 26.206 6.92667C26.172 6.94002 26.095 6.91481 26.0491 6.92667C27.1759 6.02492 26.8946 4.08051 26.5969 4.57588C26.5969 4.5655 26.4415 4.51508 26.44 4.45872C26.3852 -0.00555122 23.8517 3.63557 23.7006 4.61593C23.4874 6.00712 24.2396 6.84362 24.2485 6.96672C24.2752 7.37607 23.8887 7.17584 23.7791 8.18142C23.2056 8.61252 22.6315 9.04361 22.057 9.47472C24.3122 2.7264 17.1735 -0.322944 14.7407 2.14649C14.4209 2.4713 14.2417 2.7798 14.3098 3.24402C13.7264 2.79611 13.8286 2.63148 13.8404 1.91215C16.6153 -0.646272 20.3334 0.922897 22.4864 3.47984C23.6858 1.09494 25.8477 -0.91472 27.2603 2.53953C29.0846 1.45831 30.4513 2.57512 30.6245 2.53953C30.7445 2.5158 31.4849 1.3189 32.816 1.99076C34.5144 2.84802 33.1063 7.61337 32.6991 9.08317C32.7361 9.27004 34.3545 8.84735 34.8506 8.80878C35.1349 8.78654 35.3718 8.97045 35.4769 8.966C35.5391 8.96303 35.9434 8.57296 36.6511 8.73018C38.6427 9.17364 36.278 15.2723 34.4996 16.8415C36.0337 18.0681 39.4453 22.3024 39.586 24.0911V24.0867Z" fill="#FDFDFC"/>
<path d="M38.0209 29.5743C38.123 29.7419 38.1763 30.6466 37.9039 30.5146C38.1467 29.8516 36.9784 29.7389 36.4172 29.3385C34.4242 27.9191 35.4681 27.707 35.3615 26.5561C35.3555 26.4879 34.9794 25.3102 34.9306 25.2628C34.6774 25.0181 31.7588 23.6343 30.6276 23.3822C29.899 23.219 28.9543 23.3629 29.1024 22.9906C29.6873 22.4181 30.053 21.7715 30.1981 20.9528C30.8482 18.6568 32.973 17.9538 32.5851 20.0911C32.9316 19.4622 33.549 18.9134 34.3072 18.9935C35.0831 19.4474 34.4553 20.1993 34.6981 20.2483C34.8254 20.2735 36.9873 19.6609 36.1063 21.2672C33.3255 21.8263 35.8605 21.4837 37.0451 22.2861C37.7144 22.7399 38.0164 23.48 37.319 24.0496C40.0258 24.1252 37.2612 26.3366 35.4799 25.6558C35.5155 26.7978 38.2667 27.2072 36.8496 27.968C38.4133 28.7422 37.5574 28.9795 37.5544 29.0656C37.5544 29.0997 37.7899 29.1709 38.0238 29.5743H38.0209Z" fill="#7F961A"/>
<path d="M38.0208 29.5743C38.2725 30.0103 38.3851 30.258 37.9823 30.7504C37.0198 31.0248 34.8476 31.2324 34.0702 30.5932C33.8081 30.3767 33.5801 29.8724 33.4054 29.5743C34.1546 26.6747 31.8491 23.4667 28.7099 24.6369L28.6315 23.3822C28.6566 23.3658 29.0505 23.041 29.1009 22.9906C28.9543 23.3629 29.8975 23.2205 30.626 23.3822C31.7573 23.6343 34.6773 25.0195 34.929 25.2628C34.9779 25.3102 35.3525 26.4879 35.3599 26.5561C35.4665 27.707 34.4241 27.9191 36.4157 29.3385C36.9769 29.7389 38.1452 29.8516 37.9024 30.5146C38.1748 30.6466 38.1215 29.7419 38.0193 29.5743H38.0208Z" fill="#6C771A"/>
<path d="M10.9471 20.9528C10.5902 22.2728 11.11 23.5498 11.0256 23.6566C10.9012 23.8123 8.80003 23.5557 7.81682 25.6559C7.2038 26.967 7.13716 28.5302 7.8953 29.8102C7.7339 29.9362 7.59619 30.0875 7.42591 30.2017C7.96193 29.5743 7.39185 29.5224 7.26895 28.8298C7.08089 27.7738 7.34891 26.7549 7.07349 26.9091C6.23836 28.6474 5.02712 29.6144 3.27837 30.3574C2.77936 29.5165 3.89583 28.9959 3.90472 28.9069C3.91508 28.7972 3.11104 28.6444 4.60955 28.0452C3.22802 27.3407 5.51132 26.8943 6.80104 25.8502C5.60756 26.0563 4.06168 25.8961 3.27985 24.8698C4.62732 25.426 6.69887 24.3047 8.05374 23.6937C8.28769 23.5884 10.0216 22.9921 9.85283 22.7133C8.62678 21.813 10.5828 22.8898 10.6347 22.7919C10.6603 22.0731 10.6865 21.3547 10.7131 20.6369C10.7887 20.7422 10.7872 20.9128 10.9486 20.9498L10.9471 20.9528Z" fill="#7F961A"/>
<path d="M7.42586 30.2002C6.42488 30.8736 3.94613 31.4179 3.27832 30.3574C5.02707 29.6144 6.23831 28.6474 7.07345 26.9091C7.34886 26.7549 7.08233 27.7738 7.2689 28.8298C7.3918 29.5224 7.96041 29.5743 7.42586 30.2017V30.2002Z" fill="#6C771A"/>
<path d="M9.14643 19.4637C9.79647 19.6283 10.3236 20.1029 10.7116 20.6398C10.6859 21.3587 10.6597 22.077 10.6331 22.7948C10.5798 22.8927 8.62373 21.816 9.85126 22.7162C10.0186 22.9951 8.28612 23.5898 8.05216 23.6966C8.01514 23.3332 6.95642 22.1704 6.72246 22.0503C6.19532 21.7804 6.028 21.9791 5.58822 21.8145C5.11734 21.6395 4.47026 20.6161 5.86215 20.5597C5.66225 21.1011 6.37301 20.8994 6.76244 21.0299C6.97271 21.0996 7.41693 21.3784 7.62275 21.4215C7.71159 21.4407 7.72344 21.1575 9.34485 21.5787C11.1587 20.3922 8.00922 19.6283 9.14939 19.4622L9.14643 19.4637Z" fill="#7F961A"/>
<path d="M8.05221 23.6952C6.69733 24.3047 4.62726 25.426 3.27831 24.8713C3.17466 23.9073 4.35185 24.281 4.37406 24.2054C2.59273 22.7637 5.6238 22.1215 6.72102 22.0504C6.95498 22.1705 8.01371 23.3333 8.05072 23.6966L8.05221 23.6952Z" fill="#7F961A"/>
<path d="M9.14645 19.4637C8.00776 19.6283 11.1558 20.3937 9.34191 21.5802C7.7205 21.159 7.71014 21.4422 7.61981 21.423C7.41399 21.3799 6.96977 21.1011 6.7595 21.0314C6.37007 20.9009 5.65932 21.1026 5.85922 20.5612C6.0606 20.5523 6.28567 20.8104 6.40709 20.5998C5.48163 19.3391 7.39918 19.486 8.63708 20.3254C8.8429 20.2127 7.81231 19.127 9.14497 19.4637H9.14645Z" fill="#7F961A"/>
<path d="M35.36 12.7228C34.4612 12.8459 33.6157 13.2241 32.7391 13.4288C32.5717 13.4674 32.5688 13.0016 32.0742 13.6246C32.0446 13.9212 33.4454 14.7473 33.6779 14.8393C33.7726 14.8763 33.8141 14.7399 33.8733 14.7607C34.3575 14.9297 34.4493 14.8318 34.3427 15.1136C33.5268 16.1696 31.6848 15.9175 30.6261 15.388C30.0604 15.1047 30.281 14.7547 29.7258 14.9179C29.5007 14.8511 29.5925 14.6746 29.5688 14.5263C29.4726 13.9182 29.4874 12.5196 29.8812 12.0569C30.4202 11.4265 30.9533 12.0272 31.0155 12.0183C31.1428 11.9976 31.4819 10.415 32.6191 10.6464C32.7257 12.2274 32.6695 10.7013 34.0673 10.2148C34.3042 11.4369 34.5234 10.0754 36.1018 10.1362C36.2928 10.9905 35.2963 11.8759 35.28 11.9783C35.2 12.4647 35.8827 11.9471 35.3585 12.7228H35.36Z" fill="#6C771A"/>
<path d="M35.36 12.7228C34.9898 13.2701 34.2109 13.4169 35.1245 13.6246C34.9587 14.5649 33.7371 14.4032 33.8718 14.7607C33.8126 14.7399 33.7711 14.8764 33.6764 14.8393C33.4439 14.7473 32.0431 13.9212 32.0727 13.6246C32.5673 13.0017 32.5703 13.4674 32.7376 13.4288C33.6157 13.2241 34.4597 12.8459 35.3585 12.7228H35.36Z" fill="#6C771A"/>
<path d="M14.5468 7.00082C14.8015 8.00046 14.0004 10.1792 15.6026 8.41129C16.2437 9.3872 15.4101 10.9534 15.0162 12.0554C15.074 12.3401 16.8953 11.1937 16.5813 10.7621C16.685 10.6909 16.7753 10.6241 16.8553 10.5263C17.4802 13.3027 15.225 13.8811 15.1732 14.0917C15.1465 14.2 16.183 14.6168 15.6426 15.5423C15.6263 15.5348 15.6189 15.5986 15.4071 15.5423C12.6337 14.7933 11.0449 18.8348 10.7117 14.9149C10.7547 14.8986 10.8391 14.6894 11.572 14.5619C11.6416 14.4655 11.3055 14.2994 11.1811 14.2089L11.4165 14.0131C11.0419 12.9319 10.993 11.7409 10.7117 10.6434C10.4881 9.76837 10.1061 9.23295 10.0854 9.15435C10.0454 9.00603 10.3386 9.07574 10.0854 8.64562C10.6584 9.23888 10.7147 9.80248 10.8287 9.82176C10.8598 9.82621 11.1485 9.48805 11.4151 9.62599C11.6683 9.7565 12.034 11.7232 12.7448 11.1937C11.4136 8.87996 12.3968 4.2214 14.1529 6.56922C14.458 6.9756 14.0167 7.17879 14.5439 7.00082H14.5468Z" fill="#6C771A"/>
<path d="M10.0853 8.64711C10.3385 9.07722 10.0453 9.00899 10.0853 9.15582C10.106 9.23443 10.4881 9.76985 10.7117 10.6449C10.9915 11.7424 11.0404 12.9334 11.4165 14.0146L11.1811 14.2104C10.1845 13.4911 10.5369 13.6038 10.4762 13.5445C8.89036 11.9797 8.94219 11.5763 7.81535 10.0961C7.38001 9.52364 5.98516 7.77501 5.62386 7.78391C5.61053 5.94481 7.25711 8.30598 7.38446 8.25407C7.5044 8.20513 7.5503 6.66266 9.02807 9.03717C9.12284 8.9734 8.54979 7.05717 10.0838 8.64562L10.0853 8.64711Z" fill="#7F961A"/>
<path d="M11.1811 14.2119C11.3055 14.3009 11.6416 14.4685 11.572 14.5649C10.839 14.6924 10.7546 14.9015 10.7117 14.9179C10.6125 14.9549 10.2408 14.952 10.1253 14.9965C9.44713 15.2545 8.40173 15.9487 7.9738 15.4666C7.90124 15.3242 7.68801 15.256 7.9353 15.0751C10.2882 15.2931 6.84103 14.9223 6.48714 13.0372C7.28674 13.4703 8.04635 13.5949 8.95256 13.5074C10.6154 13.3472 9.53894 13.2582 8.87408 12.7243C8.64161 12.5374 7.17124 11.1358 7.03501 10.9608C6.42347 10.1733 6.18951 8.91705 5.62683 9.04015C5.66533 8.61301 5.87559 8.9927 5.86227 8.53144C5.86227 8.49288 5.62979 8.042 5.62683 7.7869C5.98813 7.778 7.38298 9.52663 7.81832 10.0991C8.94516 11.5808 8.89333 11.9827 10.4792 13.5474C10.5399 13.6082 10.186 13.4955 11.184 14.2134L11.1811 14.2119Z" fill="#7F961A"/>
<path d="M10.7116 14.9178C11.0433 18.8378 12.6336 14.7947 15.407 15.5452L15.1716 15.7024C13.1341 14.9534 13.146 16.8889 11.8459 17.6617C10.1238 18.685 7.44365 17.7699 8.56013 16.8C8.79704 16.5938 9.69585 16.5211 9.77285 15.9768C9.73139 15.8849 8.42834 16.3506 7.97375 15.4681C8.40169 15.9486 9.44709 15.256 10.1253 14.9979C10.2408 14.9534 10.6139 14.9579 10.7116 14.9193V14.9178Z" fill="#6C771A"/>
<path d="M6.48716 13.0357C6.25617 11.8032 7.10907 12.8592 7.42595 12.2912C6.72853 12.1265 6.00444 11.4932 6.09625 10.7235C6.89437 10.8154 5.56319 9.74906 5.62686 9.03863C6.18954 8.91404 6.42349 10.1717 7.03504 10.9593C7.17127 11.1343 8.64164 12.5359 8.87411 12.7228C9.53896 13.2567 10.6155 13.3472 8.95259 13.5059C8.04638 13.5934 7.28676 13.4688 6.48716 13.0357Z" fill="#7F961A"/>
<path d="M16.5813 10.7635C16.8952 11.1951 15.0754 12.3416 15.0162 12.0569C15.4115 10.9549 16.2437 9.38719 15.6026 8.41276C14.0004 10.1807 14.8015 8.00045 14.5468 7.00229C14.5557 6.99932 14.4964 6.81393 14.6638 6.84508C15.5922 7.86993 14.6371 8.50027 15.681 8.25555C17.1943 10.1762 15.1495 11.7409 16.5813 10.7635Z" fill="#7F961A"/>
<path d="M15.4071 15.5437C15.6173 15.6001 15.6247 15.5363 15.6425 15.5437C16.0216 15.7054 16.876 16.7406 16.9722 17.15C17.2906 18.4981 15.9994 18.8304 18.3019 18.952C17.9954 20.3981 16.7812 18.3884 16.1104 19.3836C16.0897 19.3673 15.7254 19.1878 15.641 19.1478C17.3098 18.3217 16.5013 16.1874 15.1716 15.6994L15.4071 15.5422V15.5437Z" fill="#A2B02D"/>
<path d="M26.597 4.57143C26.5851 4.83098 25.8847 6.57813 25.5012 6.88366C25.4272 7.27966 25.4894 7.07054 26.0491 6.92222C26.0935 6.91036 26.172 6.93557 26.2061 6.92222L26.363 7.03939C24.6631 8.57296 23.1187 12.3357 25.4242 10.8407C24.5254 12.1073 23.4356 10.7918 23.5467 9.626C23.5511 9.57409 23.8073 8.96155 23.8591 8.64564C23.9257 8.2437 23.7777 8.19921 23.7806 8.17548C23.8902 7.16842 24.2767 7.37013 24.25 6.96078C24.2426 6.83768 23.4889 5.9997 23.7021 4.61C23.8532 3.63112 26.3852 -0.0100031 26.4415 4.45278C26.4415 4.51063 26.5985 4.56105 26.5985 4.56995L26.597 4.57143Z" fill="#6C771A"/>
<path d="M26.0491 6.92368C25.4894 7.07199 25.4272 7.27963 25.5012 6.88511C25.8847 6.57959 26.5851 4.83392 26.597 4.57289C26.8946 4.07752 27.1759 6.02193 26.0491 6.92368Z" fill="#7F961A"/>
<path d="M29.8042 10.9208C29.5925 10.9208 28.5974 11.1981 28.5515 11.3123C28.5441 11.3301 28.556 11.3613 28.5515 11.3909C28.5189 11.6386 28.787 12.0969 28.787 12.1355C28.7796 12.3906 28.439 12.4662 28.63 12.7629C27.3358 13.3724 26.557 11.4354 25.4997 11.1566C25.4672 11.0454 25.5678 10.8466 25.4213 10.8437C23.1157 12.3387 24.6602 8.57593 26.36 7.04236L26.2031 6.9252C27.9503 6.25036 27.207 3.2989 29.5288 3.24106C29.5811 3.63261 29.6335 4.02466 29.6858 4.41719C29.973 4.05135 30.2598 3.68551 30.5461 3.31966C30.857 4.82951 31.0362 2.8154 32.1897 2.92811C32.8634 3.51544 32.0712 4.59517 32.0727 4.69157C32.0757 4.81171 32.9064 5.52214 31.3679 6.65081C32.4858 7.29746 31.1917 8.34753 30.1152 8.68865C30.5949 9.04609 31.3679 8.42169 31.5234 9.15881C31.2124 9.96119 30.5431 10.5322 29.8013 10.9223L29.8042 10.9208Z" fill="#7F961A"/>
<path d="M28.553 11.391C29.3319 11.6238 29.1882 12.8904 28.436 13.0373C27.5713 13.2049 27.1078 12.4188 27.0278 12.4099C26.6888 12.3758 26.1512 13.322 25.5027 11.1552C26.5599 11.4355 27.3373 13.3725 28.633 12.7614C28.4419 12.4648 28.7825 12.3891 28.7899 12.134C28.7899 12.0955 28.5219 11.6372 28.5545 11.3895L28.553 11.391Z" fill="#7F961A"/>
<path d="M29.8042 10.9208C29.4044 11.1314 29.0476 11.3909 28.5515 11.3123C28.5974 11.1981 29.591 10.9193 29.8042 10.9208Z" fill="#7F961A"/>
<path d="M23.5452 18.7577C23.4045 19.1552 23.2861 19.5839 23.3097 20.0125L23.1528 20.0911C22.6553 19.5438 22.1533 19.0039 21.5876 18.5234C21.3418 18.0058 20.945 17.5164 20.8828 16.9172C20.8739 16.8371 21.0279 15.6298 21.0398 15.3109C21.3344 15.8241 22.0763 15.4399 22.2925 15.6639C22.9099 16.3031 21.8631 16.576 22.057 17.0744C23.5037 17.9435 24.3063 16.2928 24.444 16.2512C25.559 15.9205 23.4164 18.0355 23.5052 18.2891C23.332 18.3306 22.8655 16.9676 22.6449 17.8189C22.1651 17.5386 22.9632 18.5219 23.5452 18.7592V18.7577Z" fill="#FDFDFC"/>
<path d="M23.7791 8.17697C23.7762 8.2007 23.9242 8.2452 23.8576 8.64713C22.7752 9.09059 21.2989 12.3298 21.1182 13.2315C21.0116 13.761 21.0797 14.3083 21.0398 14.8378C21.0279 14.992 21.0457 15.1522 21.0398 15.3079C21.0279 15.6268 20.8754 16.8341 20.8828 16.9142C20.945 17.5134 21.3403 18.0028 21.5876 18.5204C21.6631 18.6806 21.7416 18.7978 21.8231 18.952C21.6883 19.1567 21.6587 18.952 21.5106 18.9906C21.1849 18.4685 20.8586 17.946 20.5319 17.4229C20.3631 17.7848 20.1676 18.6524 19.9455 18.912C19.8033 19.0781 19.3813 19.1923 19.1637 19.2249C20.3349 17.8174 20.0447 14.6598 20.2594 12.837C18.8098 14.8333 15.7195 15.167 16.3073 13.3457C18.5329 14.1066 20.2609 11.7499 20.8843 9.89742C22.2658 5.79504 19.2644 2.62259 16.3073 3.0008C15.2353 3.13724 15.2042 3.92183 14.3113 3.23661C14.2417 2.77239 14.4209 2.4639 14.7422 2.13909C17.175 -0.33035 24.3137 2.719 22.0585 9.46731C22.632 9.03621 23.2061 8.60511 23.7806 8.17401L23.7791 8.17697Z" fill="#6A2531"/>
<path d="M21.5107 18.9936C21.5033 18.9951 21.5358 19.1478 21.4722 19.1508C21.4514 19.1508 21.102 18.9936 21.0813 18.9936C20.3986 18.9966 19.9233 19.1093 19.947 18.915C20.1706 18.6554 20.3646 17.7878 20.5334 17.4259C20.8591 17.948 21.1854 18.4705 21.5122 18.9936H21.5107Z" fill="#FDFDFC"/>
<path d="M29.5703 14.5248C29.594 14.6746 29.5007 14.8496 29.7273 14.9164C29.7065 14.9223 29.406 15.1552 29.3749 15.1522C29.3082 15.1433 28.7515 14.4744 28.593 14.3691C26.8413 13.2108 25.402 14.9787 25.5027 16.7199C25.4924 16.7243 25.3532 16.84 25.3458 16.8771C24.5714 17.0358 23.7984 18.0473 23.5467 18.7577C22.9648 18.5204 22.1666 17.5371 22.6464 17.8174C22.867 16.9661 23.3335 18.3291 23.5067 18.2876C23.4179 18.034 25.5605 15.919 24.4455 16.2497C24.3093 16.2898 23.5067 17.942 22.0585 17.0729C21.8646 16.5745 22.9115 16.3016 22.294 15.6624C22.0793 15.4399 21.3374 15.8241 21.0413 15.3094C21.0472 15.1537 21.0294 14.9935 21.0413 14.8393C21.641 15.7751 22.7471 14.7992 22.5279 13.9375C22.4332 13.5667 21.0931 12.5448 22.3325 10.9193L22.7634 11.1937C21.3626 12.619 23.0388 13.721 23.0758 13.9375C23.1054 14.1066 22.3192 15.4666 25.0718 16.0139C25.328 14.6628 26.6755 13.236 28.1236 13.6631C28.7974 13.8619 29.3112 14.8511 29.5718 14.5248H29.5703Z" fill="#A2B02D"/>
<path d="M22.6449 15.0736C23.6251 16.0836 24.1908 16.1697 22.8404 16.2883C22.9499 15.4281 22.1962 15.3406 22.6449 15.0736Z" fill="#FDFDFC"/>
<path d="M20.6487 32.7868C21.0885 33.2051 21.3432 33.65 21.5875 34.1973C21.0737 33.5892 21.6053 35.722 19.9054 36.8625C18.441 37.8458 15.7401 37.1221 16.3457 36.3924C18.1019 36.4354 19.1369 35.2563 19.7884 33.7672C20.169 31.808 19.9869 33.2881 20.6487 32.7868Z" fill="#70226B"/>
<path d="M19.4761 45.0138C19.0778 45.6338 18.2219 46.1618 17.9894 46.5029C17.9021 46.2923 17.8414 46.5029 17.8325 46.5029C16.4687 46.7017 14.9658 46.1544 14.3113 44.8566C15.4692 46.1425 17.5171 44.9886 18.1849 43.6805C18.5758 44.1447 18.9178 44.7172 19.4761 45.0123V45.0138Z" fill="#541750"/>
<path d="M21.589 34.1973C21.7105 34.4687 21.6379 35.0263 21.9799 34.5102L22.0584 34.746C22.0436 34.7816 22.0199 34.9314 21.9799 35.059C21.977 35.0664 21.8422 35.0308 21.823 35.0975C21.8008 35.1791 21.6779 36.5436 21.666 36.7824C21.0338 37.6248 20.7169 37.9733 19.7885 38.5073C19.7352 38.5073 19.2969 38.663 19.2406 38.6645C18.2441 38.6764 17.135 38.445 16.5412 37.567C16.4953 37.782 15.9859 38.7149 16.0333 38.8217C16.1903 39.1777 17.1838 39.3764 17.363 41.3683C17.5807 43.7843 16.2554 43.1584 15.6024 43.4447C15.2826 43.5856 15.0042 44.6846 14.1158 43.9934C13.2199 43.2949 13.8581 40.2218 14.8591 39.5648C14.7806 39.3527 14.0551 40.0023 12.9415 39.7605C12.7046 39.7086 11.6755 39.2222 11.5334 39.0546C11.2935 38.7742 11.4993 38.7668 11.4949 38.663C11.4786 38.2996 11.6192 38.2225 11.4164 37.8013C12.2278 37.7138 12.8793 38.3308 14.1942 37.8013C15.1212 37.4275 15.3848 36.5925 15.8764 35.8421C15.906 35.9014 16.3117 36.379 16.3457 36.3908C15.7401 37.1205 18.441 37.8443 19.9054 36.861C21.6053 35.7204 21.0737 33.5877 21.5876 34.1958L21.589 34.1973Z" fill="#70226B"/>
<path d="M16.3073 39.9979L16.4243 40.115C15.2426 41.0005 14.8887 42.4955 14.7422 42.5059C14.2713 42.54 14.5408 40.2129 16.3073 39.9979Z" fill="#F9EDF4"/>
<path d="M21.666 37.4112C21.6586 37.2066 21.6601 37.0686 21.666 36.8625C21.8615 37.4632 22.1813 37.4632 22.2139 37.4899C24.3299 39.2741 26.5406 38.1276 26.9878 35.5692C26.585 33.3415 27.6319 35.5721 27.7696 36.2752C28.4818 39.8911 24.6053 41.8562 22.5263 39.0961C21.9918 38.3857 21.9459 37.521 21.666 37.4112Z" fill="#541750"/>
<path d="M25.1871 32.7082C25.9319 32.9069 26.0015 33.3771 26.0474 33.4142C26.1673 36.2381 23.5923 35.8302 22.2138 37.4898C22.1827 37.4631 21.8614 37.4646 21.6659 36.8625C21.6659 36.8358 21.6659 36.8106 21.6659 36.7839C21.6777 36.5451 21.8006 35.1806 21.8229 35.099C21.8421 35.0308 21.9768 35.0679 21.9798 35.0604L22.2537 35.8435C22.3381 34.6733 23.2059 33.6396 24.2498 33.1398C23.2088 33.0241 22.4329 33.8443 22.0583 34.746L21.9798 34.5102C22.3826 33.9051 23.0815 32.1461 25.1886 32.7082H25.1871Z" fill="#923E82"/>
<path d="M21.9799 35.0604C22.0198 34.9329 22.0435 34.7816 22.0583 34.7475C22.433 33.8457 23.2089 33.0241 24.2498 33.1413C23.2074 33.6411 22.3382 34.6748 22.2538 35.845L21.9799 35.0619V35.0604Z" fill="#EAD7E6"/>
<path d="M19.3976 32.0037C19.7619 32.069 20.3734 32.5243 20.6503 32.7868C19.9884 33.2881 20.1706 31.8079 19.79 33.7672C19.1385 35.2563 18.1034 36.4354 16.3473 36.3923C16.3132 36.3805 15.9075 35.9029 15.8779 35.8436C15.6232 35.3215 15.8009 34.5028 15.0561 33.6485C15.0576 36.3582 11.5038 37.7672 10.5561 36.1951C9.86167 35.0427 10.3488 32.5658 13.3725 32.551C14.7747 32.5436 15.2367 33.0938 15.9149 34.2759C16.174 33.4795 16.9218 32.2989 17.754 32.0808C18.0812 31.9963 19.0911 31.9488 19.3976 32.0022V32.0037Z" fill="#923E82"/>
<path d="M18.1064 32.5525C18.21 32.5495 18.7757 32.6608 18.7712 32.7483C16.9869 33.1502 16.7811 34.9848 16.6197 34.9819C15.903 34.0727 17.1113 32.5866 18.1064 32.5525Z" fill="#EAD7E6"/>
<path d="M13.6464 32.8654C14.1144 33.0938 13.5487 32.9722 13.411 33.0226C12.4234 33.3801 11.6045 34.3308 11.2195 35.2948C10.7353 35.3556 10.873 32.8862 13.645 32.8654H13.6464Z" fill="#EAD7E6"/>
<path d="M20.4933 27.1434C20.2846 27.446 19.9558 26.7282 19.4376 26.4375C19.1755 26.6229 20.8013 29.4038 15.5255 30.5132C14.8725 29.3785 15.1227 27.8583 15.8779 26.829C17.1721 25.0656 19.3487 25.3904 20.4948 27.142L20.4933 27.1434Z" fill="#923E82"/>
<path d="M18.0279 26.0474C18.6942 26.1913 17.4252 26.1705 16.6582 27.1049C15.9119 28.0141 15.7979 29.9659 15.5624 28.6726C15.3374 27.4386 16.7811 26.0118 18.0279 26.0474Z" fill="#EAD7E6"/>
<path d="M23.3097 20.2468V20.011C23.2845 19.5824 23.403 19.1537 23.5451 18.7562C23.7983 18.0458 24.5698 17.0343 25.3442 16.8756C28.2198 16.2853 28.9276 20.3758 23.819 21.0299C23.5644 20.8252 23.5199 20.4811 23.3111 20.2468H23.3097Z" fill="#923E82"/>
<path d="M23.3097 20.2468C23.2652 20.1964 23.2045 20.1474 23.1527 20.0896L23.3097 20.011V20.2468Z" fill="#EDB9EA"/>
<path d="M25.8535 17.1901C27.6823 17.6676 24.1833 16.9617 23.976 20.011C23.1808 18.6673 24.5609 17.4185 25.8535 17.1901Z" fill="#EAD7E6"/>
<path d="M30.1951 20.9528C30.0515 21.7715 29.6843 22.4181 29.0994 22.9906C29.049 23.041 28.6552 23.3658 28.63 23.3822C28.3042 23.5883 28.4108 23.6106 28.3946 23.618C28.3412 23.6432 27.3181 23.925 27.2603 23.9309C25.8684 24.0763 24.5224 23.4815 24.0131 22.1289C24.1078 22.0651 25.2406 23.0025 25.9306 23.0692C28.6448 23.3317 30.8378 19.7588 29.2164 17.8174C27.2988 18.0858 28.8876 18.4003 28.2376 20.2868C27.8156 21.5119 26.0565 22.3158 24.8334 22.1289C24.2766 22.0429 23.4 21.1471 24.0116 21.9331L23.5807 22.2861C23.3571 19.7559 23.2697 23.7574 20.2949 24.011C18.179 24.1905 17.6118 22.6999 17.4786 22.6005C17.3394 22.4967 17.1928 22.6169 17.1262 22.8364C16.833 23.7945 16.6079 24.5197 15.678 25.1085C14.144 26.08 13.063 25.2939 13.331 25.8916C14.4283 25.8279 15.0516 26.2001 15.8735 26.832C15.1198 27.8598 14.8695 29.3815 15.521 30.5161C20.7984 29.4082 19.171 26.6258 19.4331 26.4404C19.9529 26.7296 20.2801 27.4475 20.4889 27.1464C21.6883 28.9795 21.1463 30.8275 19.3932 32.0052C19.0881 31.9503 18.0768 31.9977 17.7495 32.0838C17.6918 31.8465 17.1528 32.0007 16.4583 31.6136C16.3014 31.5261 15.9105 30.9536 15.7535 30.9862C15.6824 31.0011 15.253 31.8049 14.8147 32.0838C14.0314 32.5821 13.3932 32.2039 13.3666 32.5539C10.3429 32.5702 9.85574 35.0456 10.5502 36.198C11.4964 37.7687 15.0516 36.3597 15.0502 33.6515C15.795 34.5057 15.6173 35.323 15.872 35.8465C15.3789 36.597 15.1168 37.432 14.1899 37.8057C12.875 38.3352 12.2234 37.7182 11.412 37.8057C11.0063 36.9618 10.6983 37.2689 11.4905 38.6675C11.4949 38.7713 11.2891 38.7787 11.529 39.059C11.6726 39.2266 12.7002 39.7131 12.9372 39.765C14.0507 40.0067 14.7762 39.3571 14.8547 39.5692C13.8537 40.2248 13.2155 43.2993 14.1114 43.9979C14.9998 44.689 15.2782 43.59 15.598 43.4491C16.251 43.1614 17.5763 43.7888 17.3586 41.3727C17.1795 39.3808 16.1859 39.1806 16.0289 38.8262C18.1168 38.356 18.6957 39.9148 19.2377 38.6689C19.294 38.6689 19.7322 38.5117 19.7856 38.5117C20.4608 38.5117 21.176 38.3026 21.7816 38.8247C21.9504 38.8202 21.6957 38.3886 21.6646 37.4142C21.9445 37.524 21.9904 38.3886 22.5249 39.0991C24.6024 41.8577 28.4804 39.894 27.7682 36.2781C27.6305 35.5766 26.5821 33.3444 26.9864 35.5721C26.5407 38.1306 24.3299 39.277 22.2125 37.4928C23.5925 35.8332 26.166 36.241 26.0461 33.4171C26.3082 33.6218 26.5984 33.7968 26.8279 34.0445C28.1517 35.4742 28.6389 36.944 28.1576 38.9033C28.0969 39.1525 27.9029 39.6315 27.7667 39.8436C26.7569 41.4202 24.3344 41.7316 22.9928 40.471C22.3635 39.8792 22.2687 39.3897 22.0925 39.2948C22.0718 39.2844 21.8704 39.4135 21.6231 39.2948C21.2219 39.1005 20.4593 38.6289 20.098 38.6675C19.8344 38.6956 19.787 38.6096 19.7071 38.9418C19.6597 39.6404 20.024 39.234 20.0195 39.6078C19.0185 39.5855 18.3981 40.8225 18.5329 41.7242C18.1064 41.3045 18.3729 41.0613 17.985 41.2926C17.9983 41.8622 17.6252 42.887 18.2204 43.0561C18.9978 44.7736 21.6528 45.1562 22.6804 43.4877C23.1217 42.7698 23.0224 42.052 23.3067 41.6456C23.4193 42.3546 23.4548 42.9256 23.2283 43.6048C22.8418 44.7662 21.0916 45.5226 19.9425 45.2511C19.9173 45.2452 19.5753 45.0702 19.4731 45.0153C18.9149 44.7187 18.5728 44.1462 18.1819 43.6835C17.5141 44.9916 15.4677 46.1455 14.3083 44.8596C13.451 43.9074 13.0793 41.088 13.9959 40.0394L13.8789 39.9222C8.93917 40.993 6.26644 34.525 10.2407 31.5751C9.35229 31.4015 8.34243 30.5695 7.89377 29.8116C7.13563 28.5316 7.20226 26.9684 7.81529 25.6573C7.71756 26.1378 7.53247 28.192 7.81529 28.4397C8.17066 28.5806 7.92486 28.0867 8.2062 27.3036C8.26247 27.1493 8.36908 26.9862 8.44164 26.8334C9.59217 27.5379 11.7896 26.6228 11.8843 25.2272C11.9288 24.5642 11.3557 23.8716 11.5319 23.7767C13.1741 24.7214 12.6366 25.8664 12.7846 25.9717C13.4495 26.1393 13.2925 25.3162 13.0586 24.7956C15.4825 25.0863 17.1528 23.4697 16.7367 21.0729C17.1898 20.5123 16.8344 21.5416 17.2061 21.4259C17.3527 21.8352 17.329 22.3351 17.7925 22.5234C24.1123 22.3692 22.4376 18.2401 18.8482 19.5453C18.9001 19.4088 19.0141 19.4073 19.1607 19.2323C19.3784 19.1982 19.8018 19.084 19.9425 18.9194C19.9188 19.1122 20.3956 19.0009 21.0768 18.998C21.0975 18.998 21.4469 19.1552 21.4677 19.1552C21.5313 19.1522 21.4988 19.0009 21.5062 18.998C21.6542 18.9594 21.6853 19.1641 21.8186 18.9594C21.7372 18.8066 21.6602 18.688 21.5832 18.5278C22.1488 19.0084 22.6508 19.5467 23.1483 20.0955C23.2001 20.1533 23.2594 20.2023 23.3053 20.2527C23.5155 20.4871 23.5585 20.8326 23.8132 21.0358C28.9232 20.3832 28.2139 16.2912 25.3383 16.8815C25.3457 16.8444 25.4849 16.7288 25.4953 16.7243C27.358 15.9931 30.8674 17.1129 30.1907 20.9572L30.1951 20.9528Z" fill="#70226B"/>
<path d="M10.2038 32.7868C10.4259 32.9302 10.6475 33.074 10.8686 33.2184C9.86468 33.9793 10.2437 35.5558 9.53891 34.7075C9.46044 34.0074 9.68847 33.3 10.2038 32.7868Z" fill="#EAD7E6"/>
<path d="M11.4164 37.8028C11.6193 38.224 11.4786 38.3011 11.4949 38.6645C10.7027 37.2659 11.0107 36.9588 11.4164 37.8028Z" fill="#CD7DA1"/>
<path d="M12.8632 26.0473C14.5408 25.8249 16.1445 27.7144 14.1159 29.1041C12.8484 29.9732 11.7511 29.2776 10.9071 30.829C9.94168 29.2079 11.1811 26.2713 12.8632 26.0473Z" fill="#923E82"/>
<path d="M13.3341 26.5946C13.4806 26.599 13.9663 26.6806 13.9204 26.869C13.876 27.0514 12.2901 26.9669 11.378 29.4155C10.611 28.3165 12.1021 26.559 13.3341 26.5946Z" fill="#EAD7E6"/>
<path d="M33.4039 29.5743C33.1433 30.5799 32.3896 31.2399 31.7603 32.0037C31.3457 31.9563 28.7514 33.61 27.1433 30.8276C27.1641 30.7772 27.0012 30.8661 27.2218 30.3574C31.9957 35.1524 35.6472 25.7997 30.9784 25.6158C32.0209 27.888 30.2514 29.8131 27.9266 28.634C27.9311 28.6029 27.9266 28.1283 27.9266 28.0066C27.9266 27.0159 27.8896 26.4998 27.3003 25.6559C27.5476 25.4616 28.3338 24.8253 28.396 24.7942C28.4582 24.763 28.6922 24.6429 28.7085 24.6369C31.8476 23.4667 34.1531 26.6748 33.4039 29.5743Z" fill="#70226B"/>
<path d="M27.2218 30.3574C27.4365 29.865 27.7993 29.5328 27.9266 28.6325C30.2499 29.8116 32.0209 27.888 30.9784 25.6143C35.6487 25.7997 31.9957 35.151 27.2218 30.3559V30.3574Z" fill="#70226B"/>
<path d="M27.9266 28.0067C27.9266 28.1283 27.9311 28.6029 27.9266 28.6341C27.7993 29.5343 27.4365 29.8651 27.2218 30.359C27.0012 30.8677 27.164 30.7787 27.1433 30.8291C27.0248 31.1169 27.0678 31.1228 26.8309 31.3779C26.3689 31.2474 26.7687 30.9834 26.6354 30.9077C26.4622 30.8084 25.2183 32.112 23.2312 30.7505C25.0392 31.7516 27.5624 28.8803 27.3003 26.4405C27.5698 26.9566 27.6823 27.4891 27.9266 28.0082V28.0067Z" fill="#70226B"/>
<path d="M27.3003 26.439C27.5624 28.8802 25.0392 31.7501 23.2312 30.749C22.6878 30.3767 22.4361 30.0727 22.1355 29.4943C24.7253 29.6634 27.5594 27.7204 25.9306 24.9484C26.5792 25.3504 26.9509 25.7686 27.3003 26.4375V26.439Z" fill="#70226B"/>
<path d="M27.3003 25.6546C27.8881 26.5 27.9266 27.0146 27.9266 28.0053C27.6823 27.4862 27.5713 26.9538 27.3003 26.4377C26.9508 25.7688 26.5792 25.3505 25.9306 24.9486C27.5594 27.7206 24.7253 29.6635 22.1355 29.4944C20.2224 25.8177 25.1029 22.4999 27.3003 25.6546Z" fill="#923E82"/>
<path d="M24.1315 24.9499C26.1453 24.6547 23.0594 25.377 22.4879 27.6937C21.7105 26.6199 23.0328 25.1115 24.1315 24.9499Z" fill="#EAD7E6"/>
</svg>
